<svg xmlns="http://www.w3.org/2000/svg" xmlns:xlink="http://www.w3.org/1999/xlink" width="36.806" height="16.21" viewBox="0 0 36.806 16.21">
  <defs>
    <clipPath id="clip-path">
      <rect id="Rectangle_33" data-name="Rectangle 33" width="36.806" height="16.21" transform="translate(0 0)" fill="#fff"/>
    </clipPath>
  </defs>
  <g id="Group_93" data-name="Group 93" transform="translate(0 0)">
    <g id="Group_66" data-name="Group 66" transform="translate(0 0)" clip-path="url(#clip-path)">
      <path id="Path_206" data-name="Path 206" d="M31.7,10.564c0,.042-.028.058-.069.049a.26.26,0,0,0-.053,0,.13.13,0,0,0-.11.033.089.089,0,0,1-.055.024.32.32,0,0,0-.2.121.147.147,0,0,1-.068.048.136.136,0,0,0-.056.039.555.555,0,0,1-.2.138c-.007,0-.014.01-.021.009a.174.174,0,0,0-.145.042c-.012.013-.034,0-.05-.007a.069.069,0,0,0-.08.007.514.514,0,0,0-.133.115.141.141,0,0,1-.151.068c-.011,0-.026,0-.028,0-.013.044-.055.055-.083.081a.064.064,0,0,0-.009.066.075.075,0,0,1-.034.086c-.02.016-.039.034-.058.051a.065.065,0,0,1-.055.019c-.047,0-.061.008-.072.049-.031.107-.054.127-.165.132a.137.137,0,0,0-.078.027.119.119,0,0,1-.1.031c-.03-.005-.04.018-.033.046s.013.038.019.058,0,.045-.031.048a.115.115,0,0,1-.052-.007.07.07,0,0,0-.1.024c-.011.014-.034.015-.038.036s.013.013.022.017c.037.017.041.028.017.054a1.356,1.356,0,0,1-.164.133c-.069.054-.169.067-.215.152a.035.035,0,0,1-.033.017c-.014,0-.029,0-.029.018,0,.043-.036.046-.064.062a1.084,1.084,0,0,0-.186.12.089.089,0,0,1-.071.02.111.111,0,0,0-.088.045,2.713,2.713,0,0,1-.232.254c-.011.01-.022.023-.038.024a.166.166,0,0,0-.12.077.284.284,0,0,1-.147.079.235.235,0,0,0-.122.088.277.277,0,0,1-.236.136c-.016,0-.035,0-.035.022,0,.035-.03.044-.044.066-.023.038-.037.043-.066,0s-.083-.012-.11.019a.138.138,0,0,0-.046.087.041.041,0,0,1-.048.046.051.051,0,0,0-.045.025.351.351,0,0,1-.233.133.2.2,0,0,0-.089.044c-.039.028-.051.026-.078-.015a.069.069,0,0,0-.071-.03.532.532,0,0,0-.161.048.036.036,0,0,0-.021.056c.007.014.018.032.006.043a.064.064,0,0,0-.013.094c.008.012,0,.022-.013.03-.049.037-.094.078-.144.113-.019.014-.025.037-.052.05-.031-.036-.078-.062-.059-.126.006-.018-.013-.032-.029-.041a.036.036,0,0,0-.049.008,1,1,0,0,0-.078.1c-.014.02-.009.042.02.042a.114.114,0,0,1,.071.026c.036.027.038.061,0,.078-.06.027-.109.075-.17.1-.009,0-.018.012-.028.013a.186.186,0,0,0-.135.084c-.021.024-.042.044-.078.017a.055.055,0,0,0-.076.007.077.077,0,0,1-.112,0c-.018-.016-.033-.012-.055,0a.141.141,0,0,0-.091.153.134.134,0,0,1-.091.135.318.318,0,0,1-.213.052c-.024-.007-.025.02-.034.033s-.042.034-.062.006a.066.066,0,0,0-.089-.018.035.035,0,0,0-.018.06.12.12,0,0,0,.091.051.1.1,0,0,1,.037.009.028.028,0,0,1,.01.04.135.135,0,0,1-.123.058c-.03-.012-.042.022-.056.017s-.031-.033-.049-.047a.022.022,0,0,0-.037.008.212.212,0,0,0-.008.029c-.007.029-.022.028-.045.017-.069-.03-.079-.029-.125.026a.2.2,0,0,1-.13.074c-.048.007-.092.035-.143.021a.031.031,0,0,0-.034.027c0,.022.013.022.029.023a.1.1,0,0,1,.078.058c.022.046.05.054.092.033.012-.006.027-.007.035.005s0,.023-.011.032a.155.155,0,0,1-.059.036c-.037.014-.078.015-.1.054-.01.016-.037.016-.057,0s-.012-.028,0-.046c.015-.042,0-.055-.045-.047a.421.421,0,0,0-.2.093.188.188,0,0,1-.167.058.055.055,0,0,0-.064.03.067.067,0,0,1-.074.043.045.045,0,0,0-.049.04.326.326,0,0,0,.212-.011.136.136,0,0,1,.061-.007.553.553,0,0,1,.134.031.172.172,0,0,1-.1.044.2.2,0,0,0-.118.05.239.239,0,0,1-.061.028c-.081.046-.159.008-.238,0a.058.058,0,0,0-.073.048c-.006.02-.014.039-.021.058a.06.06,0,0,1-.061.048.077.077,0,0,0-.063.024.9.9,0,0,1-.263.169.519.519,0,0,1-.258.088c-.027,0-.039.023-.057.037a.033.033,0,0,1-.022,0c-.011,0-.013-.014-.012-.024l0-.007c0-.027.028-.054,0-.08s-.047-.018-.071-.025a.24.24,0,0,1-.037-.012c-.013-.006-.02-.018-.009-.031a.093.093,0,0,1,.016-.016c.036-.041.037-.057,0-.091a.072.072,0,0,0-.1-.013c-.008.006-.014.015-.021.022a.07.07,0,0,1-.107-.018c-.008-.012-.009-.038-.024-.036-.054,0-.084-.04-.127-.054a.163.163,0,0,1-.1-.07.176.176,0,0,0-.032-.032c-.006,0-.019-.012-.018-.013.025-.052-.033-.11.011-.161a.13.13,0,0,0,.022-.116.378.378,0,0,1,.022-.189,1.5,1.5,0,0,1,.128-.3.243.243,0,0,0,.03-.062.19.19,0,0,1,.094-.116.113.113,0,0,0,.061-.067.466.466,0,0,1,.1-.155c.006-.008.017-.014.02-.023.031-.084.107-.129.165-.189a.125.125,0,0,0,.045-.122c-.012-.049,0-.069.055-.083a.277.277,0,0,1,.122,0,.221.221,0,0,0,.161-.036c.229-.136.462-.266.681-.421.268-.19.539-.377.815-.555.166-.107.33-.218.495-.327.112-.073.227-.14.337-.216.166-.116.337-.227.5-.339q.4-.266.79-.537l.253-.175c.287-.2.57-.4.864-.593.212-.136.412-.289.63-.415.068-.039.128-.093.195-.138s.149-.092.221-.139c.3-.194.59-.392.885-.588.25-.167.493-.343.743-.508a.3.3,0,0,0,.069-.078c.02-.025.07-.007.1-.035.011-.011.027-.019.025-.035s-.02-.022-.034-.028a.283.283,0,0,1-.093-.034c-.006,0-.017-.009-.022-.006-.067.026-.115-.013-.166-.045s-.08,0-.119-.02c-.012-.005-.042.016-.057.033a.115.115,0,0,1-.128.038.23.23,0,0,0-.156.024.24.24,0,0,1-.246-.039c-.01-.009-.006-.019,0-.025a.046.046,0,0,1,.051-.007c.045.025.064,0,.077-.037a.217.217,0,0,1,.032-.051.205.205,0,0,0-.191-.01.461.461,0,0,0-.068.036.231.231,0,0,1-.2.049c-.053-.008-.108-.02-.152.027,0,0-.01.007-.014.006-.074-.03-.152.03-.233-.015l.134-.07c.018-.01.035,0,.052,0a.139.139,0,0,0,.1-.005c.014-.005.03-.014.027-.033a.03.03,0,0,0-.026-.024.48.48,0,0,0-.209-.035A.281.281,0,0,1,29.12,8.7a.115.115,0,0,0-.1,0,.2.2,0,0,1-.137.007L28.813,8.7c-.012,0-.028-.008-.038,0-.059.028-.131.037-.174.092a.07.07,0,0,1-.079.033.133.133,0,0,0-.136.024.031.031,0,0,1-.042.006.043.043,0,0,1-.012-.049l0-.007c.006-.018.038-.031.017-.052s-.048-.006-.072,0a.071.071,0,0,0-.041.032c-.053.1-.139.095-.231.075l-.037-.01-.007-.007c-.005-.025.019-.038.026-.06s0-.049-.028-.05a.208.208,0,0,0-.166.043.12.12,0,0,1-.07.042s-.006,0-.007,0c-.039.078-.133.043-.186.092a.025.025,0,0,1-.014.006c-.03.007-.066.021-.085-.01s.015-.049.033-.07.044-.024.024-.046-.042,0-.054.019a.057.057,0,0,1-.068.022.259.259,0,0,0-.159.007.251.251,0,0,1-.076,0,2.134,2.134,0,0,1-.329,0,.079.079,0,0,0-.037.008.271.271,0,0,1-.114.013.1.1,0,0,0-.091.029.07.07,0,0,1-.072.019.662.662,0,0,0-.176-.009,1.086,1.086,0,0,1-.192-.017.155.155,0,0,0-.106.008.141.141,0,0,1-.1,0,.424.424,0,0,0-.271.011.207.207,0,0,1-.224-.034.084.084,0,0,0-.076-.015c-.125.016-.246.048-.37.07a.484.484,0,0,1-.137-.006.107.107,0,0,1-.073-.052.032.032,0,0,0-.052-.01.1.1,0,0,1-.025.017c-.038.016-.1.01-.108-.013-.014-.039.018-.067.031-.1s.026-.014.04-.007a.548.548,0,0,1,.09.044c.03.02.055.025.08-.006l.006-.005c.081-.067.094-.065.15.026.012.02.022.044.049.042s.041-.026.049-.052c0-.009.006-.019.008-.026s.014,0,.018,0c.1.031.1.033.142-.056a.13.13,0,0,1,.089-.066c.037-.01.076-.01.114-.017a.1.1,0,0,1,.091.026.143.143,0,0,0,.12.029c.088-.006.17-.036.256-.047a.19.19,0,0,1,.164.045.058.058,0,0,0,.067.012c.079-.023.159-.038.239-.055a.069.069,0,0,1,.038,0,1.026,1.026,0,0,0,.341.025.3.3,0,0,0,.111-.024.076.076,0,0,1,.086.008.091.091,0,0,0,.1.011.075.075,0,0,1,.051-.01.479.479,0,0,0,.274-.028l.119-.031a.1.1,0,0,1,.083.03c.047.036.049.037.1,0a.061.061,0,0,1,.083-.006.062.062,0,0,0,.1-.009.075.075,0,0,1,.06-.025.284.284,0,0,0,.17-.059.181.181,0,0,1,.077-.036.286.286,0,0,0,.137-.063.06.06,0,0,1,.051-.016c.057.012.115,0,.172,0,.024,0,.034,0,.039-.023.012-.045-.011-.09,0-.136.006-.019-.046-.042-.068-.027a.274.274,0,0,1-.108.039.067.067,0,0,0-.042.03.423.423,0,0,1-.122.09.142.142,0,0,1-.018-.02c-.024-.05-.025-.051-.059-.012a.047.047,0,0,1-.039.02l-.077,0a.061.061,0,0,1-.067-.058.088.088,0,0,0-.047-.074c-.028-.016-.048-.028-.066.011s-.038.03-.066.023a.12.12,0,0,0-.045,0c-.022,0-.039.016-.037.041s.023.032.045.026a.549.549,0,0,1,.121-.021c.051,0,.058,0,.063.053,0,.011,0,.021-.007.028a.023.023,0,0,1-.034,0c-.034-.047-.066-.025-.106-.008a.907.907,0,0,0-.174.1.171.171,0,0,0-.045.04.109.109,0,0,1-.122.042.352.352,0,0,0-.189-.013.038.038,0,0,1-.029,0c-.05-.042-.083-.01-.118.022a.062.062,0,0,1-.1,0,.075.075,0,0,0-.085-.011.562.562,0,0,1-.145.01.063.063,0,0,1-.049-.017.026.026,0,0,1-.009-.028.019.019,0,0,1,.024-.014.493.493,0,0,0,.3-.053.316.316,0,0,1,.075-.013c.04-.009.082-.016.081-.074,0-.033.032-.035.055-.042a.034.034,0,0,0,.025-.027c0-.016-.013-.02-.023-.027a.089.089,0,0,0-.107-.008.064.064,0,0,1-.02.011c-.021.009-.046.02-.065,0s.006-.032.006-.05a.047.047,0,0,0-.006-.015c-.038,0-.043.027-.057.051a.062.062,0,0,1-.1.023s-.011-.006-.012-.009c-.006-.077-.054-.05-.1-.039a.054.054,0,0,1-.037-.007.323.323,0,0,0-.254.009.993.993,0,0,0-.127.055.073.073,0,0,0-.048.057c0,.039-.016.044-.052.04a.308.308,0,0,0-.159.016A.083.083,0,0,1,26.1,8.4a1.1,1.1,0,0,0-.177.008c-.051.005-.053,0-.094-.05.009-.022.039-.022.05-.043s.014-.028,0-.043a.027.027,0,0,0-.034-.008.138.138,0,0,1-.118-.007c-.017-.01-.034.006-.052.008-.036,0-.074.029-.1-.016-.007-.011-.023-.006-.033.006s-.03.025-.034.041a.089.089,0,0,1-.081.071c0,.031.057,0,.039.044s-.035.032-.063.016c-.01-.005-.029-.011-.037-.005-.056.038-.12,0-.175.028-.013-.028.008-.031.02-.034s.046,0,.068-.006.022-.005.019-.019a.017.017,0,0,0-.024-.011.259.259,0,0,1-.121,0,.025.025,0,0,1-.027-.022c0-.015.009-.023.021-.029a.1.1,0,0,1,.074-.014.215.215,0,0,1,.081.021.043.043,0,0,0,.062-.011.042.042,0,0,0-.009-.056c-.018-.019-.045-.035-.068-.013-.04.039-.075.049-.121.011-.016-.014-.088.008-.1.024a.035.035,0,0,0,.005.049c.027.029.007.041-.018.049a.151.151,0,0,1-.119-.015.118.118,0,0,0-.149.012.144.144,0,0,1-.041.02c-.061.026-.061.026-.116-.029a.2.2,0,0,1,.194-.079.176.176,0,0,0,.067-.007c.016,0,.041,0,.036-.027s-.023-.024-.041-.029a.09.09,0,0,0-.059.012c-.054.02-.064.018-.094-.03a.056.056,0,0,0-.065-.027.266.266,0,0,1-.144-.01c-.023-.008-.039,0-.058.013a.124.124,0,0,1-.1-.007.025.025,0,0,1-.018-.023c0-.012.008-.018.018-.022s.053-.005.043-.03-.044-.011-.066,0l-.047.028a.163.163,0,0,1-.112.025c-.028,0-.049,0-.062.031a.11.11,0,0,1-.091.065.121.121,0,0,0-.057.02.084.084,0,0,1-.086.017.022.022,0,0,0-.032.012.024.024,0,0,0,.011.027.067.067,0,0,1,.033.057c0,.015,0,.032-.019.038s-.03,0-.036-.02c-.013-.035-.035-.036-.067-.029a.43.43,0,0,0-.11.03c-.037.018-.082.006-.12.035-.016.013-.038-.012-.033-.035a.045.045,0,0,1,.044-.037.941.941,0,0,1,.13-.01c.059.006.071-.005.074-.066a.186.186,0,0,1,.041-.1.074.074,0,0,0-.076-.011.173.173,0,0,1-.143-.025.051.051,0,0,0-.05-.007.151.151,0,0,1-.082.014.043.043,0,0,0-.042.015.11.11,0,0,1-.118.034c-.079-.014-.135.036-.194.076-.008.006-.01.022-.014.035-.021.059-.027.061-.09.051a.143.143,0,0,0-.045,0c-.019,0-.037,0-.044-.021a.046.046,0,0,1,.026-.058.132.132,0,0,0,.048-.022.026.026,0,0,0,0-.034.021.021,0,0,0-.027-.008c-.017.006-.034.014-.051.019a.044.044,0,0,1-.051-.008c-.031-.04-.072-.031-.113-.027a.088.088,0,0,0-.031.005c-.024.008-.065-.01-.071.028s.034.04.053.058.059.029.079.058a.034.034,0,0,1-.042.009,2.139,2.139,0,0,0-.238-.017.061.061,0,0,0-.056.018.055.055,0,0,1-.061.016c.014-.047-.037-.077-.032-.126,0-.021-.051-.03-.072-.011a.251.251,0,0,0-.027.036c-.013.017-.025.037-.045.04a.251.251,0,0,0-.143.048c-.013.012-.029,0-.037-.017a.029.029,0,0,1,.006-.041c.017-.016.044-.015.06-.034,0-.019-.016-.021-.028-.017-.051.014-.11,0-.154.038-.009.009-.023.005-.036,0s-.024-.019-.034-.016c-.094.024-.191-.018-.284.016a.041.041,0,0,0-.019.011c-.031.038-.061.022-.094-.01a.1.1,0,0,1-.108.091.166.166,0,0,0-.052.011.042.042,0,0,1-.053-.02c-.018-.037-.05-.031-.079-.018a.814.814,0,0,1-.285.046.04.04,0,0,1-.022,0c-.068-.054-.142-.026-.215-.016a.075.075,0,0,0-.04.02c-.009.007-.021.012-.029,0-.034-.035-.074,0-.109-.011-.019-.006-.027.006-.038.015a.113.113,0,0,1-.151.017.116.116,0,0,0-.162.024.1.1,0,0,1-.091.029,2.5,2.5,0,0,1-.32-.026.09.09,0,0,0-.068.008.148.148,0,0,1-.119,0c-.071-.028-.09-.022-.144.039-.015.018-.015.018-.068.03-.016-.009,0-.021,0-.033s-.007-.031-.024-.029a1.5,1.5,0,0,0-.2.01.286.286,0,0,1-.171-.018.137.137,0,0,0-.145,0,.057.057,0,0,1-.071,0,.1.1,0,0,0-.131.008c-.035.032-.039.031-.077-.007-.018-.018-.029-.006-.046,0-.041.014-.085.038-.119-.015a.031.031,0,0,0-.048,0c-.022.025-.04.014-.064.007a.093.093,0,0,0-.1.023.133.133,0,0,1-.166,0,.1.1,0,0,0-.122.011c-.044.042-.049.042-.071-.012a.043.043,0,0,0-.051-.032,1.293,1.293,0,0,0-.271.052c-.02.005-.041.019-.06.01-.075-.042-.155-.005-.233-.02-.027,0-.056,0-.084-.006a.572.572,0,0,0-.2.019.326.326,0,0,1-.1.01.066.066,0,0,0-.045.006.211.211,0,0,1-.217-.02c-.009,0-.02-.014-.028-.009-.046.033-.1,0-.149.022a.076.076,0,0,1-.1-.021c-.016-.022-.038-.012-.057,0a.714.714,0,0,0-.09.044.223.223,0,0,1-.169.032.646.646,0,0,0-.22.022.082.082,0,0,1-.068-.014.2.2,0,0,0-.162,0,.216.216,0,0,1-.074.011.121.121,0,0,0-.1.021c-.024.019-.069.006-.1.016-.014,0-.022-.012-.026-.024a.052.052,0,0,0-.066-.037.939.939,0,0,0-.217.039.744.744,0,0,1-.271.046.082.082,0,0,0-.058.015c-.062.055-.138.021-.207.031-.017,0-.026-.015-.037-.026a.317.317,0,0,0-.175-.071c-.013,0-.029,0-.035.008-.02.039-.04.029-.076.015a.181.181,0,0,0-.157.012.194.194,0,0,1-.163.007.142.142,0,0,0-.081,0c-.058.012-.12-.006-.173.03-.068-.036-.135,0-.2,0a.108.108,0,0,0-.06.015.077.077,0,0,1-.073.009.132.132,0,0,0-.1.011.108.108,0,0,1-.128-.009.223.223,0,0,0-.122.011c-.013.009-.022.022-.035.03-.028.017-.046.011-.061-.019s-.016-.036-.026-.057c.035-.025.078-.018.114-.041a2.043,2.043,0,0,0-.247-.033c-.051,0-.058.007-.05.056,0,.015.015.028.008.043-.093.017-.093.017-.114.116-.016.076-.015.08.06.059s.132,0,.2-.023c.038-.011.081-.012.12-.023a.224.224,0,0,1,.1-.01.171.171,0,0,0,.132-.025.2.2,0,0,1,.117-.024.321.321,0,0,0,.17-.021,1.289,1.289,0,0,1,.179-.042c.037-.011.051.014.046.071a.577.577,0,0,0,.236.034A.054.054,0,0,0,13.7,8.8a.125.125,0,0,1,.081-.021.245.245,0,0,0,.145-.042.092.092,0,0,1,.106-.008.1.1,0,0,0,.136-.018c.006-.007.018-.01.027-.014s.04,0,.039.022c0,.046.027.06.066.07s.081.032.123.043.068.022.058-.036c0-.013.013-.021.019-.014.069.071.14.011.208,0,.03,0,.056-.02.088-.005s.055,0,.082-.008a.094.094,0,0,1,.093.012c.043.033.1.011.15.016.031,0,.051-.023.069-.045a.153.153,0,0,1,.137-.054.288.288,0,0,0,.171-.029c.017-.01.03,0,.035.015a.117.117,0,0,0,.031.053c.013.013.027.026.048.019.064-.023.132,0,.2-.013a.171.171,0,0,0,.071-.022.044.044,0,0,1,.072.014c.037.075.11.064.161.05a.725.725,0,0,1,.189-.008c.015,0,.032.009.045,0a.417.417,0,0,1,.226-.051.127.127,0,0,0,.044-.014.064.064,0,0,1,.088.02c.019.027.036.021.057,0a.072.072,0,0,1,.092,0,.086.086,0,0,0,.081,0,.717.717,0,0,0,.1-.032.716.716,0,0,1,.22-.031.347.347,0,0,1,.174.017.169.169,0,0,0,.126-.014.188.188,0,0,1,.171,0,.184.184,0,0,0,.169,0,.463.463,0,0,1,.15-.025,1.913,1.913,0,0,1,.42-.02.638.638,0,0,0,.15-.006.287.287,0,0,1,.114.007.535.535,0,0,0,.295-.019.954.954,0,0,0,.186-.043.024.024,0,0,1,.028.011c0,.031-.043.028-.043.058s.029.018.047.018a.172.172,0,0,1,.093.031.182.182,0,0,0,.149.011c.115-.025.231-.044.349-.063a.107.107,0,0,1,.1.022.117.117,0,0,0,.079.027.47.47,0,0,0,.257-.027c.013-.007.029-.015.041,0a.04.04,0,0,1,0,.05.436.436,0,0,0-.062.1.031.031,0,0,1-.04.013.045.045,0,0,1-.014-.007c-.039-.036-.071,0-.107.008s-.054-.057-.1-.037-.1.007-.152.034a.339.339,0,0,0-.091.066c-.031.036-.049.085-.1.105,0,0,0,0,0,.006-.026.1-.107.071-.173.081-.01,0-.022,0-.03,0-.07.032-.129-.009-.189-.032a.672.672,0,0,0-.08-.027c.016-.021.035-.046.062-.037.043.014.068-.013.1-.032a.284.284,0,0,1,.16-.065c.008,0,.02,0,.021-.015a.519.519,0,0,0-.233-.021.374.374,0,0,0-.113,0,.156.156,0,0,1-.1,0,.167.167,0,0,0-.144.068.133.133,0,0,0,.033.118.039.039,0,0,0,.036,0,.093.093,0,0,0,.062-.052.616.616,0,0,1,.037-.067c.008-.014.021-.024.038-.014a.03.03,0,0,1,.008.041c-.009.023-.037.037-.031.071.022.009.049-.01.073,0-.012.056-.036.081-.093.074a.208.208,0,0,0-.138.027.325.325,0,0,1-.134.029c-.015,0-.032,0-.039-.017s.007-.023.015-.033.037-.021.036-.052a.667.667,0,0,1-.133,0c-.051-.014-.052-.011-.053-.068,0-.032-.014-.043-.043-.028a.091.091,0,0,1-.133-.024.028.028,0,0,0-.041,0,.147.147,0,0,0-.038.026.125.125,0,0,1-.134.044.112.112,0,0,0-.124.066.082.082,0,0,1-.08.049.974.974,0,0,0-.115,0c-.034.007-.031-.024-.035-.046-.009-.041-.011-.043-.047-.019s-.076.025-.093.072c-.008.022-.044.024-.062.014-.052-.03-.1-.007-.148,0a.17.17,0,0,1-.052.007c-.079-.013-.092-.032-.066-.109a.072.072,0,0,1,.007-.013c.006-.013.01-.025,0-.035a.032.032,0,0,0-.037,0,.721.721,0,0,0-.069.06c-.009.008,0,.019,0,.027s.014.02,0,.029a.187.187,0,0,1-.207.006.189.189,0,0,0-.067-.024.181.181,0,0,1,.09-.025.325.325,0,0,0,.141-.032A.023.023,0,0,0,17.293,9a.023.023,0,0,0-.028-.02.411.411,0,0,0-.069.01A.659.659,0,0,1,17.015,9a.7.7,0,0,0-.2.007c-.049.012-.1.021-.148.035a.661.661,0,0,1-.258-.027c-.02,0-.022-.036-.051-.041-.027.056-.081.055-.138.065a.178.178,0,0,0-.144.086A.118.118,0,0,1,16,9.186a1.322,1.322,0,0,1-.266.03A.031.031,0,0,1,15.7,9.2a.029.029,0,0,1,.018-.037.217.217,0,0,0,.075-.054.073.073,0,0,1,.063-.022.492.492,0,0,0,.085,0,.423.423,0,0,0,.177-.045.208.208,0,0,1,.109-.033.068.068,0,0,0,.06-.041.224.224,0,0,0-.116-.019c-.043.01-.087,0-.131.006A.179.179,0,0,0,15.929,9a.059.059,0,0,1-.065.013.171.171,0,0,0-.076,0c-.024,0-.056.007-.044-.037a.014.014,0,0,0-.007-.012c-.056-.014-.11-.046-.17-.01a.091.091,0,0,1-.108.005.046.046,0,0,0-.045,0,.1.1,0,0,1-.082,0,.05.05,0,0,0-.075.03c-.008.022-.03.033-.053.045-.02-.024.014-.045,0-.07a.718.718,0,0,1-.277.009.166.166,0,0,0-.1.014.1.1,0,0,1-.06.007.931.931,0,0,1-.22-.015c-.034-.012-.079.008-.12.014-.013,0-.027.013-.036.009A.346.346,0,0,0,14.18,9c-.018,0-.035-.007-.052-.011A.682.682,0,0,0,13.86,9c0,.029.019.024.031.023a.043.043,0,0,1,.054.031.042.042,0,0,1-.028.055.051.051,0,0,0-.037.06.233.233,0,0,0,.035.131.024.024,0,0,0,.021,0,.032.032,0,0,0,.012-.019.03.03,0,0,0-.011-.027c-.019-.019-.023-.04,0-.059a.082.082,0,0,1,.08,0c.008.008,0,.018,0,.028-.007.07.018.095.085.086a.126.126,0,0,0,.049-.019.158.158,0,0,1,.117-.014,2.661,2.661,0,0,1,.333.082c.016,0,.042,0,.041.023a.04.04,0,0,1-.048.039.4.4,0,0,0-.225.026.107.107,0,0,1-.053.007,1.3,1.3,0,0,0-.306.009.481.481,0,0,1-.2-.038.091.091,0,0,0-.1.007.247.247,0,0,1-.205.041c-.02-.006-.041-.012-.044-.036s.013-.032.027-.044.059-.036.045-.071-.052-.029-.082-.029a1.562,1.562,0,0,1-.25-.037c-.021,0-.041-.011-.057.007a.068.068,0,0,1-.077.015.174.174,0,0,0-.12.009.125.125,0,0,1-.061.006c-.022,0-.042,0-.048.028s-.038.043-.069.051-.057,0-.085.028c.057,0,.107.028.16.007a.041.041,0,0,1,.03,0c.1.052.208,0,.311.016a.123.123,0,0,0,.051-.016.23.23,0,0,1,.083-.01.03.03,0,0,1,.029.022.029.029,0,0,1-.018.037.238.238,0,0,1-.073.024,1.617,1.617,0,0,1-.244.008c-.06-.005-.118-.034-.18-.036-.016,0-.032-.006-.045,0a.3.3,0,0,1-.268.018.149.149,0,0,0-.112.007.448.448,0,0,1-.05.021c-.029.008-.045-.007-.034-.036s-.009-.049-.033-.056a.183.183,0,0,0-.155.019c-.043.027-.087.055-.127.086a.08.08,0,0,1-.086.015.136.136,0,0,0-.137.017.152.152,0,0,1-.144.023.1.1,0,0,0-.122.02.037.037,0,0,1-.043.008c-.036-.014-.072-.027-.107-.043s-.027-.026-.009-.041a.239.239,0,0,0,.073-.067.387.387,0,0,1,.059-.068.331.331,0,0,1-.219-.014c-.033-.016-.058,0-.079.03-.046.057-.051.057-.113.022a.116.116,0,0,0-.081-.019,1.47,1.47,0,0,0-.205.029c-.019.006-.04,0-.056.02a.064.064,0,0,1-.051.015,3.4,3.4,0,0,0-.35.013.321.321,0,0,1-.175-.045.139.139,0,0,0-.17-.006.136.136,0,0,1-.129.021.155.155,0,0,0-.126.022.111.111,0,0,1-.141,0,.131.131,0,0,0-.115-.023.277.277,0,0,1-.219-.031s-.012-.006-.015,0c-.038.031-.075-.007-.114,0A.4.4,0,0,1,9,9.388a.677.677,0,0,0-.123,0,.649.649,0,0,1-.144-.022c-.079-.018-.088-.034-.056-.111.032.006.061.007.075-.03a.029.029,0,0,0-.006-.035A.028.028,0,0,0,8.7,9.2a.128.128,0,0,0-.027.062c-.041.006-.088-.009-.125.025a.034.034,0,0,1-.029,0,.17.17,0,0,0-.1-.006.093.093,0,0,1-.088-.048c.018-.031.05-.01.076-.028,0-.026-.034-.047-.026-.08a.408.408,0,0,1,.032-.078c.02-.044.008-.06-.041-.064a.076.076,0,0,0-.079.036.215.215,0,0,0-.051.163.185.185,0,0,1,0,.038c0,.061-.045.092-.09.054A.153.153,0,0,0,8,9.245a.228.228,0,0,0-.143.063.106.106,0,0,1-.1.035c-.113-.014-.226.01-.338,0-.129-.011-.25.048-.379.036-.03,0-.06,0-.092,0a.2.2,0,0,0-.084,0,.628.628,0,0,1-.2.013,1.5,1.5,0,0,0-.267.024.619.619,0,0,1-.289,0,.509.509,0,0,0-.19,0c-.013,0-.026.008-.038,0a.511.511,0,0,0-.3.04.553.553,0,0,1-.207,0c-.043,0-.086,0-.13,0a.675.675,0,0,1-.154,0,.223.223,0,0,0-.153.042.279.279,0,0,1-.2.04,2.242,2.242,0,0,0-.277-.006.768.768,0,0,0-.191.006.125.125,0,0,1-.053-.006.156.156,0,0,0-.1,0,.048.048,0,0,1-.037,0c-.078-.061-.151,0-.224.011a2.9,2.9,0,0,1-.324.054.1.1,0,0,0-.031,0,1.106,1.106,0,0,1-.415.05.181.181,0,0,0-.068.008.111.111,0,0,1-.1,0,.079.079,0,0,0-.074.006.16.16,0,0,1-.128,0,.1.1,0,0,0-.089.005.186.186,0,0,1-.135.01.394.394,0,0,0-.24.007.418.418,0,0,1-.242.016.35.35,0,0,0-.188.025.813.813,0,0,1-.386.034.317.317,0,0,0-.174.02.163.163,0,0,1-.148-.012A.347.347,0,0,0,1,9.726a.369.369,0,0,1-.151-.052A.316.316,0,0,0,.67,9.626a.433.433,0,0,1-.263-.069.212.212,0,0,0-.192-.022l-.037.011c-.056.016-.065.009-.066-.052,0-.087,0-.174-.007-.261A.311.311,0,0,0,.076,9.1a.759.759,0,0,1-.063-.443.554.554,0,0,0-.006-.169A.631.631,0,0,1,0,8.334C.011,8.187.029,8.042.05,7.9a2.988,2.988,0,0,1,.087-.327,1.988,1.988,0,0,0,.057-.294c0-.01,0-.022,0-.03.045-.067.041-.153.088-.22a.2.2,0,0,0,.025-.065c.033-.113.064-.227.1-.34A.09.09,0,0,1,.414,6.6a.472.472,0,0,0,.066-.28A.81.81,0,0,1,.495,6.19a.1.1,0,0,1,.143-.075.634.634,0,0,0,.2.037c.125.007.251.007.377.009s.267,0,.4.009a1.221,1.221,0,0,0,.138-.007c.193,0,.385.011.578.009a2.46,2.46,0,0,1,.437.027A.183.183,0,0,0,2.9,6.192a.148.148,0,0,1,.061-.007c.152-.015.3.019.452.015.092,0,.183.008.277,0,.072,0,.147.01.222.009A.712.712,0,0,0,4.064,6.2a.066.066,0,0,1,.066.009s0,.005.006,0c.109-.012.22.068.328,0A.062.062,0,0,1,4.514,6.2a.222.222,0,0,0,.137-.012c.012,0,.027-.007.026.013,0,.045.023.041.048.025s.039-.034.064,0c.006.007.019,0,.027-.007a.077.077,0,0,1,.1,0c.008.006.023.012.028.009.056-.042.106,0,.159.007a.837.837,0,0,1,.162,0c.023,0,.047.007.063-.018s.036-.024.06-.02a.18.18,0,0,1,.03.005,1.189,1.189,0,0,0,.51.026c.079-.009.158,0,.238-.017.036-.006.078.02.12.019.156,0,.313,0,.469-.012.123-.006.246,0,.369-.007A.617.617,0,0,0,7.3,6.2a.2.2,0,0,1,.147-.009c.025.01.054-.01.078-.026s.051-.022.074.007a.1.1,0,0,0,.1.033,1.319,1.319,0,0,0,.221-.026.743.743,0,0,1,.19,0c.021,0,.019.018.027.031.027.046.064.055.1.018a.209.209,0,0,1,.15-.063.894.894,0,0,0,.12-.024.088.088,0,0,1,.1.037c.024.04.07.039.108.05s.049-.013.052-.043a.176.176,0,0,0-.007-.05.092.092,0,0,1,.1.045c.033.053.061.055.122.024a.236.236,0,0,1,.147-.035.116.116,0,0,0,.1-.02.11.11,0,0,1,.123-.009c.058.027.076.022.118-.028a.046.046,0,0,1,.06-.016.23.23,0,0,0,.129.007.175.175,0,0,1,.143.043.08.08,0,0,1,.013.122.03.03,0,0,1-.054-.007.342.342,0,0,0-.047-.08c-.028-.033-.046-.032-.055.009a.119.119,0,0,1-.07.077c-.035.02-.067.06-.12.04.012-.016.051-.009.039-.042a.069.069,0,0,0-.062-.05.16.16,0,0,0-.094.029c-.033.021-.067.04-.107.011-.009-.007-.023-.007-.027,0-.016.035-.032.033-.057.01a.025.025,0,0,0-.039.011c0,.011-.008.031-.021.028-.069-.016-.119.042-.182.049a.09.09,0,0,1-.079-.016.1.1,0,0,0-.121-.011c-.027.013-.041.02-.061-.012a.133.133,0,0,0-.145-.038c-.019.008-.031.019-.023.041s-.008.039-.031.039a1.436,1.436,0,0,1-.215,0,.313.313,0,0,0-.18.022.069.069,0,0,1-.087-.01c-.049-.043-.056-.04-.1,0-.012.011-.024.021-.019.038a.037.037,0,0,0,.031.019.373.373,0,0,0,.085.007c.049-.007.1,0,.145,0a1.054,1.054,0,0,1,.283.019.278.278,0,0,0,.092,0,.262.262,0,0,1,.105-.013.818.818,0,0,0,.229,0,1.432,1.432,0,0,0,.206-.024.364.364,0,0,1,.09,0,.59.59,0,0,0,.25-.008A.389.389,0,0,1,9.586,6.4a.794.794,0,0,0,.275,0,.335.335,0,0,0,.121-.018.026.026,0,0,1,.035.007c.027.049.072.028.111.029s.082.014.113-.029a.066.066,0,0,1,.05-.017.317.317,0,0,0,.1-.028.089.089,0,0,1,.081,0,.11.11,0,0,0,.1,0,.19.19,0,0,1,.052-.008c.029,0,.041.007.042.038s.028.063.067.048a.826.826,0,0,1,.349-.028c.013,0,.029.008.037,0a.279.279,0,0,1,.135-.01.411.411,0,0,1,.167.017s.011,0,.015,0c.059-.035.108,0,.157.023a.815.815,0,0,0,.311.037c.143.008.287,0,.43,0a1.446,1.446,0,0,1,.252,0,.134.134,0,0,0,.061,0,.3.3,0,0,1,.145,0,.239.239,0,0,0,.046,0c.02,0,.044,0,.051-.024s-.017-.028-.032-.037-.044-.018-.025-.044.037-.011.055,0a.122.122,0,0,1,.021.022.214.214,0,0,0,.232.076.289.289,0,0,1,.107,0,1.073,1.073,0,0,0,.207,0,.448.448,0,0,0,.162-.044.177.177,0,0,1,.134-.018.111.111,0,0,0,.031,0,.654.654,0,0,1,.221.014.179.179,0,0,0,.068,0,.473.473,0,0,1,.123,0,1.6,1.6,0,0,0,.406-.011.664.664,0,0,1,.192-.007.848.848,0,0,0,.177,0,2.73,2.73,0,0,1,.346,0c.037,0,.076-.007.114-.009L15.9,6.36a.174.174,0,0,0,.052-.011.175.175,0,0,1,.091-.009.979.979,0,0,0,.26,0c.107-.011.215-.009.322-.013a.7.7,0,0,0,.175-.014.106.106,0,0,1,.038,0,1.825,1.825,0,0,0,.413,0c.059,0,.116,0,.175,0,.115,0,.23-.014.346-.01s.225-.006.337-.008l.569-.006a.054.054,0,0,0,.023,0,.666.666,0,0,1,.295-.008.4.4,0,0,0,.168-.015.234.234,0,0,1,.106,0,2.121,2.121,0,0,0,.407.007h.246c.234,0,.467-.008.7,0,.117,0,.236,0,.353,0,.1,0,.2,0,.3,0,.179-.007.359,0,.538-.017a.209.209,0,0,1,.053,0,2.877,2.877,0,0,0,.367,0h.108c.108,0,.215,0,.322-.007s.221-.007.331,0c.177.007.354-.012.531-.01.154,0,.308,0,.462,0a1.969,1.969,0,0,0,.353-.021.965.965,0,0,1,.176.005c.144-.005.288,0,.431-.011.064,0,.128,0,.192-.005a.2.2,0,0,1,.061.008c.01,0,.021.01.029.007.087-.022.171.024.258.012s.174,0,.26-.019A.134.134,0,0,1,25.8,6.2a.168.168,0,0,0,.068,0,1.053,1.053,0,0,1,.367-.024c.088,0,.179,0,.268.005a.711.711,0,0,0,.273-.014.072.072,0,0,1,.031,0,3.152,3.152,0,0,0,.574-.006.492.492,0,0,0,.077-.01.171.171,0,0,1,.068-.007,1.475,1.475,0,0,0,.322.007c.121,0,.241,0,.361-.011a.921.921,0,0,1,.185,0c.11.007.221,0,.33,0,.125,0,.252-.007.377-.017a1.624,1.624,0,0,1,.207,0c.108,0,.216-.008.323,0h.023c.2-.024.4,0,.6-.011.037,0,.071,0,.1-.031a.049.049,0,0,1,.075,0,.143.143,0,0,0,.1.031c.12,0,.24.007.36.008a.166.166,0,0,0,.108-.035.1.1,0,0,1,.122-.009.1.1,0,0,0,.131-.022c-.066-.009-.117-.06-.182-.025-.06-.017-.125-.016-.183-.034a.45.45,0,0,0-.1-.036c-.015,0-.034,0-.03-.023s.02-.023.036-.022a.713.713,0,0,1,.114.015c.034.008.065.014.091-.017.011-.014.02-.008.029,0,.027.036.055.032.083,0a.071.071,0,0,1,.085-.02.494.494,0,0,0,.271.01c.034,0,.065-.016.094.012.013.013.027,0,.043,0,.059-.016.063-.015.084.041a.044.044,0,0,0,.045.033.079.079,0,0,1,.066.057c.023.055.056.072.109.044a.35.35,0,0,1,.191-.074c.021,0,.049-.013.079-.011a.22.22,0,0,0,.091-.017c-.05-.016-.088-.069-.151-.036a.092.092,0,0,1-.008-.023c0-.027.02-.062-.008-.079a.141.141,0,0,0-.108-.032c-.012,0-.028.011-.037.006A.227.227,0,0,0,31.8,5.8a.037.037,0,0,1-.033-.015.129.129,0,0,0-.17-.039c-.009,0-.022.012-.029.009-.072-.029-.143.008-.214,0a.148.148,0,0,1-.089-.04c-.038-.035-.046-.031-.08.014,0,.006-.01.016-.014.016-.069,0-.121.076-.2.042-.022-.011-.033,0-.042.022a.109.109,0,0,1-.064.051.08.08,0,0,1-.1-.015.046.046,0,0,0-.068-.009.042.042,0,0,1-.061,0c-.017-.015-.037-.009-.058-.008a.592.592,0,0,1-.219-.008.134.134,0,0,1-.071-.038c.039-.031.088-.021.13-.03a.409.409,0,0,0,.1-.019.215.215,0,0,1,.1,0c.025,0,.051.011.076,0a.025.025,0,0,1,.034.008c.008.01.02.023.031.015.038-.027.073-.01.11,0a.114.114,0,0,0,.082-.011.032.032,0,0,0,.007-.059.059.059,0,0,0-.035-.014c-.052,0-.1-.033-.155,0a1.828,1.828,0,0,0-.308.046c-.019,0-.038.007-.052,0-.071-.057-.127,0-.185.025-.006,0-.012.01-.018.014-.046.034-.046.034-.086-.009-.01-.011-.019-.029-.036-.019s-.046.02-.047.053c0,.051,0,.051-.05.048a.478.478,0,0,0-.092,0,.119.119,0,0,1-.089-.021.1.1,0,0,0-.095-.014,2.844,2.844,0,0,1-.32.022.2.2,0,0,1-.068-.008.082.082,0,0,0-.037-.005.37.37,0,0,1-.207-.01.045.045,0,0,0-.03,0c-.067.039-.116,0-.171-.043a.461.461,0,0,1,.215.013.192.192,0,0,0,.139,0,.291.291,0,0,0-.043-.079c-.007-.014-.018-.028,0-.038a.02.02,0,0,1,.031.012c.007.029.024.03.046.021a.177.177,0,0,1,.09,0,1.924,1.924,0,0,0,.267.023c.035,0,.072-.016.11-.02s.063-.011.092.014.049,0,.072-.009.037-.017.048.006c.017.038.037.022.048,0,.022-.04.061-.058.1-.086-.029-.023-.054.01-.077-.008s-.028-.017-.029-.033.015-.025.03-.029l.1-.036c.016,0,.032-.01.041.006s0,.024-.012.034a.161.161,0,0,0-.014.017.02.02,0,0,0,.024.016.4.4,0,0,1,.192.047.275.275,0,0,0,.145.008c.086,0,.172-.015.258-.022a.142.142,0,0,1,.037,0c.087.018.092.016.1-.072a.589.589,0,0,0,.138.044c.017,0,.039.009.046-.014a.035.035,0,0,0-.023-.044A.073.073,0,0,1,31,5.47c-.007-.02-.029-.02-.047-.018a.226.226,0,0,0-.053.012.051.051,0,0,1-.065-.021c-.034-.044-.061-.041-.1,0a.284.284,0,0,0-.021.023.1.1,0,0,1-.152.039c-.037-.02-.081.006-.13-.01.029-.012.055-.014.072-.035s.018-.053-.015-.057a.155.155,0,0,0-.137.028c-.013.014-.025.027-.045.013a.045.045,0,0,1-.016-.054.141.141,0,0,1,.015-.028c.013-.02.007-.034-.012-.046a.354.354,0,0,0-.052-.031c-.018-.006-.033-.01-.041-.03s-.039-.037-.071-.028c-.012,0-.028.011-.036,0-.029-.033-.058-.015-.089-.008s-.077.03-.108-.016c0-.008-.024-.007-.037-.007a.54.54,0,0,1-.136-.023c-.022,0-.059-.008-.024-.046,0-.006,0-.015-.006-.02a.358.358,0,0,0-.121-.066c-.019-.006-.033.011-.044.026a.077.077,0,0,1-.076.03.125.125,0,0,0-.094.02.237.237,0,0,1-.181.006.254.254,0,0,0-.135,0,.75.75,0,0,1-.237.015.111.111,0,0,0-.1.034c-.014.019-.034.018-.056.017a.421.421,0,0,1-.142-.03.188.188,0,0,0-.1-.019.318.318,0,0,1-.2-.047.178.178,0,0,0-.1-.024.449.449,0,0,1-.136-.018.316.316,0,0,0-.227.047.313.313,0,0,1-.245.016.568.568,0,0,1-.153-.05.048.048,0,0,0-.058.007.1.1,0,0,1-.115,0A.476.476,0,0,0,26.887,5a.089.089,0,0,1-.044-.011c-.058-.023-.082-.014-.088.048a.137.137,0,0,1-.055.1.074.074,0,0,1-.086.013,1.454,1.454,0,0,1-.223-.082c-.006,0-.017-.008-.022-.006-.05.023-.094,0-.141-.013a.235.235,0,0,0-.1.009A.188.188,0,0,1,26,5.052a.1.1,0,0,0-.051-.013.622.622,0,0,1-.3-.066,1.06,1.06,0,0,0-.335-.068,1.308,1.308,0,0,1-.316-.061c-.047-.059-.124-.037-.183-.065a.421.421,0,0,0-.195-.024.057.057,0,0,1-.029-.009c-.06-.036-.13-.048-.19-.083-.038-.023-.063,0-.059.044l0,.007c.01.077-.007.1-.083.092-.061-.006-.121-.017-.183-.026a.041.041,0,0,1-.036-.025c-.012-.046-.048-.048-.084-.047a.677.677,0,0,1-.211-.029.975.975,0,0,0-.215-.043.485.485,0,0,1-.2-.06.084.084,0,0,0-.059-.012A.282.282,0,0,1,23.1,4.54a.486.486,0,0,0-.132-.04c-.043,0-.073-.037-.113-.049s-.063-.049-.1-.017c-.056-.042-.127-.025-.189-.049a.051.051,0,0,1-.025-.018c-.026-.046-.063-.047-.111-.039a.5.5,0,0,1-.22-.009c-.078-.021-.156-.05-.235-.065a1.892,1.892,0,0,1-.226-.089.636.636,0,0,0-.1-.025.324.324,0,0,1-.114-.044,1.328,1.328,0,0,0-.137-.074A.062.062,0,0,1,21.485,4c.013.007.026.02.042.015.105-.022.2.035.3.035.01,0,.02,0,.03,0a.025.025,0,0,0,.018-.011c0-.007,0-.015-.007-.019A.165.165,0,0,0,21.837,4a1.117,1.117,0,0,1-.141-.063.143.143,0,0,0-.131-.018c-.022.009-.062.018-.029-.031a.015.015,0,0,0,0-.021c-.05-.028-.09-.089-.164-.051-.024.012-.093-.02-.108-.043a.025.025,0,0,1,.022-.039c.022,0,.044,0,.078,0a.318.318,0,0,0-.13-.074,2.771,2.771,0,0,1-.282-.141.616.616,0,0,1-.176-.148.646.646,0,0,1-.159-.2.092.092,0,0,0-.036-.039.584.584,0,0,1-.109-.118.209.209,0,0,0-.067-.073c-.086-.044-.127-.131-.192-.195,0,0-.009-.008-.009-.012-.009-.114-.092-.2-.1-.317a.084.084,0,0,0-.027-.054c-.027-.022-.033-.06-.053-.083a.579.579,0,0,1-.092-.2,1.428,1.428,0,0,1-.1-.312.258.258,0,0,0-.034-.1.115.115,0,0,1-.02-.1c.01-.026-.011-.048-.023-.071a.222.222,0,0,1-.028-.132.755.755,0,0,0-.01-.16c0-.029-.008-.056.015-.08a.055.055,0,0,0,.016-.042c0-.039-.007-.077.04-.094,0-.073.075-.125.056-.21a.172.172,0,0,1,.041-.185.054.054,0,0,0,.007-.052A.241.241,0,0,1,19.888.4a.145.145,0,0,0,0-.053.1.1,0,0,1,.033-.082c.038-.037.038-.045,0-.079A1.118,1.118,0,0,1,19.8.02c.022-.028.047-.019.068-.018.128.009.256.021.383.029a3.784,3.784,0,0,1,.575.107,1.961,1.961,0,0,1,.332.082c.144.058.3.067.445.118s.279.068.417.108a1.191,1.191,0,0,1,.123.042.466.466,0,0,0,.155.04A.181.181,0,0,1,22.36.55a.476.476,0,0,0,.117.036c.256.05.5.138.751.208a.855.855,0,0,0,.2.058c.013,0,.028.006.025.023-.006.033.015.048.037.06a.088.088,0,0,0,.075.006.379.379,0,0,1,.2,0,.137.137,0,0,1,.095.045A.058.058,0,0,0,23.891,1a.181.181,0,0,1,.12.062c.008.012.057.048.057-.021,0-.019.062-.013.067.012.012.058.054.069.1.076.107.014.208.056.314.08.072.016.145.032.218.046.1.02.2.06.3.073.022,0,.05,0,.046.038a.059.059,0,0,1-.064.045.132.132,0,0,1-.081-.042c-.051-.064-.118-.049-.182-.038a.092.092,0,0,0-.085.057c-.009.026-.031.027-.045,0-.022-.042-.059-.055-.114-.064a.836.836,0,0,1,.081.1.158.158,0,0,0,.1.052c.071.012.142.022.213.034.01,0,.026.006.027-.006s0-.044.032-.035.074.008.092.047a.418.418,0,0,1,.018.043.024.024,0,0,0,.023.016c.013,0,.015-.011.013-.022s-.006-.033.015-.037.027.011.032.026,0,.021.019.025l.123-.1c.006.041.029.07.028.109s-.011.041-.043.032c-.009,0-.018-.01-.028-.012s-.027.009-.022.026a.089.089,0,0,0,.084.068.247.247,0,0,1,.1.03.09.09,0,0,0,.134-.036c-.022-.026-.057-.028-.086-.039-.01,0-.019-.008-.02-.02A.022.022,0,0,1,25.5,1.6a.316.316,0,0,1,.224-.028c.025.01.042.011.056-.017s.043-.027.073-.021c.157.028.308.08.461.118a.921.921,0,0,0,.136.029c.013,0,.03,0,.038.008.068.07.167.05.247.085.009,0,.021.006.029.01s.036.025.026.049a.035.035,0,0,1-.045.02.625.625,0,0,1-.1-.026c-.053-.027-.115-.023-.17-.049a.084.084,0,0,0-.073.012c-.022.012-.046.022-.069.032a.043.043,0,0,1-.062-.026.324.324,0,0,0-.034-.051c-.037-.047-.076-.049-.11,0-.015.022-.024.028-.048.017a.144.144,0,0,0-.118-.018.07.07,0,0,1-.063-.016c-.007-.012,0-.02.005-.03s.017-.03,0-.039-.029.006-.037.021-.017.042-.043.036-.057,0-.067.04c-.005.021-.029.014-.047.008a.193.193,0,0,0-.1-.02.221.221,0,0,0,.159.067.174.174,0,0,1,.109.034.637.637,0,0,0,.237.086,1.55,1.55,0,0,0,.278.057A.035.035,0,0,1,26.408,2a1.294,1.294,0,0,0,.365.113c.11.037.222.066.331.1.063.022.13.026.195.043.223.057.446.116.668.182.179.053.361.1.543.142.15.037.295.09.443.132.1.03.206.062.311.086a6.1,6.1,0,0,1,.667.188,1.691,1.691,0,0,0,.209.049c.133.03.262.073.395.1s.259.083.389.121A.883.883,0,0,1,31.1,3.3c.025.012.053.019.078.033a.176.176,0,0,0,.071.025,2.23,2.23,0,0,1,.409.1c.155.038.307.087.459.132.243.073.484.154.728.222.134.037.266.078.4.111a.926.926,0,0,1,.148.044c.019.008.04.008.059.017.042.018.094-.028.125.008a.225.225,0,0,0,.117.052c.141.044.281.094.426.126a3.144,3.144,0,0,1,.32.107c.073.024.146.048.22.067a1.6,1.6,0,0,1,.21.07,2.1,2.1,0,0,0,.367.116c.021,0,.046.007.058-.009.037-.048.081-.03.126-.022a.323.323,0,0,1,.066.018.018.018,0,0,0,.027-.017.015.015,0,0,0-.019-.017.072.072,0,0,1-.084-.037.053.053,0,0,0-.046-.024.055.055,0,0,1-.044-.026.061.061,0,0,0-.069-.025.188.188,0,0,1-.145-.036c-.027-.016-.066-.019-.079-.06.016-.022.051,0,.067-.023a.037.037,0,0,0,.008-.02c0-.008-.008-.012-.016-.013a.142.142,0,0,0-.073.023.115.115,0,0,1-.124,0c-.015-.006-.029-.015-.014-.034s.01-.031-.008-.045a.053.053,0,0,0-.064,0c-.016.013-.028.031-.044.043s-.036.025-.056.01a.045.045,0,0,1-.02-.054.157.157,0,0,0,0-.083c-.012-.074,0-.085.084-.074.006.023-.03.051.006.075a.115.115,0,0,0,.114,0c.022.018.02.046.034.067s.042.044.071.024a.36.36,0,0,1,.2-.052.058.058,0,0,0,0,.082c.007.008.015.015.026.012s.022-.02.026-.035-.006-.018-.017-.018c-.027,0-.022-.033-.04-.042a.071.071,0,0,1,.066,0l.3.11a.15.15,0,0,0,.043.016.293.293,0,0,1,.175.075c.014.01.023,0,.035,0s.045-.026.065-.008c.045.039.107.044.154.078a.042.042,0,0,0,.013.009.671.671,0,0,1,.245.138.35.35,0,0,0,.04.023.894.894,0,0,1,.416.4.485.485,0,0,1,.006.412.354.354,0,0,0-.036.156.039.039,0,0,1,0,.022.318.318,0,0,0-.04.192c0,.038-.014.076-.021.114a.229.229,0,0,0-.011.06.361.361,0,0,1-.072.211.642.642,0,0,0-.13.315,2.087,2.087,0,0,1-.087.379c-.015.083-.022.167-.037.25a.308.308,0,0,1-.1.2,1.643,1.643,0,0,0-.157.155.965.965,0,0,1-.181.155.112.112,0,0,0-.044.042.465.465,0,0,1-.117.139,1.5,1.5,0,0,0-.186.2.791.791,0,0,1-.206.2.469.469,0,0,0-.145.157.4.4,0,0,1-.078.084.85.85,0,0,0-.152.163.174.174,0,0,1-.139.084.1.1,0,0,0-.072.037.394.394,0,0,1-.127.085,1.969,1.969,0,0,0-.177.108A.816.816,0,0,1,34.24,9s-.012,0-.014.007c-.049.071-.14.083-.2.139-.038.037-.092.043-.135.071s-.091.067-.136.1a.757.757,0,0,1-.212.12.5.5,0,0,0-.131.1.2.2,0,0,1-.055.042.658.658,0,0,0-.159.1.546.546,0,0,1-.168.087,1.094,1.094,0,0,0-.189.083.062.062,0,0,0-.029.023.454.454,0,0,1-.244.175.083.083,0,0,0-.033.017.212.212,0,0,1-.115.058,1,1,0,0,0-.27.129.323.323,0,0,1-.067.035.152.152,0,0,0-.036.014,1.817,1.817,0,0,1-.238.118.433.433,0,0,0-.112.08c-.022.022-.017.041.006.057ZM24.781,7.958a.28.28,0,0,0,.124.033.049.049,0,0,0,.055-.041.039.039,0,0,0-.023-.055c-.017-.007-.028-.022-.054-.022a.157.157,0,0,1-.1.088c.014-.051.014-.052-.025-.052a.744.744,0,0,0-.108,0,1.2,1.2,0,0,1-.4-.007c-.028-.006-.051,0-.056.035a.09.09,0,0,1-.017.033c-.019.028,0,.039.021.042a.158.158,0,0,0,.129-.033c.007-.007.02-.021.022-.018.028.046.04.014.058-.008,0,0,.019,0,.029.005a.52.52,0,0,0,.247.017.257.257,0,0,1,.1-.018M21.243,8.1a.366.366,0,0,0-.172-.021.256.256,0,0,0,.173.019c.009.006.017.015.026.016a1.011,1.011,0,0,0,.291,0,.541.541,0,0,1,.2.007c.056.009.111.015.168.019.1.007.2-.037.3,0,.01,0,.024-.005.037-.007a.16.16,0,0,1,.053-.006,1.915,1.915,0,0,0,.305-.014.064.064,0,0,0,.028-.011c.018-.01.038-.019.039-.043s-.016-.036-.035-.046a.2.2,0,0,1-.055-.027c-.027-.025-.048-.037-.074,0A.025.025,0,0,1,22.5,8c-.04-.027-.073-.006-.107.012a.324.324,0,0,1-.288.027.176.176,0,0,0-.15-.008.175.175,0,0,1-.158-.007c-.027-.008-.052-.028-.081-.02a.331.331,0,0,1-.174.03c-.009,0-.023.009-.033.018a.223.223,0,0,1-.173.043.436.436,0,0,0-.092,0M8.774,8.8c.014-.017.045-.022.049-.051a.054.054,0,0,0-.058.015c-.016.015,0,.026.01.035a.134.134,0,0,1-.106.1.854.854,0,0,0-.113.047.219.219,0,0,0,.159.079.207.207,0,0,1,.113.015.2.2,0,0,0,.126.021c.044,0,.089-.021.134.006.014.009.028-.006.04-.017a.05.05,0,0,1,.04-.018.356.356,0,0,1,.129.009.39.39,0,0,0,.2,0,1.128,1.128,0,0,0,.212-.016.082.082,0,0,1,.052.012.263.263,0,0,0,.179.019.193.193,0,0,1,.106,0,.153.153,0,0,0,.118,0c0-.038-.039-.033-.058-.049S10.093,9,10.1,8.986a.024.024,0,0,1,.026-.014c.01,0,.02,0,.03,0a.647.647,0,0,0,.173-.013c.051-.012.1-.028.154-.045s.084-.028.086-.084a.066.066,0,0,1,.038-.055l.039-.022s.006-.011,0-.013a.029.029,0,0,0-.018-.012.044.044,0,0,0-.039.021.192.192,0,0,1-.118.062c-.041.006-.08.037-.125.014,0,0-.01,0-.014.006-.031.032-.075.03-.112.042a.428.428,0,0,1-.234.012.487.487,0,0,0-.295.009c-.073.032-.15-.008-.224.009,0,0-.01-.009-.022-.019a.367.367,0,0,1,.134-.057.864.864,0,0,0,.143-.023.29.29,0,0,0-.212,0,.193.193,0,0,1-.111.023c-.027,0-.053-.021-.068.03-.009.031-.066.028-.1,0s-.035-.021-.052,0-.051.012-.071-.01a.186.186,0,0,1-.024-.03c-.026-.038-.028-.039-.062-.016-.011.007-.02.017-.03.025a.146.146,0,0,1-.178,0A.128.128,0,0,0,8.774,8.8m18.191-.919h0c-.043-.062-.051-.064-.115-.036a.09.09,0,0,1-.022.007,1.706,1.706,0,0,1-.227.014.075.075,0,0,0-.044.007c-.018.01-.044.016-.044.039s.03.022.048.026a.347.347,0,0,0,.052.01c.031.005.06.009.078-.029s.037-.026.051,0a.057.057,0,0,0,.059.029c.1-.006.195.009.292,0a.442.442,0,0,1,.128-.02c.066.013.133,0,.2.015a.1.1,0,0,0,.1-.023c.025-.027.046-.026.066.008.01.017.031.016.05.016.048,0,.1,0,.146,0s.113,0,.169,0c.018,0,.041,0,.048.016.023.062.067.052.113.038h0c.083.02.169,0,.253.013a.047.047,0,0,0,.055-.034c.016-.05.054-.047.093-.044s.076.01.115.009c.244-.007.487-.01.731-.018.172-.007.344.008.516,0,.087,0,.173-.043.262,0,.146,0,.291,0,.438,0,.175,0,.348.018.522.032a.115.115,0,0,0,.119-.053c.015-.025.047-.052.024-.081s-.064-.007-.082.009c-.051.047-.112-.028-.159.021a.059.059,0,0,1-.008-.013c-.008-.018-.023-.017-.039-.017-.036,0-.071,0-.107.009-.069.007-.141.039-.21-.007a.036.036,0,0,0-.044,0,.285.285,0,0,1-.148.031.06.06,0,0,1-.054-.019c-.039-.038-.042-.039-.079,0a.13.13,0,0,1-.169.022c-.02-.011-.043-.028-.064-.015-.042.026-.06.011-.083-.027a.128.128,0,0,0-.186-.006.146.146,0,0,1-.213.039c-.02-.012-.034-.015-.046,0-.023.036-.046.023-.079.011a.206.206,0,0,0-.212,0,.057.057,0,0,1-.052.005c-.033-.012-.072-.013-.1-.045a.042.042,0,0,0-.06-.015c-.043.027-.1.02-.137.048s-.066-.022-.1-.007c-.015.007-.022-.017-.028-.031s-.027-.027-.051-.018-.072.026-.109.037c-.014,0-.03.012-.04-.008a.055.055,0,0,0-.077-.028.06.06,0,0,1-.064-.015c-.014-.014-.034-.025-.048-.011-.051.049-.1.025-.159.011s-.069-.017-.112.042a.03.03,0,0,1-.027-.01c-.009-.008-.02-.019-.033-.009a.027.027,0,0,0-.007.034l0,.007c.008.016.009.031-.012.036s-.029-.009-.031-.026a.056.056,0,0,0-.049-.051.149.149,0,0,0-.083.005.093.093,0,0,1-.082.007.083.083,0,0,0-.081,0,.043.043,0,0,1-.044,0c-.026-.015-.04-.007-.055.019a.045.045,0,0,1-.071.018.169.169,0,0,0-.179-.01.686.686,0,0,1-.216.041.084.084,0,0,1-.051-.013.123.123,0,0,0-.138,0M6.6,8.819c.007.035.052.057.025.081-.042.04-.018.064.006.1s.009.051-.026.048a.2.2,0,0,0-.132.032c-.021.013-.041.022-.054-.013-.006-.014-.023-.007-.032,0a.058.058,0,0,0-.011.028c-.021.082-.042.09-.1.031A.246.246,0,0,0,6.1,9.055a2.066,2.066,0,0,0-.228.013c-.012,0-.025.005-.037.008a.039.039,0,0,0-.034.037.042.042,0,0,0,.026.044.275.275,0,0,0,.1.033c.2,0,.405,0,.608-.007a.085.085,0,0,0,.052-.009c.02-.015,0-.033,0-.05s.006-.02.018-.02a.024.024,0,0,1,.02.009c0,.008.006.019.01.028.015.033.037.04.055.011.031-.051.09-.027.127-.057,0,0,.02,0,.027.007a.176.176,0,0,0,.169.015.945.945,0,0,1,.211-.042,2.079,2.079,0,0,0,.352-.017.244.244,0,0,1,.046,0,2.291,2.291,0,0,1,.246,0c.009,0,.024,0,.029,0,.049-.051.12-.034.177-.057.014-.006.032,0,.041-.023a.119.119,0,0,0-.077-.022c-.017,0-.032,0-.033-.023s.013-.027.029-.032a.065.065,0,0,1,.078.012.109.109,0,0,0,.118.035A.372.372,0,0,0,8.354,8.9a.074.074,0,0,0,.023-.039A.048.048,0,0,0,8.316,8.8a.107.107,0,0,1-.037.008.543.543,0,0,0-.211.058.106.106,0,0,1-.123-.017.138.138,0,0,0-.209,0,.045.045,0,0,1-.067,0c-.025-.024.008-.032.02-.046s0-.009,0-.017c-.053-.008-.105.025-.157,0a.054.054,0,0,0-.068.02.047.047,0,0,1-.073.013c-.057-.041-.136-.015-.19-.062a.038.038,0,0,0-.03,0,.318.318,0,0,0-.125.034.1.1,0,0,1-.134-.021c-.018-.022-.032-.022-.051-.009a.1.1,0,0,1-.109.011.067.067,0,0,0-.095.017.248.248,0,0,1-.059.037m13.823-.7c-.025-.021-.058-.023-.08-.046a.059.059,0,0,0-.051-.008c-.043.006-.085.036-.131,0-.007-.005-.029.006-.042.014a.087.087,0,0,1-.067.007l-.082-.021a.2.2,0,0,0-.141,0,.069.069,0,0,1-.072.008.309.309,0,0,0-.107-.008.219.219,0,0,1-.12,0c-.03-.014-.058.013-.085.026s-.059-.037-.093-.009a.089.089,0,0,1-.095,0,.156.156,0,0,0-.067-.012c-.051,0-.1.012-.153.015a.531.531,0,0,1-.174,0,.065.065,0,0,0-.059.007.106.106,0,0,1-.066.018.405.405,0,0,0-.152,0,.032.032,0,0,1-.028-.008.194.194,0,0,0-.175-.031,1.674,1.674,0,0,1-.212.035c-.1,0-.2.025-.306.015a.112.112,0,0,0-.044.012.4.4,0,0,1-.172.026.3.3,0,0,0-.136,0,.136.136,0,0,1-.077,0,.072.072,0,0,0-.066.012.025.025,0,0,0-.011.026.023.023,0,0,0,.022.018.286.286,0,0,0,.091-.007,1.16,1.16,0,0,1,.2-.009.531.531,0,0,0,.134,0,.117.117,0,0,1,.053,0,.277.277,0,0,0,.138,0,.121.121,0,0,1,.1.006.065.065,0,0,0,.06,0,.066.066,0,0,1,.051-.011.462.462,0,0,0,.22,0,1.5,1.5,0,0,0,.206,0,.171.171,0,0,1,.075-.017.582.582,0,0,0,.225,0c.036,0,.075,0,.113-.007a.228.228,0,0,1,.068,0,.392.392,0,0,0,.218-.007.262.262,0,0,1,.107-.006c.071,0,.14.036.211,0h.008a.576.576,0,0,0,.227,0,.117.117,0,0,1,.072.018.3.3,0,0,0,.195.019c.014,0,.028-.016.044-.011.078.022.143-.03.216-.04.005,0,.008-.01.016-.019m-9.084.824a.38.38,0,0,0,.076-.095c.012-.016,0-.029-.021-.029a.054.054,0,0,0-.044.027.018.018,0,0,1-.026.007c-.011-.008-.007-.019,0-.027a.1.1,0,0,0,.029-.052.029.029,0,0,0-.016-.032.025.025,0,0,0-.028.007.12.12,0,0,0-.039.064A.381.381,0,0,0,11.278,9c.009.038.056.062.077.039s.089-.051.116-.1.039-.028.063-.006a1.107,1.107,0,0,0,.209.117.062.062,0,0,0,.03.007,1.723,1.723,0,0,0,.43,0c.012,0,.027,0,.031-.021-.03-.013-.06.008-.088.005a3.28,3.28,0,0,0-.33-.012.242.242,0,0,1-.1-.028c-.028-.013-.03-.033,0-.053a.187.187,0,0,1,.113-.058.562.562,0,0,0,.124-.032c.01-.016.008-.024,0-.03s-.02-.033-.006-.049.032,0,.049,0a.187.187,0,0,0,.044.011.023.023,0,0,0,.019-.01.02.02,0,0,0-.006-.027.161.161,0,0,0-.026-.016c-.067-.04-.129.014-.193.013,0,0-.009.017-.011.026a.046.046,0,0,1-.045.036c-.023,0-.046.008-.079.014.023-.027.04-.042.053-.061s0-.024-.011-.031c-.06-.023-.113.024-.172.016-.008.052-.069.059-.088.1a.154.154,0,0,1-.139.088M30.88,8.291a.119.119,0,0,1,.029-.052c.006-.011.015-.022,0-.035a.026.026,0,0,0-.035-.007c-.029.013-.048.014-.055-.024,0-.021-.024-.018-.034,0s-.039.054-.081.042c-.012,0-.018.007-.02.018s0,.027-.02.029c-.042.007-.079.049-.127.016a.038.038,0,0,0-.03,0c-.044.016-.087.029-.111-.03a.014.014,0,0,0-.013-.007c-.044.007-.06-.026-.081-.054a.052.052,0,0,0-.081,0,.79.79,0,0,0-.092.142c-.012.024,0,.039.025.04a.143.143,0,0,1,.124.058.153.153,0,0,1,.15-.049.347.347,0,0,0,.163-.028c.009,0,.018-.009.027-.013s.022,0,.026.007,0,.02-.015.023a1.414,1.414,0,0,0-.133.075c-.009,0-.018.011-.013.023s.017.009.027.007l.021-.01a.439.439,0,0,1,.265-.081.046.046,0,0,0,.022,0,.218.218,0,0,1,.142-.012.038.038,0,0,0,.047-.015c.02-.032.037-.064.055-.1-.076-.028-.11.069-.187.048M29.057,5.065a.192.192,0,0,0-.074-.05c-.022-.011-.045-.008-.032-.044.006-.014-.011-.019-.024-.023l-.119-.029a.471.471,0,0,0-.307-.009.045.045,0,0,1-.06-.019.188.188,0,0,0-.1-.056.716.716,0,0,0-.2-.007c-.018,0-.038,0-.044.021a.049.049,0,0,0,.024.052.065.065,0,0,0,.058.01.086.086,0,0,1,.1.046A.088.088,0,0,0,28.347,5a.545.545,0,0,0,.22.016.118.118,0,0,1,.045,0,1.319,1.319,0,0,0,.265.022.088.088,0,0,1,.061.024c.045.042.057.041.12,0m-11.089,1.8a.108.108,0,0,0,.129.079.211.211,0,0,1,.1,0,.125.125,0,0,0,.081,0,.2.2,0,0,1,.135,0,.079.079,0,0,0,.087-.006c.026-.022.08-.013.076-.07,0-.008.017-.007.027-.006l.167.019c.025,0,.052,0,.053-.032s-.03-.022-.049-.02a2.134,2.134,0,0,0-.326,0c-.044-.028-.071.007-.1.026-.014.009-.021.031-.049.025a.068.068,0,0,0-.086-.055.051.051,0,0,1-.042-.015.075.075,0,0,0-.1,0,.1.1,0,0,1-.108.005.26.26,0,0,0-.15-.021c-.022,0-.041.011-.036.039a.111.111,0,0,0,.121.093c.033,0,.045-.032.078-.043M23.779,7.92c-.059-.05-.06-.051-.121-.019a.136.136,0,0,1-.105.006.192.192,0,0,0-.1.005.324.324,0,0,1-.174.005.082.082,0,0,0-.1.032c-.038.049-.064.051-.112.027-.022-.011-.041-.024-.063-.005a.02.02,0,0,0-.007.02.065.065,0,0,0,.059.027.448.448,0,0,0,.046-.006.122.122,0,0,1,.052-.005,2.009,2.009,0,0,0,.289.03c.025,0,.055,0,.074.018a.181.181,0,0,0,.165.036.146.146,0,0,1,.068,0c.036.014.052,0,.061-.036.012-.051.006-.063-.049-.084-.009,0-.02,0-.022-.017s.034-.009.044-.033m-3.1.1c-.055.029-.115.043-.154.1.062-.015.107.036.163.015s.1.017.151-.008.106,0,.149-.039c0-.017-.016-.018-.024-.023s-.038-.016-.026-.039.029-.017.051-.008a.331.331,0,0,0,.2.013.628.628,0,0,1,.151-.022c.016,0,.037.007.047-.015-.059-.029-.132,0-.185-.053-.009-.008-.023.006-.034.012a.127.127,0,0,1-.111.013.121.121,0,0,0-.136.015.058.058,0,0,1-.078,0,.154.154,0,0,0-.1-.029,1.428,1.428,0,0,0-.189.016c-.017,0-.048-.012-.046.02s.028.027.049.025a.39.39,0,0,0,.061-.008.054.054,0,0,1,.06.013m-4.19-1.146a.455.455,0,0,0-.058,0,.059.059,0,0,0-.058.051c0,.032.031.026.05.035a.094.094,0,0,0,.082,0c.011,0,.024-.015.036-.013.077.012.154,0,.231.017a.221.221,0,0,0,.091.007.133.133,0,0,1,.1.019.09.09,0,0,0,.122-.03c.007-.01.009-.022,0-.028a.076.076,0,0,1-.03-.081c0-.014-.01-.022-.024-.025a.355.355,0,0,0-.062-.006l-.307.013a.2.2,0,0,0-.1.031.076.076,0,0,1-.068.014M30.053,8.556a1.41,1.41,0,0,0-.213-.016.36.36,0,0,1-.108,0,.268.268,0,0,0-.144.006.065.065,0,0,1-.052,0,1.208,1.208,0,0,0-.2-.046.242.242,0,0,0-.069,0c-.015,0-.033,0-.037.021s.013.026.028.031a1.267,1.267,0,0,0,.176.056c.105.022.215,0,.321.019a.5.5,0,0,1,.187-.016.127.127,0,0,0,.112-.051M19.281,7.982a.341.341,0,0,1-.156-.018.2.2,0,0,0-.142-.007c-.047.012-.1.016-.143.028s-.1-.024-.151.007a.028.028,0,0,1-.022,0c-.048-.034-.111-.018-.161-.047a.042.042,0,0,0-.037,0,.306.306,0,0,1-.163.036A.018.018,0,0,0,18.285,8a.032.032,0,0,0,.01.02.033.033,0,0,0,.018.012c.072,0,.151.059.208-.029a.114.114,0,0,0,.128.039.793.793,0,0,1,.319-.012.143.143,0,0,0,.091-.01c.018-.01.039-.022.058-.009.061.038.111,0,.164-.025m1.1-1.121a1.914,1.914,0,0,1,.207-.018c.017,0,.029-.011.025-.031s-.007-.032-.034-.029a.476.476,0,0,1-.179-.01.078.078,0,0,0-.038,0,.334.334,0,0,1-.167-.006c-.019-.006-.043-.007-.052.019s-.025.025-.046.011a.226.226,0,0,0-.22,0c-.015.006-.029.016-.028.034s.02.024.035.024a.491.491,0,0,0,.181,0,.221.221,0,0,1,.12-.014c.066.017.133-.016.2.017m10.277.327c-.037-.01-.064.011-.09.007a.081.081,0,0,0-.1.041.02.02,0,0,1-.033.006c-.019-.032-.06-.015-.079-.041s-.045-.018-.068,0l-.038.026c-.018.012-.028.01-.028-.013a.016.016,0,0,0-.02-.017.212.212,0,0,0-.134.044.1.1,0,0,1-.1.029.373.373,0,0,0-.053-.009.021.021,0,0,0-.023.024c0,.013.013.016.023.014.056-.006.112,0,.169-.007a.6.6,0,0,1,.229,0,.722.722,0,0,0,.222.007c.041-.006.083-.01.084-.068,0-.011.018-.022.033-.038M25.273,8a.316.316,0,0,0-.139-.011c-.119.015-.238.019-.359.028-.026,0-.058,0-.059.036s.034.024.055.026c.107.005.213.008.321.012a.45.45,0,0,0,.083,0,.1.1,0,0,0,.1-.086m5.711-.718c.075,0,.1-.022.086-.076a.058.058,0,0,0-.079-.037.047.047,0,0,1-.064-.022c-.011-.018-.024-.037-.045-.006-.007.01-.018.006-.028,0-.054-.015-.1.02-.146.036a.033.033,0,0,0-.022.037c0,.02.019.019.034.024.088.029.183.017.264.041M17.429,6.79c-.024.007-.014.029-.019.044a.083.083,0,0,1-.055.059.047.047,0,0,1-.056-.014c-.013-.017,0-.033.007-.049s.023-.015.012-.03c-.006,0-.011,0-.015,0s-.045,0-.058.015.014.028.019.044,0,.023-.013.033-.039.015-.045.046a.1.1,0,0,0,.081.022.239.239,0,0,0,.12-.046.126.126,0,0,1,.106-.03.985.985,0,0,1,.175.015c.021.006.043,0,.037-.033a.094.094,0,0,0-.117-.063c-.053.017-.107.029-.157.042-.024-.016.005-.045-.022-.056M31.357,7.832c.038.049.045.063.036.068-.025.015-.044,0-.063-.013l-.007,0a.045.045,0,0,0-.061.015c-.012.021,0,.047.034.059a.2.2,0,0,0,.052.011c.038,0,.077,0,.115.006.065.007.126-.018.19-.013.023,0,.055.008.058-.018s-.033-.024-.053-.031H31.65a.3.3,0,0,1-.076-.007c-.029-.007-.037-.04-.059-.053-.025.013-.036.048-.068.03s0-.039-.015-.057l-.075.008m-1.647.516c0,.051.018.076.049.052a.1.1,0,0,1,.1-.009.077.077,0,0,0,.1-.049l.021-.049c.013-.033.006-.05-.027-.054a.746.746,0,0,0-.13-.009.148.148,0,0,0-.117.117M19.62,6.886l.135-.006a.048.048,0,0,0,.048-.041c0-.028-.011-.041-.035-.051a.071.071,0,0,0-.086.008c-.008.008-.024.022-.032.014-.038-.04-.091-.007-.129-.029s-.062,0-.088.021a.04.04,0,0,0-.019.039c0,.017.02.022.036.023l.169.021M8.546,8.711c-.075-.007-.1.006-.092.078.007.033-.017.044-.035.061s-.016.037.008.04a.3.3,0,0,0,.179-.022.062.062,0,0,0,.032-.041c.018-.063-.019-.11-.092-.115m2.235.344s0,.009,0,.014c.05,0,.1.007.151.008A.062.062,0,0,0,11,9.03c.013-.039.055-.087.093-.073.06.023.071-.015.1-.044s.029-.039.011-.061-.043-.01-.064,0a.1.1,0,0,0-.031.021.433.433,0,0,1-.1.07A.124.124,0,0,0,10.936,9a.084.084,0,0,1-.08.049l-.075,0m6.841-.116c-.062-.021-.094.022-.129.058-.015.016-.006.035.018.037a.1.1,0,0,0,.03,0l.265-.043c.031-.005.036-.024.032-.05s-.014-.045-.045-.04a.158.158,0,0,0-.066.017.1.1,0,0,1-.105.021M27.7,4.776c.012.021-.031.04,0,.061s.038,0,.058-.007l.036-.01c.034-.009.066-.015.083.028.01.024.032.024.052.013s.048-.018.06-.045c-.016-.023-.046-.022-.066-.036a.232.232,0,0,0-.166-.041.121.121,0,0,1-.121-.048l-.012,0c.005.065.005.065.078.081m1.217,3.487c-.024,0-.038-.006-.049,0a.3.3,0,0,1-.18-.012.065.065,0,0,0-.086.038c.08.012.066.062.035.127.1-.064.2-.063.281-.151M23.849,8.07a.434.434,0,0,0,.207,0c.031,0,.035-.037.035-.062s-.025-.022-.042-.024a.043.043,0,0,0-.022,0c-.044.009-.077,0-.092-.046a.017.017,0,0,0-.024-.011c-.011,0-.011.013-.012.025-.005.082-.006.083-.048.121m4.574.493a.585.585,0,0,1-.177-.036c-.046-.013-.082.018-.122.032a.021.021,0,0,0-.007.013.073.073,0,0,0,.065.073.731.731,0,0,0,.241-.082M15.528,8.225a.292.292,0,0,1,.01-.081c.006-.03-.011-.044-.033-.028-.039.029-.088.025-.128.047a.03.03,0,0,1-.041,0,.034.034,0,0,0-.054,0,.025.025,0,0,0-.008.027.044.044,0,0,0,.042.027,1.143,1.143,0,0,0,.212.014M25.653,7.96c.034,0,.068-.021.106-.024.022,0,.059.02.065-.017s-.038-.022-.057-.037c-.048-.037-.092,0-.135.015a.037.037,0,0,0-.021.045c0,.019.022.018.042.019m.186.794a.38.38,0,0,0-.188,0,.567.567,0,0,0-.192.023.132.132,0,0,0,.135.015c.042-.013.082-.032.123,0a.045.045,0,0,0,.051,0l.07-.038m2.986-1.531a.566.566,0,0,1-.11.014.026.026,0,0,0-.021.028.027.027,0,0,0,.018.022.068.068,0,0,0,.072-.007.092.092,0,0,1,.095-.01.151.151,0,0,0,.037.009c.019,0,.038,0,.041-.025s-.02-.029-.038-.027-.06.016-.094-.005M30.48,8.589a.623.623,0,0,1-.187-.017.036.036,0,0,0-.015,0c-.027,0-.031.022-.033.043s.017.026.031.025a.419.419,0,0,0,.2-.05m-4.632-.608c-.014,0-.03,0-.044,0-.033.005-.053.026-.048.048s.029.033.053.032a.461.461,0,0,0,.046-.008c.028,0,.062-.011.058-.045s-.041-.02-.065-.027M18.23,8c-.019-.024-.037-.048-.074-.029a.12.12,0,0,1-.06.005.018.018,0,0,0-.021.017c0,.011.007.018.017.021.046.014.093.031.137-.015m-2.575.209L15.638,8.2c-.014-.006-.025,0-.031.011a.02.02,0,0,0,.017.028.234.234,0,0,0,.128.007.022.022,0,0,0,.018-.022c0-.013-.01-.015-.021-.019a.248.248,0,0,0-.095,0M35.446,4.224a.1.1,0,0,0-.081-.037.033.033,0,0,0-.036.023.039.039,0,0,0,0,.043.026.026,0,0,0,.04,0c.02-.019.049-.01.073-.028M7.979,8.714a.092.092,0,0,0,.059.051c.018,0,.036.009.044-.013a.036.036,0,0,0-.015-.047.073.073,0,0,0-.088.009m2.373.344.113,0a.04.04,0,0,0,.041-.037c0-.015-.011-.031-.022-.021a.529.529,0,0,1-.132.063m18.141-.5c.083.042.133.037.179-.014a1.3,1.3,0,0,1-.179.014m2.656-2.888c-.088.017-.109.032-.123.085.055-.01.084-.055.123-.085m-1.442,1.6.074.024c.014,0,.031.009.04-.008a.029.029,0,0,0,0-.022.029.029,0,0,0-.038-.017c-.022.007-.046,0-.075.023M17.872,8.92l.055.009c.017,0,.034.016.051,0s.028-.018.022-.036-.019-.015-.033-.013a.23.23,0,0,0-.1.036m7.575-.957c.031.008.051-.007.074-.007s.036,0,.035-.019-.022-.014-.036-.017a.056.056,0,0,0-.074.042M7.624,6.412a.128.128,0,0,0,.081.035c.012,0,.028,0,.032-.013s-.01-.028-.024-.034a.114.114,0,0,0-.088.011M11.7,9.357a.081.081,0,0,0-.088-.008c-.009.006-.018.012-.013.024a.021.021,0,0,0,.025.013c.023-.008.051,0,.076-.029m5.255-1.9c-.022,0-.049-.007-.068.015a.022.022,0,0,0-.005.027c.006.009.018.016.024.007a.071.071,0,0,1,.069-.018.014.014,0,0,0,.012-.016c0-.008-.006-.013-.014-.015h-.017m10.885.542a.207.207,0,0,0-.16.007.165.165,0,0,0,.16-.007m-1.964-.1c0,.017.009.023.022.028s.044-.006.055-.027-.008-.022-.02-.026a.047.047,0,0,0-.057.025M8.479,9.192a.037.037,0,0,0,.007.013.033.033,0,0,0,.042,0c.017-.012.036-.022.031-.048a.017.017,0,0,0-.008-.012c-.013-.008-.07.029-.072.046M30.648,8.8a.039.039,0,0,0,.037.04c.015,0,.034,0,.038-.015s-.022-.023-.034-.033a.067.067,0,0,0-.021-.009.016.016,0,0,0-.02.016M10.936,8.79a.048.048,0,0,0,.049.045A.015.015,0,0,0,11,8.821c0-.017-.028-.051-.047-.051s-.016.009-.018.02m12.017,7.287c0,.015.01.033.032.031a.032.032,0,0,0,.033-.035c0-.018-.017-.023-.032-.023a.028.028,0,0,0-.033.027m7.066-7.717c.043-.007.054-.033.076-.044s.019-.019.006-.031a.024.024,0,0,0-.038.006c-.012.018-.023.038-.043.07M20.785,6.831c-.032-.024-.059-.011-.082-.017a.014.014,0,0,0-.019.016.019.019,0,0,0,.016.013.269.269,0,0,0,.085-.013m8.657.4a.246.246,0,0,0-.075.017.015.015,0,0,0-.006.012.018.018,0,0,0,.008.011c.026.01.05,0,.073-.04m-11.456.284c.01,0,.031,0,.03-.021S18,7.47,17.982,7.471s-.028.006-.03.02.016.02.034.023m7.23.456a.048.048,0,0,0,.045-.054.016.016,0,0,0-.02-.017c-.027.007-.026.034-.032.054,0,0,0,.009.007.018m-1.18-.059c.049.027.049.027.1,0-.043.007-.072-.015-.1,0m-12.055.78c.023.007.038-.007.053-.021a.017.017,0,0,0,0-.026.024.024,0,0,0-.029,0,.056.056,0,0,0-.025.051M27.3,8.383c0,.015.008.024.023.022s.024-.011.023-.026,0-.033-.025-.031-.02.02-.022.035M22.154,6.809c-.034-.013-.059-.017-.083,0,0,0,0,.011,0,.013a.064.064,0,0,0,.082-.015M11.736,8.59c-.032,0-.057,0-.063.031a.015.015,0,0,0,.007.011c.032.01.044-.009.056-.043M18.627,6.9c.023,0,.041.038.068.015a.008.008,0,0,0,0-.007c-.019-.026-.045-.015-.07-.008M16.522,8.963c.044.018.044.018.076,0-.024-.021-.046-.01-.076,0M7.86,8.712c-.012,0-.028,0-.032.021s0,.022.016.02.036-.006.037-.029c0-.008-.009-.01-.02-.011" transform="translate(0 0)" fill="#fff" fill-rule="evenodd"/>
      <path id="Path_207" data-name="Path 207" d="M81.095,17.568c-.022,0-.042-.008-.063-.01s-.057-.008-.058-.046a.074.074,0,0,1,.057-.085.213.213,0,0,1,.156-.006.092.092,0,0,0,.082,0,.076.076,0,0,1,.06-.006c.015,0,.032.009.045,0a.182.182,0,0,1,.148-.022,1.236,1.236,0,0,0,.22-.018.615.615,0,0,1,.235.024.144.144,0,0,0,.134-.01.284.284,0,0,1,.161-.034.583.583,0,0,0,.122,0c.032-.009.041.042.073.032s.033-.04.063-.039.051,0,.077,0a.882.882,0,0,0,.205.024c.02,0,.051,0,.055.028a.1.1,0,0,1-.023.079.042.042,0,0,1-.062,0,.071.071,0,0,0-.079-.009.054.054,0,0,1-.051,0,.213.213,0,0,0-.164-.015.2.2,0,0,1-.106,0,.109.109,0,0,0-.112.027.274.274,0,0,1-.2.05c-.011,0-.022,0-.018-.018.011-.045-.021-.039-.045-.036a.263.263,0,0,0-.066.02.605.605,0,0,1-.188.032c-.035,0-.045-.045-.082-.028a.143.143,0,0,1-.081.016.115.115,0,0,1-.045-.008c-.035-.019-.063-.037-.077.022-.006.023-.039.023-.058,0s-.02-.051-.052-.049-.04.02-.061.031a.077.077,0,0,1-.112-.025l-.008-.013c-.011-.016-.024-.029-.045-.016s-.015.027-.007.046c.016.041.006.053-.031.051" transform="translate(-54.582 -11.692)" fill="#fff" fill-rule="evenodd"/>
      <path id="Path_208" data-name="Path 208" d="M87.6,27.2c.009,0,.032,0,.055.009a.059.059,0,0,1,.05.048c.01.042.024.044.056.014a.141.141,0,0,1,.051-.032c.019-.005.036-.023.057-.018s.017.035.026.051a.214.214,0,0,0,.018.025c.01.016.037.025.023.051s-.032.011-.049.012a.958.958,0,0,1-.259,0,.054.054,0,0,0-.037,0,.359.359,0,0,1-.183.009c-.06-.007-.075-.044-.042-.1a.118.118,0,0,1,.085-.061c.024,0,.048-.014.074-.018a.6.6,0,0,1,.075,0" transform="translate(-58.879 -18.332)" fill="#fff" fill-rule="evenodd"/>
      <path id="Path_209" data-name="Path 209" d="M63.39,17.746a.105.105,0,0,1,.034.012.055.055,0,0,0,.064.005.166.166,0,0,1,.083-.012h.2a.142.142,0,0,1,.061,0,.118.118,0,0,0,.154-.016.036.036,0,0,1,.044,0,.077.077,0,0,0,.051.012c.023,0,.042,0,.041.031s-.012.045-.041.046c-.01,0-.02,0-.03,0l-.038,0c-.041,0-.07.031-.107.04s-.062-.042-.1-.04a.716.716,0,0,0-.189.026c-.038.014-.077.034-.116,0-.055.02-.111-.031-.169,0a.137.137,0,0,1-.068.006c-.017,0-.039,0-.044-.022a.038.038,0,0,1,.023-.037.366.366,0,0,1,.153-.056" transform="translate(-42.611 -11.953)" fill="#fff" fill-rule="evenodd"/>
      <path id="Path_210" data-name="Path 210" d="M69.808,17.725a.252.252,0,0,1,.12.018.054.054,0,0,0,.045,0,.4.4,0,0,1,.305,0,.451.451,0,0,0,.074.02c.01,0,.026.006.029,0,.05-.065.1.013.148,0,0,0,.009.01.011.018a.013.013,0,0,1-.012.016c-.05.006-.1.044-.152-.006a.036.036,0,0,0-.044,0,.109.109,0,0,1-.095.007.521.521,0,0,0-.153-.009.189.189,0,0,0-.094.03.322.322,0,0,1-.255.049c-.044-.009-.059-.027-.056-.074s.018-.072.067-.073c.02,0,.04,0,.061,0" transform="translate(-46.969 -11.94)" fill="#fff" fill-rule="evenodd"/>
      <path id="Path_211" data-name="Path 211" d="M47.54,28.578c-.111-.012-.223-.02-.334-.022a.889.889,0,0,1-.18-.037c-.028-.008-.031-.025-.011-.044a.107.107,0,0,1,.125-.032.1.1,0,0,0,.108,0c.072.025.142-.012.215-.006a.492.492,0,0,0,.21,0c.022-.007.047-.012.059.016s-.015.074-.03.073a.265.265,0,0,0-.125.049.161.161,0,0,1-.037.006" transform="translate(-31.683 -19.163)" fill="#fff" fill-rule="evenodd"/>
      <path id="Path_212" data-name="Path 212" d="M55.824,17.795c-.066.036-.141.045-.206.081-.02.011-.038-.007-.054-.02a.131.131,0,0,0-.163-.019.485.485,0,0,0-.126.07c-.023.022-.058.009-.086.025-.006-.031.027-.032.029-.053s-.018-.018-.027-.027c-.039-.035-.041-.035-.07,0a.1.1,0,0,1-.07.042.294.294,0,0,0-.082.014.024.024,0,0,1-.032-.014c-.006-.013,0-.031.01-.031.043,0,.03-.053.06-.063a.34.34,0,0,0,.083-.038.126.126,0,0,1,.151,0,.11.11,0,0,0,.135.009.06.06,0,0,1,.052,0,.3.3,0,0,0,.138.007.22.22,0,0,1,.091,0,.876.876,0,0,0,.168.011" transform="translate(-37.029 -11.958)" fill="#fff" fill-rule="evenodd"/>
      <path id="Path_213" data-name="Path 213" d="M42.335,18.23c.012-.084.016-.084.084-.082a.77.77,0,0,0,.235-.009,1.011,1.011,0,0,1,.16,0,.087.087,0,0,1,.084.092.041.041,0,0,1-.069.034.071.071,0,0,0-.09-.008.2.2,0,0,1-.156.01.111.111,0,0,0-.1.016c-.022.012-.038.01-.051-.012s-.006-.042-.031-.049-.037.015-.064.013" transform="translate(-28.537 -12.223)" fill="#fff" fill-rule="evenodd"/>
      <path id="Path_214" data-name="Path 214" d="M45.359,18.2a.259.259,0,0,0-.1.05c-.045.04-.062.038-.119,0a.077.077,0,0,0-.058-.012.3.3,0,0,0-.1.029.272.272,0,0,1-.277,0c-.025-.012-.043-.014-.057.013a.023.023,0,0,1-.01.01.027.027,0,0,1-.035,0,.022.022,0,0,1,0-.034.119.119,0,0,1,.076-.049c.071-.009.142-.017.213-.029a.739.739,0,0,1,.182.009c.091.007.183.009.288.015" transform="translate(-30.059 -12.25)" fill="#fff" fill-rule="evenodd"/>
      <path id="Path_215" data-name="Path 215" d="M104.968,11.9a.3.3,0,0,1,.243.033.022.022,0,0,0,.015,0,.105.105,0,0,1,.125.071c.006.014.037.015.025.039s-.03.053-.056.045c-.066-.02-.1.024-.136.059-.021.021-.036.017-.043-.011a.074.074,0,0,0-.017-.042.081.081,0,0,1-.029-.087.066.066,0,0,0-.091-.07c-.044.012-.016-.033-.035-.043Z" transform="translate(-70.757 -8.012)" fill="#fff" fill-rule="evenodd"/>
      <path id="Path_216" data-name="Path 216" d="M35.16,18.655c-.05-.06-.05-.06-.111-.028-.02.011-.039.025-.057.037a.1.1,0,0,1-.137-.055c-.009-.034.04-.079.079-.069a.307.307,0,0,1,.057.021.079.079,0,0,0,.087-.007.552.552,0,0,1,.256-.067.038.038,0,0,1,.046.02c.009.022-.009.032-.022.043l-.053.045c-.011.01-.024.023-.04.015-.05-.024-.075.009-.105.046" transform="translate(-23.494 -12.461)" fill="#fff" fill-rule="evenodd"/>
      <path id="Path_217" data-name="Path 217" d="M60.762,27.293a.9.9,0,0,1,.092-.047.059.059,0,0,1,.071.013c.021.03.05.061.041.1a.029.029,0,0,1-.034.025c-.069-.015-.121.03-.177.054a.243.243,0,0,1-.2-.015.034.034,0,0,1-.021-.038.055.055,0,0,1,.033-.046.151.151,0,0,1,.187.017.093.093,0,0,0,.035.015.021.021,0,0,0,.018-.009.029.029,0,0,0,0-.022c-.01-.021-.043-.02-.049-.051" transform="translate(-40.805 -18.362)" fill="#fff" fill-rule="evenodd"/>
      <path id="Path_218" data-name="Path 218" d="M87.338,17.35c.07-.089.17-.067.262-.071a.028.028,0,0,1,.019.01.2.2,0,0,1-.025.119.274.274,0,0,1-.174.048.859.859,0,0,0-.1,0c-.042.007-.111-.064-.109-.108a.021.021,0,0,1,.019-.021c.021,0,.048,0,.053.022.014.056.054.045.092.041l.061-.006a.015.015,0,0,0,.013-.016.016.016,0,0,0-.016-.014c-.02,0-.04,0-.061,0s-.026,0-.034-.01" transform="translate(-58.787 -11.647)" fill="#fff" fill-rule="evenodd"/>
      <path id="Path_219" data-name="Path 219" d="M76.174,14.96a.166.166,0,0,1-.184.03,1.326,1.326,0,0,1-.315-.09.1.1,0,0,0-.044-.008.094.094,0,0,1-.1-.048c-.017-.032-.051-.027-.082-.014-.014.006-.03.012-.04-.005a.025.025,0,0,1,0-.022.031.031,0,0,1,.037-.021.4.4,0,0,1,.067.015,1.4,1.4,0,0,0,.142.018c.063.011.136,0,.192.064a.289.289,0,0,0,.228.068.277.277,0,0,1,.1.014" transform="translate(-50.832 -9.964)" fill="#fff" fill-rule="evenodd"/>
      <path id="Path_220" data-name="Path 220" d="M40.468,18.292c-.035-.047-.078-.006-.112-.038a.369.369,0,0,1,.12-.035,1.04,1.04,0,0,0,.2-.034c.034-.008.074-.022.1.006s0,.066-.01.1c0,.015-.006.031-.031.035-.021-.022-.011-.052-.018-.078s-.007-.025-.022-.028-.028.008-.037.022,0,.03-.007.045c-.006.044-.024.055-.067.045-.01,0-.025-.011-.027-.008-.044.046-.1.017-.145.017a.065.065,0,0,0-.042.015c-.019.016-.036.019-.051,0s-.04-.017-.063-.019a.015.015,0,0,1-.016-.014c0-.013.01-.018.021-.016a1.106,1.106,0,0,0,.21-.008" transform="translate(-27.124 -12.251)" fill="#fff" fill-rule="evenodd"/>
      <path id="Path_221" data-name="Path 221" d="M66.538,17.872a.254.254,0,0,0-.136,0,.09.09,0,0,1-.061,0,.157.157,0,0,0-.1-.02.02.02,0,0,1-.023-.016.018.018,0,0,1,.015-.022c.033-.006.06-.028.095-.029a.1.1,0,0,0,.045-.007.371.371,0,0,1,.217-.025c.034,0,.067,0,.1,0a.028.028,0,0,1,.029.02c0,.012,0,.03-.009.034-.057.021-.1.068-.169.065" transform="translate(-44.634 -11.964)" fill="#fff" fill-rule="evenodd"/>
      <path id="Path_222" data-name="Path 222" d="M103.827,11.7a.233.233,0,0,0-.173.055c-.012-.014,0-.023,0-.033s-.007-.036-.03-.03a.173.173,0,0,0-.086.027.089.089,0,0,1-.1.012.634.634,0,0,0-.1-.021c-.022,0-.046,0-.064-.026.028-.021.072-.021.077-.067a.036.036,0,0,1,.046-.019c.062.029.136.006.2.045a.059.059,0,0,0,.044.007c.078-.037.128.022.188.05Z" transform="translate(-69.615 -7.819)" fill="#fff" fill-rule="evenodd"/>
      <path id="Path_223" data-name="Path 223" d="M59.294,17.893c-.021-.018-.022-.064-.07-.054-.018,0-.038-.049-.03-.069s.03-.022.052-.019a.559.559,0,0,0,.279-.015.092.092,0,0,1,.092.006c-.009.029-.035.034-.058.042-.061.021-.061.021-.06.083a.072.072,0,0,1,0,.022c-.005.019-.021.021-.037.019s-.021-.014-.014-.028a.036.036,0,0,0-.012-.053c-.022-.014-.039,0-.056.011l-.045.03a.093.093,0,0,1-.043.024" transform="translate(-39.9 -11.949)" fill="#fff" fill-rule="evenodd"/>
      <path id="Path_224" data-name="Path 224" d="M46.125,27.917a.059.059,0,0,1,.06-.037.309.309,0,0,0,.191-.038A.171.171,0,0,1,46.5,27.8c.028.006.051-.019.074-.035s.024-.012.032,0a.023.023,0,0,1-.007.033c-.039.03-.067.076-.126.07-.019,0-.029.021-.044.029a.263.263,0,0,1-.307.015" transform="translate(-31.092 -18.713)" fill="#fff" fill-rule="evenodd"/>
      <path id="Path_225" data-name="Path 225" d="M50.308,18.037c0,.009,0,.016,0,.019-.049.051-.13.05-.178.105-.012.014-.039.006-.059,0a.113.113,0,0,0-.075,0c-.022.007-.047.01-.057-.019s0-.076.029-.078c.054-.007.106-.043.163-.009a.086.086,0,0,0,.081-.007.121.121,0,0,1,.1-.007" transform="translate(-33.659 -12.153)" fill="#fff" fill-rule="evenodd"/>
      <path id="Path_226" data-name="Path 226" d="M73.85,26.591a.057.057,0,0,1,.038.019c.06.053.059.094-.013.126-.028.013-.051.021-.048.056a.009.009,0,0,1,0,.007c-.037.032-.077,0-.117.007-.016,0-.049-.055-.044-.074a.059.059,0,0,1,.018-.023.116.116,0,0,1,.034-.019.231.231,0,0,0,.135-.1" transform="translate(-49.654 -17.925)" fill="#fff" fill-rule="evenodd"/>
      <path id="Path_227" data-name="Path 227" d="M44.423,28.3c.032.014.059,0,.088-.013a.139.139,0,0,1,.1,0,.178.178,0,0,0,.156-.011c.038-.021.057-.005.055.038,0,.07-.044.1-.1.082a.956.956,0,0,0-.315-.057l-.023,0c-.007,0-.014-.009-.012-.016a.024.024,0,0,1,.012-.018.068.068,0,0,1,.046,0" transform="translate(-29.905 -19.054)" fill="#fff" fill-rule="evenodd"/>
      <path id="Path_228" data-name="Path 228" d="M30.279,18.843c.025-.034.057-.049.066-.084a.039.039,0,0,1,.051-.024.465.465,0,0,0,.12.022c.028,0,.05.025.058.054a.057.057,0,0,1-.006.059.043.043,0,0,1-.056.007.114.114,0,0,0-.089-.006.285.285,0,0,1-.144-.029" transform="translate(-20.41 -12.628)" fill="#fff" fill-rule="evenodd"/>
      <path id="Path_229" data-name="Path 229" d="M71.261,26.656a.3.3,0,0,0-.055.078.064.064,0,0,1-.091.043.661.661,0,0,0-.2-.042s-.008-.006-.011-.009c0-.021.022-.019.036-.016a.168.168,0,0,0,.131-.033c.064-.047.126-.019.19-.021" transform="translate(-47.794 -17.964)" fill="#fff" fill-rule="evenodd"/>
      <path id="Path_230" data-name="Path 230" d="M61.548,17.751a.279.279,0,0,1,.24-.1.158.158,0,0,0,.09-.012.033.033,0,0,1,.044.021c.008.017,0,.026-.017.036-.045.033-.086.066-.145.024a.062.062,0,0,0-.073,0c-.042.034-.091.023-.139.027" transform="translate(-41.488 -11.89)" fill="#fff" fill-rule="evenodd"/>
      <path id="Path_231" data-name="Path 231" d="M38.624,18.473c.012-.008.024-.014.029-.021.052-.11.154-.09.247-.094a.028.028,0,0,1,.03.02.034.034,0,0,1-.011.035.1.1,0,0,1-.1.031.086.086,0,0,0-.092.024.07.07,0,0,1-.105.006" transform="translate(-26.036 -12.375)" fill="#fff" fill-rule="evenodd"/>
      <path id="Path_232" data-name="Path 232" d="M76.616,17.659a.176.176,0,0,0,.035-.02.141.141,0,0,1,.148-.028c.036.011.07-.005.112,0-.008.037-.017.068-.059.067a.065.065,0,0,0-.047.021.025.025,0,0,1-.028.007c-.063-.024-.072-.022-.107.032-.008.013-.015.027-.039.028,0-.022.028-.029.023-.05s-.032-.025-.038-.054" transform="translate(-51.645 -11.865)" fill="#fff" fill-rule="evenodd"/>
      <path id="Path_233" data-name="Path 233" d="M81.564,16.411a.154.154,0,0,1,.144.013.042.042,0,0,0,.05,0,.18.18,0,0,1,.141,0c.015,0,.031.011.029.029s-.018.037-.035.035c-.075-.01-.157.029-.227-.03-.026-.022-.069-.018-.1-.054" transform="translate(-54.98 -11.055)" fill="#fff" fill-rule="evenodd"/>
      <path id="Path_234" data-name="Path 234" d="M74.688,26.64c.023,0,.033.017.028.041s-.029.06,0,.1c.01.014-.007.027-.026.02a.278.278,0,0,0-.066-.021c-.029,0-.061-.018-.08.02a.015.015,0,0,1-.026,0,.026.026,0,0,1,0-.021.316.316,0,0,1,.178-.135" transform="translate(-50.225 -17.958)" fill="#fff" fill-rule="evenodd"/>
      <path id="Path_235" data-name="Path 235" d="M85.967,16.612a.208.208,0,0,1-.235.1c-.011,0-.025-.008-.028-.023s.012-.022.023-.028a1.123,1.123,0,0,1,.214-.059.025.025,0,0,1,.026.012" transform="translate(-57.772 -11.189)" fill="#fff" fill-rule="evenodd"/>
      <path id="Path_236" data-name="Path 236" d="M79.062,17.716c.015-.021.047-.029.025-.06a.086.086,0,0,0-.1-.033c-.014.007-.025.019-.038.026s-.026.007-.033-.007,0-.029.011-.031a.584.584,0,0,0,.1-.041.157.157,0,0,1,.149.04c.009.006.014.02.006.026-.032.023-.048.064-.086.081-.007,0-.015,0-.033,0" transform="translate(-53.193 -11.839)" fill="#fff" fill-rule="evenodd"/>
      <path id="Path_237" data-name="Path 237" d="M75.813,17.78c-.012.018,0,.029,0,.041s.006.037-.013.048-.05,0-.071-.012a.028.028,0,0,1-.007-.046c.022-.021-.005-.054.022-.07a.15.15,0,0,1,.09-.006c.026,0,.07-.006.065.032s-.044.016-.069.012h-.018" transform="translate(-51.037 -11.952)" fill="#fff" fill-rule="evenodd"/>
      <path id="Path_238" data-name="Path 238" d="M81.007,26.092c.045-.079.132-.052.2-.081a.027.027,0,0,1,.033.013c.008.019.032.025.037.047a.855.855,0,0,1-.269.021" transform="translate(-54.605 -17.533)" fill="#fff" fill-rule="evenodd"/>
      <path id="Path_239" data-name="Path 239" d="M92.734,34.838c.007-.051.029-.062.072-.036a.152.152,0,0,1,.031.023c.016.014.054-.008.053.03s-.032.029-.05.042-.023.039-.046.037-.033-.037-.054-.052-.008-.029-.006-.043" transform="translate(-62.508 -23.45)" fill="#fff" fill-rule="evenodd"/>
      <path id="Path_240" data-name="Path 240" d="M83.1,16.639c-.04-.02-.076.008-.114.007a.532.532,0,0,0-.068,0c-.034,0-.045-.016-.049-.045s.011-.032.031-.028a.075.075,0,0,1,.035.014A.082.082,0,0,0,83,16.6a1.089,1.089,0,0,1,.153,0,.019.019,0,0,1,.02.02.02.02,0,0,1-.021.019c-.021,0-.04,0-.059,0" transform="translate(-55.856 -11.171)" fill="#fff" fill-rule="evenodd"/>
      <path id="Path_241" data-name="Path 241" d="M79.293,18.43a.1.1,0,0,1-.074.008,1.225,1.225,0,0,0-.176.011c-.025,0-.039.023-.06.032s-.037.012-.046-.009.007-.03.021-.037a.156.156,0,0,1,.095-.024.177.177,0,0,0,.09-.012.19.19,0,0,1,.153.032Z" transform="translate(-53.208 -12.398)" fill="#fff" fill-rule="evenodd"/>
      <path id="Path_242" data-name="Path 242" d="M75.983,4.248c-.026-.007-.055-.031-.093-.019-.009,0-.018-.008-.019-.02s.011-.035.025-.033a.327.327,0,0,0,.125-.02c.018-.005.033.012.036.032a.053.053,0,0,1-.022.053.088.088,0,0,1-.051.007" transform="translate(-51.143 -2.801)" fill="#fff" fill-rule="evenodd"/>
      <path id="Path_243" data-name="Path 243" d="M32.366,19.042c.018-.022.031-.041.046-.058a.116.116,0,0,1,.048-.037c.029-.01.074,0,.077.017s-.019.04-.036.054a.14.14,0,0,1-.135.024" transform="translate(-21.817 -12.769)" fill="#fff" fill-rule="evenodd"/>
      <path id="Path_244" data-name="Path 244" d="M81.964,18.385a.68.68,0,0,1-.365,0,1.7,1.7,0,0,1,.365,0" transform="translate(-55.004 -12.387)" fill="#fff" fill-rule="evenodd"/>
      <path id="Path_245" data-name="Path 245" d="M80.131,17.554a.141.141,0,0,1-.092.035.417.417,0,0,0-.083.009.024.024,0,0,1-.03-.017c0-.018.006-.035.022-.033.06,0,.12-.032.183.006" transform="translate(-53.875 -11.821)" fill="#fff" fill-rule="evenodd"/>
      <path id="Path_246" data-name="Path 246" d="M48.955,18.122a.484.484,0,0,0,.09-.076.06.06,0,0,1,.046-.022.025.025,0,0,1,.025.012.019.019,0,0,1,0,.027c-.028.015-.04.045-.064.064a.059.059,0,0,1-.094-.006" transform="translate(-32.999 -12.15)" fill="#fff" fill-rule="evenodd"/>
      <path id="Path_247" data-name="Path 247" d="M102.643,11.486a.274.274,0,0,1,.223-.047c-.079.032-.131.1-.223.047" transform="translate(-69.189 -7.705)" fill="#fff" fill-rule="evenodd"/>
      <path id="Path_248" data-name="Path 248" d="M81.127,25.578c.012-.038.021-.061.041-.064.043,0,.08-.035.125-.026a.031.031,0,0,1,.024.016.029.029,0,0,1-.012.033.071.071,0,0,1-.057.015.228.228,0,0,0-.122.026" transform="translate(-54.686 -17.18)" fill="#fff" fill-rule="evenodd"/>
      <path id="Path_249" data-name="Path 249" d="M53.319,18.007a.179.179,0,0,0-.108.033.053.053,0,0,1-.043.014.022.022,0,0,1-.018-.034.018.018,0,0,1,.011-.009c.042-.009.037-.08.08-.07s.045.051.076.068Z" transform="translate(-35.826 -12.093)" fill="#fff" fill-rule="evenodd"/>
      <path id="Path_250" data-name="Path 250" d="M62.358,26.878a.046.046,0,0,1,.034-.058l.1-.033c.016-.006.03-.005.037.013a.032.032,0,0,1-.014.04.02.02,0,0,1-.013.007c-.051,0-.1.028-.146.031Z" transform="translate(-42.033 -18.054)" fill="#fff" fill-rule="evenodd"/>
      <path id="Path_251" data-name="Path 251" d="M72.669,17.742c.018,0,.028.008.031.022a.035.035,0,0,1-.023.042.37.37,0,0,0-.087.019c-.012,0-.025,0-.029-.018s0-.022.007-.027a.261.261,0,0,1,.1-.038" transform="translate(-48.91 -11.96)" fill="#fff" fill-rule="evenodd"/>
      <path id="Path_252" data-name="Path 252" d="M33.669,18.9a.234.234,0,0,1,.142-.066c.013,0,.026,0,.03.018a.025.025,0,0,1-.017.029c-.049.018-.1.047-.155.018" transform="translate(-22.696 -12.697)" fill="#fff" fill-rule="evenodd"/>
      <path id="Path_253" data-name="Path 253" d="M80.8,16.171c-.049.048-.1.027-.154.022a.019.019,0,0,1-.019-.02.02.02,0,0,1,.017-.022c.052,0,.106-.021.157.019" transform="translate(-54.348 -10.883)" fill="#fff" fill-rule="evenodd"/>
      <path id="Path_254" data-name="Path 254" d="M82.827,25.594a.282.282,0,0,1,.117-.019.068.068,0,0,1,.029.007.036.036,0,0,1,.021.037c0,.019-.022.022-.036.019-.044-.007-.088-.017-.132-.026,0-.006,0-.011,0-.018" transform="translate(-55.831 -17.239)" fill="#fff" fill-rule="evenodd"/>
      <path id="Path_255" data-name="Path 255" d="M90.93,18.227l.058-.075A.084.084,0,0,1,91,18.137a.071.071,0,0,1,.079,0c.011.012-.012.053-.04.064a.9.9,0,0,1-.113.025" transform="translate(-61.294 -12.218)" fill="#fff" fill-rule="evenodd"/>
      <path id="Path_256" data-name="Path 256" d="M82.325,15.469,82.2,15.5a.029.029,0,0,1-.037-.018.033.033,0,0,1,.016-.045.064.064,0,0,1,.066,0c.025.015.053.017.081.036" transform="translate(-55.381 -10.398)" fill="#fff" fill-rule="evenodd"/>
      <path id="Path_257" data-name="Path 257" d="M42.82,27.952c.008-.037.028-.049.058-.042a.228.228,0,0,0,.147,0c-.05.053-.066.056-.2.039" transform="translate(-28.864 -18.812)" fill="#fff" fill-rule="evenodd"/>
      <path id="Path_258" data-name="Path 258" d="M68.21,17.782a.02.02,0,0,1-.017.022c-.037.007-.075.016-.113.022-.02,0-.031-.017-.02-.037a.046.046,0,0,1,.036-.025.328.328,0,0,1,.1,0,.015.015,0,0,1,.015.014" transform="translate(-45.875 -11.973)" fill="#fff" fill-rule="evenodd"/>
      <path id="Path_259" data-name="Path 259" d="M78.392,15.643a.084.084,0,0,1,.088.012c.043.042.089.059.142.015,0,0,.014,0,.022,0-.037.06-.069.072-.118.041s-.084-.038-.134-.068" transform="translate(-52.842 -10.54)" fill="#fff" fill-rule="evenodd"/>
      <path id="Path_260" data-name="Path 260" d="M78.341,17.621a.176.176,0,0,1,.024,0c.016.006.038.012.031.035s-.025.022-.042.012a.086.086,0,0,0-.08,0c-.011,0-.028,0-.032-.009s.011-.025.027-.028l.073-.015" transform="translate(-52.74 -11.878)" fill="#fff" fill-rule="evenodd"/>
      <path id="Path_261" data-name="Path 261" d="M79.342,15.773a.385.385,0,0,0,.082-.012.067.067,0,0,1,.059.007.034.034,0,0,1,.011.019.017.017,0,0,1-.018.02c-.046-.006-.1.014-.134-.033" transform="translate(-53.483 -10.622)" fill="#fff" fill-rule="evenodd"/>
      <path id="Path_262" data-name="Path 262" d="M97.273,32.271c.016-.02.031-.04.048-.058a.036.036,0,0,1,.058.007c.016.019,0,.032-.014.043a.064.064,0,0,1-.094.006Z" transform="translate(-65.569 -21.707)" fill="#fff" fill-rule="evenodd"/>
      <path id="Path_263" data-name="Path 263" d="M62.542,18.053A.124.124,0,0,1,62.655,18c.012,0,.029,0,.031.014s-.013.026-.028.03a.4.4,0,0,1-.053,0l-.063.009" transform="translate(-42.158 -12.131)" fill="#fff" fill-rule="evenodd"/>
      <path id="Path_264" data-name="Path 264" d="M93.948,18.049a.182.182,0,0,1-.093.047c-.019,0-.039,0-.041-.025a.032.032,0,0,1,.029-.032.172.172,0,0,1,.1.01" transform="translate(-63.239 -12.157)" fill="#fff" fill-rule="evenodd"/>
      <path id="Path_265" data-name="Path 265" d="M46.125,27.772c-.015,0-.025,0-.031-.013a.022.022,0,0,1,0-.027.067.067,0,0,1,.018-.014c.021-.01.039-.025.064-.018a.022.022,0,0,1,.007.019.087.087,0,0,1-.063.053" transform="translate(-31.069 -18.671)" fill="#fff" fill-rule="evenodd"/>
      <path id="Path_266" data-name="Path 266" d="M73.746,17.782c-.043.007-.076.006-.093-.036-.005-.01-.018-.022,0-.033a.03.03,0,0,1,.041,0c.019.019.034.04.055.065" transform="translate(-49.641 -11.936)" fill="#fff" fill-rule="evenodd"/>
      <path id="Path_267" data-name="Path 267" d="M71.606,25.812a.092.092,0,0,1,.107-.022c.013,0,.035.007.029.027s-.024.017-.04.015l-.1-.02" transform="translate(-48.268 -17.379)" fill="#fff" fill-rule="evenodd"/>
      <path id="Path_268" data-name="Path 268" d="M37.773,18.554a.226.226,0,0,1,.021-.026c.009-.007.02-.011.026,0a.167.167,0,0,0,.039.045c.008.007.014.016.008.027a.022.022,0,0,1-.033.008c-.021-.016-.04-.035-.062-.055" transform="translate(-25.462 -12.485)" fill="#fff" fill-rule="evenodd"/>
      <path id="Path_269" data-name="Path 269" d="M53.668,18.129c.03,0,.059-.016.089-.008s.029.012.026.031a.027.027,0,0,1-.027.022.082.082,0,0,1-.087-.046Z" transform="translate(-36.176 -12.213)" fill="#fff" fill-rule="evenodd"/>
      <path id="Path_270" data-name="Path 270" d="M52.209,18.33a.086.086,0,0,1,.073-.068.014.014,0,0,1,.015.02.114.114,0,0,1-.073.062.015.015,0,0,1-.016-.014" transform="translate(-35.193 -12.31)" fill="#fff" fill-rule="evenodd"/>
      <path id="Path_271" data-name="Path 271" d="M55.9,27.75c.029-.069.042-.08.079-.068.012,0,.024.011.023.026a.021.021,0,0,1-.023.017c-.026,0-.045.019-.079.025" transform="translate(-37.68 -18.658)" fill="#fff" fill-rule="evenodd"/>
      <path id="Path_272" data-name="Path 272" d="M78.105,4.5c.014,0,.026.01.026.023,0,.029-.023.037-.047.037s-.032,0-.036-.021.036-.04.058-.039" transform="translate(-52.61 -3.037)" fill="#fff" fill-rule="evenodd"/>
      <path id="Path_273" data-name="Path 273" d="M78.024,15.5c-.029,0-.06-.023-.054-.037s.022-.038.043-.037.027.028.032.046a.023.023,0,0,1-.021.029" transform="translate(-52.557 -10.399)" fill="#fff" fill-rule="evenodd"/>
      <path id="Path_274" data-name="Path 274" d="M89.6,18.195c.037,0,.075,0,.113,0,.013,0,.025.01.022.026s-.014.014-.024.013a.214.214,0,0,1-.11-.039" transform="translate(-60.399 -12.264)" fill="#fff" fill-rule="evenodd"/>
      <path id="Path_275" data-name="Path 275" d="M77.779,17.763c-.012,0-.027,0-.026-.018s.008-.017.018-.021a.109.109,0,0,1,.022-.005c.019,0,.044-.007.047.02s-.023.018-.039.022l-.022,0" transform="translate(-52.412 -11.942)" fill="#fff" fill-rule="evenodd"/>
      <path id="Path_276" data-name="Path 276" d="M107.546,12.438c-.031,0-.052,0-.074,0s-.023-.019-.02-.035.019-.015.03-.01a.082.082,0,0,1,.064.05" transform="translate(-72.43 -8.349)" fill="#fff" fill-rule="evenodd"/>
      <path id="Path_277" data-name="Path 277" d="M70.477,27.06a.125.125,0,0,1,.054-.049.019.019,0,0,1,.027,0,.025.025,0,0,1,0,.028c-.013.024-.025.027-.082.017" transform="translate(-47.507 -18.205)" fill="#fff" fill-rule="evenodd"/>
      <path id="Path_278" data-name="Path 278" d="M34.463,18.839a.044.044,0,0,1,.027.048.026.026,0,0,1-.032.024.03.03,0,0,1-.028-.037c0-.018.008-.035.033-.035" transform="translate(-23.209 -12.699)" fill="#fff" fill-rule="evenodd"/>
      <path id="Path_279" data-name="Path 279" d="M62.139,27.071c0,.018-.011.037-.031.04a.326.326,0,0,0-.074.032.1.1,0,0,1,.107-.071Z" transform="translate(-41.816 -18.248)" fill="#fff" fill-rule="evenodd"/>
      <path id="Path_280" data-name="Path 280" d="M51.646,18.019c.012,0,.022.009.019.019a.049.049,0,0,1-.048.04c-.011,0-.016-.012-.015-.022,0-.029.021-.036.045-.037" transform="translate(-34.783 -12.146)" fill="#fff" fill-rule="evenodd"/>
      <path id="Path_281" data-name="Path 281" d="M54.3,18.1c.035-.06.035-.06.094-.044a.2.2,0,0,1-.094.044" transform="translate(-36.6 -12.164)" fill="#fff" fill-rule="evenodd"/>
      <path id="Path_282" data-name="Path 282" d="M45.778,27.635a.018.018,0,0,1,.014.022.042.042,0,0,1-.051.04.02.02,0,0,1-.018-.021.058.058,0,0,1,.054-.042" transform="translate(-30.822 -18.628)" fill="#fff" fill-rule="evenodd"/>
      <path id="Path_283" data-name="Path 283" d="M93.292,34.624c0-.025.018-.052.035-.05a.021.021,0,0,1,.018.021.041.041,0,0,1-.033.044c-.011,0-.019,0-.02-.016" transform="translate(-62.886 -23.306)" fill="#fff" fill-rule="evenodd"/>
      <path id="Path_284" data-name="Path 284" d="M80.036,18.447c.007-.007.013-.021.02-.022a.609.609,0,0,1,.14-.008c-.051.026-.11.006-.162.028Z" transform="translate(-53.95 -12.414)" fill="#fff" fill-rule="evenodd"/>
      <path id="Path_285" data-name="Path 285" d="M78.167,18.466c0,.007,0,.011,0,.013a.064.064,0,0,1-.074.022.013.013,0,0,1-.006-.019c.007-.015.015-.016.079-.016" transform="translate(-52.636 -12.448)" fill="#fff" fill-rule="evenodd"/>
      <path id="Path_286" data-name="Path 286" d="M94.137,34.3c-.025.012-.05.024-.076.035-.009,0-.022.006-.027,0s0-.022.016-.03a.1.1,0,0,1,.087,0" transform="translate(-63.384 -23.116)" fill="#fff" fill-rule="evenodd"/>
      <path id="Path_287" data-name="Path 287" d="M48.167,18.263a.073.073,0,0,1,.035-.055.021.021,0,0,1,.033,0,.019.019,0,0,1-.007.032.117.117,0,0,1-.061.022" transform="translate(-32.468 -12.269)" fill="#fff" fill-rule="evenodd"/>
      <path id="Path_288" data-name="Path 288" d="M83.551,18.339c-.033.025-.058.035-.094.008a.075.075,0,0,1,.094-.008" transform="translate(-56.257 -12.354)" fill="#fff" fill-rule="evenodd"/>
      <path id="Path_289" data-name="Path 289" d="M83.424,18.511a.216.216,0,0,1,.121-.01.105.105,0,0,1-.121.01" transform="translate(-56.234 -12.469)" fill="#fff" fill-rule="evenodd"/>
      <path id="Path_290" data-name="Path 290" d="M77.483,18.494a.083.083,0,0,1-.1.026c.023-.036.051-.037.1-.026" transform="translate(-52.165 -12.463)" fill="#fff" fill-rule="evenodd"/>
      <path id="Path_291" data-name="Path 291" d="M41.975,18.568a.036.036,0,0,1,.034-.034c.011,0,.015.011.015.022s-.007.037-.031.034-.016-.01-.018-.022" transform="translate(-28.294 -12.493)" fill="#fff" fill-rule="evenodd"/>
      <path id="Path_292" data-name="Path 292" d="M93.005,18.241c-.02-.007-.02-.025-.017-.043s.01-.025.024-.019.015.029.014.046-.008.016-.021.015" transform="translate(-62.68 -12.253)" fill="#fff" fill-rule="evenodd"/>
      <path id="Path_293" data-name="Path 293" d="M93.455,18.27c0,.008,0,.015,0,.018s-.027.034-.051.024a.014.014,0,0,1-.007-.019.045.045,0,0,1,.063-.023" transform="translate(-62.952 -12.312)" fill="#fff" fill-rule="evenodd"/>
      <path id="Path_294" data-name="Path 294" d="M85.912,18.275a.1.1,0,0,1-.113,0c.038-.027.07-.009.113,0" transform="translate(-57.835 -12.309)" fill="#fff" fill-rule="evenodd"/>
      <path id="Path_295" data-name="Path 295" d="M81.83,5.784c.014,0,.028.006.03.021s-.012.02-.026.017-.035,0-.034-.022.018-.015.03-.016" transform="translate(-55.14 -3.899)" fill="#fff" fill-rule="evenodd"/>
      <path id="Path_296" data-name="Path 296" d="M69.994,27.117a.019.019,0,0,1,.019-.02c.018,0,.037,0,.042.02,0,0-.009.013-.015.014s-.036.006-.046-.014" transform="translate(-47.181 -18.265)" fill="#fff" fill-rule="evenodd"/>
      <path id="Path_297" data-name="Path 297" d="M32.018,18.757c.009,0,.015.008.013.016A.033.033,0,0,1,32,18.8a.017.017,0,0,1-.016-.021c.005-.021.023-.024.039-.025" transform="translate(-21.556 -12.644)" fill="#fff" fill-rule="evenodd"/>
      <path id="Path_298" data-name="Path 298" d="M76.823,18.5c-.014.025-.031.036-.054.019a.014.014,0,0,1,0-.014c.017-.022.037-.015.057,0" transform="translate(-51.745 -12.463)" fill="#fff" fill-rule="evenodd"/>
      <path id="Path_299" data-name="Path 299" d="M78.54,4.507c-.018.019-.024.053-.059.048a.007.007,0,0,1,0-.007c.005-.034.038-.032.063-.041" transform="translate(-52.9 -3.038)" fill="#fff" fill-rule="evenodd"/>
      <path id="Path_300" data-name="Path 300" d="M75.264,17.973a.026.026,0,0,1,.032-.024.02.02,0,0,1,.019.02.026.026,0,0,1-.028.028c-.015,0-.022-.008-.023-.023" transform="translate(-50.734 -12.099)" fill="#fff" fill-rule="evenodd"/>
      <path id="Path_301" data-name="Path 301" d="M74.536,3.355a.069.069,0,0,1,.084.015s0,.012,0,.013c-.03.012-.042-.019-.081-.028" transform="translate(-50.243 -2.257)" fill="#fff" fill-rule="evenodd"/>
      <path id="Path_302" data-name="Path 302" d="M88.044,18.241c0-.011.016-.012.024-.014s.03-.009.041.006,0,.011,0,.013a.038.038,0,0,1-.04.011c-.009,0-.019-.006-.022-.016" transform="translate(-59.349 -12.284)" fill="#fff" fill-rule="evenodd"/>
      <path id="Path_303" data-name="Path 303" d="M20.891,27.489a.171.171,0,0,1,.036.01c.022.01.043.024.035.052s-.032.019-.052.012a.154.154,0,0,0-.053,0,.04.04,0,0,1-.043-.037c0-.023.021-.026.038-.03a.365.365,0,0,1,.039,0" transform="translate(-14.03 -18.53)" fill="#fff" fill-rule="evenodd"/>
      <path id="Path_304" data-name="Path 304" d="M20.979,27.067c-.039.058-.089.037-.131.037-.014,0-.018-.016-.009-.029a.069.069,0,0,1,.067-.027c.022,0,.044.011.073.019" transform="translate(-14.044 -18.232)" fill="#fff" fill-rule="evenodd"/>
      <path id="Path_305" data-name="Path 305" d="M20.475,27.566a.025.025,0,0,1,.015-.024c.022-.01.039,0,.056.015a.038.038,0,0,1,.017.046.027.027,0,0,1-.027.023.09.09,0,0,1-.062-.059" transform="translate(-13.802 -18.563)" fill="#fff" fill-rule="evenodd"/>
      <path id="Path_306" data-name="Path 306" d="M22.756,27.451c.05,0,.083-.025.121-.013.012,0,.026.009.025.023s-.015.017-.028.018a.182.182,0,0,1-.119-.028" transform="translate(-15.339 -18.493)" fill="#fff" fill-rule="evenodd"/>
      <path id="Path_307" data-name="Path 307" d="M22.2,27.484c.009-.008.012-.011.014-.012.024-.007.049-.015.068.01a.014.014,0,0,1-.006.02c-.029.017-.052,0-.077-.018" transform="translate(-14.963 -18.514)" fill="#fff" fill-rule="evenodd"/>
      <path id="Path_308" data-name="Path 308" d="M21.46,27.487a.024.024,0,0,1,.029-.017c.018,0,.033.015.032.036s-.015.017-.028.015-.033-.012-.033-.034" transform="translate(-14.466 -18.517)" fill="#fff" fill-rule="evenodd"/>
      <path id="Path_309" data-name="Path 309" d="M86.171,24.428l-.028-.011a.025.025,0,0,1-.015-.024c0-.017.014-.022.027-.022a1.076,1.076,0,0,1,.108,0c.051,0,.1,0,.156.008-.015.026-.04.02-.06.023a.67.67,0,0,0-.188.033Z" transform="translate(-58.057 -16.424)" fill="#fff" fill-rule="evenodd"/>
      <path id="Path_310" data-name="Path 310" d="M82.582,24.186a.423.423,0,0,1-.037.046.022.022,0,0,1-.033,0,.023.023,0,0,1,.007-.033c.019-.016.042-.01.065-.009Z" transform="translate(-55.616 -16.303)" fill="#fff" fill-rule="evenodd"/>
      <path id="Path_311" data-name="Path 311" d="M91.63,25.452c0-.016.017-.016.029-.018s.031,0,.034.02a.021.021,0,0,1-.023.024.039.039,0,0,1-.04-.026" transform="translate(-61.766 -17.144)" fill="#fff" fill-rule="evenodd"/>
    </g>
  </g>
</svg>
