<svg xmlns="http://www.w3.org/2000/svg" xmlns:xlink="http://www.w3.org/1999/xlink" width="71.742" height="32.598" viewBox="0 0 71.742 32.598">
  <defs>
    <clipPath id="clip-path">
      <rect id="Rectangle_33" data-name="Rectangle 33" width="71.206" height="31.359" fill="#f6aa18"/>
    </clipPath>
  </defs>
  <g id="Group_251" data-name="Group 251" transform="matrix(1, -0.017, 0.017, 1, 0, 1.242)">
    <g id="Group_66" data-name="Group 66" transform="translate(0 0)" clip-path="url(#clip-path)">
      <path id="Path_206" data-name="Path 206" d="M9.873,20.436c.009.081.054.112.134.095a.5.5,0,0,1,.1-.008.252.252,0,0,1,.214.064.171.171,0,0,0,.106.047.62.62,0,0,1,.387.234.284.284,0,0,0,.131.093.263.263,0,0,1,.109.075,1.073,1.073,0,0,0,.39.267c.014.006.028.019.041.018a.336.336,0,0,1,.281.081c.024.026.065.005.1-.014a.133.133,0,0,1,.154.013,1,1,0,0,1,.257.222.272.272,0,0,0,.291.132c.021,0,.05-.009.054.006.025.084.107.106.161.158a.123.123,0,0,1,.018.128.145.145,0,0,0,.066.167c.038.031.076.065.112.1a.126.126,0,0,0,.107.037c.091-.007.118.015.14.095.061.207.1.245.319.255a.266.266,0,0,1,.151.053.23.23,0,0,0,.191.059c.057-.01.078.035.064.088-.009.038-.025.074-.037.112-.016.054,0,.088.06.093a.222.222,0,0,0,.1-.013.135.135,0,0,1,.194.047c.021.026.065.029.074.069s-.025.025-.043.033c-.072.033-.08.054-.032.1a2.624,2.624,0,0,0,.317.258c.134.105.326.13.416.294a.068.068,0,0,0,.064.032c.027,0,.055.008.056.035,0,.084.069.088.124.12a2.1,2.1,0,0,1,.361.233.173.173,0,0,0,.138.038.214.214,0,0,1,.17.087,5.248,5.248,0,0,0,.45.491c.022.02.042.045.073.047a.321.321,0,0,1,.231.149.549.549,0,0,0,.284.153.455.455,0,0,1,.236.171.535.535,0,0,0,.456.264c.031,0,.067.006.067.042,0,.068.058.085.085.129.045.073.072.083.128.009.038-.046.16-.023.212.037a.267.267,0,0,1,.089.168.078.078,0,0,0,.093.089.1.1,0,0,1,.088.049.68.68,0,0,0,.451.258.385.385,0,0,1,.172.084c.075.054.1.05.151-.029a.134.134,0,0,1,.137-.058,1.03,1.03,0,0,1,.311.093.07.07,0,0,1,.04.109c-.013.027-.035.062-.012.083a.124.124,0,0,1,.025.182c-.015.023,0,.043.026.059.094.072.181.151.279.218.036.026.049.072.1.1.061-.069.15-.12.113-.244-.011-.034.025-.061.056-.079a.069.069,0,0,1,.095.015,1.933,1.933,0,0,1,.151.185c.026.038.018.082-.038.082a.221.221,0,0,0-.137.05c-.07.053-.073.117,0,.151.117.053.211.146.329.2.018.008.035.024.054.025a.359.359,0,0,1,.261.163c.04.047.081.086.15.032a.107.107,0,0,1,.148.013.15.15,0,0,0,.216,0c.034-.032.064-.023.107-.006a.273.273,0,0,1,.175.3.258.258,0,0,0,.175.261.616.616,0,0,0,.412.1c.047-.013.049.038.066.064.035.052.081.066.12.012a.128.128,0,0,1,.173-.035.068.068,0,0,1,.034.117.232.232,0,0,1-.176.1.186.186,0,0,0-.072.018.053.053,0,0,0-.02.077.261.261,0,0,0,.238.113c.059-.023.082.043.109.032s.061-.063.1-.091a.043.043,0,0,1,.073.016.411.411,0,0,1,.016.056c.013.055.042.054.088.033.133-.058.153-.056.243.051a.386.386,0,0,0,.252.142c.093.015.178.068.276.041a.059.059,0,0,1,.065.052c.008.043-.026.042-.057.045a.194.194,0,0,0-.151.112c-.044.088-.1.1-.178.063-.023-.011-.052-.014-.067.01s.006.044.022.062a.3.3,0,0,0,.113.07c.071.027.151.029.2.105.019.03.072.031.11.006s.023-.054.009-.089c-.029-.081,0-.107.087-.091a.814.814,0,0,1,.385.18.365.365,0,0,0,.323.112.106.106,0,0,1,.124.059A.13.13,0,0,0,25,30.1a.086.086,0,0,1,.094.077.631.631,0,0,1-.41-.021.264.264,0,0,0-.117-.013,1.07,1.07,0,0,0-.259.06.332.332,0,0,0,.2.084.392.392,0,0,1,.229.1.463.463,0,0,0,.117.054c.156.089.308.016.46,0a.112.112,0,0,1,.141.093c.011.038.028.075.04.113a.117.117,0,0,0,.118.093.149.149,0,0,1,.121.047,1.74,1.74,0,0,0,.509.326,1,1,0,0,0,.5.17c.052,0,.075.044.11.071a.064.064,0,0,0,.042.008c.022-.005.025-.026.024-.047l0-.015c0-.052-.054-.1,0-.155.036-.037.09-.035.138-.049a.464.464,0,0,0,.071-.024c.025-.012.038-.034.018-.059a.18.18,0,0,0-.03-.032c-.069-.08-.071-.11-.009-.176a.14.14,0,0,1,.2-.025c.016.011.026.03.041.042a.135.135,0,0,0,.206-.034c.016-.024.018-.073.047-.07.1.009.163-.078.247-.1a.316.316,0,0,0,.185-.136.34.34,0,0,1,.062-.062c.011-.009.037-.023.035-.025-.049-.1.064-.212-.021-.311a.252.252,0,0,1-.043-.224.732.732,0,0,0-.042-.365,2.9,2.9,0,0,0-.248-.586.47.47,0,0,1-.057-.12.367.367,0,0,0-.182-.225.219.219,0,0,1-.117-.13.9.9,0,0,0-.189-.3c-.012-.015-.033-.027-.038-.044-.06-.163-.206-.25-.32-.365a.241.241,0,0,1-.086-.236c.023-.1-.009-.133-.107-.16a.535.535,0,0,0-.236-.006.427.427,0,0,1-.311-.069c-.443-.264-.895-.515-1.317-.815-.519-.368-1.043-.729-1.578-1.073-.321-.207-.637-.422-.957-.632-.216-.141-.439-.271-.652-.418-.322-.225-.651-.438-.977-.656q-.767-.515-1.529-1.038l-.489-.338c-.556-.385-1.1-.783-1.672-1.146-.409-.263-.8-.559-1.219-.8-.132-.075-.248-.18-.376-.267s-.288-.178-.428-.27c-.573-.376-1.142-.758-1.712-1.138-.483-.323-.953-.663-1.437-.984a.585.585,0,0,1-.134-.151c-.038-.049-.135-.013-.189-.068-.021-.021-.052-.036-.049-.068s.038-.043.065-.054a.548.548,0,0,0,.179-.066c.011-.009.032-.017.042-.012.129.05.223-.026.322-.087.071-.042.154,0,.231-.038.023-.01.082.032.111.063a.223.223,0,0,0,.247.074.445.445,0,0,1,.3.047.464.464,0,0,0,.475-.075c.02-.018.011-.036-.006-.049a.089.089,0,0,0-.1-.013c-.087.049-.124.009-.149-.071a.42.42,0,0,0-.062-.1.4.4,0,0,1,.369-.019.891.891,0,0,1,.131.07.447.447,0,0,0,.391.095c.1-.016.209-.038.293.053.006.006.02.013.026.011.143-.059.294.057.45-.028-.092-.049-.175-.094-.259-.136-.035-.019-.067,0-.1.008a.27.27,0,0,1-.2-.01c-.028-.01-.057-.027-.052-.063a.058.058,0,0,1,.051-.047.928.928,0,0,1,.4-.068.545.545,0,0,0,.307-.028.223.223,0,0,1,.186,0,.391.391,0,0,0,.264.014l.144-.037c.023,0,.054-.016.074-.008.115.054.254.071.336.178a.136.136,0,0,0,.153.064.257.257,0,0,1,.264.047.06.06,0,0,0,.082.011.084.084,0,0,0,.024-.094l0-.015c-.012-.035-.073-.061-.033-.1s.093-.012.14,0a.137.137,0,0,1,.08.062c.1.187.27.183.448.146L17.1,17.1a.111.111,0,0,0,.013-.013c.01-.048-.037-.074-.05-.116s0-.095.055-.1a.4.4,0,0,1,.321.083.232.232,0,0,0,.135.081s.012,0,.013,0c.076.15.258.083.361.177a.048.048,0,0,0,.028.011c.058.013.127.04.165-.02s-.029-.1-.064-.136-.086-.046-.046-.09.081,0,.1.037a.111.111,0,0,0,.132.043.5.5,0,0,1,.307.013.485.485,0,0,0,.148,0,4.128,4.128,0,0,0,.637-.008.153.153,0,0,1,.072.016.525.525,0,0,0,.221.026.192.192,0,0,1,.176.055.136.136,0,0,0,.139.037,1.28,1.28,0,0,1,.34-.017,2.1,2.1,0,0,0,.371-.033.3.3,0,0,1,.2.016.274.274,0,0,0,.2,0,.82.82,0,0,1,.524.021.4.4,0,0,0,.433-.065.163.163,0,0,1,.148-.029c.241.031.475.092.716.135a.937.937,0,0,0,.265-.011.207.207,0,0,0,.142-.1.062.062,0,0,1,.1-.019.2.2,0,0,0,.049.033c.074.03.192.019.208-.025.026-.076-.035-.13-.06-.192-.013-.033-.051-.026-.078-.013a1.06,1.06,0,0,0-.174.085c-.058.039-.106.049-.154-.011,0,0-.008-.006-.012-.01-.156-.129-.181-.125-.289.05-.024.038-.042.086-.1.082s-.08-.05-.094-.1c-.005-.018-.011-.037-.016-.051s-.026-.009-.035-.007c-.185.061-.187.063-.274-.108a.252.252,0,0,0-.173-.128c-.071-.02-.147-.019-.221-.032a.19.19,0,0,0-.177.051.277.277,0,0,1-.233.056c-.17-.011-.329-.069-.494-.09a.368.368,0,0,0-.317.087.112.112,0,0,1-.131.024c-.152-.045-.308-.073-.463-.107a.134.134,0,0,0-.074,0,1.986,1.986,0,0,1-.66.049.578.578,0,0,1-.215-.046.148.148,0,0,0-.167.016.175.175,0,0,1-.2.021.144.144,0,0,0-.1-.02.927.927,0,0,1-.53-.055c-.077-.018-.153-.04-.231-.059a.191.191,0,0,0-.161.058c-.091.069-.1.071-.188,0a.118.118,0,0,0-.16-.011.12.12,0,0,1-.184-.018.146.146,0,0,0-.116-.049.549.549,0,0,1-.33-.115.35.35,0,0,0-.148-.069.553.553,0,0,1-.265-.121.116.116,0,0,0-.1-.031c-.11.023-.222-.005-.332.009-.047.008-.066-.007-.076-.045-.023-.087.021-.175-.007-.264-.011-.037.089-.082.132-.052a.531.531,0,0,0,.209.076.13.13,0,0,1,.081.059.818.818,0,0,0,.235.173.275.275,0,0,0,.034-.039c.047-.1.049-.1.115-.023a.092.092,0,0,0,.075.039c.049,0,.1,0,.149,0a.117.117,0,0,0,.131-.113.17.17,0,0,1,.091-.142c.055-.032.093-.055.127.022.025.055.074.057.127.044a.232.232,0,0,1,.088-.009c.044.006.076.032.071.08s-.045.062-.088.051a1.063,1.063,0,0,0-.235-.04c-.1-.006-.112.008-.122.1,0,.021-.005.04.013.054a.044.044,0,0,0,.066-.006c.065-.091.127-.048.2-.015a1.754,1.754,0,0,1,.337.187.33.33,0,0,1,.086.077.21.21,0,0,0,.236.081.682.682,0,0,1,.366-.025.073.073,0,0,0,.057-.008c.1-.082.161-.02.228.043a.119.119,0,0,0,.185,0,.145.145,0,0,1,.165-.021,1.087,1.087,0,0,0,.28.02.122.122,0,0,0,.1-.033.051.051,0,0,0,.018-.054.037.037,0,0,0-.046-.027.955.955,0,0,1-.588-.1.611.611,0,0,0-.144-.026c-.078-.017-.159-.032-.158-.143,0-.064-.062-.067-.107-.081a.065.065,0,0,1-.049-.052c-.005-.031.025-.038.045-.052a.172.172,0,0,1,.207-.016.123.123,0,0,0,.039.021c.041.018.089.038.125,0s-.012-.062-.011-.1a.092.092,0,0,1,.011-.028c.074-.009.083.053.11.1a.12.12,0,0,0,.19.044c.008,0,.021-.011.023-.017.011-.149.1-.1.186-.076A.1.1,0,0,0,19.4,15.9a.625.625,0,0,1,.491.018,1.921,1.921,0,0,1,.245.107.141.141,0,0,1,.093.11c0,.076.031.086.1.078a.6.6,0,0,1,.307.032.16.16,0,0,0,.073.012,2.133,2.133,0,0,1,.342.016c.1.01.1,0,.182-.1-.018-.044-.076-.042-.1-.084s-.027-.055-.006-.084a.052.052,0,0,1,.066-.016.268.268,0,0,0,.229-.014c.033-.019.066.012.1.016.069.008.142.056.2-.032.013-.021.045-.011.064.011s.059.049.066.079a.172.172,0,0,0,.157.138c0,.061-.111,0-.076.086.026.06.067.062.121.03.02-.01.056-.021.071-.01.108.074.233,0,.339.054.025-.055-.016-.06-.039-.066-.044-.008-.089-.008-.132-.012-.022,0-.043-.01-.037-.036a.032.032,0,0,1,.047-.021.5.5,0,0,0,.235.009.048.048,0,0,0,.053-.043c.006-.03-.017-.045-.04-.055a.2.2,0,0,0-.142-.028.417.417,0,0,0-.158.04.084.084,0,0,1-.12-.022.082.082,0,0,1,.017-.108c.034-.037.086-.068.131-.025.077.075.146.095.235.021.03-.026.17.015.192.047a.067.067,0,0,1-.01.094c-.052.056-.013.079.034.1a.291.291,0,0,0,.231-.03.228.228,0,0,1,.288.023.279.279,0,0,0,.079.039c.119.051.119.051.224-.055a.38.38,0,0,0-.375-.153.34.34,0,0,1-.13-.013c-.031-.008-.079,0-.07-.053s.044-.047.079-.055a.174.174,0,0,1,.114.023c.1.038.124.035.181-.057a.109.109,0,0,1,.125-.053.515.515,0,0,0,.278-.019c.044-.016.076.008.113.025a.24.24,0,0,0,.187-.013.048.048,0,0,0,.034-.045c0-.023-.015-.035-.035-.044s-.1-.01-.083-.059.086-.021.128,0,.061.037.09.055a.316.316,0,0,0,.216.049c.054-.005.1,0,.12.06A.212.212,0,0,0,24.7,16a.234.234,0,0,1,.11.038.162.162,0,0,0,.167.033.043.043,0,0,1,.062.023.046.046,0,0,1-.021.053.13.13,0,0,0-.064.11c0,.03,0,.061.037.074s.058-.009.069-.038c.025-.067.067-.069.131-.057a.832.832,0,0,1,.212.058c.071.034.16.011.231.068.032.025.074-.024.064-.068a.086.086,0,0,0-.085-.071,1.822,1.822,0,0,0-.251-.019c-.114.011-.137-.01-.143-.129a.361.361,0,0,0-.08-.184.144.144,0,0,1,.147-.022.335.335,0,0,0,.277-.049.1.1,0,0,1,.1-.013.292.292,0,0,0,.16.026.084.084,0,0,1,.081.029.212.212,0,0,0,.228.065c.153-.028.261.069.375.146.016.012.02.044.027.067.04.113.052.119.175.1a.277.277,0,0,1,.088-.009c.037,0,.073,0,.084-.04a.089.089,0,0,0-.05-.112.255.255,0,0,1-.093-.044.05.05,0,0,1-.009-.066.041.041,0,0,1,.053-.015c.033.012.065.027.1.037a.085.085,0,0,0,.1-.016c.059-.077.14-.06.219-.053a.17.17,0,0,1,.059.01c.047.015.125-.019.137.055s-.065.078-.1.113-.115.055-.153.112a.066.066,0,0,0,.082.018,4.139,4.139,0,0,1,.46-.033.117.117,0,0,1,.108.034.106.106,0,0,0,.118.032c-.028-.091.071-.149.061-.244-.005-.04.1-.057.14-.021a.486.486,0,0,1,.053.07c.025.033.049.072.088.078a.485.485,0,0,1,.276.093c.026.023.056,0,.073-.032a.056.056,0,0,0-.012-.079c-.033-.032-.086-.029-.115-.066,0-.036.032-.04.054-.033.1.028.212-.009.3.074.018.018.045.01.07,0s.047-.036.066-.032c.182.047.369-.035.55.032a.079.079,0,0,1,.037.022c.06.074.118.044.182-.02a.187.187,0,0,0,.209.177.322.322,0,0,1,.1.021.081.081,0,0,0,.1-.038c.035-.072.1-.06.153-.035a1.576,1.576,0,0,0,.551.089.077.077,0,0,0,.042-.009c.132-.105.275-.05.417-.031a.144.144,0,0,1,.077.038c.017.013.04.023.056.008.065-.067.143-.006.211-.021.036-.011.052.011.074.03a.218.218,0,0,0,.293.033.225.225,0,0,1,.313.046.184.184,0,0,0,.177.055,4.841,4.841,0,0,0,.619-.05.175.175,0,0,1,.131.016.287.287,0,0,0,.23-.006c.138-.054.175-.042.278.076.029.034.029.034.132.057.032-.018.008-.041,0-.063-.009-.04.014-.061.047-.056a2.911,2.911,0,0,1,.381.02.554.554,0,0,0,.331-.035.265.265,0,0,1,.281.007.11.11,0,0,0,.137-.009.183.183,0,0,1,.253.015c.067.062.075.06.149-.015.035-.034.056-.011.089,0,.079.026.164.074.231-.03a.061.061,0,0,1,.093-.009c.042.049.078.028.124.013a.18.18,0,0,1,.2.044.258.258,0,0,0,.322,0,.192.192,0,0,1,.236.021c.085.082.095.081.137-.023a.083.083,0,0,1,.1-.061,2.5,2.5,0,0,1,.524.1c.038.01.08.037.115.019.144-.081.3-.01.45-.038.053-.009.109,0,.162-.011a1.107,1.107,0,0,1,.394.037.631.631,0,0,0,.187.02.129.129,0,0,1,.086.012.408.408,0,0,0,.421-.038c.017-.009.038-.028.054-.017.089.063.195,0,.288.043a.147.147,0,0,0,.2-.041c.031-.043.074-.023.11-.009a1.381,1.381,0,0,1,.173.085.432.432,0,0,0,.327.062,1.25,1.25,0,0,1,.426.044.159.159,0,0,0,.132-.027.384.384,0,0,1,.314-.005.418.418,0,0,0,.143.021.233.233,0,0,1,.192.04c.047.037.134.011.2.03.027.007.042-.023.05-.047a.1.1,0,0,1,.129-.072,1.816,1.816,0,0,1,.421.076,1.439,1.439,0,0,0,.525.09.158.158,0,0,1,.113.028c.12.107.267.041.4.059.032,0,.05-.03.071-.05a.613.613,0,0,1,.339-.138c.025,0,.055-.009.068.015.038.075.078.056.146.03a.35.35,0,0,1,.3.023.376.376,0,0,0,.315.013.275.275,0,0,1,.156,0c.112.023.231-.011.335.058.131-.069.261.009.392.009a.208.208,0,0,1,.115.028.15.15,0,0,0,.141.018.256.256,0,0,1,.2.022.209.209,0,0,0,.248-.017.431.431,0,0,1,.236.022c.025.018.044.042.068.058.055.033.088.021.119-.037.017-.033.032-.07.05-.11-.067-.049-.151-.035-.22-.08a3.953,3.953,0,0,1,.478-.064c.1.009.112.014.1.109,0,.028-.03.054-.015.084.179.032.179.032.22.224.032.147.029.154-.117.115-.125-.035-.255-.008-.38-.045-.073-.021-.156-.023-.232-.044a.432.432,0,0,0-.192-.02.33.33,0,0,1-.256-.049A.384.384,0,0,0,46,16.967a.621.621,0,0,1-.329-.04,2.493,2.493,0,0,0-.346-.081c-.071-.021-.1.027-.09.137a1.117,1.117,0,0,1-.457.066.1.1,0,0,1-.069-.022.241.241,0,0,0-.156-.04.473.473,0,0,1-.281-.081.178.178,0,0,0-.2-.016.19.19,0,0,1-.264-.035c-.011-.015-.035-.019-.053-.026-.037-.009-.077,0-.076.043,0,.09-.053.116-.127.136s-.158.062-.238.083c-.051.016-.132.042-.112-.07.006-.026-.025-.04-.036-.028-.134.137-.271.022-.4,0-.058-.009-.109-.038-.171-.01s-.107-.006-.159-.016a.182.182,0,0,0-.179.024c-.083.064-.193.022-.29.03-.06.007-.1-.045-.133-.088a.3.3,0,0,0-.264-.105.557.557,0,0,1-.33-.057c-.032-.02-.058-.005-.067.03a.226.226,0,0,1-.059.1c-.025.026-.053.05-.092.037-.124-.044-.255.007-.381-.026a.33.33,0,0,1-.137-.043.084.084,0,0,0-.139.026c-.072.146-.213.123-.311.1a1.4,1.4,0,0,0-.365-.016c-.028,0-.061.018-.086,0a.808.808,0,0,0-.438-.1.246.246,0,0,1-.085-.028.123.123,0,0,0-.171.038c-.037.052-.07.04-.111.008a.139.139,0,0,0-.178-.005.166.166,0,0,1-.156.009,1.388,1.388,0,0,1-.2-.062,1.385,1.385,0,0,0-.426-.06.672.672,0,0,0-.337.033.328.328,0,0,1-.245-.027.365.365,0,0,0-.331-.007.357.357,0,0,1-.327,0,.9.9,0,0,0-.289-.049,3.7,3.7,0,0,0-.813-.039,1.234,1.234,0,0,1-.291-.012.556.556,0,0,0-.221.013,1.035,1.035,0,0,1-.571-.037,1.846,1.846,0,0,1-.36-.083.047.047,0,0,0-.054.021c0,.059.083.054.083.112-.02.037-.055.035-.09.035a.334.334,0,0,0-.18.061.353.353,0,0,1-.288.022c-.223-.048-.448-.084-.675-.122a.207.207,0,0,0-.193.044.226.226,0,0,1-.153.052.909.909,0,0,1-.5-.053c-.025-.015-.057-.03-.08,0a.078.078,0,0,0-.005.1.843.843,0,0,1,.12.186.06.06,0,0,0,.078.025.088.088,0,0,0,.026-.014c.075-.069.138,0,.206.016s.1-.11.194-.072.2.013.294.066a.657.657,0,0,1,.175.127c.061.07.094.164.189.2.005,0,.009.006.009.011.05.185.207.137.335.156.02,0,.043-.006.059,0,.136.062.25-.018.366-.061a1.3,1.3,0,0,1,.154-.052c-.032-.04-.067-.089-.12-.071-.083.028-.131-.025-.188-.062a.549.549,0,0,0-.31-.126c-.016,0-.039,0-.04-.03a1,1,0,0,1,.451-.04.724.724,0,0,1,.218,0,.3.3,0,0,0,.2,0,.323.323,0,0,1,.279.132.256.256,0,0,1-.064.229.076.076,0,0,1-.07,0,.18.18,0,0,1-.12-.1,1.192,1.192,0,0,0-.071-.131c-.016-.028-.041-.047-.073-.028a.058.058,0,0,0-.016.079c.017.044.072.071.059.138-.044.017-.1-.019-.141,0,.023.109.069.156.18.144a.4.4,0,0,1,.267.052.629.629,0,0,0,.26.056c.03,0,.062,0,.076-.032s-.013-.044-.028-.064-.073-.041-.069-.1a1.29,1.29,0,0,0,.257.007c.1-.026.1-.021.1-.131,0-.062.028-.083.083-.055a.176.176,0,0,0,.258-.047.053.053,0,0,1,.079-.008.284.284,0,0,1,.074.051.242.242,0,0,0,.259.086.216.216,0,0,1,.24.127.159.159,0,0,0,.154.1,1.884,1.884,0,0,1,.223.009c.065.014.059-.047.068-.089.017-.08.021-.083.09-.037s.148.048.179.14c.015.044.085.047.12.027.1-.058.192-.015.287,0a.328.328,0,0,0,.1.013c.153-.025.177-.062.127-.21a.139.139,0,0,0-.013-.025c-.011-.025-.02-.049.006-.067a.063.063,0,0,1,.071,0,1.394,1.394,0,0,1,.134.117c.018.016.008.037-.008.053s-.027.038,0,.057a.362.362,0,0,0,.4.012.365.365,0,0,1,.13-.046.351.351,0,0,0-.175-.048.63.63,0,0,1-.274-.062.045.045,0,0,1-.03-.047.044.044,0,0,1,.054-.038.8.8,0,0,1,.133.019,1.275,1.275,0,0,0,.35.021,1.359,1.359,0,0,1,.378.014c.1.024.191.04.287.067a1.28,1.28,0,0,0,.5-.052c.038-.006.042-.069.1-.079.053.108.156.106.266.125a.345.345,0,0,1,.278.166.229.229,0,0,0,.149.113,2.558,2.558,0,0,0,.514.059.061.061,0,0,0,.074-.035.056.056,0,0,0-.035-.072.42.42,0,0,1-.146-.1.142.142,0,0,0-.121-.042.952.952,0,0,1-.164,0,.819.819,0,0,1-.342-.087.4.4,0,0,0-.211-.064.131.131,0,0,1-.115-.08.433.433,0,0,1,.225-.037c.083.019.168-.005.253.011a.347.347,0,0,1,.214.081.114.114,0,0,0,.126.025.331.331,0,0,1,.147-.007c.047.005.109.013.085-.072a.026.026,0,0,1,.014-.023c.108-.027.214-.09.329-.02a.175.175,0,0,0,.208.01.089.089,0,0,1,.086,0,.2.2,0,0,0,.159,0,.1.1,0,0,1,.144.058c.016.043.059.063.1.087.039-.047-.028-.087.007-.136a1.389,1.389,0,0,0,.536.018.321.321,0,0,1,.189.026.191.191,0,0,0,.117.013,1.8,1.8,0,0,0,.426-.029c.065-.023.153.016.231.027.025,0,.052.025.07.017a.669.669,0,0,1,.405.014c.035.008.067-.013.1-.022a1.32,1.32,0,0,1,.519.028c-.008.057-.037.047-.059.044a.084.084,0,0,0-.1.059.081.081,0,0,0,.054.107.1.1,0,0,1,.073.115.451.451,0,0,1-.068.253.047.047,0,0,1-.041,0,.062.062,0,0,1-.023-.037.058.058,0,0,1,.022-.052c.037-.037.045-.077,0-.114a.158.158,0,0,0-.155,0c-.016.016-.009.035-.006.055.014.136-.034.183-.165.166a.244.244,0,0,1-.095-.037.306.306,0,0,0-.226-.027,5.149,5.149,0,0,0-.645.158c-.031.009-.082,0-.079.045a.078.078,0,0,0,.093.076.763.763,0,0,1,.434.05.207.207,0,0,0,.1.013,2.518,2.518,0,0,1,.593.017.931.931,0,0,0,.39-.074.175.175,0,0,1,.2.013.478.478,0,0,0,.4.079c.039-.011.079-.023.086-.069s-.025-.062-.052-.085c-.044-.036-.115-.069-.088-.137s.1-.057.159-.055a3.021,3.021,0,0,0,.484-.071c.04-.006.079-.021.11.015a.131.131,0,0,0,.149.029.336.336,0,0,1,.232.018.242.242,0,0,0,.119.011c.043,0,.082.005.092.054.016.073.074.083.133.1s.111,0,.165.054c-.111.009-.206.055-.309.014a.08.08,0,0,0-.058,0c-.2.1-.4,0-.6.031a.238.238,0,0,1-.1-.032.446.446,0,0,0-.161-.02.058.058,0,0,0-.056.042.056.056,0,0,0,.035.072.46.46,0,0,0,.141.046,3.129,3.129,0,0,0,.473.016c.117-.01.229-.066.349-.069.03,0,.061-.011.087.007a.584.584,0,0,0,.519.035.289.289,0,0,1,.216.013.868.868,0,0,0,.1.041c.055.015.088-.014.066-.07-.027-.075.018-.094.064-.108a.354.354,0,0,1,.3.037c.084.052.168.107.247.167a.154.154,0,0,0,.166.03.262.262,0,0,1,.265.033.294.294,0,0,0,.279.045.2.2,0,0,1,.235.039.071.071,0,0,0,.083.016c.069-.026.139-.052.207-.083.04-.016.053-.051.018-.08a.463.463,0,0,1-.141-.13.748.748,0,0,0-.114-.132.64.64,0,0,0,.424-.028c.063-.03.112.009.153.058.09.11.1.111.219.044a.224.224,0,0,1,.156-.037,2.844,2.844,0,0,1,.4.055c.037.011.078.009.108.038a.124.124,0,0,0,.1.029,6.577,6.577,0,0,1,.677.026.62.62,0,0,0,.339-.086.27.27,0,0,1,.329-.012.263.263,0,0,0,.25.04.3.3,0,0,1,.243.043.215.215,0,0,0,.273-.008.254.254,0,0,1,.223-.044.535.535,0,0,0,.424-.06c.008-.005.023-.012.028-.009.074.059.146-.014.221,0a.774.774,0,0,0,.251-.03,1.31,1.31,0,0,1,.238.006,1.256,1.256,0,0,0,.278-.042c.153-.035.17-.065.109-.214-.062.011-.119.013-.144-.059a.056.056,0,0,1,.011-.067.055.055,0,0,1,.078.011.248.248,0,0,1,.053.119c.08.012.17-.018.243.048a.067.067,0,0,0,.055.005.328.328,0,0,1,.2-.011.181.181,0,0,0,.171-.093c-.035-.061-.1-.019-.148-.054.008-.051.065-.091.05-.154a.788.788,0,0,0-.062-.151c-.039-.084-.015-.116.079-.123a.147.147,0,0,1,.153.069.416.416,0,0,1,.1.316.357.357,0,0,0-.008.074c0,.117.086.177.174.1a.3.3,0,0,1,.289-.061.441.441,0,0,1,.277.121.205.205,0,0,0,.2.067c.218-.026.437.019.654,0,.25-.021.484.093.734.069.057,0,.117,0,.177-.009a.4.4,0,0,1,.163,0,1.215,1.215,0,0,0,.385.026,2.906,2.906,0,0,1,.516.047,1.2,1.2,0,0,0,.559,0,.985.985,0,0,1,.367-.007c.025,0,.05.016.074.009a.989.989,0,0,1,.578.078,1.069,1.069,0,0,0,.4,0c.084,0,.166-.007.251,0a1.306,1.306,0,0,0,.3.005.432.432,0,0,1,.3.081.54.54,0,0,0,.385.078,4.337,4.337,0,0,1,.535-.011,1.486,1.486,0,0,1,.37.012.242.242,0,0,0,.1-.012.3.3,0,0,1,.19-.007.093.093,0,0,0,.073,0c.15-.119.292,0,.434.021a5.6,5.6,0,0,0,.627.1.184.184,0,0,1,.059.008,2.14,2.14,0,0,0,.8.1.35.35,0,0,1,.132.015.215.215,0,0,0,.187,0,.152.152,0,0,1,.143.011.31.31,0,0,0,.247.009.193.193,0,0,1,.172.01.36.36,0,0,0,.26.019.762.762,0,0,1,.465.015.809.809,0,0,0,.468.03.676.676,0,0,1,.364.048,1.572,1.572,0,0,0,.746.066.613.613,0,0,1,.337.038.315.315,0,0,0,.286-.023.671.671,0,0,1,.24-.074.714.714,0,0,0,.293-.1.612.612,0,0,1,.34-.091.838.838,0,0,0,.509-.133.41.41,0,0,1,.371-.042c.023.008.047.016.072.021.109.031.126.017.128-.1,0-.168.008-.337.015-.505a.6.6,0,0,1,.053-.262,1.468,1.468,0,0,0,.122-.856,1.071,1.071,0,0,1,.011-.327,1.22,1.22,0,0,0,.013-.3c-.018-.283-.054-.563-.093-.843a5.78,5.78,0,0,0-.169-.633,3.846,3.846,0,0,1-.11-.569c0-.02,0-.044-.007-.058-.086-.13-.08-.3-.171-.426a.381.381,0,0,1-.048-.125c-.063-.219-.124-.438-.186-.658a.175.175,0,0,0-.014-.042.913.913,0,0,1-.129-.542,1.567,1.567,0,0,0-.028-.25.183.183,0,0,0-.276-.146,1.227,1.227,0,0,1-.393.073c-.243.014-.486.013-.73.017s-.516-.008-.774.018a2.363,2.363,0,0,1-.266-.013c-.373,0-.745.022-1.119.017a4.758,4.758,0,0,0-.845.053.355.355,0,0,1-.247-.016.287.287,0,0,0-.119-.013c-.293-.028-.583.036-.875.03-.178,0-.355.016-.535,0-.139-.008-.285.019-.429.017a1.377,1.377,0,0,1-.3-.018.128.128,0,0,0-.127.018s-.008.01-.011.009c-.211-.023-.425.131-.635-.007a.12.12,0,0,0-.1-.016.43.43,0,0,1-.264-.023c-.023-.009-.052-.013-.051.026,0,.086-.044.08-.093.049s-.076-.066-.124-.006c-.011.014-.037,0-.052-.015a.148.148,0,0,0-.192,0c-.016.011-.045.023-.054.017-.108-.081-.2.009-.307.013a1.62,1.62,0,0,0-.313.006c-.045.009-.091.015-.121-.035s-.069-.046-.116-.039a.348.348,0,0,0-.058.01,2.3,2.3,0,0,1-.987.051c-.153-.018-.306,0-.46-.033-.07-.012-.15.039-.232.037-.3-.007-.6-.008-.907-.023-.237-.012-.476-.008-.714-.014a1.193,1.193,0,0,1-.34-.026.383.383,0,0,0-.284-.017c-.049.019-.105-.02-.151-.051s-.1-.044-.142.014a.186.186,0,0,1-.188.064,2.552,2.552,0,0,1-.427-.05,1.437,1.437,0,0,0-.368,0c-.04,0-.037.035-.053.061-.052.089-.123.107-.193.034a.405.405,0,0,0-.291-.121,1.729,1.729,0,0,1-.233-.047.17.17,0,0,0-.2.072c-.047.078-.136.075-.209.1-.055.015-.095-.026-.1-.083a.341.341,0,0,1,.013-.1.178.178,0,0,0-.2.087c-.064.1-.117.106-.236.046a.457.457,0,0,0-.284-.068.224.224,0,0,1-.185-.038.212.212,0,0,0-.238-.018c-.112.053-.146.043-.228-.054a.089.089,0,0,0-.116-.032.446.446,0,0,1-.25.014.339.339,0,0,0-.277.083.155.155,0,0,0-.026.236.057.057,0,0,0,.1-.013.661.661,0,0,1,.09-.154c.054-.064.09-.062.107.018a.23.23,0,0,0,.136.149c.067.038.129.117.233.078-.023-.032-.1-.018-.076-.081a.133.133,0,0,1,.12-.1.309.309,0,0,1,.182.055c.064.04.13.078.206.021.017-.013.045-.015.053,0,.03.067.061.064.111.019a.049.049,0,0,1,.076.021c.008.022.016.061.04.055.134-.03.23.081.352.095a.175.175,0,0,0,.153-.032.189.189,0,0,1,.235-.021c.052.026.08.038.119-.023a.258.258,0,0,1,.281-.074c.036.016.059.036.045.079s.015.076.06.075a2.779,2.779,0,0,0,.416,0,.606.606,0,0,1,.348.042.134.134,0,0,0,.168-.019c.1-.083.109-.078.2.008.023.021.047.041.036.074a.072.072,0,0,1-.061.037.722.722,0,0,1-.164.013c-.094-.013-.189,0-.281-.008a2.039,2.039,0,0,0-.548.037.538.538,0,0,1-.177,0,.507.507,0,0,0-.2-.025,1.583,1.583,0,0,1-.443,0,2.771,2.771,0,0,1-.4-.047.7.7,0,0,0-.175.005,1.141,1.141,0,0,1-.484-.015.752.752,0,0,0-.424-.023,1.537,1.537,0,0,1-.532-.007.648.648,0,0,1-.235-.034.051.051,0,0,0-.067.013c-.053.094-.139.055-.214.055s-.16.027-.219-.055a.127.127,0,0,0-.1-.033.614.614,0,0,1-.2-.054.173.173,0,0,0-.157,0,.213.213,0,0,1-.2,0,.368.368,0,0,0-.1-.016c-.057-.009-.08.014-.081.074,0,.086-.054.122-.131.093a1.6,1.6,0,0,0-.675-.055c-.025,0-.055.015-.073,0a.54.54,0,0,0-.26-.019.794.794,0,0,0-.322.033c-.009,0-.022.008-.03,0-.113-.067-.208,0-.3.045a1.576,1.576,0,0,1-.6.073c-.277.016-.556,0-.832,0a2.8,2.8,0,0,0-.487.008.259.259,0,0,1-.119,0,.589.589,0,0,0-.281-.008.463.463,0,0,1-.089,0c-.038,0-.086.005-.1-.046s.033-.054.062-.071.085-.035.049-.084-.073-.022-.107,0a.236.236,0,0,0-.041.042.414.414,0,0,1-.449.148.56.56,0,0,0-.207-.008,2.077,2.077,0,0,1-.4.009.866.866,0,0,1-.314-.085.343.343,0,0,0-.259-.034.214.214,0,0,1-.06.005,1.266,1.266,0,0,0-.427.028.347.347,0,0,1-.132-.007.915.915,0,0,0-.238-.008,3.1,3.1,0,0,1-.786-.022,1.285,1.285,0,0,0-.371-.014,1.64,1.64,0,0,1-.343,0,5.282,5.282,0,0,0-.67-.006c-.073,0-.146-.014-.221-.017-.3-.01-.595-.018-.891-.03a.337.337,0,0,1-.1-.022.339.339,0,0,0-.176-.018,1.894,1.894,0,0,1-.5-.009c-.207-.021-.416-.018-.623-.026a1.351,1.351,0,0,1-.338-.028.206.206,0,0,0-.074-.009,3.531,3.531,0,0,1-.8-.006c-.113-.008-.224.009-.339.006-.223-.008-.445-.026-.669-.019s-.434-.011-.652-.015c-.367-.006-.733-.008-1.1-.012a.1.1,0,0,1-.044,0,1.288,1.288,0,0,0-.57-.016.781.781,0,0,1-.324-.03.452.452,0,0,0-.206,0,4.1,4.1,0,0,1-.787.013c-.158,0-.318,0-.475,0-.452.008-.9-.016-1.355-.009-.227,0-.456.005-.683,0-.193-.009-.387,0-.581,0-.346-.013-.695,0-1.042-.032a.405.405,0,0,0-.1,0,5.567,5.567,0,0,1-.711.006c-.069,0-.137,0-.208,0-.208.006-.416-.007-.624-.013s-.428-.013-.641-.008c-.342.013-.684-.024-1.027-.019-.3.005-.6.008-.893-.006a3.81,3.81,0,0,1-.682-.04,1.867,1.867,0,0,0-.34.01c-.279-.01-.557-.005-.834-.021-.124-.008-.247,0-.371-.01a.378.378,0,0,0-.117.016c-.02,0-.041.02-.057.015-.169-.043-.332.047-.5.023s-.337,0-.5-.037a.258.258,0,0,0-.1.013.325.325,0,0,1-.132.005,2.037,2.037,0,0,0-.709-.046c-.171,0-.346,0-.518.01a1.375,1.375,0,0,1-.529-.028.14.14,0,0,0-.06-.008,6.1,6.1,0,0,1-1.11-.011.952.952,0,0,1-.148-.019.33.33,0,0,0-.132-.013,2.854,2.854,0,0,1-.622.014c-.233-.008-.467.006-.7-.021a1.781,1.781,0,0,0-.358-.008c-.212.013-.428,0-.639-.007-.243-.007-.487-.014-.729-.032a3.142,3.142,0,0,0-.4,0c-.209.009-.418-.016-.625.005a.219.219,0,0,1-.045,0c-.385-.046-.771.006-1.156-.022-.071-.006-.137,0-.19-.061a.1.1,0,0,0-.146-.007.276.276,0,0,1-.195.06c-.232.008-.465.013-.7.016a.321.321,0,0,1-.209-.068.2.2,0,0,0-.236-.017.186.186,0,0,1-.253-.044c.129-.017.226-.116.351-.049.116-.032.241-.031.354-.066a.871.871,0,0,1,.194-.069c.028,0,.066,0,.058-.045s-.039-.045-.07-.043a1.38,1.38,0,0,0-.221.028c-.066.015-.126.027-.176-.033-.021-.026-.039-.016-.057.009-.052.07-.106.061-.16,0a.136.136,0,0,0-.164-.038.956.956,0,0,1-.524.02c-.065-.009-.125-.031-.182.023-.025.025-.052.006-.083,0-.114-.03-.121-.029-.162.08a.086.086,0,0,1-.086.063.153.153,0,0,0-.127.11c-.045.106-.109.139-.21.084a.678.678,0,0,0-.369-.142c-.04,0-.1-.026-.152-.022a.426.426,0,0,1-.175-.033c.1-.03.17-.134.291-.07a.177.177,0,0,0,.015-.045c-.005-.053-.039-.12.016-.152a.272.272,0,0,1,.209-.061c.023.007.054.022.071.012a.439.439,0,0,1,.288-.032.072.072,0,0,0,.064-.03.25.25,0,0,1,.329-.075c.017.008.042.023.056.017.139-.056.276.015.414,0a.287.287,0,0,0,.172-.078c.074-.067.09-.061.154.027.008.011.019.032.028.032.134-.008.233.148.38.081.043-.021.064.009.081.043a.211.211,0,0,0,.124.1.155.155,0,0,0,.192-.029.089.089,0,0,1,.132-.018.081.081,0,0,0,.119,0c.032-.028.071-.018.112-.016a1.145,1.145,0,0,0,.424-.016.26.26,0,0,0,.137-.074c-.076-.06-.17-.04-.252-.059a.791.791,0,0,1-.185-.037.417.417,0,0,0-.191-.008c-.049,0-.1.022-.147-.007a.048.048,0,0,0-.065.016c-.016.02-.038.044-.06.028-.074-.053-.142-.02-.213,0a.22.22,0,0,1-.16-.021.062.062,0,0,1-.014-.114.114.114,0,0,1,.068-.027c.1.005.2-.064.3-.009a3.537,3.537,0,0,1,.6.088c.037,0,.074.013.1-.009.138-.11.245-.009.359.049.012.007.023.019.035.026.089.066.089.066.166-.017.02-.021.037-.055.069-.036s.089.038.091.1c0,.1.009.1.1.092a.925.925,0,0,1,.177,0,.229.229,0,0,0,.172-.04.2.2,0,0,1,.183-.028,5.5,5.5,0,0,0,.619.044.388.388,0,0,0,.132-.015.16.16,0,0,1,.072-.01.715.715,0,0,0,.4-.019.088.088,0,0,1,.058,0c.13.075.224.009.33-.083a.892.892,0,0,0-.417.025.371.371,0,0,1-.269,0,.563.563,0,0,1,.083-.152c.014-.028.034-.054,0-.074a.039.039,0,0,0-.06.024c-.013.055-.047.057-.09.041a.342.342,0,0,0-.175.006,3.722,3.722,0,0,1-.516.045c-.068,0-.139-.032-.212-.038s-.121-.021-.178.027-.094-.006-.139-.018-.073-.033-.093.011c-.032.074-.071.042-.093,0-.042-.077-.119-.112-.185-.167.055-.045.105.02.149-.016.023-.02.054-.032.057-.064s-.029-.048-.058-.057l-.2-.069c-.03-.009-.061-.02-.08.011s.008.047.023.065a.311.311,0,0,1,.027.033.039.039,0,0,1-.046.032.768.768,0,0,0-.371.091.532.532,0,0,1-.281.016c-.166-.006-.333-.028-.5-.043a.275.275,0,0,0-.072.006c-.168.035-.178.03-.2-.139a1.14,1.14,0,0,1-.267.084c-.033,0-.075.018-.09-.028a.068.068,0,0,1,.045-.084.141.141,0,0,0,.1-.083c.013-.038.057-.039.09-.034a.438.438,0,0,1,.1.024.1.1,0,0,0,.125-.041c.065-.085.119-.08.194,0a.55.55,0,0,1,.041.045.2.2,0,0,0,.293.076c.071-.038.157.011.251-.02-.056-.023-.107-.028-.139-.067s-.034-.1.029-.11a.3.3,0,0,1,.265.054c.026.026.049.052.088.025a.087.087,0,0,0,.032-.105.272.272,0,0,0-.028-.054c-.025-.038-.013-.065.023-.088a.686.686,0,0,1,.1-.06c.034-.012.064-.019.08-.057.026-.062.076-.071.137-.054.023.008.054.021.07,0,.055-.063.112-.028.172-.015s.149.057.208-.03c.009-.015.047-.013.071-.013a1.045,1.045,0,0,0,.264-.045c.043-.008.113-.016.047-.09-.009-.012,0-.03.012-.038a.692.692,0,0,1,.234-.127c.037-.012.063.022.084.05a.149.149,0,0,0,.146.057A.242.242,0,0,1,14.4,9.9a.459.459,0,0,0,.349.012.492.492,0,0,1,.262-.006,1.451,1.451,0,0,0,.458.029.216.216,0,0,1,.2.066c.026.037.066.035.108.033a.815.815,0,0,0,.274-.059.363.363,0,0,1,.189-.037.615.615,0,0,0,.4-.09.344.344,0,0,1,.2-.047.869.869,0,0,0,.263-.035.611.611,0,0,1,.44.091.606.606,0,0,0,.474.032,1.1,1.1,0,0,0,.3-.1.094.094,0,0,1,.112.014.191.191,0,0,0,.222,0,.922.922,0,0,1,.542-.129.172.172,0,0,0,.086-.021c.112-.045.16-.027.17.093a.264.264,0,0,0,.106.186.144.144,0,0,0,.166.026,2.813,2.813,0,0,0,.432-.16c.012-.008.032-.016.042-.011.1.045.182-.008.272-.025a.454.454,0,0,1,.19.018.363.363,0,0,0,.262-.015.2.2,0,0,1,.1-.025,1.2,1.2,0,0,0,.586-.127,2.05,2.05,0,0,1,.648-.132,2.53,2.53,0,0,0,.612-.118c.091-.114.24-.071.355-.125a.815.815,0,0,1,.376-.047.111.111,0,0,0,.055-.018c.115-.07.251-.093.367-.16.074-.045.122,0,.114.086l0,.014c-.02.148.013.189.161.178.119-.011.235-.033.353-.05a.079.079,0,0,0,.07-.049c.023-.089.093-.092.162-.091a1.31,1.31,0,0,0,.407-.056,1.887,1.887,0,0,1,.417-.084.938.938,0,0,0,.38-.115.162.162,0,0,1,.115-.023.545.545,0,0,0,.331-.048.94.94,0,0,1,.255-.078c.083-.009.142-.073.219-.094s.121-.095.2-.033c.109-.081.247-.049.365-.094a.1.1,0,0,0,.048-.035c.051-.089.122-.091.214-.075a.969.969,0,0,0,.426-.018c.151-.04.3-.1.454-.126a3.66,3.66,0,0,0,.437-.172,1.231,1.231,0,0,1,.185-.048.627.627,0,0,0,.22-.085,2.57,2.57,0,0,1,.265-.142.121.121,0,0,0-.17-.048c-.025.014-.05.038-.081.03-.2-.042-.389.067-.587.067-.02,0-.039.009-.059.008a.048.048,0,0,1-.034-.022c-.009-.013,0-.029.014-.037a.319.319,0,0,1,.066-.033,2.161,2.161,0,0,0,.272-.122.276.276,0,0,1,.254-.035c.042.018.12.034.055-.061a.028.028,0,0,1,.009-.041c.1-.054.175-.172.317-.1.047.023.179-.038.209-.084a.048.048,0,0,0-.043-.075c-.043,0-.086,0-.15.006a.615.615,0,0,1,.251-.143,5.361,5.361,0,0,0,.545-.274,1.192,1.192,0,0,0,.34-.286,1.25,1.25,0,0,0,.308-.4.178.178,0,0,1,.07-.075,1.13,1.13,0,0,0,.211-.228.4.4,0,0,1,.129-.142c.166-.085.247-.253.371-.376.007-.008.017-.016.018-.023.017-.221.178-.393.2-.613a.163.163,0,0,1,.053-.1c.052-.043.063-.116.1-.16a1.12,1.12,0,0,0,.178-.4,2.762,2.762,0,0,0,.2-.6.5.5,0,0,1,.065-.2.223.223,0,0,0,.039-.2c-.019-.05.021-.093.045-.138a.429.429,0,0,0,.055-.255,1.461,1.461,0,0,1,.02-.31c.006-.057.016-.109-.028-.155a.107.107,0,0,1-.03-.081c.009-.076.014-.149-.078-.182-.009-.141-.146-.241-.108-.405a.333.333,0,0,0-.079-.358.1.1,0,0,1-.015-.1.466.466,0,0,0-.016-.262.281.281,0,0,1-.008-.1.189.189,0,0,0-.064-.159c-.074-.071-.073-.087,0-.153a2.162,2.162,0,0,0,.252-.323c-.042-.054-.091-.037-.132-.034-.248.018-.494.04-.742.057a7.32,7.32,0,0,0-1.112.207,3.794,3.794,0,0,0-.643.158C30,.54,29.7.557,29.419.655c-.263.089-.539.131-.806.208a2.3,2.3,0,0,0-.238.081.9.9,0,0,1-.3.078.351.351,0,0,0-.126.042.92.92,0,0,1-.226.069c-.5.1-.969.267-1.453.4a1.654,1.654,0,0,1-.378.113c-.026,0-.054.012-.048.044.012.064-.029.093-.073.116a.171.171,0,0,1-.146.011.734.734,0,0,0-.394,0,.266.266,0,0,0-.183.086.112.112,0,0,1-.061.041.351.351,0,0,0-.231.119c-.016.023-.111.093-.11-.04,0-.036-.12-.025-.13.024-.023.112-.1.134-.2.147-.207.026-.4.108-.607.154-.14.031-.281.061-.422.089-.2.038-.38.117-.578.141-.043.006-.1.009-.089.074a.113.113,0,0,0,.123.087.255.255,0,0,0,.156-.081c.1-.123.228-.094.351-.073a.177.177,0,0,1,.164.111c.018.051.061.052.086,0,.042-.081.114-.106.221-.124a1.618,1.618,0,0,0-.157.184.306.306,0,0,1-.194.1c-.137.024-.276.044-.412.065-.019,0-.05.011-.052-.011,0-.045,0-.085-.061-.067s-.143.016-.177.091a.809.809,0,0,0-.035.084.047.047,0,0,1-.045.032c-.026,0-.029-.021-.026-.043s.011-.064-.03-.072-.053.021-.062.05-.006.04-.036.048c-.073-.061-.148-.122-.237-.2-.011.079-.057.136-.054.211s.021.079.083.062c.018-.006.035-.02.055-.024.043-.009.053.018.044.051a.172.172,0,0,1-.163.132.478.478,0,0,0-.2.057.175.175,0,0,1-.259-.069c.044-.051.11-.054.167-.076.02-.006.037-.016.038-.039A.043.043,0,0,0,21.88,3.1a.611.611,0,0,0-.433-.054c-.049.019-.082.021-.109-.032s-.084-.052-.141-.04c-.3.055-.6.154-.892.229a1.782,1.782,0,0,1-.262.056c-.025,0-.058,0-.073.016-.132.135-.322.1-.477.165-.018.009-.04.011-.056.02-.035.021-.069.048-.05.095a.068.068,0,0,0,.087.039,1.21,1.21,0,0,0,.187-.051c.1-.053.223-.045.329-.095a.162.162,0,0,1,.142.024c.044.023.09.042.134.062a.083.083,0,0,0,.12-.05.627.627,0,0,1,.065-.1c.071-.091.148-.095.213,0,.029.042.047.054.093.032a.279.279,0,0,1,.228-.035.136.136,0,0,0,.122-.031c.015-.024,0-.038-.01-.057s-.033-.059,0-.076.057.012.071.04.033.081.083.069c.071-.014.11,0,.129.078.01.04.057.027.091.016a.373.373,0,0,1,.2-.038.427.427,0,0,1-.308.13.337.337,0,0,0-.211.066,1.233,1.233,0,0,1-.458.166,3,3,0,0,1-.537.11.067.067,0,0,0-.042.011,2.5,2.5,0,0,1-.706.219c-.212.073-.429.127-.64.2-.121.042-.252.05-.377.084-.432.11-.863.224-1.292.352-.347.1-.7.192-1.051.274-.289.071-.571.174-.858.255-.2.057-.4.12-.6.167a11.8,11.8,0,0,0-1.289.363,3.272,3.272,0,0,1-.4.095c-.258.058-.507.142-.764.2s-.5.16-.753.233a1.707,1.707,0,0,0-.347.069c-.048.024-.1.037-.151.064a.34.34,0,0,1-.138.049,4.315,4.315,0,0,0-.792.2c-.3.074-.593.168-.888.256-.47.142-.937.3-1.409.429-.259.072-.515.15-.775.215a1.792,1.792,0,0,0-.286.085c-.036.016-.078.016-.113.033-.081.035-.181-.055-.242.015a.435.435,0,0,1-.226.1c-.273.086-.544.182-.824.243a6.083,6.083,0,0,0-.619.207c-.142.046-.282.092-.426.13a3.1,3.1,0,0,0-.406.136,4.057,4.057,0,0,1-.71.224c-.04.009-.089.013-.112-.017-.073-.093-.158-.057-.245-.043a.624.624,0,0,0-.129.035.035.035,0,0,1-.052-.032.028.028,0,0,1,.037-.033A.139.139,0,0,0,2.691,8.6a.1.1,0,0,1,.088-.047.106.106,0,0,0,.086-.05A.118.118,0,0,1,3,8.458a.364.364,0,0,0,.281-.069c.052-.032.127-.037.153-.117-.032-.044-.1,0-.131-.045a.072.072,0,0,1-.016-.039c0-.016.016-.024.032-.025a.275.275,0,0,1,.142.044.222.222,0,0,0,.24,0c.029-.012.056-.03.028-.066s-.02-.061.015-.088a.1.1,0,0,1,.124,0c.032.025.055.059.086.083s.069.048.109.019a.088.088,0,0,0,.038-.1.3.3,0,0,1-.006-.161c.024-.143,0-.165-.163-.144-.011.045.059.1-.011.144a.222.222,0,0,1-.221,0c-.042.034-.039.09-.066.131s-.082.086-.137.047a.7.7,0,0,0-.394-.1.112.112,0,0,1-.008.16c-.014.015-.029.029-.05.024S3,8.117,2.992,8.087s.011-.034.033-.034c.052,0,.042-.064.078-.081a.137.137,0,0,0-.128,0c-.2.071-.391.14-.586.212a.291.291,0,0,1-.083.031.567.567,0,0,0-.338.144c-.026.019-.045.008-.068,0-.039-.018-.087-.051-.125-.016-.088.076-.207.086-.3.151a.081.081,0,0,1-.025.017,1.3,1.3,0,0,0-.474.267A.676.676,0,0,1,.9,8.82,1.73,1.73,0,0,0,.094,9.6a.938.938,0,0,0-.011.8.684.684,0,0,1,.07.3.076.076,0,0,0,.005.043.615.615,0,0,1,.077.371,2.235,2.235,0,0,0,.04.22.443.443,0,0,1,.022.117.7.7,0,0,0,.139.408,1.243,1.243,0,0,1,.252.609,4.036,4.036,0,0,0,.168.733c.03.161.042.323.071.484a.6.6,0,0,0,.191.389,3.179,3.179,0,0,1,.3.3,1.866,1.866,0,0,0,.349.3.217.217,0,0,1,.084.081.9.9,0,0,0,.227.269,2.9,2.9,0,0,1,.36.4,1.53,1.53,0,0,0,.4.393.907.907,0,0,1,.28.3.768.768,0,0,0,.15.163,1.644,1.644,0,0,1,.294.315.337.337,0,0,0,.27.163.2.2,0,0,1,.14.073.763.763,0,0,0,.245.165,3.809,3.809,0,0,1,.342.208,1.579,1.579,0,0,0,.4.216c.009,0,.023.006.027.013.095.138.271.16.386.269.074.071.177.083.261.137s.175.129.263.192a1.465,1.465,0,0,0,.409.233.966.966,0,0,1,.253.2.387.387,0,0,0,.107.081,1.273,1.273,0,0,1,.308.2,1.056,1.056,0,0,0,.325.169,2.117,2.117,0,0,1,.366.161.119.119,0,0,1,.055.045.879.879,0,0,0,.472.338.161.161,0,0,1,.064.033.41.41,0,0,0,.223.112,1.927,1.927,0,0,1,.521.249.624.624,0,0,0,.131.067.3.3,0,0,1,.069.028,3.515,3.515,0,0,0,.46.229.839.839,0,0,1,.217.154c.042.044.033.079-.012.111ZM23.264,15.4a.542.542,0,0,1-.239.063.1.1,0,0,1-.107-.08.076.076,0,0,1,.045-.107c.032-.013.055-.043.105-.043a.3.3,0,0,0,.2.17c-.027-.1-.027-.1.049-.1a1.44,1.44,0,0,1,.209,0,2.319,2.319,0,0,0,.778-.013c.055-.012.1,0,.108.068a.175.175,0,0,0,.033.064c.036.054,0,.076-.041.082a.306.306,0,0,1-.249-.064c-.014-.015-.038-.041-.043-.035-.055.09-.078.027-.112-.015-.006-.007-.037.006-.055.01a1.007,1.007,0,0,1-.479.033.5.5,0,0,0-.2-.035m6.844.267a.709.709,0,0,1,.334-.04.5.5,0,0,1-.335.036c-.017.011-.032.029-.05.032a1.956,1.956,0,0,1-.562.009,1.046,1.046,0,0,0-.394.013c-.108.018-.215.029-.324.037-.194.015-.388-.071-.585,0-.019.008-.047-.01-.071-.013a.31.31,0,0,0-.1-.011,3.705,3.705,0,0,1-.591-.028.124.124,0,0,1-.054-.021c-.035-.019-.074-.037-.076-.084s.032-.069.068-.088a.394.394,0,0,0,.106-.052c.052-.049.093-.071.142,0a.048.048,0,0,0,.066.02c.078-.052.141-.011.206.024a.628.628,0,0,0,.557.053.341.341,0,0,1,.289-.015.338.338,0,0,0,.306-.014c.052-.016.1-.054.157-.039a.64.64,0,0,0,.336.058c.018-.006.045.018.064.034a.432.432,0,0,0,.335.083.843.843,0,0,1,.178.009M54.232,17.03c-.028-.033-.086-.042-.1-.1a.1.1,0,0,1,.113.03c.031.029.006.05-.02.068a.259.259,0,0,0,.2.193,1.652,1.652,0,0,1,.218.091.423.423,0,0,1-.307.152.4.4,0,0,0-.219.028.384.384,0,0,1-.243.04c-.086,0-.172-.04-.259.011-.026.017-.054-.012-.077-.033a.1.1,0,0,0-.078-.035.688.688,0,0,0-.249.018.754.754,0,0,1-.395,0,2.181,2.181,0,0,1-.41-.031.158.158,0,0,0-.1.023.51.51,0,0,1-.346.036.374.374,0,0,0-.206,0,.3.3,0,0,1-.228,0c.009-.073.076-.064.112-.094.014-.013.031-.026.025-.047a.047.047,0,0,0-.05-.027c-.019,0-.038,0-.058.005a1.251,1.251,0,0,1-.335-.026c-.1-.023-.2-.055-.3-.086-.081-.025-.163-.055-.166-.162a.128.128,0,0,0-.074-.106c-.026-.014-.053-.028-.076-.044-.006-.005-.012-.022-.008-.026a.057.057,0,0,1,.034-.023.085.085,0,0,1,.075.04.371.371,0,0,0,.228.12c.08.012.154.072.242.026.006,0,.02,0,.026.012.059.061.144.057.217.081a.828.828,0,0,0,.452.023.942.942,0,0,1,.57.018c.142.062.289-.015.433.018.007,0,.02-.018.042-.037a.71.71,0,0,0-.26-.11,1.671,1.671,0,0,1-.277-.044.561.561,0,0,1,.409,0,.373.373,0,0,0,.216.044c.053,0,.1-.04.132.058.017.059.127.055.19,0,.038-.032.067-.04.1-.006.057.059.1.024.137-.019a.36.36,0,0,0,.046-.057c.05-.074.054-.076.12-.031.021.014.038.032.058.048a.282.282,0,0,0,.344.007.247.247,0,0,1,.088-.05M19.039,15.251l0,0c.084-.12.1-.124.223-.07a.174.174,0,0,0,.042.014,3.3,3.3,0,0,0,.439.027.145.145,0,0,1,.086.014c.034.02.086.03.086.076s-.057.043-.093.051a.672.672,0,0,1-.1.02c-.061.01-.117.017-.151-.057-.026-.054-.071-.05-.1,0a.11.11,0,0,1-.113.057c-.189-.012-.376.018-.566,0a.856.856,0,0,0-.247-.039c-.129.026-.258.009-.385.03a.2.2,0,0,1-.195-.044c-.049-.053-.089-.051-.127.015-.02.032-.06.031-.1.032-.093,0-.187.008-.282.006-.11,0-.218-.008-.327-.009-.035,0-.08,0-.093.032-.044.12-.13.1-.219.074h0c-.161.038-.326,0-.489.025a.091.091,0,0,1-.106-.066c-.031-.1-.105-.091-.18-.086s-.147.02-.223.018c-.472-.015-.943-.019-1.414-.035-.333-.013-.665.016-1,.008-.168-.006-.335-.083-.506-.008-.282,0-.564.006-.847,0-.339-.006-.674.035-1.01.062a.222.222,0,0,1-.23-.1c-.03-.049-.09-.1-.047-.156s.124-.014.16.018c.1.09.218-.055.308.04a.114.114,0,0,0,.016-.025c.016-.035.045-.033.076-.032.07,0,.137.009.206.018.134.013.273.075.405-.013a.07.07,0,0,1,.085.008.551.551,0,0,0,.287.06.116.116,0,0,0,.1-.037c.076-.074.081-.076.153-.007a.252.252,0,0,0,.326.042c.039-.021.083-.055.124-.029.081.05.117.022.161-.052a.247.247,0,0,1,.361-.012.282.282,0,0,0,.411.076c.038-.023.065-.029.09.008.044.069.09.045.152.021a.4.4,0,0,1,.41-.005.11.11,0,0,0,.1.01c.064-.023.139-.025.185-.086A.082.082,0,0,1,15,15.119c.083.053.185.038.265.092s.129-.042.2-.013c.03.013.042-.033.054-.06.021-.044.052-.052.1-.034.069.028.14.05.211.073.027.008.059.023.078-.015a.107.107,0,0,1,.149-.054.116.116,0,0,0,.124-.028c.028-.028.066-.049.093-.021.1.094.2.049.307.021.134-.032.134-.032.216.081a.059.059,0,0,0,.052-.02c.018-.016.038-.037.064-.018a.053.053,0,0,1,.015.066.1.1,0,0,1-.006.015c-.015.03-.018.06.023.069s.056-.017.061-.05a.108.108,0,0,1,.1-.1.288.288,0,0,1,.16.01.18.18,0,0,0,.16.013.161.161,0,0,1,.156,0,.082.082,0,0,0,.085,0c.051-.028.078-.014.107.036a.087.087,0,0,0,.138.035.328.328,0,0,1,.347-.02,1.328,1.328,0,0,0,.418.08.163.163,0,0,0,.1-.026.238.238,0,0,1,.266-.008m39.4,1.81c-.013.068-.1.11-.049.158.082.077.035.124-.011.187s-.018.1.05.093a.388.388,0,0,1,.255.061c.041.026.079.042.105-.025.011-.028.044-.014.061.006a.111.111,0,0,1,.021.054c.04.16.082.175.2.059a.476.476,0,0,1,.336-.137,4,4,0,0,1,.441.025c.023,0,.048.01.072.016a.076.076,0,0,1,.065.071.082.082,0,0,1-.05.084.533.533,0,0,1-.2.064c-.392,0-.784.005-1.176-.013a.164.164,0,0,1-.1-.018c-.039-.028,0-.064-.006-.1s-.011-.039-.035-.038a.046.046,0,0,0-.038.018c-.009.015-.011.037-.02.055-.029.064-.072.077-.107.021-.061-.1-.175-.052-.247-.11-.007-.007-.039,0-.052.015a.341.341,0,0,1-.327.028,1.828,1.828,0,0,0-.408-.081,4.023,4.023,0,0,1-.68-.032.472.472,0,0,0-.09,0,4.433,4.433,0,0,0-.475.008c-.018,0-.047.005-.057-.007-.095-.1-.232-.066-.342-.11-.026-.011-.062,0-.079-.044a.229.229,0,0,1,.148-.044c.032,0,.061-.008.064-.045s-.026-.052-.055-.061a.126.126,0,0,0-.151.023.212.212,0,0,1-.229.067.72.72,0,0,1-.233-.093A.143.143,0,0,1,55,17.141a.093.093,0,0,1,.117-.119.207.207,0,0,0,.071.016,1.051,1.051,0,0,1,.409.112.2.2,0,0,0,.238-.032.267.267,0,0,1,.4,0,.086.086,0,0,0,.131-.009c.048-.046-.016-.062-.038-.089,0-.006,0-.017,0-.033.1-.016.2.048.3.006a.1.1,0,0,1,.132.038.092.092,0,0,0,.141.025c.111-.079.262-.029.367-.12a.073.073,0,0,1,.058-.005.615.615,0,0,1,.241.065.185.185,0,0,0,.26-.041c.034-.042.062-.044.1-.017a.2.2,0,0,0,.211.021.13.13,0,0,1,.183.033.479.479,0,0,0,.115.071M31.7,15.709c.049-.04.113-.045.154-.089a.114.114,0,0,1,.1-.016c.084.011.165.069.253,0,.014-.01.056.011.082.026a.168.168,0,0,0,.129.013l.159-.04a.392.392,0,0,1,.272,0,.134.134,0,0,0,.14.016.6.6,0,0,1,.206-.016.424.424,0,0,0,.233-.005c.059-.027.112.025.165.05s.114-.071.18-.018a.173.173,0,0,0,.183.009.3.3,0,0,1,.13-.024c.1.009.2.023.3.028a1.027,1.027,0,0,0,.337-.005.126.126,0,0,1,.113.013.206.206,0,0,0,.128.034.784.784,0,0,1,.294,0,.062.062,0,0,0,.054-.016.376.376,0,0,1,.338-.061,3.238,3.238,0,0,0,.41.067c.2,0,.394.049.593.029a.217.217,0,0,1,.084.024.773.773,0,0,0,.334.05.585.585,0,0,1,.262,0,.264.264,0,0,0,.148,0,.139.139,0,0,1,.127.023.047.047,0,0,1,.021.051.044.044,0,0,1-.042.035.552.552,0,0,1-.177-.014,2.245,2.245,0,0,0-.384-.018,1.027,1.027,0,0,1-.26-.007.226.226,0,0,0-.1.008.536.536,0,0,1-.266,0,.234.234,0,0,0-.186.011.126.126,0,0,1-.116,0,.128.128,0,0,0-.1-.021.9.9,0,0,1-.426.009,2.909,2.909,0,0,1-.4-.008.331.331,0,0,0-.145-.032,1.125,1.125,0,0,1-.436.006c-.069-.009-.146,0-.219-.013a.441.441,0,0,0-.132-.009.759.759,0,0,1-.422-.013.507.507,0,0,0-.207-.011c-.137.009-.271.069-.407,0h-.015a1.114,1.114,0,0,1-.438-.006.225.225,0,0,0-.14.035.575.575,0,0,1-.377.037c-.027-.006-.055-.03-.084-.021-.151.043-.277-.058-.418-.078-.01,0-.016-.02-.03-.036M49.274,17.3a.735.735,0,0,1-.148-.183c-.023-.031,0-.055.04-.056a.1.1,0,0,1,.085.052.034.034,0,0,0,.05.013c.022-.015.013-.036,0-.052a.184.184,0,0,1-.056-.1.055.055,0,0,1,.031-.062.048.048,0,0,1,.054.013.231.231,0,0,1,.075.124.736.736,0,0,1-.018.364c-.018.073-.108.12-.149.075-.067-.074-.172-.1-.224-.185-.04-.061-.076-.054-.121-.011a2.142,2.142,0,0,1-.4.227.12.12,0,0,1-.058.013,3.332,3.332,0,0,1-.831-.008c-.023,0-.053,0-.059-.04.059-.025.115.016.171.01a6.346,6.346,0,0,1,.638-.023.467.467,0,0,0,.2-.055c.055-.026.059-.063.009-.1a.362.362,0,0,0-.219-.112,1.087,1.087,0,0,1-.24-.062c-.02-.032-.016-.047-.006-.058.02-.03.038-.063.012-.095s-.062-.009-.1,0a.362.362,0,0,1-.084.021.045.045,0,0,1-.037-.019.039.039,0,0,1,.011-.053.313.313,0,0,1,.05-.031c.131-.078.25.026.374.025.008,0,.017.033.022.051a.089.089,0,0,0,.086.069c.045.006.088.016.153.026-.045-.052-.077-.082-.1-.117s-.006-.047.022-.06c.116-.045.219.046.332.032.016.1.133.113.17.2a.3.3,0,0,0,.27.17M11.465,16.039a.231.231,0,0,0-.055-.1c-.012-.021-.029-.044-.009-.067a.051.051,0,0,1,.067-.014c.055.025.092.028.107-.047.008-.041.046-.035.066-.008.04.054.076.105.157.081.023-.006.035.015.038.035s.009.052.038.057c.081.013.153.1.247.03A.074.074,0,0,1,12.177,16c.086.03.169.055.216-.059a.027.027,0,0,1,.026-.013c.085.013.115-.05.158-.1a.1.1,0,0,1,.156-.007,1.528,1.528,0,0,1,.178.274c.023.047.008.076-.048.078a.277.277,0,0,0-.239.112.3.3,0,0,0-.289-.095.672.672,0,0,1-.315-.055c-.018-.006-.035-.018-.053-.025s-.042-.009-.05.013.009.039.028.045a2.734,2.734,0,0,1,.258.144c.018.009.035.021.025.045s-.033.018-.053.014a.321.321,0,0,1-.04-.019.85.85,0,0,0-.513-.158.09.09,0,0,1-.044-.009.422.422,0,0,0-.276-.024.074.074,0,0,1-.091-.03c-.038-.061-.072-.123-.107-.185.146-.055.213.134.361.093M14.991,9.8a.372.372,0,0,1,.144-.1c.043-.022.088-.016.061-.085-.011-.027.021-.037.047-.044.076-.019.153-.038.23-.055a.911.911,0,0,1,.595-.018.087.087,0,0,0,.116-.037.363.363,0,0,1,.186-.108,1.385,1.385,0,0,1,.385-.013c.034,0,.074,0,.084.04a.1.1,0,0,1-.046.1.125.125,0,0,1-.112.019.166.166,0,0,0-.2.088.17.17,0,0,1-.115.086,1.054,1.054,0,0,1-.426.031.228.228,0,0,0-.088,0,2.552,2.552,0,0,1-.513.044.17.17,0,0,0-.117.046c-.086.081-.111.08-.231,0M36.444,13.28a.21.21,0,0,1-.249.153A.409.409,0,0,0,36,13.428a.242.242,0,0,1-.156-.009.391.391,0,0,0-.261,0,.154.154,0,0,1-.168-.012c-.05-.042-.154-.025-.147-.135,0-.015-.032-.013-.053-.011l-.323.036c-.048,0-.1-.009-.1-.062s.058-.042.094-.039a4.129,4.129,0,0,1,.631-.007c.084-.054.137.014.2.051.028.018.041.059.095.048a.131.131,0,0,1,.166-.107.1.1,0,0,0,.082-.03.145.145,0,0,1,.2-.009.183.183,0,0,0,.208.01.5.5,0,0,1,.29-.04c.042.006.079.021.069.076a.214.214,0,0,1-.234.18c-.063,0-.086-.062-.15-.083M25.2,15.322c.114-.1.116-.1.233-.037a.264.264,0,0,0,.2.011.372.372,0,0,1,.2.01.627.627,0,0,0,.336.01.159.159,0,0,1,.2.061c.074.1.123.1.216.053.042-.021.079-.046.122-.01a.04.04,0,0,1,.013.038.125.125,0,0,1-.115.053.868.868,0,0,1-.088-.011.237.237,0,0,0-.1-.01,3.886,3.886,0,0,1-.559.059c-.049.007-.106,0-.144.034a.35.35,0,0,1-.319.069.282.282,0,0,0-.132,0c-.069.026-.1-.005-.118-.07-.023-.1-.011-.122.094-.163.017-.008.038-.008.042-.033-.009-.044-.066-.018-.085-.064m5.991.191c.107.057.223.083.3.2-.119-.028-.207.069-.315.029s-.2.033-.293-.016-.206-.006-.289-.075c.009-.032.032-.034.047-.044s.074-.03.05-.075-.056-.032-.1-.015a.64.64,0,0,1-.39.025,1.215,1.215,0,0,0-.293-.043c-.031,0-.071.014-.091-.029.113-.056.255-.008.358-.1.018-.016.045.011.066.023a.246.246,0,0,0,.215.025.233.233,0,0,1,.263.03.112.112,0,0,0,.151,0,.3.3,0,0,1,.2-.056,2.763,2.763,0,0,1,.366.032c.033,0,.092-.023.088.038,0,.046-.054.052-.094.049a.755.755,0,0,1-.119-.016.1.1,0,0,0-.115.025M39.3,13.3a.881.881,0,0,1,.113,0,.115.115,0,0,1,.113.1c.008.061-.061.05-.1.067a.183.183,0,0,1-.159,0c-.022-.008-.047-.028-.069-.025-.148.024-.3,0-.448.032a.428.428,0,0,1-.177.015.258.258,0,0,0-.184.036.174.174,0,0,1-.236-.059c-.013-.02-.017-.042,0-.054a.146.146,0,0,0,.058-.156c0-.027.02-.044.046-.049a.687.687,0,0,1,.119-.011c.2.007.4.015.595.025a.381.381,0,0,1,.2.06.147.147,0,0,0,.131.028M13.064,16.552a2.728,2.728,0,0,1,.411-.031.7.7,0,0,0,.208,0,.518.518,0,0,1,.279.012.126.126,0,0,0,.1-.007,2.337,2.337,0,0,1,.391-.089.469.469,0,0,1,.133,0c.03,0,.064.006.073.04s-.026.051-.054.059a2.452,2.452,0,0,1-.34.108c-.2.042-.416-.006-.622.036a.977.977,0,0,0-.363-.03.246.246,0,0,1-.216-.1m20.84-1.11a.66.66,0,0,0,.3-.035.4.4,0,0,1,.276-.013c.091.023.187.03.277.054s.2-.047.291.013a.055.055,0,0,0,.042-.009c.093-.066.215-.035.312-.091a.082.082,0,0,1,.071.005.591.591,0,0,0,.316.069.034.034,0,0,1,.04.033.063.063,0,0,1-.02.038.064.064,0,0,1-.035.024c-.14.009-.292.113-.4-.056a.22.22,0,0,1-.248.076,1.535,1.535,0,0,0-.618-.023.277.277,0,0,1-.175-.02c-.035-.019-.076-.042-.113-.018-.119.073-.214,0-.317-.048m-2.129-2.17a3.7,3.7,0,0,0-.4-.035c-.033-.008-.056-.021-.048-.059s.014-.062.066-.057a.921.921,0,0,0,.347-.019.151.151,0,0,1,.073,0,.647.647,0,0,0,.323-.011c.037-.011.083-.015.1.036s.049.049.09.022a.438.438,0,0,1,.426.006c.029.012.056.031.054.066s-.039.047-.067.047a.95.95,0,0,1-.351,0,.429.429,0,0,0-.231-.028c-.129.032-.258-.03-.382.033M11.893,13.9c.071-.02.123.021.173.015a.156.156,0,0,1,.187.079.039.039,0,0,0,.064.011c.036-.061.115-.028.153-.08s.087-.035.132-.006l.073.05c.034.023.055.02.054-.025a.031.031,0,0,1,.039-.033.41.41,0,0,1,.26.084.19.19,0,0,0,.186.056.722.722,0,0,1,.1-.017.041.041,0,0,1,.045.046c0,.025-.026.03-.045.026-.108-.011-.218.008-.327-.014a1.165,1.165,0,0,0-.443,0,1.4,1.4,0,0,1-.429.013c-.08-.011-.161-.02-.162-.132,0-.022-.035-.043-.064-.074m10.42,1.578a.612.612,0,0,1,.268-.022c.23.03.461.036.694.054.05,0,.113.009.113.069s-.066.047-.107.05c-.206.01-.413.016-.621.023a.87.87,0,0,1-.161-.007.2.2,0,0,1-.186-.167m-11.049-1.39c-.146.009-.2-.044-.167-.147a.111.111,0,0,1,.153-.071.092.092,0,0,0,.124-.044c.021-.035.046-.072.086-.011.013.02.034.011.054.006.105-.028.189.038.282.069a.064.064,0,0,1,.043.071c0,.038-.037.037-.065.046-.171.056-.354.032-.51.08m26.224-.957c.047.013.027.055.037.085a.16.16,0,0,0,.107.113.09.09,0,0,0,.108-.027c.025-.033.009-.064-.014-.095s-.045-.028-.023-.059c.011,0,.021,0,.03,0,.037.013.086-.006.112.028s-.027.055-.037.085.006.045.025.064.076.029.086.09a.2.2,0,0,1-.158.044.463.463,0,0,1-.232-.088.244.244,0,0,0-.206-.058,1.906,1.906,0,0,0-.338.028c-.041.012-.083,0-.073-.063a.182.182,0,0,1,.227-.122c.1.032.207.057.3.082.047-.032-.01-.087.044-.108M10.542,15.151c-.074.095-.087.122-.069.131.049.03.085,0,.121-.026a.036.036,0,0,1,.014-.007.087.087,0,0,1,.117.028c.024.04,0,.09-.065.113a.4.4,0,0,1-.1.022c-.074.005-.149,0-.223.012-.125.014-.243-.035-.368-.025-.044,0-.107.016-.112-.035s.064-.047.1-.059h.015a.586.586,0,0,0,.148-.015c.057-.015.071-.077.115-.1.049.026.07.092.132.059s-.006-.076.029-.11l.145.015m3.187,1c.006.1-.035.148-.095.1a.192.192,0,0,0-.2-.018.15.15,0,0,1-.191-.095c-.014-.031-.028-.062-.041-.094-.025-.064-.012-.1.053-.1a1.443,1.443,0,0,1,.251-.017.287.287,0,0,1,.226.227m19.52-2.829-.261-.011a.093.093,0,0,1-.093-.079c-.009-.054.021-.08.067-.1a.138.138,0,0,1,.166.016c.016.016.047.043.062.028.073-.077.175-.013.25-.057s.119,0,.17.04a.078.078,0,0,1,.037.076c-.006.033-.038.042-.069.045-.1.014-.2.026-.328.04m21.422,3.532c.146-.013.2.011.178.15-.013.063.033.086.067.118s.032.073-.015.078a.582.582,0,0,1-.346-.043.121.121,0,0,1-.061-.08c-.035-.121.037-.212.177-.223m-4.324.665c0,.009,0,.018,0,.027-.1.006-.193.013-.291.015a.121.121,0,0,1-.132-.09c-.026-.076-.106-.169-.18-.141-.115.045-.138-.029-.186-.086-.029-.035-.057-.076-.022-.119s.083-.02.124-.006a.191.191,0,0,1,.061.041.837.837,0,0,0,.194.135.24.24,0,0,1,.128.118.163.163,0,0,0,.154.1l.145.009m-13.236-.225c.12-.041.182.043.25.113.029.032.012.067-.035.073a.2.2,0,0,1-.058,0l-.512-.083c-.059-.01-.07-.047-.062-.1s.028-.087.086-.077a.306.306,0,0,1,.127.033.183.183,0,0,0,.2.041M17.617,9.24c-.023.041.06.078.006.118s-.074,0-.112-.013c-.022-.008-.047-.013-.07-.019-.066-.017-.127-.03-.161.054-.02.046-.062.047-.1.025s-.092-.035-.115-.088c.032-.045.088-.042.127-.069a.449.449,0,0,1,.321-.079.235.235,0,0,0,.233-.092l.023.008c-.01.126-.01.126-.151.156m-2.354,6.746c.047,0,.074-.012.1,0a.587.587,0,0,0,.349-.024.126.126,0,0,1,.166.073c-.154.024-.127.12-.067.245-.187-.123-.394-.122-.543-.291m9.8-.375a.84.84,0,0,1-.4,0c-.059-.009-.067-.073-.067-.12s.048-.042.081-.047a.083.083,0,0,1,.043,0c.084.017.148,0,.178-.088a.034.034,0,0,1,.047-.021c.021.009.021.026.023.048.01.159.011.16.093.233m-8.849.954a1.131,1.131,0,0,0,.342-.07c.088-.025.158.035.236.062a.04.04,0,0,1,.014.025.142.142,0,0,1-.125.142,1.415,1.415,0,0,1-.466-.159m24.946-.653a.565.565,0,0,0-.019-.156c-.011-.057.022-.085.063-.054.075.056.17.049.248.091a.057.057,0,0,0,.079-.009.065.065,0,0,1,.1,0,.048.048,0,0,1,.016.052.084.084,0,0,1-.081.052,2.21,2.21,0,0,1-.41.026M21.576,15.4c-.066.007-.131-.041-.2-.047-.044,0-.114.039-.125-.033s.074-.044.111-.071c.093-.071.177,0,.262.028a.072.072,0,0,1,.04.087c-.009.036-.042.035-.082.036m-.359,1.537a.736.736,0,0,1,.364,0,1.1,1.1,0,0,1,.371.045.255.255,0,0,1-.262.03c-.081-.025-.158-.062-.238,0a.088.088,0,0,1-.1-.007c-.039-.02-.077-.042-.136-.074m-5.777-2.962a1.094,1.094,0,0,0,.213.027.05.05,0,0,1,.04.055.051.051,0,0,1-.035.044.132.132,0,0,1-.14-.013.179.179,0,0,0-.183-.02.291.291,0,0,1-.073.018c-.036,0-.074,0-.079-.049s.038-.056.073-.052c.059.007.116.032.182-.01m-3.2,2.641a1.2,1.2,0,0,0,.363-.032.069.069,0,0,1,.03,0c.053,0,.061.043.063.083s-.032.05-.059.048a.811.811,0,0,1-.4-.1M21.2,15.439c.028,0,.057,0,.086,0,.063.01.1.051.092.093s-.055.064-.1.061a.892.892,0,0,1-.088-.015c-.054-.009-.12-.021-.113-.088s.079-.038.125-.052m14.739.035c.037-.047.072-.092.142-.055a.233.233,0,0,0,.115.01.035.035,0,0,1,.04.033c0,.022-.013.035-.033.04-.09.028-.18.061-.264-.028m4.982.4a.355.355,0,0,1,.033-.016c.027-.011.049-.008.059.021a.039.039,0,0,1-.033.054.453.453,0,0,1-.248.013.042.042,0,0,1-.034-.043c0-.025.02-.03.04-.037a.479.479,0,0,1,.183.006M2.631,8.172A.189.189,0,0,1,2.788,8.1a.063.063,0,0,1,.069.044.076.076,0,0,1-.008.084.051.051,0,0,1-.078,0c-.039-.037-.1-.02-.141-.054M55.77,16.858a.177.177,0,0,1-.115.1c-.035.009-.07.018-.086-.026a.069.069,0,0,1,.03-.09.14.14,0,0,1,.171.017m-4.59.665-.219-.009a.077.077,0,0,1-.079-.071c0-.028.021-.059.042-.04a1.023,1.023,0,0,0,.256.121m-35.1-.964c-.161.081-.258.071-.346-.028a2.507,2.507,0,0,0,.346.028m-5.138-5.588c.17.033.211.061.238.164-.106-.019-.162-.106-.238-.164m2.789,3.092c-.06.018-.1.034-.143.046-.027.008-.061.018-.078-.016a.056.056,0,0,1,0-.042.056.056,0,0,1,.074-.033c.042.014.089,0,.144.044m22.9,3.192c-.052.008-.08.014-.107.017s-.066.031-.1.007-.055-.034-.042-.069.037-.029.063-.025a.445.445,0,0,1,.185.07M21.976,15.4c-.059.016-.1-.014-.144-.013-.028,0-.07.005-.068-.036s.042-.026.069-.032a.108.108,0,0,1,.143.081m34.481-3a.248.248,0,0,1-.156.067c-.024,0-.054.005-.061-.025s.02-.055.047-.065a.22.22,0,0,1,.171.022m-7.892,5.7a.157.157,0,0,1,.171-.016c.018.011.034.023.025.047a.04.04,0,0,1-.048.026c-.044-.015-.1-.005-.148-.057M38.4,14.416c.042,0,.095-.013.132.029a.043.043,0,0,1,.01.053c-.011.018-.034.03-.047.015a.138.138,0,0,0-.133-.035.027.027,0,0,1-.023-.03c0-.016.011-.025.026-.029l.033,0M17.341,15.465a.4.4,0,0,1,.31.014.32.32,0,0,1-.31-.014m3.8-.188c0,.032-.018.045-.042.054-.053.02-.085-.012-.107-.052s.016-.042.038-.05a.09.09,0,0,1,.111.048M54.8,17.782a.072.072,0,0,1-.014.025.064.064,0,0,1-.081,0c-.032-.024-.069-.043-.06-.092a.033.033,0,0,1,.016-.023c.026-.015.136.056.139.088m-42.889-.749a.076.076,0,0,1-.072.078c-.028,0-.066,0-.073-.03s.042-.045.066-.063a.13.13,0,0,1,.04-.017.032.032,0,0,1,.039.032m38.135-.028a.092.092,0,0,1-.1.087.03.03,0,0,1-.03-.026c-.005-.033.055-.1.091-.1.021,0,.031.018.035.038M26.8,31.1c-.009.028-.02.064-.062.061a.062.062,0,0,1-.063-.067c0-.035.032-.045.062-.045a.055.055,0,0,1,.064.052M13.13,16.174c-.083-.013-.1-.064-.148-.085-.023-.012-.037-.037-.011-.061a.046.046,0,0,1,.074.011c.023.035.044.073.084.135M31,13.216c.062-.046.113-.021.16-.032a.028.028,0,0,1,.036.031.036.036,0,0,1-.032.026A.521.521,0,0,1,31,13.216m-16.748.77a.475.475,0,0,1,.146.033.029.029,0,0,1,.011.023.035.035,0,0,1-.016.021c-.05.019-.1-.008-.141-.077m22.163.549c-.02-.007-.059,0-.057-.041s.035-.044.065-.042.054.011.058.038-.032.038-.066.044m-13.988.881a.092.092,0,0,1-.087-.105.032.032,0,0,1,.038-.033c.052.015.05.066.061.1,0,.008-.005.018-.013.034m2.283-.115c-.095.052-.095.052-.2,0,.084.013.139-.029.2,0M48.027,16.81c-.045.013-.074-.015-.1-.04a.033.033,0,0,1,0-.05.046.046,0,0,1,.055-.009.108.108,0,0,1,.049.1m-29.635-.593c0,.029-.016.046-.045.042s-.046-.021-.044-.05.009-.063.048-.059.038.039.042.067m9.954-3.045c.065-.025.114-.033.161,0,0,0,0,.022,0,.025a.124.124,0,0,1-.158-.028M48.5,16.617c.062,0,.111,0,.122.061a.029.029,0,0,1-.013.022c-.062.02-.086-.018-.109-.083M35.169,13.34c-.044.009-.079.073-.131.029a.015.015,0,0,1,0-.014c.036-.051.087-.029.136-.015m4.073,4c-.086.035-.086.035-.147,0,.047-.04.09-.02.147,0M56,16.854c.023,0,.054,0,.062.04s-.007.042-.03.038-.069-.011-.071-.056c0-.015.018-.019.039-.022" transform="translate(0 0)" fill="#f6aa18" fill-rule="evenodd"/>
      <path id="Path_207" data-name="Path 207" d="M84.4,17.776c.043-.007.082-.016.121-.02.059-.005.11-.016.113-.09a.144.144,0,0,0-.11-.165.411.411,0,0,0-.3-.012.178.178,0,0,1-.159,0,.147.147,0,0,0-.115-.011c-.03.007-.062.018-.088,0a.352.352,0,0,0-.287-.042,2.392,2.392,0,0,1-.425-.035,1.189,1.189,0,0,0-.454.046.279.279,0,0,1-.26-.019.549.549,0,0,0-.312-.065,1.129,1.129,0,0,1-.235,0c-.062-.018-.079.082-.141.062-.044-.015-.064-.077-.122-.075s-.1,0-.149.007a1.706,1.706,0,0,1-.4.046c-.039,0-.1,0-.107.055a.19.19,0,0,0,.045.153.082.082,0,0,0,.12,0,.137.137,0,0,1,.153-.017.105.105,0,0,0,.1,0,.412.412,0,0,1,.317-.028.394.394,0,0,0,.2.006.21.21,0,0,1,.218.053.53.53,0,0,0,.38.1c.021,0,.042-.009.035-.035-.022-.087.041-.075.088-.069a.509.509,0,0,1,.128.039,1.171,1.171,0,0,0,.363.062c.068.008.087-.088.159-.054a.278.278,0,0,0,.158.031.223.223,0,0,0,.087-.015c.067-.037.121-.072.149.042.012.045.076.045.112.006s.038-.1.1-.1c.045,0,.078.038.119.06a.15.15,0,0,0,.217-.049c.006-.008.011-.018.015-.025.021-.032.047-.057.087-.03s.028.052.014.09c-.03.079-.011.1.059.1" transform="translate(-64.488 -6.409)" fill="#f6aa18" fill-rule="evenodd"/>
      <path id="Path_208" data-name="Path 208" d="M88.006,27.2a1.072,1.072,0,0,0-.106.017.113.113,0,0,0-.1.093c-.02.081-.046.085-.108.027a.273.273,0,0,0-.1-.062c-.037-.01-.069-.045-.11-.035s-.032.067-.05.1a.412.412,0,0,1-.034.049c-.02.032-.073.049-.045.1s.061.021.1.023a1.853,1.853,0,0,0,.5.008.1.1,0,0,1,.071.009.7.7,0,0,0,.354.018c.117-.014.145-.086.081-.189a.229.229,0,0,0-.164-.117c-.046-.008-.093-.026-.142-.034a1.165,1.165,0,0,0-.145,0" transform="translate(-72.36 -10.049)" fill="#f6aa18" fill-rule="evenodd"/>
      <path id="Path_209" data-name="Path 209" d="M64.627,17.76a.2.2,0,0,0-.066.023.105.105,0,0,1-.124.01.321.321,0,0,0-.161-.024c-.129,0-.257,0-.387,0a.275.275,0,0,0-.117.009.227.227,0,0,1-.3-.031.069.069,0,0,0-.084,0,.15.15,0,0,1-.1.023c-.045-.006-.081,0-.079.059s.023.088.08.089c.02,0,.039,0,.059,0s.05,0,.074,0c.079,0,.136.06.206.077s.12-.082.2-.078a1.386,1.386,0,0,1,.366.05c.073.026.148.066.224,0,.107.039.216-.061.326.005a.265.265,0,0,0,.131.011c.033,0,.075,0,.085-.043a.073.073,0,0,0-.044-.071.708.708,0,0,0-.3-.108" transform="translate(-33.62 -6.552)" fill="#f6aa18" fill-rule="evenodd"/>
      <path id="Path_210" data-name="Path 210" d="M71.1,17.737a.488.488,0,0,0-.232.035.105.105,0,0,1-.087,0,.774.774,0,0,0-.591.007.872.872,0,0,1-.143.038c-.02,0-.05.011-.057,0-.1-.126-.19.025-.286,0,0,0-.018.02-.021.034a.026.026,0,0,0,.024.031c.1.011.2.086.293-.011a.069.069,0,0,1,.085,0,.211.211,0,0,0,.183.013,1.008,1.008,0,0,1,.3-.018.365.365,0,0,1,.182.057.622.622,0,0,0,.494.1c.086-.018.115-.053.108-.142-.006-.108-.034-.14-.129-.141-.039,0-.078,0-.119.006" transform="translate(-44.075 -6.545)" fill="#f6aa18" fill-rule="evenodd"/>
      <path id="Path_211" data-name="Path 211" d="M47.376,28.718c.215-.023.431-.038.646-.042a1.72,1.72,0,0,0,.349-.071c.055-.015.061-.048.021-.085a.207.207,0,0,0-.241-.062.183.183,0,0,1-.209,0c-.139.049-.276-.024-.416-.011a.952.952,0,0,1-.407-.008c-.042-.014-.091-.024-.114.031-.013.032.029.143.059.141a.514.514,0,0,1,.241.095.311.311,0,0,0,.071.012" transform="translate(-6.847 -10.504)" fill="#f6aa18" fill-rule="evenodd"/>
      <path id="Path_212" data-name="Path 212" d="M54.933,17.847c.128.07.273.088.4.156.039.021.074-.013.1-.039a.253.253,0,0,1,.315-.037.939.939,0,0,1,.245.135c.044.044.112.018.166.048.011-.061-.053-.062-.057-.1s.035-.035.053-.052c.076-.067.08-.068.136.009a.187.187,0,0,0,.136.081.568.568,0,0,1,.16.028.046.046,0,0,0,.062-.026c.011-.026,0-.06-.02-.061-.083-.005-.057-.1-.116-.122a.659.659,0,0,1-.161-.074.243.243,0,0,0-.292-.006.213.213,0,0,1-.262.018.116.116,0,0,0-.1,0,.576.576,0,0,1-.266.013.425.425,0,0,0-.176.008,1.694,1.694,0,0,1-.326.022" transform="translate(-20.088 -6.555)" fill="#f6aa18" fill-rule="evenodd"/>
      <path id="Path_213" data-name="Path 213" d="M43.426,18.321c-.024-.162-.032-.163-.162-.158a1.49,1.49,0,0,1-.455-.018,1.956,1.956,0,0,0-.31-.007.168.168,0,0,0-.163.178.08.08,0,0,0,.134.066.137.137,0,0,1,.174-.016.38.38,0,0,0,.3.02.215.215,0,0,1,.2.031c.044.024.074.02.1-.024s.012-.082.061-.1.073.029.124.025" transform="translate(1.087 -6.7)" fill="#f6aa18" fill-rule="evenodd"/>
      <path id="Path_214" data-name="Path 214" d="M44.593,18.227a.5.5,0,0,1,.19.1c.087.078.12.074.23.005a.149.149,0,0,1,.113-.024.57.57,0,0,1,.2.055.527.527,0,0,0,.535-.008c.049-.023.083-.028.11.026a.045.045,0,0,0,.02.02.052.052,0,0,0,.067,0,.043.043,0,0,0,0-.066.229.229,0,0,0-.146-.094c-.137-.017-.276-.033-.412-.056a1.429,1.429,0,0,0-.352.018c-.177.013-.354.018-.558.029" transform="translate(-2.987 -6.715)" fill="#f6aa18" fill-rule="evenodd"/>
      <path id="Path_215" data-name="Path 215" d="M105.761,11.905a.579.579,0,0,0-.47.064.043.043,0,0,1-.028.009.2.2,0,0,0-.241.137c-.011.027-.072.03-.049.076s.059.1.109.088c.127-.038.189.046.264.115.041.04.069.033.083-.021a.142.142,0,0,1,.033-.081.158.158,0,0,0,.055-.168.128.128,0,0,1,.175-.136c.084.024.031-.064.067-.083Z" transform="translate(-100.741 -4.392)" fill="#f6aa18" fill-rule="evenodd"/>
      <path id="Path_216" data-name="Path 216" d="M35.286,18.813c.1-.115.1-.117.214-.054.038.021.075.048.111.072a.2.2,0,0,0,.265-.106c.017-.066-.078-.152-.153-.134a.6.6,0,0,0-.11.04.153.153,0,0,1-.168-.013,1.068,1.068,0,0,0-.5-.13.074.074,0,0,0-.09.038c-.018.042.018.061.043.083l.1.087c.022.019.046.044.077.028.1-.046.145.018.2.09" transform="translate(13.352 -6.83)" fill="#f6aa18" fill-rule="evenodd"/>
      <path id="Path_217" data-name="Path 217" d="M60.933,27.343a1.741,1.741,0,0,0-.178-.091.114.114,0,0,0-.137.025c-.04.057-.1.118-.079.2a.056.056,0,0,0,.065.048c.134-.029.233.059.342.1a.471.471,0,0,0,.385-.028.066.066,0,0,0,.04-.073.107.107,0,0,0-.064-.089.292.292,0,0,0-.363.033.181.181,0,0,1-.067.03.041.041,0,0,1-.035-.018.056.056,0,0,1,0-.042c.019-.041.083-.038.094-.1" transform="translate(-28.335 -10.065)" fill="#f6aa18" fill-rule="evenodd"/>
      <path id="Path_218" data-name="Path 218" d="M87.761,17.416c-.136-.172-.329-.13-.508-.137a.054.054,0,0,0-.037.019.388.388,0,0,0,.049.23.53.53,0,0,0,.337.093,1.662,1.662,0,0,1,.194,0c.082.015.214-.124.211-.209a.04.04,0,0,0-.037-.04c-.04,0-.093,0-.1.042-.027.109-.1.086-.178.08-.04,0-.079-.006-.117-.012a.029.029,0,0,1-.025-.032.031.031,0,0,1,.032-.026c.038,0,.078.008.117.009.023,0,.05.005.066-.02" transform="translate(-71.791 -6.385)" fill="#f6aa18" fill-rule="evenodd"/>
      <path id="Path_219" data-name="Path 219" d="M75.409,15.128a.321.321,0,0,0,.357.057,2.565,2.565,0,0,0,.61-.175.183.183,0,0,1,.086-.016.182.182,0,0,0,.185-.093c.033-.061.1-.053.16-.027.028.012.057.023.078-.01a.049.049,0,0,0,0-.042.059.059,0,0,0-.071-.04.77.77,0,0,0-.13.028,2.714,2.714,0,0,1-.274.034c-.122.021-.264-.005-.371.123a.559.559,0,0,1-.441.132.535.535,0,0,0-.185.028" transform="translate(-53.23 -5.462)" fill="#f6aa18" fill-rule="evenodd"/>
      <path id="Path_220" data-name="Path 220" d="M40.858,18.4c.067-.091.151-.012.217-.074a.715.715,0,0,0-.232-.067,2.012,2.012,0,0,1-.379-.066c-.066-.016-.144-.042-.2.011s.005.128.02.192c.007.03.012.06.059.067.04-.042.022-.1.035-.151.007-.025.014-.049.044-.054s.054.016.072.042.009.058.013.086c.011.086.046.107.13.087.019-.006.049-.022.053-.016.086.089.185.033.281.032a.125.125,0,0,1,.082.03c.036.03.07.037.1-.008s.078-.032.122-.036a.029.029,0,0,0,.03-.026c0-.026-.02-.034-.04-.031a2.14,2.14,0,0,1-.405-.016" transform="translate(4.531 -6.715)" fill="#f6aa18" fill-rule="evenodd"/>
      <path id="Path_221" data-name="Path 221" d="M66.563,17.988a.492.492,0,0,1,.264,0,.174.174,0,0,0,.117,0,.3.3,0,0,1,.2-.038.04.04,0,0,0,.044-.031.034.034,0,0,0-.029-.044c-.063-.011-.115-.054-.183-.057a.2.2,0,0,1-.086-.014.717.717,0,0,0-.42-.049c-.066,0-.129,0-.194,0a.055.055,0,0,0-.057.039c-.008.024-.005.058.017.066.11.041.2.132.327.126" transform="translate(-37.734 -6.558)" fill="#f6aa18" fill-rule="evenodd"/>
      <path id="Path_222" data-name="Path 222" d="M103.274,11.8a.451.451,0,0,1,.335.107c.023-.028.006-.045,0-.063-.006-.045.013-.069.058-.059a.335.335,0,0,1,.167.053.172.172,0,0,0,.193.023,1.227,1.227,0,0,1,.189-.04c.042-.009.089,0,.123-.05-.054-.041-.139-.04-.149-.131a.069.069,0,0,0-.089-.036c-.12.057-.264.011-.381.087a.113.113,0,0,1-.086.013c-.151-.071-.248.044-.364.1Z" transform="translate(-98.255 -4.286)" fill="#f6aa18" fill-rule="evenodd"/>
      <path id="Path_223" data-name="Path 223" d="M59.819,18.048c.04-.035.042-.123.136-.1.034.007.074-.1.057-.134s-.057-.043-.1-.036a1.082,1.082,0,0,1-.54-.029.177.177,0,0,0-.178.011c.018.055.067.066.113.081.118.04.118.04.115.161a.14.14,0,0,0,0,.043c.01.037.041.04.071.037s.04-.026.027-.054a.07.07,0,0,1,.023-.1c.043-.026.076,0,.108.021s.059.037.086.057a.18.18,0,0,0,.083.047" transform="translate(-26.133 -6.55)" fill="#f6aa18" fill-rule="evenodd"/>
      <path id="Path_224" data-name="Path 224" d="M47.07,28.063a.115.115,0,0,0-.115-.073.6.6,0,0,1-.369-.074.332.332,0,0,0-.247-.074c-.055.011-.1-.037-.143-.068-.021-.017-.046-.023-.062,0a.044.044,0,0,0,.013.064c.075.057.13.146.245.136.037,0,.055.041.085.056a.508.508,0,0,0,.593.029" transform="translate(-4.947 -10.257)" fill="#f6aa18" fill-rule="evenodd"/>
      <path id="Path_225" data-name="Path 225" d="M49.933,18.045c0,.017,0,.031.007.036.095.1.251.1.345.2.023.027.075.011.113,0a.218.218,0,0,1,.144,0c.044.014.09.02.11-.037s-.007-.146-.056-.151c-.1-.013-.2-.083-.315-.018a.166.166,0,0,1-.156-.014.234.234,0,0,0-.194-.013" transform="translate(-10.937 -6.662)" fill="#f6aa18" fill-rule="evenodd"/>
      <path id="Path_226" data-name="Path 226" d="M73.819,26.591a.111.111,0,0,0-.073.036c-.117.1-.113.182.025.243.054.025.1.041.093.109a.018.018,0,0,0,0,.013c.071.061.149,0,.226.014.03.005.1-.107.086-.142a.115.115,0,0,0-.034-.045.225.225,0,0,0-.066-.036.446.446,0,0,1-.262-.192" transform="translate(-49.422 -9.825)" fill="#f6aa18" fill-rule="evenodd"/>
      <path id="Path_227" data-name="Path 227" d="M45.132,28.339c-.061.027-.115-.008-.17-.025a.27.27,0,0,0-.189-.009.344.344,0,0,1-.3-.021c-.074-.04-.11-.01-.107.074.006.136.084.2.2.158a1.849,1.849,0,0,1,.608-.11.217.217,0,0,0,.045-.006c.015,0,.028-.017.024-.032a.046.046,0,0,0-.024-.034.131.131,0,0,0-.089,0" transform="translate(-2.012 -10.444)" fill="#f6aa18" fill-rule="evenodd"/>
      <path id="Path_228" data-name="Path 228" d="M30.86,18.945c-.049-.066-.11-.095-.129-.162a.076.076,0,0,0-.1-.046.9.9,0,0,1-.231.043c-.054,0-.1.049-.113.1A.109.109,0,0,0,30.3,19a.083.083,0,0,0,.109.014A.221.221,0,0,1,30.582,19a.552.552,0,0,0,.278-.055" transform="translate(21.254 -6.922)" fill="#f6aa18" fill-rule="evenodd"/>
      <path id="Path_229" data-name="Path 229" d="M70.9,26.662a.582.582,0,0,1,.107.151.125.125,0,0,0,.176.083,1.279,1.279,0,0,1,.387-.081c.009,0,.015-.011.022-.017-.009-.04-.043-.037-.07-.032a.325.325,0,0,1-.253-.064c-.123-.091-.244-.037-.368-.041" transform="translate(-45.095 -9.847)" fill="#f6aa18" fill-rule="evenodd"/>
      <path id="Path_230" data-name="Path 230" d="M62.277,17.856a.54.54,0,0,0-.465-.189.305.305,0,0,1-.173-.023.064.064,0,0,0-.085.041c-.016.033.007.05.033.069.086.064.167.127.28.046a.119.119,0,0,1,.141,0c.081.065.176.045.269.052" transform="translate(-29.879 -6.517)" fill="#f6aa18" fill-rule="evenodd"/>
      <path id="Path_231" data-name="Path 231" d="M39.217,18.58c-.024-.016-.047-.026-.055-.04-.1-.212-.3-.173-.477-.182a.054.054,0,0,0-.058.038.066.066,0,0,0,.021.067.191.191,0,0,0,.189.059.166.166,0,0,1,.177.047.135.135,0,0,0,.2.011" transform="translate(7.636 -6.783)" fill="#f6aa18" fill-rule="evenodd"/>
      <path id="Path_232" data-name="Path 232" d="M77.187,17.713a.341.341,0,0,1-.067-.039.273.273,0,0,0-.287-.055c-.069.021-.136-.01-.216,0,.015.073.032.131.115.129a.126.126,0,0,1,.091.04.048.048,0,0,0,.054.013c.122-.047.139-.042.207.062.016.026.028.052.075.054,0-.042-.054-.055-.045-.1s.062-.049.074-.105" transform="translate(-54.289 -6.504)" fill="#f6aa18" fill-rule="evenodd"/>
      <path id="Path_233" data-name="Path 233" d="M82.269,16.421a.3.3,0,0,0-.279.025.081.081,0,0,1-.1.009.348.348,0,0,0-.273,0c-.029.008-.06.021-.057.056s.034.072.068.067c.145-.02.3.055.439-.057.05-.043.134-.034.2-.1" transform="translate(-62.492 -6.06)" fill="#f6aa18" fill-rule="evenodd"/>
      <path id="Path_234" data-name="Path 234" d="M74.566,26.64c-.045.005-.064.032-.054.08s.055.117.006.185c-.02.027.014.052.051.038A.537.537,0,0,1,74.7,26.9c.057-.008.118-.035.154.039a.029.029,0,0,0,.05,0,.05.05,0,0,0,.009-.041.612.612,0,0,0-.344-.261" transform="translate(-50.687 -9.843)" fill="#f6aa18" fill-rule="evenodd"/>
      <path id="Path_235" data-name="Path 235" d="M85.7,16.624a.4.4,0,0,0,.455.189c.022-.009.049-.016.054-.044s-.023-.042-.045-.054a2.172,2.172,0,0,0-.414-.114.048.048,0,0,0-.05.023" transform="translate(-69.047 -6.134)" fill="#f6aa18" fill-rule="evenodd"/>
      <path id="Path_236" data-name="Path 236" d="M79.15,17.859c-.03-.041-.091-.056-.049-.116a.166.166,0,0,1,.194-.064c.026.013.049.036.074.05s.05.015.063-.014.006-.055-.022-.06a1.13,1.13,0,0,1-.191-.079.3.3,0,0,0-.288.078c-.018.011-.027.039-.011.051.062.044.092.124.166.156.013.006.03,0,.063,0" transform="translate(-57.99 -6.49)" fill="#f6aa18" fill-rule="evenodd"/>
      <path id="Path_237" data-name="Path 237" d="M75.882,17.826c.024.034.005.055,0,.079s-.011.072.025.093.1,0,.137-.023a.054.054,0,0,0,.013-.089c-.042-.04.01-.105-.042-.135a.29.29,0,0,0-.175-.012c-.05,0-.136-.012-.126.062s.085.032.134.024a.243.243,0,0,1,.035,0" transform="translate(-52.609 -6.552)" fill="#f6aa18" fill-rule="evenodd"/>
      <path id="Path_238" data-name="Path 238" d="M81.528,26.169c-.086-.152-.256-.1-.387-.156a.052.052,0,0,0-.064.025c-.016.036-.062.048-.071.09a1.654,1.654,0,0,0,.521.04" transform="translate(-61.399 -9.611)" fill="#f6aa18" fill-rule="evenodd"/>
      <path id="Path_239" data-name="Path 239" d="M93.032,34.884c-.013-.1-.057-.119-.139-.069a.294.294,0,0,0-.06.044c-.03.028-.1-.015-.1.057,0,.055.062.057.1.082s.044.076.09.071.064-.072.1-.1.015-.056.011-.084" transform="translate(-80.302 -12.854)" fill="#f6aa18" fill-rule="evenodd"/>
      <path id="Path_240" data-name="Path 240" d="M83.018,16.7c.078-.039.147.015.221.013a1.03,1.03,0,0,1,.132,0c.066.006.087-.032.095-.087s-.022-.061-.061-.054a.145.145,0,0,0-.068.027.159.159,0,0,1-.14.023,2.107,2.107,0,0,0-.3.009.037.037,0,0,0-.038.038.039.039,0,0,0,.04.036c.04,0,.078,0,.115-.006" transform="translate(-64.509 -6.124)" fill="#f6aa18" fill-rule="evenodd"/>
      <path id="Path_241" data-name="Path 241" d="M78.937,18.465a.192.192,0,0,0,.144.016,2.369,2.369,0,0,1,.34.022c.048,0,.076.045.117.062s.071.023.09-.018-.014-.057-.04-.071a.3.3,0,0,0-.183-.047.342.342,0,0,1-.174-.023.368.368,0,0,0-.3.062Z" transform="translate(-58.195 -6.796)" fill="#f6aa18" fill-rule="evenodd"/>
      <path id="Path_242" data-name="Path 242" d="M76.014,4.335c.051-.013.107-.059.179-.036.018.006.035-.016.037-.039s-.021-.067-.048-.064a.633.633,0,0,1-.242-.039c-.035-.01-.064.023-.069.061a.1.1,0,0,0,.043.1.171.171,0,0,0,.1.014" transform="translate(-52.864 -1.536)" fill="#f6aa18" fill-rule="evenodd"/>
      <path id="Path_243" data-name="Path 243" d="M32.7,19.135c-.034-.044-.059-.08-.089-.113a.225.225,0,0,0-.093-.071c-.055-.019-.143,0-.149.032-.011.054.037.077.069.1a.271.271,0,0,0,.262.047" transform="translate(18.1 -6.999)" fill="#f6aa18" fill-rule="evenodd"/>
      <path id="Path_244" data-name="Path 244" d="M81.6,18.393a1.316,1.316,0,0,0,.707,0,3.279,3.279,0,0,0-.707,0" transform="translate(-62.551 -6.79)" fill="#f6aa18" fill-rule="evenodd"/>
      <path id="Path_245" data-name="Path 245" d="M79.925,17.57a.273.273,0,0,0,.178.067.806.806,0,0,1,.161.018.046.046,0,0,0,.059-.032c.007-.035-.011-.067-.044-.064-.115.009-.233-.062-.354.011" transform="translate(-59.513 -6.48)" fill="#f6aa18" fill-rule="evenodd"/>
      <path id="Path_246" data-name="Path 246" d="M49.275,18.214a.936.936,0,0,1-.173-.146.115.115,0,0,0-.09-.044.048.048,0,0,0-.049.024.036.036,0,0,0,.007.053c.054.03.078.087.124.124a.114.114,0,0,0,.181-.011" transform="translate(-8.936 -6.66)" fill="#f6aa18" fill-rule="evenodd"/>
      <path id="Path_247" data-name="Path 247" d="M103.074,11.539a.53.53,0,0,0-.431-.09c.152.062.253.2.431.09" transform="translate(-96.587 -4.223)" fill="#f6aa18" fill-rule="evenodd"/>
      <path id="Path_248" data-name="Path 248" d="M81.5,25.663c-.023-.074-.04-.117-.079-.123-.084-.009-.155-.067-.243-.051a.06.06,0,0,0-.047.03.056.056,0,0,0,.023.064.137.137,0,0,0,.11.03.442.442,0,0,1,.236.05" transform="translate(-61.447 -9.417)" fill="#f6aa18" fill-rule="evenodd"/>
      <path id="Path_249" data-name="Path 249" d="M53.148,18.07a.346.346,0,0,1,.208.063.1.1,0,0,0,.083.026.042.042,0,0,0,.034-.065.035.035,0,0,0-.021-.018c-.081-.018-.071-.155-.154-.136-.055.014-.086.1-.148.131Z" transform="translate(-15.784 -6.629)" fill="#f6aa18" fill-rule="evenodd"/>
      <path id="Path_250" data-name="Path 250" d="M62.694,26.966a.089.089,0,0,0-.066-.112l-.2-.064c-.031-.011-.058-.01-.071.026a.061.061,0,0,0,.026.077.038.038,0,0,0,.026.013c.1-.006.186.054.283.059Z" transform="translate(-30.809 -9.896)" fill="#f6aa18" fill-rule="evenodd"/>
      <path id="Path_251" data-name="Path 251" d="M72.619,17.742c-.035,0-.055.016-.059.043a.067.067,0,0,0,.045.082.716.716,0,0,1,.169.037c.023.009.048-.009.056-.035s.007-.044-.014-.053a.505.505,0,0,0-.2-.073" transform="translate(-47.378 -6.556)" fill="#f6aa18" fill-rule="evenodd"/>
      <path id="Path_252" data-name="Path 252" d="M34,18.963a.453.453,0,0,0-.275-.127c-.026,0-.051,0-.058.035a.048.048,0,0,0,.033.057c.1.035.189.091.3.035" transform="translate(15.974 -6.96)" fill="#f6aa18" fill-rule="evenodd"/>
      <path id="Path_253" data-name="Path 253" d="M80.626,16.195c.094.093.2.052.3.043a.037.037,0,0,0,.037-.038.039.039,0,0,0-.033-.042c-.1-.006-.206-.04-.3.037" transform="translate(-60.593 -5.966)" fill="#f6aa18" fill-rule="evenodd"/>
      <path id="Path_254" data-name="Path 254" d="M83.15,25.612a.546.546,0,0,0-.227-.037.131.131,0,0,0-.055.014.069.069,0,0,0-.04.073c.008.037.042.042.07.037.086-.015.17-.033.255-.051,0-.011,0-.022,0-.035" transform="translate(-64.171 -9.45)" fill="#f6aa18" fill-rule="evenodd"/>
      <path id="Path_255" data-name="Path 255" d="M91.232,18.321c-.052-.066-.081-.105-.112-.144a.163.163,0,0,0-.032-.03.137.137,0,0,0-.152,0c-.021.024.023.1.078.124a1.737,1.737,0,0,0,.218.049" transform="translate(-77.36 -6.697)" fill="#f6aa18" fill-rule="evenodd"/>
      <path id="Path_256" data-name="Path 256" d="M82.159,15.509l.242.06a.057.057,0,0,0,.072-.034.063.063,0,0,0-.03-.088.123.123,0,0,0-.128-.007c-.049.028-.1.033-.156.069" transform="translate(-63.078 -5.7)" fill="#f6aa18" fill-rule="evenodd"/>
      <path id="Path_257" data-name="Path 257" d="M43.216,27.993c-.016-.073-.054-.095-.112-.081a.441.441,0,0,1-.284.005c.1.1.128.108.4.076" transform="translate(0.991 -10.312)" fill="#f6aa18" fill-rule="evenodd"/>
      <path id="Path_258" data-name="Path 258" d="M68.056,17.8a.04.04,0,0,0,.033.044c.072.015.144.03.218.042.039.005.059-.033.038-.071a.088.088,0,0,0-.069-.049.635.635,0,0,0-.192.007.029.029,0,0,0-.028.028" transform="translate(-40.059 -6.563)" fill="#f6aa18" fill-rule="evenodd"/>
      <path id="Path_259" data-name="Path 259" d="M78.879,15.649a.163.163,0,0,0-.171.023c-.083.081-.173.115-.274.028-.008-.006-.027,0-.042,0,.072.115.133.14.229.079.077-.05.163-.074.259-.132" transform="translate(-57.102 -5.778)" fill="#f6aa18" fill-rule="evenodd"/>
      <path id="Path_260" data-name="Path 260" d="M78.35,17.621a.341.341,0,0,0-.046.008c-.031.012-.073.023-.061.068s.049.043.082.024a.167.167,0,0,1,.155,0c.022.009.054.009.062-.018s-.022-.049-.052-.054l-.141-.029" transform="translate(-56.671 -6.511)" fill="#f6aa18" fill-rule="evenodd"/>
      <path id="Path_261" data-name="Path 261" d="M79.635,15.789a.744.744,0,0,1-.158-.024.13.13,0,0,0-.113.013.067.067,0,0,0-.021.036.033.033,0,0,0,.034.039c.088-.011.187.026.259-.064" transform="translate(-58.456 -5.822)" fill="#f6aa18" fill-rule="evenodd"/>
      <path id="Path_262" data-name="Path 262" d="M97.491,32.336c-.03-.038-.06-.078-.093-.112a.07.07,0,0,0-.113.014c-.032.037,0,.061.026.083a.124.124,0,0,0,.182.012Z" transform="translate(-87.621 -11.898)" fill="#f6aa18" fill-rule="evenodd"/>
      <path id="Path_263" data-name="Path 263" d="M62.82,18.106A.239.239,0,0,0,62.6,18c-.023,0-.056-.005-.059.027s.026.051.054.058a.77.77,0,0,0,.1.008l.121.017" transform="translate(-31.049 -6.65)" fill="#f6aa18" fill-rule="evenodd"/>
      <path id="Path_264" data-name="Path 264" d="M93.815,18.062a.352.352,0,0,0,.179.091c.036,0,.075,0,.079-.049a.062.062,0,0,0-.055-.062.332.332,0,0,0-.2.02" transform="translate(-82.02 -6.664)" fill="#f6aa18" fill-rule="evenodd"/>
      <path id="Path_265" data-name="Path 265" d="M46.213,27.841c.03,0,.049-.006.059-.025a.043.043,0,0,0-.009-.052.129.129,0,0,0-.034-.028c-.04-.02-.076-.049-.124-.035a.042.042,0,0,0-.013.036.169.169,0,0,0,.121.1" transform="translate(-4.134 -10.234)" fill="#f6aa18" fill-rule="evenodd"/>
      <path id="Path_266" data-name="Path 266" d="M73.643,17.852c.084.013.146.011.179-.069.01-.02.034-.044.008-.064a.058.058,0,0,0-.08.008c-.036.037-.066.078-.107.125" transform="translate(-49.07 -6.543)" fill="#f6aa18" fill-rule="evenodd"/>
      <path id="Path_267" data-name="Path 267" d="M71.871,25.841a.177.177,0,0,0-.207-.042c-.026.009-.067.013-.055.052s.047.033.077.029c.057-.01.114-.023.186-.038" transform="translate(-45.815 -9.526)" fill="#f6aa18" fill-rule="evenodd"/>
      <path id="Path_268" data-name="Path 268" d="M37.961,18.584a.437.437,0,0,0-.04-.05c-.017-.013-.038-.021-.051,0a.323.323,0,0,1-.076.087c-.016.013-.028.031-.016.052a.043.043,0,0,0,.063.016c.041-.03.078-.068.12-.106" transform="translate(9.428 -6.844)" fill="#f6aa18" fill-rule="evenodd"/>
      <path id="Path_269" data-name="Path 269" d="M53.892,18.138c-.058,0-.114-.031-.172-.016-.03.008-.056.023-.051.06a.052.052,0,0,0,.052.042.159.159,0,0,0,.168-.088Z" transform="translate(-16.525 -6.695)" fill="#f6aa18" fill-rule="evenodd"/>
      <path id="Path_270" data-name="Path 270" d="M52.381,18.393a.166.166,0,0,0-.141-.131.028.028,0,0,0-.03.038.221.221,0,0,0,.141.12.03.03,0,0,0,.03-.026" transform="translate(-14.095 -6.748)" fill="#f6aa18" fill-rule="evenodd"/>
      <path id="Path_271" data-name="Path 271" d="M56.1,27.817c-.057-.133-.082-.154-.153-.131-.023.008-.047.022-.045.05a.04.04,0,0,0,.044.032c.05,0,.088.037.153.049" transform="translate(-20.135 -10.227)" fill="#f6aa18" fill-rule="evenodd"/>
      <path id="Path_272" data-name="Path 272" d="M78.1,4.5c-.027,0-.05.02-.05.045,0,.057.045.071.091.072.028,0,.062-.006.07-.041S78.139,4.5,78.1,4.5" transform="translate(-56.215 -1.665)" fill="#f6aa18" fill-rule="evenodd"/>
      <path id="Path_273" data-name="Path 273" d="M78.011,15.571c.057,0,.117-.045.105-.073s-.042-.074-.084-.072-.053.054-.062.089a.045.045,0,0,0,.041.055" transform="translate(-56.074 -5.7)" fill="#f6aa18" fill-rule="evenodd"/>
      <path id="Path_274" data-name="Path 274" d="M89.864,18.2c-.073.006-.146-.008-.218,0-.026,0-.048.02-.042.05s.026.027.047.025a.413.413,0,0,0,.213-.076" transform="translate(-75.156 -6.723)" fill="#f6aa18" fill-rule="evenodd"/>
      <path id="Path_275" data-name="Path 275" d="M77.871,17.806c.023,0,.052,0,.051-.035s-.016-.033-.035-.041a.211.211,0,0,0-.043-.01c-.037-.006-.086-.014-.091.038s.045.035.075.043l.043.005" transform="translate(-55.742 -6.546)" fill="#f6aa18" fill-rule="evenodd"/>
      <path id="Path_276" data-name="Path 276" d="M107.451,12.487c.059,0,.1,0,.143-.008s.045-.037.039-.067-.036-.028-.059-.02a.158.158,0,0,0-.124.1" transform="translate(-104.179 -4.576)" fill="#f6aa18" fill-rule="evenodd"/>
      <path id="Path_277" data-name="Path 277" d="M70.643,27.109a.242.242,0,0,0-.1-.094.037.037,0,0,0-.052.006.048.048,0,0,0,0,.054c.026.047.048.053.159.033" transform="translate(-43.875 -9.979)" fill="#f6aa18" fill-rule="evenodd"/>
      <path id="Path_278" data-name="Path 278" d="M34.483,18.839a.084.084,0,0,0-.053.092.049.049,0,0,0,.061.047.057.057,0,0,0,.055-.072c-.008-.034-.016-.068-.063-.067" transform="translate(14.949 -6.961)" fill="#f6aa18" fill-rule="evenodd"/>
      <path id="Path_279" data-name="Path 279" d="M62.037,27.071c.009.035.021.071.06.078a.631.631,0,0,1,.144.062.188.188,0,0,0-.206-.138Z" transform="translate(-30.149 -10.003)" fill="#f6aa18" fill-rule="evenodd"/>
      <path id="Path_280" data-name="Path 280" d="M51.638,18.019c-.023,0-.042.017-.037.037a.094.094,0,0,0,.093.077c.022,0,.03-.023.03-.043,0-.057-.041-.069-.086-.071" transform="translate(-13.055 -6.658)" fill="#f6aa18" fill-rule="evenodd"/>
      <path id="Path_281" data-name="Path 281" d="M54.479,18.147c-.067-.115-.067-.115-.182-.086a.388.388,0,0,0,.182.086" transform="translate(-17.509 -6.668)" fill="#f6aa18" fill-rule="evenodd"/>
      <path id="Path_282" data-name="Path 282" d="M45.751,27.635a.036.036,0,0,0-.027.044.082.082,0,0,0,.1.078.04.04,0,0,0,.034-.04.113.113,0,0,0-.105-.081" transform="translate(-3.481 -10.211)" fill="#f6aa18" fill-rule="evenodd"/>
      <path id="Path_283" data-name="Path 283" d="M93.394,34.671c0-.049-.035-.1-.067-.1a.041.041,0,0,0-.035.041.08.08,0,0,0,.064.085c.021.006.036-.007.038-.03" transform="translate(-81.012 -12.775)" fill="#f6aa18" fill-rule="evenodd"/>
      <path id="Path_284" data-name="Path 284" d="M80.345,18.476c-.013-.015-.025-.04-.039-.042a1.177,1.177,0,0,0-.271-.015c.1.051.213.011.313.055Z" transform="translate(-59.606 -6.805)" fill="#f6aa18" fill-rule="evenodd"/>
      <path id="Path_285" data-name="Path 285" d="M78.088,18.466c0,.015,0,.022,0,.025a.124.124,0,0,0,.143.042.024.024,0,0,0,.011-.036c-.013-.029-.03-.031-.153-.031" transform="translate(-56.274 -6.823)" fill="#f6aa18" fill-rule="evenodd"/>
      <path id="Path_286" data-name="Path 286" d="M94.031,34.311c.049.023.1.047.146.068.018.009.042.012.053-.009s-.009-.043-.03-.057a.2.2,0,0,0-.169,0" transform="translate(-82.319 -12.671)" fill="#f6aa18" fill-rule="evenodd"/>
      <path id="Path_287" data-name="Path 287" d="M48.31,18.321a.142.142,0,0,0-.067-.106.04.04,0,0,0-.064,0,.037.037,0,0,0,.013.062.226.226,0,0,0,.119.042" transform="translate(-7.474 -6.725)" fill="#f6aa18" fill-rule="evenodd"/>
      <path id="Path_288" data-name="Path 288" d="M83.457,18.351c.063.049.112.067.181.016a.144.144,0,0,0-.181-.016" transform="translate(-65.054 -6.772)" fill="#f6aa18" fill-rule="evenodd"/>
      <path id="Path_289" data-name="Path 289" d="M83.659,18.524a.418.418,0,0,0-.235-.02.2.2,0,0,0,.235.02" transform="translate(-65.054 -6.835)" fill="#f6aa18" fill-rule="evenodd"/>
      <path id="Path_290" data-name="Path 290" d="M77.387,18.5a.161.161,0,0,0,.186.051c-.044-.07-.1-.071-.186-.051" transform="translate(-55.162 -6.831)" fill="#f6aa18" fill-rule="evenodd"/>
      <path id="Path_291" data-name="Path 291" d="M42.069,18.6A.07.07,0,0,0,42,18.534c-.022,0-.029.022-.028.043,0,.037.013.071.059.066.02,0,.032-.02.035-.044" transform="translate(2.67 -6.848)" fill="#f6aa18" fill-rule="evenodd"/>
      <path id="Path_292" data-name="Path 292" d="M93.031,18.3c.038-.015.038-.049.033-.083s-.02-.048-.047-.036-.03.056-.026.09.016.032.041.03" transform="translate(-80.492 -6.717)" fill="#f6aa18" fill-rule="evenodd"/>
      <path id="Path_293" data-name="Path 293" d="M93.39,18.274c0,.016,0,.03.009.035.03.023.052.065.1.047a.026.026,0,0,0,.013-.037.088.088,0,0,0-.121-.044" transform="translate(-81.194 -6.749)" fill="#f6aa18" fill-rule="evenodd"/>
      <path id="Path_294" data-name="Path 294" d="M85.8,18.29a.2.2,0,0,0,.219,0c-.073-.052-.135-.018-.219,0" transform="translate(-68.911 -6.747)" fill="#f6aa18" fill-rule="evenodd"/>
      <path id="Path_295" data-name="Path 295" d="M81.858,5.784c-.027.006-.054.011-.057.04s.024.038.05.033.067,0,.066-.042-.035-.029-.059-.031" transform="translate(-62.288 -2.137)" fill="#f6aa18" fill-rule="evenodd"/>
      <path id="Path_296" data-name="Path 296" d="M70.112,27.137a.037.037,0,0,0-.036-.039c-.034,0-.073-.009-.082.038,0,.008.017.025.029.028.035.011.07.012.089-.026" transform="translate(-43.039 -10.012)" fill="#f6aa18" fill-rule="evenodd"/>
      <path id="Path_297" data-name="Path 297" d="M32,18.757c-.018,0-.029.015-.025.032a.064.064,0,0,0,.07.057.033.033,0,0,0,.032-.04c-.01-.04-.044-.047-.076-.049" transform="translate(18.961 -6.931)" fill="#f6aa18" fill-rule="evenodd"/>
      <path id="Path_298" data-name="Path 298" d="M76.764,18.507c.027.049.059.069.105.036a.028.028,0,0,0,.006-.027c-.033-.042-.071-.028-.111-.009" transform="translate(-54.073 -6.832)" fill="#f6aa18" fill-rule="evenodd"/>
      <path id="Path_299" data-name="Path 299" d="M78.478,4.507c.034.036.046.1.114.092a.013.013,0,0,0,.007-.013c-.01-.066-.074-.061-.121-.079" transform="translate(-56.876 -1.666)" fill="#f6aa18" fill-rule="evenodd"/>
      <path id="Path_300" data-name="Path 300" d="M75.362,18a.05.05,0,0,0-.061-.047.039.039,0,0,0-.037.038.049.049,0,0,0,.054.054c.028,0,.044-.016.044-.045" transform="translate(-51.613 -6.632)" fill="#f6aa18" fill-rule="evenodd"/>
      <path id="Path_301" data-name="Path 301" d="M74.7,3.362a.133.133,0,0,0-.163.029c0,.005,0,.023.007.025.057.023.082-.037.156-.054" transform="translate(-50.491 -1.237)" fill="#f6aa18" fill-rule="evenodd"/>
      <path id="Path_302" data-name="Path 302" d="M88.173,18.257c-.009-.022-.03-.023-.047-.026s-.057-.017-.08.011c0,.005,0,.021.006.026a.074.074,0,0,0,.078.021c.017-.005.037-.011.044-.032" transform="translate(-72.481 -6.734)" fill="#f6aa18" fill-rule="evenodd"/>
      <path id="Path_303" data-name="Path 303" d="M20.953,27.489a.33.33,0,0,0-.069.02c-.043.019-.083.047-.067.1s.062.036.1.023a.3.3,0,0,1,.1-.006.078.078,0,0,0,.083-.072c0-.044-.04-.05-.074-.057a.706.706,0,0,0-.076-.008" transform="translate(36.979 -10.157)" fill="#f6aa18" fill-rule="evenodd"/>
      <path id="Path_304" data-name="Path 304" d="M20.834,27.085c.075.112.172.071.254.072.027,0,.034-.032.018-.057a.133.133,0,0,0-.131-.052c-.044.006-.084.022-.141.037" transform="translate(36.955 -9.994)" fill="#f6aa18" fill-rule="evenodd"/>
      <path id="Path_305" data-name="Path 305" d="M20.649,27.592a.048.048,0,0,0-.028-.047c-.042-.02-.075.008-.109.028a.073.073,0,0,0-.033.088.053.053,0,0,0,.052.045.174.174,0,0,0,.119-.115" transform="translate(37.647 -10.175)" fill="#f6aa18" fill-rule="evenodd"/>
      <path id="Path_306" data-name="Path 306" d="M23.04,27.466c-.1-.006-.16-.049-.235-.025-.023.008-.05.018-.049.045s.029.033.054.035a.353.353,0,0,0,.23-.054" transform="translate(33.818 -10.137)" fill="#f6aa18" fill-rule="evenodd"/>
      <path id="Path_307" data-name="Path 307" d="M22.362,27.5c-.018-.016-.023-.021-.028-.023-.047-.014-.1-.03-.132.02a.026.026,0,0,0,.011.038c.057.032.1.008.149-.035" transform="translate(34.847 -10.148)" fill="#f6aa18" fill-rule="evenodd"/>
      <path id="Path_308" data-name="Path 308" d="M21.578,27.5a.046.046,0,0,0-.056-.032c-.035.009-.064.029-.062.069s.03.033.054.028.064-.023.064-.066" transform="translate(36.097 -10.15)" fill="#f6aa18" fill-rule="evenodd"/>
      <path id="Path_309" data-name="Path 309" d="M86.606,24.487c.018-.008.037-.013.054-.022a.049.049,0,0,0,.03-.047c0-.032-.026-.042-.052-.044a2.082,2.082,0,0,0-.208-.009c-.1,0-.195.009-.3.015.029.051.077.039.117.044a1.3,1.3,0,0,1,.364.064Z" transform="translate(-69.789 -9.003)" fill="#f6aa18" fill-rule="evenodd"/>
      <path id="Path_310" data-name="Path 310" d="M82.51,24.187a.818.818,0,0,0,.071.09.042.042,0,0,0,.064-.006.045.045,0,0,0-.013-.064c-.036-.032-.082-.02-.125-.017Z" transform="translate(-63.471 -8.936)" fill="#f6aa18" fill-rule="evenodd"/>
      <path id="Path_311" data-name="Path 311" d="M91.752,25.47c-.007-.032-.033-.031-.056-.035s-.061,0-.066.038a.041.041,0,0,0,.044.047.076.076,0,0,0,.078-.051" transform="translate(-78.322 -9.398)" fill="#f6aa18" fill-rule="evenodd"/>
    </g>
  </g>
</svg>
