<svg xmlns="http://www.w3.org/2000/svg" xmlns:xlink="http://www.w3.org/1999/xlink" width="21.269" height="20.329" viewBox="0 0 21.269 20.329">
  <defs>
    <clipPath id="clip-path">
      <rect id="Rectangle_121" data-name="Rectangle 121" width="21.269" height="20.329" fill="none"/>
    </clipPath>
  </defs>
  <g id="Group_144" data-name="Group 144" transform="translate(-921.533 -6400.578)">
    <g id="Group_143" data-name="Group 143" transform="translate(921.533 6400.578)">
      <g id="Group_142" data-name="Group 142" transform="translate(0 0)" clip-path="url(#clip-path)">
        <path id="Path_2007" data-name="Path 2007" d="M4.828,6.614H.27V20.33H4.828ZM2.549,4.741A2.378,2.378,0,1,0,2.579,0a2.377,2.377,0,1,0-.06,4.74Z" transform="translate(0 -0.001)" fill="#111" fill-rule="evenodd"/>
        <path id="Path_2008" data-name="Path 2008" d="M638.435,560.355h4.559v-7.66a3.119,3.119,0,0,1,.15-1.112,2.5,2.5,0,0,1,2.339-1.668c1.65,0,2.31,1.258,2.31,3.1v7.338h4.559V552.49c0-4.213-2.249-6.174-5.249-6.174a4.541,4.541,0,0,0-4.139,2.311h.03v-1.989h-4.559c.06,1.287,0,13.717,0,13.717" transform="translate(-631.084 -540.025)" fill="#111" fill-rule="evenodd"/>
      </g>
    </g>
  </g>
</svg>
