<svg id="icon" xmlns="http://www.w3.org/2000/svg" width="27.751" height="27.873" viewBox="0 0 27.751 27.873">
  <path id="Phone" d="M19.188,27.873c-4.222,0-9.069-2.325-12.967-6.221A21.062,21.062,0,0,1,.265,11.244C-.453,7.657.3,4.535,2.383,2.452a8,8,0,0,1,4.6-2.3L8.019,0l3.8,8.855-3.8,1.9a22.082,22.082,0,0,0,3.963,5.14A22.667,22.667,0,0,0,17.1,19.824l1.784-3.492,8.8,1.256.053,1.123a8.714,8.714,0,0,1-2.317,6.783A8.573,8.573,0,0,1,19.188,27.873ZM6.382,3.074h0a5.3,5.3,0,0,0-2.08,1.3c-1.51,1.509-1.937,3.959-1.2,6.9a18.81,18.81,0,0,0,5.042,8.461c3.324,3.323,7.576,5.387,11.1,5.387A5.865,5.865,0,0,0,23.5,23.572a5.541,5.541,0,0,0,1.507-3.624l-4.571-.654-.877,1.757a2.678,2.678,0,0,1-1.609,1.371,2.708,2.708,0,0,1-.817.125A2.8,2.8,0,0,1,15.8,22.21a25.363,25.363,0,0,1-5.74-4.4,24.908,24.908,0,0,1-4.437-5.767A2.729,2.729,0,0,1,6.808,8.322l1.5-.75-1.928-4.5Z" transform="translate(0)"/>
</svg>
