<svg xmlns="http://www.w3.org/2000/svg" xmlns:xlink="http://www.w3.org/1999/xlink" width="99" height="99" viewBox="0 0 99 99">
  <defs>
    <clipPath id="clip-path">
      <rect id="Rectangle_154" data-name="Rectangle 154" width="42.377" height="58.674" fill="none"/>
    </clipPath>
  </defs>
  <g id="Group_718" data-name="Group 718" transform="translate(-1085.62 -540)">
    <circle id="Ellipse_5" data-name="Ellipse 5" cx="49.5" cy="49.5" r="49.5" transform="translate(1085.62 540)" fill="#fbad18"/>
    <g id="Group_278" data-name="Group 278" transform="translate(1115.503 561.053)">
      <g id="Group_278-2" data-name="Group 278" clip-path="url(#clip-path)">
        <path id="Path_7901" data-name="Path 7901" d="M16.341,49.326a.857.857,0,0,0,.839-.839l-1.1.456a.825.825,0,0,1,.083.074q.063.073-.057-.076c.034.048.042.129-.031-.082a.821.821,0,0,1,.006-.239c-.018.12.091-.163.024-.058.112-.176.088-.106.037-.058s.163-.108.025-.026c-.047.028-.169.076.049-.014a1.025,1.025,0,0,1-.215.059c.24-.042.086-.011.022-.01a.813.813,0,0,1-.1,0c.239.023.1.014.036-.006-.094-.03.173.088.055.019q-.077-.052.08.063c-.041-.034-.086-.114.045.067-.08-.111.048.169.012.03q-.018-.1.013.1a.577.577,0,0,1,0-.086c-.015.219-.007.067.01.007q-.065.14-.012.053c-.1.15-.049.063-.015.026.109-.117-.1.063-.02.011.126-.082-.157.044-.021.011-.2.049-.139.012-.065.016q-.205-.033-.111-.013c.053.012.13.061-.079-.037.053.025.135.1-.048-.046.116.094-.06-.1-.023-.043s.062.154-.022-.069c.053.139-.006-.128,0-.063,0,.092.045-.2.008-.081q.085-.185.041-.1c-.046.083.119-.138.05-.067s.161-.1.034-.034c.189-.1.059-.026-.015-.009s-.046.009.063-.008c-.042,0-.083,0-.125.005a1.989,1.989,0,0,1-.248-.017l.456.189a.472.472,0,0,1,.045.556q-.265.224-.118.134-.123.051-.011.018-.111.014.014.006a.645.645,0,1,0,0-1.29,1.25,1.25,0,0,0-.88.323A.823.823,0,0,0,15.08,49.3a1.357,1.357,0,0,0,1.506.051,1,1,0,0,0-.309-1.792,1.076,1.076,0,0,0-1.082.355A1.224,1.224,0,0,0,15,49.263c.311.667,1.27.629,1.813.329a.933.933,0,0,0,.173-1.561.678.678,0,0,0-.628-.166.655.655,0,0,0-.474.622q0,.078.019-.136l-.005.023a.48.48,0,0,1,.438-.338.658.658,0,0,0-.645.645.646.646,0,0,0,.645.645" transform="translate(-12.935 -41.388)" fill="#1a1818"/>
        <path id="Path_7902" data-name="Path 7902" d="M9.8,105.739,9.72,105.7l-.3-.386.008.031V105c-.027.171-.091.323-.109.5l.971-.557c-.062-.039-.066-.037-.01.007-.02-.016-.125-.149-.047-.038-.021-.03-.072-.178-.026-.042-.04-.118-.011.055-.016.1l.012-.046a.293.293,0,0,1-.153.2c-.026.02-.222.034-.1.036-.027,0-.237-.08-.145-.024-.152-.094,0,.052-.094-.087.022.031.081.162.015,0a1.038,1.038,0,0,1,.042.133c.01.035.03.192.009.015a1.33,1.33,0,0,1,.006.14c0,.041-.021.193.008,0a.811.811,0,0,1-.029.117l.2-.262q-.091.052.038-.005c-.041.017-.18.034,0,.014a.736.736,0,0,1-.091,0c-.155,0,.142.031-.008,0s.122.066-.011,0,.1.1-.006,0c-.082-.074.048.1.058.121-.039-.1-.005.109-.011.143.019-.114-.014.038-.042.064-.11.1.11-.031-.055.033.044-.017.185-.024.018-.012.155-.011-.137-.035.011-.005.046.01.162.072.009,0,.128.063-.1-.1,0-.006s-.074-.123-.012-.011a.4.4,0,0,1-.039-.295l.039-.085q-.051.084.025-.03c.1-.1,0,0-.048.022a.645.645,0,0,0,.651,1.114,1.013,1.013,0,0,0,.469-1.409,1.3,1.3,0,0,0-1.419-.538,1.1,1.1,0,0,0-.826,1.4A1.3,1.3,0,0,0,10,106.5a1.241,1.241,0,0,0,.781-.313,1.122,1.122,0,0,0,.29-.756,1.6,1.6,0,0,0-.452-1.284,1.013,1.013,0,0,0-1.638.395,1.319,1.319,0,0,0,.664,1.523.654.654,0,0,0,.971-.557c-.013.125.035-.055.041-.07a.732.732,0,0,0,.022-.432.681.681,0,0,0-.537-.508.662.662,0,0,0-.794.451.646.646,0,0,0,.451.794" transform="translate(-7.53 -90.47)" fill="#1a1818"/>
        <path id="Path_7903" data-name="Path 7903" d="M8.411,170.8c-.041-.044.056.118.016.006s-.015.077.009-.057c-.028.155.057-.084-.025.049q.065-.085-.011,0,.084-.065-.01-.006c.123-.069-.1-.008.051-.018-.124.008-.009,0,.035.018.027.013.141.171.075.068-.1-.149.01.055-.025-.049a1.081,1.081,0,0,1-.034-.135c.035.17.006.031,0-.012s.021-.189-.008-.006c.028-.172-.04.043,0-.041s-.078.072-.1.088c.107-.079-.138.037,0,0-.186.045.063.035-.084.009.1.018.156.075.045-.014.12.1-.053-.1.021.025-.086-.149,0,.084-.024-.1,0,.034-.009.194.014.027a.979.979,0,0,1-.055.2c.052-.144-.011,0-.027.03-.084.143.087-.092-.021.028-.026.03-.146.114-.013.021q-.094.052.037-.006-.1.028.05,0c-.109.012.089.029.122.044-.022-.01-.161-.105-.061-.024-.1-.078.022.044.037.088q.011.154.008.049-.027.156,0,.054c-.045.15.043.005-.063.122-.057.063-.094.075-.235.086a.376.376,0,0,1-.26-.1c-.1-.1-.059-.1-.026.039.188.81,1.432.467,1.244-.343-.148-.638-.85-1.2-1.476-.725a1.057,1.057,0,0,0-.1,1.675c1.2.976,2.521-.619,1.961-1.824a1.31,1.31,0,0,0-1.748-.485,1.349,1.349,0,0,0-.474,1.52,1.208,1.208,0,0,0,1.513.9,1.269,1.269,0,0,0,.8-1.761,1.544,1.544,0,0,0-.261-.362.645.645,0,0,0-.912.912" transform="translate(-6.236 -147.571)" fill="#1a1818"/>
        <path id="Path_7904" data-name="Path 7904" d="M4.74,236.908l.064.008-.326-.088a.462.462,0,0,1-.19-.38c.005.044.037-.153,0-.011.034-.143.13-.194.311-.212q-.1,0,.059.009c.027.007.2.142.111.056.114.11,0-.06.043.063-.053-.154-.006.1-.012-.09q-.029.148,0,.045c-.039.146.039,0-.057.108.1-.107-.117.071.009,0s-.131.041.017,0q.107-.023-.03,0a.872.872,0,0,1,.146,0c-.161-.006-.026,0,.02.013-.141-.04-.02-.006.021.02q-.1-.078-.018,0c-.113-.116.019.084-.032-.052,0-.069,0-.138.007-.206q-.03.1.019-.023a.95.95,0,0,1-.079.137q.068-.083,0,0a1.265,1.265,0,0,1-.126.12c.1-.087-.039.013-.058.023.131-.07-.1-.013.077-.023.121-.007.33.239.1-.02a.411.411,0,0,1-.087.606q.088-.051-.052.012c.054-.023.162-.02-.022-.007.105-.007-.127-.029-.154-.044a.388.388,0,0,1-.2-.3.645.645,0,1,0,1.29,0,.939.939,0,0,0-1.288-.873,1.063,1.063,0,0,0-.644.651.805.805,0,0,0,.009.479.848.848,0,0,0,.108.226c.239.347-.115-.089.172.219a1.2,1.2,0,0,0,1.754-.11,1.62,1.62,0,0,0,.437-.728,1.108,1.108,0,0,0-.342-1.034,1.454,1.454,0,0,0-1.643-.2,1.216,1.216,0,0,0-.464,1.677,1.04,1.04,0,0,0,.678.534,1.021,1.021,0,0,0,.906-.244,1.04,1.04,0,0,0,.317-.795.861.861,0,0,0-.838-.83.645.645,0,0,0-.645.645.661.661,0,0,0,.645.645" transform="translate(-3.076 -204.778)" fill="#1a1818"/>
        <path id="Path_7905" data-name="Path 7905" d="M4.224,301.615a1.076,1.076,0,0,1,0,.121l.023-.172q-.035.166.146-.236.4-.181.236-.146l.172-.023a1.082,1.082,0,0,1-.121,0l.456.189q-.065-.071.052.073a.431.431,0,0,1-.037-.062c.1.19.038.1.026.022l.023.172a.567.567,0,0,1,0-.135l-.023.171a.652.652,0,0,1,.028-.108c-.07.2-.055.126-.027.074s.089-.121-.052.059a.476.476,0,0,1,.043-.046c.07-.068-.147.1-.066.051.047-.03.131-.047-.083.031a.3.3,0,0,1,.057-.013l-.172.023a.368.368,0,0,1,.078,0l-.171-.023c.055.011.126.044-.074-.041.055.023.129.106-.031-.033a.53.53,0,0,1,.039.04q-.1-.139-.044-.057c-.094-.134-.046-.129-.03-.043l-.023-.171a.511.511,0,0,1,0,.115l.023-.171a.616.616,0,0,1-.028.112c.069-.194.054-.122.026-.071s-.091.119.049-.057c-.041.051-.155.121.037-.015-.044.031-.136.061.085-.029a.256.256,0,0,1-.054.013l.171-.023a.308.308,0,0,1-.054,0l.171.023a.189.189,0,0,1-.035-.008l.12.05q-.077-.048.082.065c-.075-.065.1.147.042.055s.058.162.016.044a.657.657,0,0,0-.794-.451.648.648,0,0,0-.451.794,1.21,1.21,0,0,0,.274.471.891.891,0,0,0,.592.248,1.007,1.007,0,0,0,.837-.492,1.111,1.111,0,0,0,.148-.891.978.978,0,0,0-.306-.481,1.069,1.069,0,0,0-.615-.264.949.949,0,0,0-.77.33,1.189,1.189,0,0,0-.308.827.886.886,0,0,0,.829.919.747.747,0,0,0,.575-.222.9.9,0,0,0,.206-.617.645.645,0,0,0-1.29,0" transform="translate(-3.399 -261.614)" fill="#1a1818"/>
        <path id="Path_7906" data-name="Path 7906" d="M.627,364.84a.3.3,0,0,1,0-.332l.628-.166a.86.86,0,0,1-.089-.027q.131.058.041.011t.042.034q-.069-.073.035.053c-.1-.13.027.1,0,.01q-.02-.1.01.08c0-.055.024-.157-.013.049.028-.158-.058.1-.013.009.071-.143-.079.081-.01.006s-.147.088-.008.01q-.163.062-.068.031c.117-.036-.17.009-.045.008-.115-.02-.138-.022-.069-.008a.684.684,0,0,0,.207.034q.109.006-.063-.01.1.031-.067-.029-.133-.113-.063-.046-.1-.144-.053-.061-.064-.168-.036-.074c-.047-.169-.012-.127-.012-.055,0,.1.044-.179-.005-.023q.072-.159.027-.071c-.056.1.108-.12.027-.035q.141-.1.059-.046.164-.061.069-.029.179-.016.074-.01c-.129.006.158.037.023,0a.645.645,0,0,0-.343,1.244,1.076,1.076,0,0,0,1.2-1.6.965.965,0,0,0-.343-.322.993.993,0,0,0-.248-.094q-.1-.015-.207-.027.164.024.063,0a1.14,1.14,0,0,0-1.333.822,1.152,1.152,0,0,0,.866,1.408.641.641,0,0,0,.628-.166,1.038,1.038,0,0,0,0-1.493.648.648,0,0,0-.912,0,.654.654,0,0,0,0,.912" transform="translate(0 -316.447)" fill="#1a1818"/>
        <path id="Path_7907" data-name="Path 7907" d="M68.742,50.757A28.387,28.387,0,0,1,73.8,50.73a35.943,35.943,0,0,0,5.128-.1c3.492-.307,7.037-.946,10.545-.471.813.11,1.164-1.133.343-1.244-3.48-.472-6.948.042-10.415.381a35.571,35.571,0,0,1-5.131.173,32.407,32.407,0,0,0-5.528,0c-.815.1-.824,1.393,0,1.29" transform="translate(-59.337 -42.433)" fill="#1a1818"/>
        <path id="Path_7908" data-name="Path 7908" d="M73.223,108.921c1.542-.161,3.069-.435,4.617-.542,1.659-.115,3.343-.039,5.005-.039s3.295-.116,4.948-.181c.9-.035,1.781-.057,2.676-.147a13.09,13.09,0,0,1,2.69-.06c.827.088.819-1.2,0-1.29a41.634,41.634,0,0,0-5.128.2c-1.652.03-3.292.188-4.946.188s-3.346-.051-5.012.025c-1.626.075-3.232.387-4.849.555-.819.085-.827,1.376,0,1.29" transform="translate(-63.237 -92.855)" fill="#1a1818"/>
        <path id="Path_7909" data-name="Path 7909" d="M70.22,174.782c3.133-.314,6.266-.634,9.415-.741,1.536-.052,3.074-.033,4.611-.033.69,0,1.379,0,2.068-.03a4.072,4.072,0,0,1,1.773.136c.754.331,1.412-.781.651-1.114a8.389,8.389,0,0,0-3.483-.282c-1.624,0-3.249-.017-4.873.013-3.4.064-6.784.423-10.163.761-.82.082-.828,1.373,0,1.29" transform="translate(-60.621 -150.393)" fill="#1a1818"/>
        <path id="Path_7910" data-name="Path 7910" d="M73.22,238.158c3.36-.34,6.714-.807,10.1-.813,2.882,0,5.841.791,8.654-.178.782-.269.446-1.516-.343-1.244-2.745.946-5.741.128-8.563.133-3.3,0-6.572.481-9.845.812-.82.083-.828,1.374,0,1.29" transform="translate(-63.234 -205.447)" fill="#1a1818"/>
        <path id="Path_7911" data-name="Path 7911" d="M71.709,305.371c3.306-.283,6.621-.365,9.938-.382,1.62-.008,3.24.014,4.859-.043,1.584-.056,3.166-.15,4.751-.155a.646.646,0,0,0,0-1.29c-1.585,0-3.168.095-4.751.155-1.619.062-3.239.036-4.859.043-3.317.014-6.632.1-9.938.382-.823.07-.83,1.361,0,1.29" transform="translate(-61.916 -264.337)" fill="#1a1818"/>
        <path id="Path_7912" data-name="Path 7912" d="M82.211,367.767c6.372.569,12.772.39,19.161.387a.646.646,0,0,0,0-1.29c-6.389,0-12.789.182-19.161-.387-.829-.074-.822,1.217,0,1.29" transform="translate(-71.063 -319.185)" fill="#1a1818"/>
        <path id="Path_7913" data-name="Path 7913" d="M254.8,1.334a4.9,4.9,0,0,1,1.584.018c.52.037,1.042-.015,1.56.064a1.889,1.889,0,0,1,.276.067q-.157-.115-.084-.032a1.4,1.4,0,0,1,.16.536,6.394,6.394,0,0,1,.03,1.365,35.113,35.113,0,0,0,.393,7.066c.473,2.879.266,5.843.644,8.735.086.657.182,1.313.274,1.968a2.738,2.738,0,0,0,.557,1.369,2.792,2.792,0,0,0,1.192.955c.461.137.93.052,1.394.145l-.386-.948c-.735,1.05-1.867,1.739-2.472,2.9a4.578,4.578,0,0,0-.326,2.238v2.8c0,1.841.047,3.674.2,5.509.17,1.981.485,3.949.717,5.924.227,1.937.415,3.879.507,5.827.048,1.013.06,2.027.042,3.04a11.16,11.16,0,0,1-.225,2.738c-.648,2.341-3.876,2.966-5.8,3.759-.759.312-.427,1.561.343,1.244,2.2-.9,4.773-1.482,6.2-3.56.908-1.324.768-3.164.786-4.688a57.774,57.774,0,0,0-.336-6.334c-.4-4.035-1.092-8.018-1.14-12.082-.011-.925,0-1.851,0-2.776a12.4,12.4,0,0,1,.041-2.689,3.772,3.772,0,0,1,1.149-1.622,12.285,12.285,0,0,0,1.431-1.578.647.647,0,0,0-.386-.948,6.68,6.68,0,0,1-1.377-.144,2.618,2.618,0,0,1-.533-.494,1.47,1.47,0,0,1-.31-.771,38.585,38.585,0,0,1-.446-4.243c-.13-1.48-.159-2.967-.248-4.449-.086-1.439-.383-2.843-.531-4.276a22.149,22.149,0,0,1-.121-3.574,13.484,13.484,0,0,0-.016-2.752,1.629,1.629,0,0,0-1.585-1.52c-.523-.058-1.045-.047-1.57-.062a6.527,6.527,0,0,0-1.927.028.646.646,0,0,0,.343,1.244" transform="translate(-221.221 0)" fill="#1a1818"/>
      </g>
    </g>
  </g>
</svg>
