<svg xmlns="http://www.w3.org/2000/svg" xmlns:xlink="http://www.w3.org/1999/xlink" width="99" height="99" viewBox="0 0 99 99">
  <defs>
    <clipPath id="clip-path">
      <rect id="Rectangle_169" data-name="Rectangle 169" width="63.792" height="63.363" fill="none"/>
    </clipPath>
  </defs>
  <g id="Group_717" data-name="Group 717" transform="translate(-1085.62 -379)">
    <circle id="Ellipse_5" data-name="Ellipse 5" cx="49.5" cy="49.5" r="49.5" transform="translate(1085.62 379)" fill="#fbad18"/>
    <g id="Group_423" data-name="Group 423" transform="translate(1103.008 396.538)">
      <g id="Group_422" data-name="Group 422" transform="translate(0 0)" clip-path="url(#clip-path)">
        <path id="Path_9254" data-name="Path 9254" d="M63.793,31.833c-.083.915-.163,1.831-.251,2.746a1.111,1.111,0,0,1-.11.289,2.43,2.43,0,0,0-.151.368c-.238,1.056-.45,2.118-.706,3.169a20.971,20.971,0,0,1-1.013,3.358,49.781,49.781,0,0,1-2.427,4.8c-.51.9-1.08,1.774-1.618,2.662a26.723,26.723,0,0,1-2.09,2.874,12.508,12.508,0,0,1-1.336,1.367c-.854.782-1.738,1.529-2.6,2.3a17.728,17.728,0,0,1-3.561,2.577,3.325,3.325,0,0,0-.518.345,14.188,14.188,0,0,1-3.9,2.109c-.624.235-1.227.529-1.835.805a2.17,2.17,0,0,1-1.262.318,2.492,2.492,0,0,0-.861.187c-.664.162-1.324.335-1.991.483-.81.18-1.621.364-2.44.5-.628.1-1.27.123-1.9.2a25.646,25.646,0,0,1-3.778-.02c-1.049-.031-2.092-.145-3.13-.273a25.439,25.439,0,0,1-3.918-.825c-.627-.18-1.257-.353-1.877-.557a21.931,21.931,0,0,1-2.84-1.271c-1.679-.831-3.249-1.848-4.85-2.811A14.275,14.275,0,0,1,10.1,55.325c-.973-.979-1.958-1.955-2.841-3.013a23.767,23.767,0,0,1-2.644-3.577,16.49,16.49,0,0,1-.981-1.742c-.342-.838-.733-1.658-1.03-2.511q-.694-2-1.283-4.029c-.233-.8-.371-1.62-.559-2.43A11.54,11.54,0,0,1,.485,36.9C.332,35.695.217,34.483.078,33.275A12.487,12.487,0,0,1,.24,29.462c.34-1.761.766-3.5,1.142-5.259a31.361,31.361,0,0,1,1.13-3.977,27.944,27.944,0,0,1,1.317-3.448A25.968,25.968,0,0,1,6.352,12.8a34.393,34.393,0,0,1,3.29-3.506c.687-.675,1.394-1.33,2.1-1.982.24-.22.519-.4.773-.6a41.354,41.354,0,0,1,3.357-2.5A21.791,21.791,0,0,1,20.2,2.024c.68-.256,1.359-.521,2.048-.75A11.759,11.759,0,0,1,23.5.961C24.57.73,25.643.495,26.722.291A11.16,11.16,0,0,1,29.113.135c.62.018,1.243-.064,1.865-.094a27.673,27.673,0,0,1,4.67.131c1.311.158,2.624.3,3.935.457A17.165,17.165,0,0,1,44.262,1.86c.587.25,1.159.538,1.752.771a20.272,20.272,0,0,1,2.539,1.361c.424.24.836.5,1.254.752.037.023.1.043.106.072.114.589.676.754,1.054,1.07.866.722,1.774,1.395,2.566,2.2a31.344,31.344,0,0,1,3.309,3.781c.386.544.843,1.041,1.2,1.6.885,1.407,1.752,2.827,2.579,4.268a15.609,15.609,0,0,1,.822,1.871,27.169,27.169,0,0,1,1.5,5.022c.286,1.442.408,2.9.6,4.356.081.6.136,1.211.181,1.818.025.339,0,.682,0,1.023l.061,0m-24.9,19.594-.169.738a.743.743,0,0,0,.169-.741c.333-.057.243-.319.233-.542-.078.181-.155.362-.233.544M23.352,42.506c.123-.085.166-.184.012-.312v.324c-.327.214-.24.57-.332.864l.094.029q.114-.451.226-.9m4.485-1.852c.008.138.03.293.2.3s.376.176.579-.039c-.281-.088-.53-.167-.781-.242l-.514-.072.086.447.434-.389M39.23,5.858a.726.726,0,0,0,.22-.487l-.1-.029c-.036.176-.072.352-.109.528a5.917,5.917,0,0,0-.75,1.724c0,.014.022.04.047.082a6.184,6.184,0,0,0,.692-1.818M10.594,27.589l-.178.256.07.041.1-.309a.561.561,0,0,0,.109-.13q.464-1.127.919-2.258c.076-.187.145-.376.228-.591a.424.424,0,0,0-.378.312c-.24.652-.5,1.3-.732,1.951a4.634,4.634,0,0,0-.136.729M52.422,39.724c-.053.048-.13.086-.155.145-.222.524-.447,1.048-.644,1.581a2.253,2.253,0,0,0-.059.561h-.408a2.175,2.175,0,0,0-.166.312c-.231.673-.459,1.347-.677,2.025a.522.522,0,0,0,.151.59c.38-1.009.739-1.973,1.09-2.942.046-.125.092-.25.138-.375l.718-1.908a33.072,33.072,0,0,0,1.578-3.79,1.216,1.216,0,0,0-.244.368c-.419.984-.837,1.967-1.242,2.956a2.154,2.154,0,0,0-.08.478m6-11.373.189-.6L58.5,27.73l-.073.633a3.183,3.183,0,0,0-.24.453c-.231.672-.449,1.348-.668,2.024-.041.126-.084.265.091.338a.769.769,0,0,0,.313-.5c.115-.415.209-.837.351-1.242a1.95,1.95,0,0,0,.145-1.082M40.445,6.621c-.119.268-.247.533-.355.8q-.527,1.318-1.042,2.64a3.039,3.039,0,0,0-.1.39l.1.03a2.481,2.481,0,0,0,.157-.293q.61-1.619,1.208-3.243a1.2,1.2,0,0,0,.022-.34,1.207,1.207,0,0,0,.216-.248c.113-.241.2-.494.3-.742q.589-1.464,1.178-2.928c.1-.256.213-.508.339-.807-.217-.047-.386-.09-.557-.114-.029,0-.068.073-.125.139l.361.125c-.1.215-.2.4-.276.6Q41.4,3.892,40.952,5.15c-.175.487-.34.979-.507,1.471m-2.6,50.637-.234-.038-.333.387-.543-.075c.081-.315.142-.632.246-.935.322-.94.673-1.872.991-2.814q.506-1.5.965-3.007a6.47,6.47,0,0,0,.173-.957.207.207,0,0,0-.149-.248,1.383,1.383,0,0,1,0,.38c-.227.721-.455,1.442-.7,2.156-.578,1.653-1.156,3.305-1.76,4.949a5.066,5.066,0,0,0-.168,1.209c.277-.118.508-.211.734-.315a.316.316,0,0,0,.223-.343c.309.075.355-.265.559-.355a2.117,2.117,0,0,0,.39-1.247.854.854,0,0,1,.067-.3c.149-.463.294-.928.456-1.386.406-1.154.82-2.305,1.231-3.459.017-.13.035-.261.052-.391h-.081l.029.392c-.076.055-.189.093-.221.167-.143.326-.267.66-.389.994a40.479,40.479,0,0,0-1.464,4.2c-.081.333-.264.679-.067,1.034M55.5,31.127a4.136,4.136,0,0,1-.274.538,1.674,1.674,0,0,0-.238,1.216,4.1,4.1,0,0,0,.507-1.764c.179,0,.2-.143.245-.268q.166-.483.331-.967.6-1.746,1.192-3.492a.459.459,0,0,0-.022-.462,2.113,2.113,0,0,0-.459.677c-.079.251-.143.506-.212.76-.05.185-.1.371-.146.557a7.121,7.121,0,0,1-.2.723c-.178.469-.387.927-.57,1.395a1.983,1.983,0,0,0-.159,1.089M26.115,14.215c-.185.514-.373,1.027-.556,1.541a3.837,3.837,0,0,0-.36,1.493c.018.329.15.457.52.461a.576.576,0,0,1-.088-.473,3.3,3.3,0,0,1-.009-.488,3.056,3.056,0,0,1,.255-.614c.2-.4.4-.792.617-1.179a2.413,2.413,0,0,0,.249-1.783l-.286.162c.038-.128.083-.254.113-.383a.5.5,0,0,0-.226-.556c-.084.309-.147.58-.233.844a3.545,3.545,0,0,1-.237.568c-.158.3-.369.572-.5.881-.279.667-.525,1.349-.775,2.028a3.421,3.421,0,0,0-.1.473l.389.051c.055-.2.092-.358.141-.513a10.127,10.127,0,0,1,1.082-2.514M4.476,21.56c-.035.143-.071.286-.122.494a.4.4,0,0,0,.116-.5c.346.1.219.355.2.592,1.05-2.122,2.074-4.244,3.067-6.5-.17.061-.255.065-.285.108a6.555,6.555,0,0,0-.432.669c-.169.313-.31.64-.467.959q-.637,1.294-1.279,2.588c-.263.529-.533,1.055-.8,1.588m54.508,7.878-.127.392.08.017c.013-.141.026-.28.039-.42a1.859,1.859,0,0,0,.277-.38c.442-1.117.889-2.231,1.3-3.36.357-.988.669-1.993.994-2.993a2.391,2.391,0,0,0,.11-.521.611.611,0,0,0-.209-.581,1.793,1.793,0,0,0-.18.319c-.135.439-.26.882-.383,1.325-.2.727-.382,1.461-.607,2.181-.273.876-.588,1.74-.874,2.612-.152.464-.282.936-.418,1.407M52.328,43.119c-.383-.038-.39-.041-.534.282q-.306.687-.591,1.385c-.064.156-.1.323-.175.575l.325-.206c-.054.212-.1.391-.148.577.217.1.243-.032.271-.167a8.137,8.137,0,0,1,.77-2.165,1.224,1.224,0,0,0,.071-.293,2.091,2.091,0,0,1,.411-.384,1.174,1.174,0,0,0,.513-.7c.083-.206.151-.418.235-.623.7-1.731,1.416-3.457,2.11-5.192a3.6,3.6,0,0,0,.35-1.126c-.252-.17-.429-.1-.525.131-.159.381-.285.775-.438,1.16-.6,1.516-1.211,3.028-1.809,4.545-.288.729-.559,1.465-.837,2.2m7.5-.092c-.222.517-.437,1.036-.668,1.549-.37.824-.751,1.642-1.122,2.466a1.624,1.624,0,0,0-.074.3l.094.034c.263-.478.551-.944.785-1.436.568-1.191,1.116-2.392,1.663-3.593.318-.7.607-1.412.931-2.108a12.719,12.719,0,0,0,.787-2.866c.054-.262.114-.524.171-.786l-.087-.023c-.093.293-.177.589-.281.877-.256.709-.523,1.414-.785,2.121.127-.441.247-.883.381-1.322.3-.978.608-1.953.9-2.932a6.526,6.526,0,0,0,.52-1.686c.016-.488.092-.975.131-1.463a2.276,2.276,0,0,0-.027-.371.674.674,0,0,0-.236.337c-.129.409-.256.82-.369,1.234a5.083,5.083,0,0,0-.3,1.782,1.907,1.907,0,0,1-.171.766c-.079.216-.248.4-.323.618-.216.629-.395,1.27-.612,1.9a5.842,5.842,0,0,1-.35.705c.153-.48.3-.961.46-1.44a6.111,6.111,0,0,0,.33-1.492c-.347.046-.445.294-.542.515-.335.759-.655,1.525-.978,2.29-.167.4-.333.792-.492,1.191-.2.51-.391,1.025-.6,1.535-.528,1.321-1.068,2.638-1.587,3.962-.155.394-.256.808-.4,1.255.089-.041.126-.046.138-.066a3.724,3.724,0,0,1,.79-1.166c.021-.017.027-.052.04-.079.493-1.078,1-2.15,1.472-3.238.434-1.008.824-2.035,1.237-3.052a1.773,1.773,0,0,1,.134-.23,10.464,10.464,0,0,1-.769,2.31c-.438,1.085-.884,2.169-1.377,3.231a5.711,5.711,0,0,1-.988,2,.585.585,0,0,0-.1.193c-.409.92-.816,1.842-1.228,2.761a.873.873,0,0,0-.094.565c.084-.118.117-.166.152-.213.1-.131.2-.259.293-.391a13.194,13.194,0,0,0,1.352-2.987c.045-.109.071-.227.121-.334.2-.426.434-.839.609-1.275a8.887,8.887,0,0,1,1.062-1.943M45.99,7.209c.125-.548.243-1.1.377-1.642.128-.519.272-1.033.409-1.549a.28.28,0,0,0-.2-.383c-.206-.072-.31.022-.373.2-.243.685-.509,1.363-.724,2.056-.363,1.175-.668,2.368-1.044,3.538-.583,1.808-1.214,3.6-1.808,5.405-.185.561-.321,1.138-.467,1.71-.053.21-.069.43-.116.739a2.166,2.166,0,0,0,.514-.925q.923-2.508,1.839-5.018c.381-1.046.741-2.1,1.128-3.142.128-.345.311-.669.469-1-.262.82-.5,1.648-.791,2.457-.6,1.676-1.232,3.342-1.844,5.015-.136.37-.247.748-.383,1.163.493-.093.8-.3.875-.759a1.246,1.246,0,0,1,.087-.252c.745-1.861,1.482-3.724,2.082-5.638.227-.722.485-1.435.694-2.163a11.808,11.808,0,0,1,.693-2.2c.163-.319.042-.511-.385-.667-.113.332-.227.663-.34.994q-.348,1.034-.695,2.067M14.956,33.3a2.776,2.776,0,0,0-.272.476q-.46,1.362-.89,2.735a2.885,2.885,0,0,0-.067.509c.09-.033.122-.067.135-.107.339-1.022.681-2.042,1.009-3.068a3.1,3.1,0,0,0,.074-.556c.1-.3.212-.6.3-.91.124-.411.22-.832.357-1.238a1.105,1.105,0,0,1,.322-.563,1.064,1.064,0,0,0,.417-.6c.244-.669.485-1.339.733-2.006q.793-2.126,1.591-4.251a2.1,2.1,0,0,0,.049-.326l-.262.305a.617.617,0,0,1,0-.174c.541-1.349,1.067-2.7,1.633-4.043.623-1.476,1.286-2.935,1.928-4.4.05-.113.132-.238-.013-.368-.24.065-.286.286-.369.465-.419.9-.861,1.793-1.236,2.712a42.618,42.618,0,0,0-2.02,4.979c-.21.785-.513,1.547-.787,2.315q-.822,2.3-1.66,4.6c-.34.932-.686,1.863-1.047,2.788a2.4,2.4,0,0,1-.322.454,1.351,1.351,0,0,0-.183.285c-.267.724-.526,1.451-.784,2.178a3.5,3.5,0,0,0-.149.512c-.025.132-.053.289.14.37a17.386,17.386,0,0,1,1.289-3.336c.045.156.06.21.076.264m-4.465-9.992a1.063,1.063,0,0,1-.04.263c-.15.352-.317.7-.468,1.049a4.333,4.333,0,0,0-.333,1.417.377.377,0,0,0,.284.408c.067-.17.137-.317.185-.472a17.694,17.694,0,0,1,1.02-2.464,1.766,1.766,0,0,1,.251-.364c.041-.049.124-.062.251-.121a3.893,3.893,0,0,0-.327.515c-.371.888-.75,1.774-1.083,2.678a1.581,1.581,0,0,0-.061,1.332c.031-.02.068-.031.076-.052.329-.857.66-1.714.981-2.573.2-.528.372-1.065.574-1.591A.617.617,0,0,1,12.063,23a.638.638,0,0,0,.325-.4c.251-.586.5-1.173.76-1.755q.961-2.154,1.929-4.3c.091-.2.18-.408.255-.616.041-.117.129-.279-.053-.338-.062-.02-.2.09-.254.173a3.528,3.528,0,0,0-.3.547c-.4.907-.8,1.817-1.2,2.725s-.792,1.788-1.192,2.68a1.362,1.362,0,0,1-.151.217,19.119,19.119,0,0,1,.769-2.052c.5-1.122,1.038-2.23,1.555-3.346a24.912,24.912,0,0,0,.781-2.4c.021-.062-.02-.145-.032-.219a5.315,5.315,0,0,0-.686.985.173.173,0,0,0,.008.162c.207.2.065.387,0,.573-.055.153-.144.292-.208.443-.39.914-.767,1.833-1.167,2.742-.3.692-.634,1.373-.957,2.056a2.863,2.863,0,0,1-.167.274,7.832,7.832,0,0,1,.514-1.317c.194-.417.4-.83.585-1.251a10.693,10.693,0,0,0,.54-1.316c.128-.435.445-.816.375-1.314a19.612,19.612,0,0,0-1.363,2.724c-.381.933-.753,1.871-1.136,2.8s-.771,1.846-1.158,2.769a2.2,2.2,0,0,1,.17-.651c.062-.151,0-.222-.127-.273a.766.766,0,0,0,.408-.483c.268-.752.567-1.493.865-2.234.375-.933.763-1.862,1.14-2.8.161-.4.3-.8.465-1.2.284-.7.58-1.4.861-2.1a1.8,1.8,0,0,0,.064-.369,1.142,1.142,0,0,0-.34.417c-.315.7-.616,1.41-.923,2.117-.827,1.9-1.658,3.8-2.479,5.709-.154.356-.268.729-.4,1.095l.074.038.278-.209m9.238-1.562c.2-.445.408-.887.6-1.336.45-1.065.89-2.135,1.337-3.2.32-.766.654-1.527.962-2.3.151-.378.256-.774.382-1.161a15.385,15.385,0,0,0-1.037,1.913c-.522,1.148-1.016,2.309-1.524,3.463-.263.6-.535,1.19-.794,1.789-.057.132-.148.36-.095.411.242.233.051.4-.03.595-.1.245-.213.488-.3.739-.211.586-.4,1.18-.619,1.764-.644,1.722-1.3,3.441-1.947,5.161-.1.258-.255.506-.11.8.024.051-.023.142-.048.21-.115.3-.233.608-.352.911l-1.117,2.857c-.322.824-.544,1.685-.89,2.5-.029.067-.074.161-.05.212.143.293-.047.545-.077.816-.027.249-.186.486-.092.784l.436-.818c0-.151-.007-.4,0-.654a1.183,1.183,0,0,1,.067-.389c.343-.852.7-1.7,1.044-2.551.372-.919.735-1.842,1.1-2.763a8.8,8.8,0,0,1-.234.9c-.409,1.1-.837,2.188-1.255,3.282-.09.235-.171.474-.252.712-.06.177-.056.325.209.353.059-.144.121-.292.18-.44q1.188-3,2.38-6a2.225,2.225,0,0,1,.278-.407,13.638,13.638,0,0,1-.48,1.334q-.785,2.032-1.56,4.068c-.184.485-.351.975-.513,1.468-.04.122-.1.276.072.415.052-.107.092-.181.124-.259q.649-1.586,1.3-3.173.723-1.771,1.441-3.543c.094-.233.153-.479.249-.711.029-.071.128-.113.264-.225l-.545,1.37c-.508,1.282-1.012,2.565-1.525,3.845-.31.77-.644,1.531-.945,2.3a2.378,2.378,0,0,0-.22.89,4.668,4.668,0,0,0,.243,1.036,1.374,1.374,0,0,0,.589.742c.125-.362.221-.7.359-1.027.5-1.172.992-2.349,1.532-3.5a37.039,37.039,0,0,0,1.843-4.578A5.33,5.33,0,0,1,20.5,29.18a5.82,5.82,0,0,0,.5-1.031.833.833,0,0,1,.136-.187l.066.031-.357,1.138.1.04c.149-.224.3-.448.448-.674a3.277,3.277,0,0,0,.283-.448c.591-1.345,1.181-2.691,1.753-4.045.131-.311.18-.655.281-.98.062-.2.151-.395.237-.615a.548.548,0,0,1,.112.7q-.62,1.353-1.219,2.714c-.539,1.221-1.077,2.443-1.6,3.67a7.887,7.887,0,0,0-.292.927,4.609,4.609,0,0,1-.113.5c-.331.793-.689,1.575-1.013,2.37q-.857,2.1-1.681,4.211c-.166.426-.286.87-.426,1.308l-.188.347c.245-.056.205-.21.178-.36a1.127,1.127,0,0,0,.184-.229q.754-1.707,1.5-3.419c.219-.5.433-1.012.65-1.517l.1.041c-.805,2.017-1.75,3.981-2.42,6.054a1.02,1.02,0,0,0,.207-.313c.133-.264.261-.531.4-.789a.226.226,0,0,1,.346-.1,5.407,5.407,0,0,0-.9,1.974,1.549,1.549,0,0,0-.089.3c-.028.144.043.223.209.243.039-.088.086-.178.12-.273.142-.389.265-.785.421-1.168q.92-2.264,1.858-4.522a2.506,2.506,0,0,1,.2-.336,6.742,6.742,0,0,1-.2.679c-.447,1.1-.909,2.191-1.357,3.289a4,4,0,0,0-.355,1.047,4.032,4.032,0,0,1-.2.841c-.071.222-.108.455-.16.683l.088.029c.076-.155.162-.3.228-.464.176-.424.332-.857.518-1.277.877-1.981,1.636-4.007,2.383-6.039a4.966,4.966,0,0,1,.689-1.336,3.963,3.963,0,0,0,.613-1.164c.049-.14.1-.281.151-.419.844-2.1,1.739-4.189,2.469-6.339a2.7,2.7,0,0,0,.025-1.169c0-.03-.062-.055-.122-.1a1.258,1.258,0,0,0-.321.564c-.266.785-.52,1.576-.816,2.35-.471,1.231-.982,2.446-1.455,3.676a3.286,3.286,0,0,0-.434,1.52c.008.084-.088.181-.142.268a6.516,6.516,0,0,0-.461.752c-.285.651-.53,1.319-.805,1.975-.095.227-.229.437-.345.655.355-.927.708-1.855,1.067-2.78.14-.36.3-.71.441-1.07.419-1.079.782-2.183,1.259-3.235.719-1.589,1.173-3.269,1.776-4.9.025-.069-.029-.167-.046-.251a.6.6,0,0,0-.249.3c-.466,1.219-.906,2.448-1.4,3.656-.4.974-.857,1.922-1.28,2.887a1.157,1.157,0,0,0-.141.545.473.473,0,0,1-.1.351c-.252.4-.492.81-.72,1.224-.214.386-.408.782-.61,1.174l.01.011c.124-.348.228-.7.376-1.043.344-.788.713-1.565,1.063-2.35.29-.651.548-1.317.857-1.959a36.594,36.594,0,0,0,1.707-4.394,5.456,5.456,0,0,0,.173-.552c.054-.251-.116-.39-.37-.313a.93.93,0,0,0-.175.1c-.2-.409-.464-.46-.709-.159-.141.172-.275.349-.425.512a4.362,4.362,0,0,0-.817,1.364c-.451,1.113-.932,2.214-1.368,3.333A6.433,6.433,0,0,0,20.2,29.06a.582.582,0,0,1-.083.251,4.532,4.532,0,0,0-.571,1.323,4.464,4.464,0,0,1-.172.636c-.38.95-.754,1.9-1.164,2.841a29.674,29.674,0,0,0-1.749,4.516c-.02.079-.1.142-.159.212l-.1-.039a7.111,7.111,0,0,1,.243-.972q.794-1.982,1.628-3.947a23.383,23.383,0,0,0,1.782-5.487c.136.071.254.088.319-.091.07-.2.137-.392.215-.585q.794-1.955,1.591-3.909c.052-.13.082-.268.123-.4l-.1-.051a3.962,3.962,0,0,0-.3.458c-.262.548-.518,1.1-.759,1.658q-.518,1.2-1.006,2.421a2.135,2.135,0,0,0-.071.514,1.113,1.113,0,0,0-.634.754c-.138.429-.3.851-.453,1.276l-.1-.032c.04-.134.079-.269.122-.4.118-.366.249-.728.354-1.1.072-.254.074-.531.167-.775.43-1.121.881-2.234,1.324-3.35.465-1.171.942-2.337,1.388-3.514.221-.582.383-1.186.577-1.778.208-.632.393-1.273.64-1.89.414-1.033.872-2.048,1.3-3.074A4.857,4.857,0,0,0,24.721,14c-.227-.041-.375,0-.467.157a6.02,6.02,0,0,0-.309.589c-.236.544-.468,1.09-.689,1.64a4.684,4.684,0,0,0-.568,1.712.644.644,0,0,1-.072.21c-.453,1.16-.91,2.319-1.36,3.48-.572,1.479-1.149,2.958-1.7,4.444-.3.8-.552,1.626-.832,2.438-.059.17-.143.332-.215.5l-.12-.039a4.337,4.337,0,0,1,.108-.487c.221-.645.44-1.292.683-1.929.429-1.121.878-2.236,1.311-3.356.038-.1.071-.261.022-.311-.113-.116-.076-.212-.036-.322.334-.921.641-1.853,1.014-2.758.429-1.041.928-2.053,1.375-3.087.366-.845.7-1.7,1.045-2.555a1.186,1.186,0,0,0,.038-.286c-.293-.01-.321.208-.385.352-.574,1.288-1.162,2.57-1.694,3.875-.609,1.5-1.165,3.014-1.743,4.523-.223.581-.44,1.164-.664,1.745-.278.719-.556,1.438-.843,2.154-.325.811-.691,1.608-.979,2.432a12.55,12.55,0,0,1-.811,1.872,2.349,2.349,0,0,1,.079-.431c.21-.553.434-1.1.656-1.651.256-.633.521-1.261.77-1.9q.707-1.8,1.4-3.6c.062-.164.059-.352.116-.518.19-.56.381-1.12.6-1.672s.451-1.1.686-1.639c.567-1.307,1.14-2.611,1.708-3.918.219-.5.43-1.007.647-1.51.065-.152.114-.3-.076-.414a.877.877,0,0,0-.085.125c-.354.85-.7,1.7-1.061,2.549-.274.641-.57,1.273-.853,1.91Q20.7,19.913,20,21.5c-.055.124-.109.251-.278.244Zm4.431,10.062c.071-.1.184-.177.044-.329-.011.114-.022.228-.033.341l-.386.444a1.859,1.859,0,0,1,.047-.249c.28-.719.578-1.431.841-2.156.532-1.464,1.05-2.933,1.568-4.4a1.252,1.252,0,0,0-.586-1.356c-.069.148-.144.287-.2.434-.507,1.314-1.005,2.631-1.518,3.943-.378.967-.789,1.922-1.156,2.893-.162.427-.23.893-.7,1.124a.291.291,0,0,0-.109.138c-.1.215-.2.43-.285.651-.636,1.662-1.251,3.333-1.907,4.987a31.72,31.72,0,0,0-1.238,3.3l.248.1c.481-1.095.954-2.165,1.421-3.238s.922-2.138,1.382-3.207l.075.031-1.152,2.949.092.064a3.561,3.561,0,0,0,.63-.644,8.677,8.677,0,0,0,.6-1.337c.474-1.28.928-2.567,1.389-3.852a1.2,1.2,0,0,1,.428-.649c-.094.277-.157.489-.237.694-.124.317-.265.627-.388.945q-.615,1.6-1.224,3.194c-.111.29-.23.578-.33.872a.928.928,0,0,0,0,.287c.4.013.412.017.509-.254.13-.363.215-.744.363-1.1.441-1.052.919-2.089,1.353-3.144a4.033,4.033,0,0,0,.458-1.478m7.055,27.321L30.3,61.964c.3.054.4-.084.482-.329.2-.605.431-1.2.654-1.8a17.53,17.53,0,0,0,.706-1.919c.255-1.046.72-2.009,1.073-3.014.482-1.372,1.006-2.73,1.468-4.108.254-.759.416-1.548.625-2.321a3.054,3.054,0,0,1,.142-.352c.383.2.389.2.282.557-.451,1.505-.889,3.015-1.364,4.513-.4,1.258-.847,2.5-1.264,3.752-.079.237-.224.538-.142.722.122.273,0,.424-.1.6a15.793,15.793,0,0,0-1.051,2.736c-.044.139-.1.322.114.357a.31.31,0,0,0,.349-.269c.011-.043.005-.09.018-.132.152-.48.294-.963.464-1.437a11.435,11.435,0,0,0,.432-1.069c.352-1.431.9-2.8,1.369-4.187.429-1.263.8-2.548,1.185-3.824.126-.412.23-.83.362-1.239.044-.135.065-.321.308-.351a1.451,1.451,0,0,1-.032.19c-.125.38-.257.757-.378,1.139-.489,1.541-.97,3.084-1.466,4.622-.278.861-.59,1.711-.869,2.572a1.3,1.3,0,0,0-.08.65.534.534,0,0,1-.085.449,8.312,8.312,0,0,0-.814,1.777.726.726,0,0,0-.018.629c.454-.038.578-.142.657-.528.048-.232.088-.467.154-.694.207-.711.4-1.425.641-2.125.419-1.237.836-2.475,1.307-3.691a40.49,40.49,0,0,0,1.359-4.7.692.692,0,0,0-.2-.685,2.015,2.015,0,0,0-1.155-.522c-.41-.095-.482-.053-.607.361-.21.695-.4,1.4-.606,2.093-.092.312-.189.623-.3.931-.446,1.274-.907,2.544-1.34,3.822a8.938,8.938,0,0,0-.554,2.189,6.84,6.84,0,0,1-.3,1.2c-.008.027-.026.074-.042.075-.333.028-.272.4-.474.542a3.258,3.258,0,0,1,.081-.516c.136-.423.3-.836.443-1.258.38-1.155.745-2.315,1.127-3.47.4-1.2.819-2.381,1.2-3.582.259-.818.464-1.654.692-2.482a.571.571,0,0,0-.01-.131l-.37-.128c-.075.3-.138.56-.2.817-.544,2.143-1.311,4.216-2,6.314a12.73,12.73,0,0,0-.406,1.725,2.4,2.4,0,0,1-.338,1.085,1.626,1.626,0,0,0-.2.446Q30.657,59.631,30.1,61.3a.733.733,0,0,0,0,.223.515.515,0,0,0,.223-.269c.16-.431.3-.869.475-1.294.116-.284.277-.55.418-.824M56.46,38.964a2.321,2.321,0,0,1-.075.348q-.79,2.105-1.588,4.208c-.167.444-.338.886-.492,1.333a2.647,2.647,0,0,0-.073.459,2.811,2.811,0,0,1,.932.023c.245.1.417.379.669.627.111-.354.191-.668.308-.967.369-.939.762-1.868,1.127-2.809.643-1.66,1.272-3.325,1.9-4.99a2.2,2.2,0,0,0,.068-.364l-.529-.111c-.2.608-.4,1.2-.6,1.781s-.406,1.147-.614,1.719-.432,1.168-.646,1.753-.4,1.151-.629,1.712a10.781,10.781,0,0,1-.581,1.717.213.213,0,0,1-.045-.172c.249-.824.448-1.667.765-2.464.84-2.113,1.607-4.249,2.238-6.433a1.137,1.137,0,0,0-.076-.883c-.135.284-.254.487-.332.7-.2.558-.373,1.127-.573,1.686-.421,1.173-.816,2.357-1.29,3.508a17.06,17.06,0,0,0-1.251,3.607c-.011.065-.081.12-.123.179a.557.557,0,0,1-.034-.363,15.869,15.869,0,0,1,1.15-3.316c.875-2,1.51-4.093,2.243-6.148a.451.451,0,0,0-.436-.65,4.617,4.617,0,0,0-.662.054,23.488,23.488,0,0,0-1.141,3.008.836.836,0,0,1-.037.081q-.7,1.852-1.4,3.7c-.031.082-.09.2-.058.252.224.341-.04.588-.153.857-.3.71-.628,1.408-.914,2.123a1.38,1.38,0,0,0-.107.81l.52-.1c.2-.618.357-1.187.559-1.739.163-.445.392-.865.565-1.307.405-1.037.792-2.081,1.195-3.119a1.5,1.5,0,0,1,.22-.31ZM15.67,20.994a.423.423,0,0,1,.012-.132q.98-2.268,1.961-4.537a2.9,2.9,0,0,0,.1-.342l-.088-.037a1.345,1.345,0,0,0-.175.232c-.242.525-.478,1.052-.714,1.581-.8,1.8-1.605,3.6-2.417,5.4a.6.6,0,0,0-.013.587.553.553,0,0,1,.039.377c-.1.327-.221.645-.345.964-.045.118-.086.263-.275.236-.011-.069-.022-.135-.048-.3-.131.405-.22.728-.34,1.038-.291.746-.594,1.487-.9,2.229-.4.989-.8,1.981-1.218,2.962a2.134,2.134,0,0,0-.151,1.161,1.727,1.727,0,0,0,.712,1.057c.183-.487.329-.922.508-1.342.655-1.542,1.333-3.075,1.975-4.623a3.859,3.859,0,0,0,.415-1.575.893.893,0,0,1,.1-.34c.524-1.273,1.041-2.55,1.583-3.816.345-.8.741-1.586,1.094-2.388.616-1.4,1.218-2.8,1.825-4.2.047-.109.055-.251.257-.276a2.217,2.217,0,0,1-.069.245c-.462,1.092-.914,2.189-1.394,3.273-.828,1.872-1.674,3.736-2.512,5.6-.084.187-.2.361-.058.584.037.057-.031.193-.069.285-.282.685-.576,1.366-.852,2.053-.518,1.292-1.028,2.588-1.539,3.883-.255.646-.517,1.29-.754,1.943-.08.219-.066.473-.148.691a.541.541,0,0,0,.254.715c.058-.133.114-.245.157-.363.191-.53.354-1.071.572-1.59.546-1.3,1.142-2.578,1.669-3.884.394-.975.714-1.98,1.059-2.974.043-.122.1-.294.047-.383-.147-.248-.021-.424.084-.619s.221-.387.31-.591c.472-1.088.929-2.182,1.405-3.269.345-.789.714-1.567,1.066-2.353.419-.933.831-1.871,1.251-2.8a1.653,1.653,0,0,1,.176-.253l.133.072c-.386.918-.846,1.8-1.255,2.712s-.81,1.823-1.215,2.735l.081.038c.121-.233.238-.468.363-.7.561-1.045,1.135-2.084,1.682-3.137.2-.394.347-.819.517-1.231a.519.519,0,0,1,.3-.29,5.213,5.213,0,0,0,.693-.444.481.481,0,0,0-.363-.047,1.99,1.99,0,0,1-1.307-.055,4.322,4.322,0,0,0-.861-.212c-.328-.043-.4.048-.511.358-.123.346-.269.685-.421,1.02-.184.405-.4.8-.575,1.205-.5,1.128-.977,2.263-1.472,3.391-.079.179-.1.412-.355.467Zm16.8,9.524a2.39,2.39,0,0,1,.086.282.694.694,0,0,1,.006.262c-.053.23-.21.286-.525.271a2.05,2.05,0,0,0-.956.04,1.47,1.47,0,0,0-.865,1.353,3.265,3.265,0,0,1-.068.839,1.191,1.191,0,0,1-.362.586c-.436.352-.915.651-1.371.979a2,2,0,0,0-.984,1.785,1.69,1.69,0,0,1-.106.61c-.251.732-.521,1.458-.784,2.188.006.009.012.029.023.032q1.245.4,2.491.8a.555.555,0,0,1,.436.4.506.506,0,0,1-.217.547,6.593,6.593,0,0,1-.6.382.646.646,0,0,1-.666-.038,2.772,2.772,0,0,0-2.092-.549.239.239,0,0,1-.174-.012c-.089-.062-.206-.136-.233-.227a.849.849,0,0,1,.438-1.087c.048-.03.094-.064.158-.108a2.7,2.7,0,0,0-1.068-.785,7.266,7.266,0,0,1-1.234-.6c-.542-.317-.611-.331-1.1.053l-.119-.34a.739.739,0,0,0-.691.251c-.4-.259-.664-.184-.861.253-.1.217-.175.442-.269.661a1.678,1.678,0,0,0,.718,2.032,7.767,7.767,0,0,0,1.036.381c.337.11.429.074.653-.2.159-.2.305-.4.481-.582a.38.38,0,0,1,.62,0,.887.887,0,0,1,.268.485,4.908,4.908,0,0,1-.079.917c-.069.568.123.825.686.907.371.054.427.128.465.522a1.309,1.309,0,0,0,.13.5A3.709,3.709,0,0,0,26.776,45.4a1.317,1.317,0,0,1,1.448-.289,1.584,1.584,0,0,0,.441.023c.341-.011.684-.064,1.023-.043,1.037.062,2.072.147,3.107.237a1.081,1.081,0,0,1,.406.163,2.84,2.84,0,0,1,1.108,1.242,1.418,1.418,0,0,0,1,.752,4.214,4.214,0,0,1,.93.3,2.11,2.11,0,0,1,.77.575,1.614,1.614,0,0,0,1.556.731,2.245,2.245,0,0,1,.488.016.5.5,0,0,1,.426.282.821.821,0,0,0,.678.438c.451.089.9.2,1.349.3a.453.453,0,0,1,.375.336c.108.385.224.769.326,1.155a.892.892,0,0,1-.218.947c-.282.262-.578.508-.863.766a.814.814,0,0,0-.226.257,9.241,9.241,0,0,0-.3.884A1.99,1.99,0,0,1,39.336,55.8c-.124.05-.245.106-.367.16a.452.452,0,0,0-.3.4,1.8,1.8,0,0,1-.188.726,2.95,2.95,0,0,1-1.556,1.447c-.226.071-.454.138-.676.223-.285.11-.564.236-.813.342,0,.217,0,.365,0,.513a.84.84,0,0,1-.623.87,7.466,7.466,0,0,0-.739.305,7.992,7.992,0,0,0-2.647,1.688c-.081.087-.149.187-.286.362.631,0,1.154.043,1.668-.009a30.177,30.177,0,0,0,3.352-.446c.9-.193,1.8-.37,2.694-.585.515-.124,1.017-.3,1.52-.47.97-.327,1.945-.641,2.9-1.008a16.785,16.785,0,0,0,2.264-1.033c.412-.233.812-.48,1.208-.735.448-.29.873-.615,1.327-.894a18.333,18.333,0,0,0,2.364-1.663c1.136-.977,2.253-1.978,3.366-2.982.383-.346.728-.733,1.087-1.1a1.9,1.9,0,0,1-.116-.236.833.833,0,0,1-.032-.219A4.936,4.936,0,0,1,55.28,48.7a2.726,2.726,0,0,0,.233-2.114,2.409,2.409,0,0,0-.42-.718.336.336,0,0,0-.438-.121c-.431.222-1,.068-1.357.486-.023.026-.082.023-.125.026-.382.037-.766.065-1.148.111a1.844,1.844,0,0,1-1.559-.493c-.118-.11-.238-.216-.346-.314l-.292.1c-.018-.629-.036-1.23-.053-1.831a.549.549,0,0,1,.01-.088c.1-.676.2-1.351.293-2.028a4.341,4.341,0,0,1,1.252-2.454,4.892,4.892,0,0,0,1.02-1.608,10.269,10.269,0,0,1,1.531-3,2.753,2.753,0,0,1-.413-.179.849.849,0,0,1-.311-.294,1.321,1.321,0,0,1-.17-.593,13.318,13.318,0,0,1,.158-1.765.844.844,0,0,1,.94-.708,2.559,2.559,0,0,1,.564.091c.292.069.381,0,.366-.3,0-.045-.015-.089-.014-.133a8.517,8.517,0,0,1,.051-1.238,1.069,1.069,0,0,1,.385-.62,1.193,1.193,0,0,0,.531-1.11A2.419,2.419,0,0,1,56.65,25.9c.131-.141.272-.273.406-.411a.885.885,0,0,0,.346-.6c0-.341.007-.682-.014-1.022a.445.445,0,0,0-.148-.3,5.768,5.768,0,0,0-.614-.343c-.479-.259-.548-.409-.43-.933a1.087,1.087,0,0,1,.06-.214,1.774,1.774,0,0,0,.116-.961,2.9,2.9,0,0,1,.145-1.406c.216-.552.405-1.118.669-1.646a2.2,2.2,0,0,0,.238-1.156,5.339,5.339,0,0,1,.009-.89c.055-.5.2-.63.7-.7.071-.009.142-.016.215-.024-.166-1-4.3-6.138-5.053-6.368.257.489.7.735.966,1.134.275.422.6.811.891,1.221s.564.8.834,1.209.527.83.788,1.245l-.093.068c-.1-.119-.212-.232-.3-.358-.437-.6-.851-1.217-1.308-1.8-.6-.771-1.2-1.555-1.869-2.267a20.622,20.622,0,0,0-3.777-3.027,6.4,6.4,0,0,1-.721-.591c-.048-.043-.047-.143-.068-.217l.067-.063c.335.2.671.389,1,.588s.668.409,1,.613l.055-.079a6.1,6.1,0,0,0-1.215-1.062,4.526,4.526,0,0,0-1.372-.924c0,.327.006.592,0,.858s-.03.557-.052.836c-.012.148-.042.293-.061.44-.125.986-.21,1.979-.393,2.955a1.912,1.912,0,0,0,.124,1.2c.092.2.228.383.319.586a.928.928,0,0,1,.137.5,1.576,1.576,0,0,1-.939,1.354c-.293.1-.584.219-.882.305a.892.892,0,0,0-.648.551,9.912,9.912,0,0,0-.524,1.071c-.037.141-.222.27-.369.352a4.976,4.976,0,0,0-1.416.881,1.526,1.526,0,0,0-.485.949,3.109,3.109,0,0,1-.1.7c-.173.535-.357,1.069-.582,1.583-.17.388-.41.746-.622,1.122l-.579-.09a1.806,1.806,0,0,0-.575-1.192c-.21-.209-.445-.4-.643-.617a12.008,12.008,0,0,1-1.4-1.653c-.258-.422-.441-.918-.692-1.356a1.117,1.117,0,0,1,.04-1.4c.241-.3.151-.651.215-.979a.22.22,0,0,0-.107-.174c-.324-.151-.36-.51-.553-.754a.425.425,0,0,1-.026-.3c.086-.451.265-.818.79-.894a.439.439,0,0,0,.252-.2c.023-.037-.048-.165-.107-.217a2.825,2.825,0,0,1-.827-1.012.587.587,0,0,0-.1-.144c-.207-.246-.426-.482-.619-.739a1.427,1.427,0,0,1-.287-1.168,6.636,6.636,0,0,0,.012-1.119A7.4,7.4,0,0,0,34.61,6.8a7.845,7.845,0,0,1-1.68.038.865.865,0,0,1-.5-.25,2.231,2.231,0,0,1-.417-.573q-.345-.648-.641-1.323a1.046,1.046,0,0,1-.088-.517,1.381,1.381,0,0,1,.9-1.213,12.284,12.284,0,0,0,1.182-.613.477.477,0,0,0,.25-.527c-.049-.332-.106-.663-.158-.984-.06-.009-.094-.026-.117-.017-.573.229-1.2.38-1.518,1a.655.655,0,0,1-.217.221c-.511.341-1.026.674-1.556,1.021-.579-.366-.347-.994-.46-1.518-.047,0-.1-.009-.132.013a1.827,1.827,0,0,1-1.431.341,1.1,1.1,0,0,0-.486.034c-.354.106-.7.239-1.048.366-.573.21-.572.212-.536.83,0,.045,0,.089.007.134a.648.648,0,0,1-.579.76c-.229.056-.455.12-.683.177a.232.232,0,0,1-.13.014c-.3-.135-.48-.056-.629.25a.383.383,0,0,1-.534.171.5.5,0,0,1-.12-.57.611.611,0,0,1,.3-.226.78.78,0,0,0,.532-.7c.065-.55.1-1.1.153-1.723a16.484,16.484,0,0,0-1.7.348,28.457,28.457,0,0,0-2.717.98A21.2,21.2,0,0,0,17.2,4.073,25.088,25.088,0,0,0,13.554,6.61c-.712.628-1.483,1.19-2.187,1.825a24.16,24.16,0,0,0-2.266,2.2c-.173.2-.382.374-.561.571a25.254,25.254,0,0,0-1.826,2.06c-.728,1.006-1.352,2.088-2.015,3.141a6.393,6.393,0,0,0-.454.809c-.2.46-.386.93-.557,1.4-.3.834-.587,1.674-.882,2.51A5.188,5.188,0,0,0,2.489,22a25.4,25.4,0,0,0-.662,2.645.193.193,0,0,1-.054.121c-.173.163-.1.351-.062.542q.506-1.347,1.007-2.685l.1.029c-.046.228-.073.462-.141.683-.269.878-.57,1.746-.822,2.629a21.059,21.059,0,0,0-.594,2.416,13.915,13.915,0,0,0-.139,3.326c.029.354.09.705.111,1.059.046.765.055,1.532.117,2.3.046.574.148,1.144.23,1.715q.044.308.11.613a12.722,12.722,0,0,0,.284,1.245c.348,1.085.725,2.162,1.093,3.241.047.139.1.275.162.41.117.27.247.535.354.809.08.206.106.435.2.632.32.665.686,1.308.985,1.982a10.945,10.945,0,0,0,1.4,2.259c.051.065.1.131.149.2l-.124.115c-.225-.276-.456-.546-.673-.828a5.5,5.5,0,0,1-.622-.866c-.541-1.089-1.053-2.192-1.564-3.3-.174-.377-.325-.766-.465-1.157-.22-.614-.4-1.241-.635-1.851a16.414,16.414,0,0,1-1.012-4.1c-.1-.989-.159-1.983-.241-2.975-.065-.784-.144-1.567-.2-2.35-.021-.269,0-.541,0-.811l-.1-.005c-.037.423-.05.849-.117,1.267a10.125,10.125,0,0,0,.076,2.562c.061.664.124,1.328.216,1.988.07.5.18.986.289,1.475.077.347.189.685.272,1.03.258,1.08.458,2.178.776,3.24.364,1.217.813,2.409,1.259,3.6A20.9,20.9,0,0,0,5.72,49.525c.379.563.843,1.07,1.273,1.6.308.377.619.753.938,1.12s.633.707.953,1.058c.489.538.948,1.108,1.478,1.6.672.626,1.4,1.2,2.109,1.776a8.274,8.274,0,0,0,1,.728c.689.407,1.414.753,2.1,1.17A35.493,35.493,0,0,0,19.233,60.5a40.067,40.067,0,0,0,4.674,1.586,9.062,9.062,0,0,0,1.744.313c.914.1,1.833.166,2.75.24a3.261,3.261,0,0,0,.436-.029c0-.275-.016-.511,0-.745a10.543,10.543,0,0,1,.178-1.634,10.036,10.036,0,0,1,.669-2.348,1.769,1.769,0,0,0,.081-.254,11.544,11.544,0,0,1,.392-1.134,1.68,1.68,0,0,0-.035-1.078l-.321.155c-.119-.207-.073-.478-.365-.585A2.881,2.881,0,0,1,28.1,53.922q-.182-.253-.367-.5a.509.509,0,0,0-.5-.271c.041.495-.046.726-.389.923a6.121,6.121,0,0,1,.125-.678.612.612,0,0,0-.262-.8.848.848,0,0,1-.388-.716c-.016-.278.132-.594-.191-.8-.016-.01-.009-.056-.012-.086-.043-.4-.112-.795-.122-1.193a2.262,2.262,0,0,1,.687-1.855A6.784,6.784,0,0,0,27.2,47.4a.589.589,0,0,0,.145-.66l-.234.167c-.022-.188-.039-.343-.064-.559-.213-.008-.412,0-.609-.026-.318-.036-.712.014-.931-.156a6.926,6.926,0,0,0-1.2-.756A2.806,2.806,0,0,1,23.2,44.48a3.607,3.607,0,0,0-1.757-1.148,7.537,7.537,0,0,1-1.92-.993.44.44,0,0,0-.284-.1,2.243,2.243,0,0,1-1.513-.651c-.214-.161-.4-.318-.678-.2l-.029-.585-.262.326c-.192-.108-.116-.238-.064-.355a.311.311,0,0,0-.068-.4L15.316,39.23c.1.393.19.718.273,1.044a.376.376,0,0,1-.144.434.287.287,0,0,1-.406-.032c-.322-.433-.944-.542-1.155-1.086a.179.179,0,0,0-.062-.064.954.954,0,0,1-.34-.656,5.381,5.381,0,0,1-.071-.708,5.292,5.292,0,0,0-.692-2.28c-.122-.236-.3-.445-.4-.688a6.065,6.065,0,0,0-1.275-1.886,1.409,1.409,0,0,1-.392-.732c-.069-.362-.17-.719-.251-1.08a.808.808,0,0,1,.007-.172,4.119,4.119,0,0,0-.011-.658,15.441,15.441,0,0,1-.327-1.868,1.214,1.214,0,0,0-.062-.259,11.617,11.617,0,0,0-1.051-2.879L8.667,25.6a.853.853,0,0,0-.15-.893c-.178-.282-.362-.56-.521-.857a13.089,13.089,0,0,0-.98-1.427.563.563,0,0,0-.852-.144,2.206,2.206,0,0,0-.322.3c-.291.314-.557.657-.873.943a.553.553,0,0,0-.188.66c.024.07.043.141.064.213a1.33,1.33,0,0,1-1.623,1.574.333.333,0,0,1-.3-.368,6.7,6.7,0,0,1,.294-1.975,1.553,1.553,0,0,0,.037-.648,1.912,1.912,0,0,0-.2-.587.641.641,0,0,1,0-.592A21.572,21.572,0,0,0,4.2,18.213a5.52,5.52,0,0,1,1.268-2.466A1.9,1.9,0,0,1,7.3,15.1c.586.093,1.169.21,1.755.307a1.893,1.893,0,0,0,1.5-.407c.271-.207.55-.4.83-.6a5.2,5.2,0,0,1,2.516-.933c.572-.055,1.144-.1,1.717-.152a1.957,1.957,0,0,0-.095-1.36c-.106.021-.245.091-.293.051-.345-.287-.721-.163-1.1-.139-.6.038-.847-.259-.748-.86a.594.594,0,0,1,.017-.087c.109-.324.2-.655.333-.968a1.386,1.386,0,0,1,1.8-.7,3.768,3.768,0,0,1,1.675,1.6c.182.323.49.417.757.169a3.718,3.718,0,0,0,.542-.641A1.1,1.1,0,0,1,19.872,9.8c.262.051.349.006.492-.259A5.269,5.269,0,0,1,20.8,8.77a1.2,1.2,0,0,1,.532-.369.537.537,0,0,1,.754.572,5.857,5.857,0,0,1-.132.832,1.319,1.319,0,0,0,.456,1.273,8.622,8.622,0,0,0,.316-.823c.114-.414.175-.842.287-1.256a1,1,0,0,1,.271-.534.827.827,0,0,1,1.249.543.837.837,0,0,1-.245.815,2.022,2.022,0,0,0-.622,1.433.392.392,0,0,1-.186.369c-.167.1-.117.269.021.368a1.053,1.053,0,0,1,.447,1.269c-.011.036.013.082.024.139a4.463,4.463,0,0,0,1.372.026c.149-.018.248-.081.257-.249a1.292,1.292,0,0,0-.652-1.32,1.135,1.135,0,0,1-.5-1.557c.156-.4.325-.8.5-1.188a1.153,1.153,0,0,1,.177-.255.323.323,0,0,1,.437-.093.4.4,0,0,1,.227.4c-.019.337-.033.676-.025,1.013a.841.841,0,0,0,.121.374.179.179,0,0,0,.3.047.686.686,0,0,0,.169-.332c.034-.2.011-.416.041-.621A.516.516,0,0,1,26.9,9.18a1.42,1.42,0,0,1,.939.349c.276.292.28.286.627.124.079-.037.163-.061.26-.1V9.127a1.023,1.023,0,0,1,.748.083c.58.168.706.32.683.917a.748.748,0,0,0,.532.816c.111.042.222.083.336.115.547.153,1.1.29,1.642.455a.639.639,0,0,1,.289,1.12c-.1.1-.214.171-.112.351l.37-.038c-.095.682.243.819.815.722a1.669,1.669,0,0,0,.073.382c.058.134.171.242.243.37a1.2,1.2,0,0,1-.352,1.2.43.43,0,0,1-.214.038.878.878,0,0,1-.732-.357.527.527,0,0,0-.655-.2,1.969,1.969,0,0,1-1.351-.108,3.241,3.241,0,0,1-1.872-1.594c-.254-.571-.619-1.2-1.468-1.008-.037.009-.083-.032-.127-.037-.178-.018-.407.187-.352.351a3.859,3.859,0,0,1,.016,1.489,4.988,4.988,0,0,1-.207.9c-.076.314-.153.629-.228.943a.961.961,0,0,0,.592,1.16.756.756,0,0,1,.41.586c.068.318-.144.485-.226.684-.272.053-.5.107-.733.137a.793.793,0,0,1-.3-.043,2.53,2.53,0,0,0-.378-.121,1.767,1.767,0,0,1-.819-.323,4.5,4.5,0,0,0-.45-.286.474.474,0,0,0-.679.152c-.037.043-.087.106-.13.106-.362,0-.46.282-.578.532-.132.281-.227.58-.363.859a5.781,5.781,0,0,0-.608,2.125.613.613,0,0,0,.159.583l.561-.7a.377.377,0,0,1,.468-.146c.208.078.422.139.636.2a2.128,2.128,0,0,1,1.479,1.646,1.139,1.139,0,0,0,.222.515,2.869,2.869,0,0,1,.679,1.752,2.471,2.471,0,0,0,.03.444.276.276,0,0,0,.5.146.964.964,0,0,0,.3-.675,10.373,10.373,0,0,0-.046-1.289,1.126,1.126,0,0,1,.559-1.168c.232-.158.486-.284.732-.422.353-.2.4-.36.139-.661a6.01,6.01,0,0,0-.649-.605,1.169,1.169,0,0,1-.447-1.058,2.572,2.572,0,0,1,.441-1.245c.17-.25.358-.509.682-.525a3.684,3.684,0,0,1,1.131.064,6.068,6.068,0,0,1,1.03.511,4.839,4.839,0,0,0,1.323.624.284.284,0,0,1,.2.157,6.8,6.8,0,0,1,.2.99,2.179,2.179,0,0,1-.117.584.793.793,0,0,0,.306-.72.481.481,0,0,1,.413-.506,2.737,2.737,0,0,1,.792-.03.541.541,0,0,1,.493.589c0,.293-.069.585-.082.879-.009.2-.05.464.054.593a6.892,6.892,0,0,0,1.212,1.288,4.715,4.715,0,0,1,1.209,1.261c.112.174.192.371.313.539a1.01,1.01,0,0,1,.107.931c-.045.157-.087.314-.125.473a.334.334,0,0,0,.193.44.524.524,0,0,1,.335.483.631.631,0,0,0,.079.254,1.716,1.716,0,0,1-.166,1.65,1.891,1.891,0,0,1-.305.438c-.222.244-.476.194-.625-.1-.059-.118-.133-.23-.2-.346a1.36,1.36,0,0,1-.1-1.279c.046-.107.091-.213.147-.346-.342-.207-.669-.405-1-.6a.417.417,0,0,0-.122-.05,1.867,1.867,0,0,0-1.878.833.4.4,0,0,0,.03.5c.107-.018.206-.039.306-.05.368-.038.736-.09,1.105-.1a.585.585,0,0,1,.606.431,1.665,1.665,0,0,1-.057,1.137c-.193.359-.4.735-.936.669a1.83,1.83,0,0,0-.567.095,1,1,0,0,1-.8-.1.868.868,0,0,0-1.033-.05m-4.12-1.361-.062-.035c.138-.388.271-.777.417-1.162s.292-.746.445-1.115.333-.761.48-1.149.269-.786.4-1.18.271-.785.406-1.178.262-.757.389-1.138.277-.785.384-1.187a4.628,4.628,0,0,0,.374-1.159c-.241-.025-.271.1-.315.235-.135.393-.271.786-.422,1.173-.364.94-.722,1.883-1.11,2.813-.225.539-.262,1.166-.731,1.6a.409.409,0,0,0-.068.163c-.137.376-.274.751-.408,1.128-.475,1.34-.94,2.684-1.427,4.019-.412,1.129-.851,2.248-1.271,3.374-.051.135-.135.333-.079.418.129.2.03.336-.024.5-.3.87-.6,1.739-.889,2.611-.061.184-.155.383.08.6.064-.137.115-.235.156-.338.1-.262.2-.526.3-.788.49-1.241.984-2.482,1.47-3.725.081-.207.134-.424.2-.637.213-.726.423-1.454.641-2.179.039-.13.046-.307.315-.311-.033.138-.053.261-.093.377-.106.308-.245.607-.328.921a29.342,29.342,0,0,1-1.672,4.645,13.215,13.215,0,0,0-.555,2.022.293.293,0,0,0,.1.251c.134.087.217-.023.267-.14s.095-.25.142-.375c.1-.263.193-.529.3-.79.287-.7.579-1.4.87-2.1.074-.177.168-.346.229-.527.283-.827.565-1.655.831-2.487.261-.816.5-1.638.75-2.456l-.047-.025-.178.224a46.729,46.729,0,0,0,2.627-7.868,5.26,5.26,0,0,0-.348.8q-.74,1.933-1.483,3.865a2.129,2.129,0,0,1-.311.732,3.907,3.907,0,0,0-.641,1.3c-.041.092-.08.185-.121.277M39.979,18.251a7.136,7.136,0,0,1,.181-.768c.368-1.034.74-2.067,1.132-3.092.419-1.1.879-2.175,1.291-3.273q1.049-2.789,2.056-5.594c.251-.7.452-1.413.67-2.122a2.1,2.1,0,0,0,.046-.338.4.4,0,0,0-.455.254,2.827,2.827,0,0,0-.186.4C44.191,5.11,43.675,6.5,43.149,7.886c-.415,1.1-.832,2.191-1.262,3.281-.332.842-.692,1.673-1.027,2.514a.683.683,0,0,0-.046.46.5.5,0,0,1-.022.422c-.141.359-.315.705-.437,1.07a3.259,3.259,0,0,0-.352,1.845c.012.048-.07.171-.092.167-.075-.013-.2-.062-.2-.107a2.035,2.035,0,0,1,0-.616c.113-.52.283-1.028.383-1.55a12.815,12.815,0,0,1,.76-2.277c.82-2.084,1.658-4.161,2.467-6.249.4-1.037.757-2.093,1.134-3.14.086-.237.185-.47.262-.71.017-.054-.032-.13-.051-.2-.073.03-.183.04-.212.094a4.054,4.054,0,0,0-.221.533c-.707,1.953-1.356,3.925-2.2,5.826-.586,1.313-1.054,2.679-1.574,4.022-.032.082-.051.17-.076.255a10.279,10.279,0,0,1-.416,1.347,8.548,8.548,0,0,0-.665,2.161,1.2,1.2,0,0,0,.678,1.213M33.626,60.488a1.017,1.017,0,0,0,.2-.031c.221-.087.441-.176.657-.273.457-.206.5-.292.436-.79s-.063-.522.361-.736a.587.587,0,0,0,.35-.472,4.273,4.273,0,0,1,.177-.735q.547-1.554,1.118-3.1c.231-.627.49-1.243.718-1.871.3-.837.591-1.679.882-2.521.046-.135.081-.273.122-.412-.626-.143-.855-.04-1.055.47-.14.359-.264.724-.386,1.089q-.749,2.238-1.491,4.476c-.17.507-.348,1.01-.518,1.517a1.775,1.775,0,0,0-.048.269l.093.034c.162-.327.351-.644.481-.984.318-.831.618-1.67.908-2.512s.558-1.69.838-2.536c.135-.408.271-.816.415-1.222a.767.767,0,0,1,.139-.182.318.318,0,0,1,.051.264c-.169.522-.338,1.043-.519,1.561-.374,1.063-.76,2.123-1.132,3.186-.195.558-.356,1.128-.56,1.683-.174.472-.385.931-.585,1.393-.02.047-.082.115-.115.11-.2-.03-.21.13-.256.246-.1.263-.2.531-.294.8a.232.232,0,0,1-.071-.219c.239-.871.453-1.75.731-2.608.462-1.426.978-2.834,1.448-4.258a10.872,10.872,0,0,1,.993-2.743l-.643-.32c-.059.123-.1.187-.121.255-.044.126-.085.254-.117.383-.423,1.686-.951,3.337-1.52,4.979a11.773,11.773,0,0,0-1.057,3.5,3.341,3.341,0,0,1-.4,1.066,1.91,1.91,0,0,0-.23,1.241M40.156,1.379a1.6,1.6,0,0,0-.9-.233,2.725,2.725,0,0,1-.614,0c-.265-.026-.528-.081-.791-.125a.513.513,0,0,0-.6.276c-.1.184-.195.367-.28.556q-.826,1.824-1.642,3.652a1.336,1.336,0,0,0-.1.476c0,.081.069.224.129.237a.545.545,0,0,0,.312-.081c.041-.019.053-.1.074-.157.233-.627.449-1.259.7-1.878.312-.769.647-1.529.984-2.288a1.214,1.214,0,0,1,.269-.348c.043-.043.138-.031.3-.062a9.79,9.79,0,0,0-1.228,2.407,6.338,6.338,0,0,0-.716,2.574,3.036,3.036,0,0,0,.214-.362c.4-.991.786-1.987,1.193-2.974.192-.466.413-.92.637-1.371.066-.132.149-.3.424-.232-.278.54-.558,1.049-.805,1.572s-.478,1.087-.707,1.634a7.8,7.8,0,0,0-.554,1.657c.245.094.292-.055.342-.17.071-.163.116-.337.184-.5q.67-1.6,1.346-3.2c.121-.287.238-.577.363-.861.067-.153.154-.29.411-.176-.068.143-.126.273-.192.4s-.159.251-.217.387c-.481,1.118-.964,2.234-1.429,3.358a1.583,1.583,0,0,0-.1,1.5c.04-.076.078-.136.1-.2q.833-2.015,1.663-4.031a2.063,2.063,0,0,1,.914-1.166c-.114.188-.187.3-.249.412-.267.495-.564.977-.788,1.49-.339.775-.64,1.566-.929,2.36-.177.486-.3.989-.447,1.486-.062.213-.087.44-.349.525a.267.267,0,0,0-.123.167.824.824,0,0,0,.353.861c.066-.256.125-.514.2-.768a42.718,42.718,0,0,1,1.609-4.148c.318-.784.652-1.561.974-2.343a1.77,1.77,0,0,0,.065-.306m.762,17.257.094.039a1.483,1.483,0,0,0,.12-.218q.662-1.864,1.317-3.731c.132-.378.237-.765.366-1.145.626-1.855,1.278-3.7,1.876-5.565.452-1.411.837-2.844,1.248-4.268.047-.163.167-.376-.1-.44-.213-.052-.248.171-.3.315-.353.958-.7,1.919-1.047,2.879-.465,1.282-.914,2.571-1.4,3.846-.514,1.359-1.06,2.706-1.591,4.059-.085.216-.222.438.061.608-.237.465-.483.889-.675,1.337-.221.517-.408,1.049-.58,1.585a1.682,1.682,0,0,0-.038.614c0,.074.116.14.178.21.06-.057.141-.1.175-.172a1.848,1.848,0,0,0,.079-.3c.166-.553.327-1.109.5-1.659a1.115,1.115,0,0,1,.493-.636,8.144,8.144,0,0,0-.787,2.642M22.628,37.73l.089.042a.938.938,0,0,0,.191-.2c.1-.212.192-.433.279-.654Q24.1,34.642,25,32.366c.4-1.021.809-2.041,1.188-3.071.267-.724.492-1.463.735-2.2.046-.141.082-.291.349-.24-.041.146-.067.283-.117.411-.193.5-.4.99-.589,1.486-.522,1.34-1.036,2.683-1.563,4.021-.6,1.519-1.21,3.032-1.809,4.551a1.612,1.612,0,0,0-.054.376c.535.157.594.127.742-.345.116-.368.219-.74.353-1.1.591-1.6,1.194-3.2,1.788-4.8.517-1.391,1.035-2.781,1.538-4.177A4.733,4.733,0,0,0,27.7,26.5c-.189.043-.3.068-.412.092a2.021,2.021,0,0,1-.3.059c-.322.02-.467-.209-.608-.445-.025-.043-.08-.067-.153-.125l-.083.389.529.325c-.031.077-.071.185-.117.289-.1.215-.212.422-.293.642-.215.584-.4,1.179-.623,1.76-.508,1.331-1.039,2.653-1.545,3.985-.453,1.192-.89,2.391-1.323,3.591a4.72,4.72,0,0,0-.138.666M17.155,23.448a.384.384,0,0,1,.152.514c-.313.831-.587,1.676-.9,2.505-.476,1.247-.972,2.487-1.466,3.726-.154.386-.341.758-.5,1.142a3.83,3.83,0,0,0-.313,1.1,6.072,6.072,0,0,1-.38,1.18q-.275.868-.531,1.743a2.219,2.219,0,0,0-.026.43c.107-.085.156-.1.167-.136.246-.652.484-1.308.732-1.96a7.8,7.8,0,0,1,.573-1.393,4.77,4.77,0,0,0,.5-.982c.087-.252.2-.5.3-.744.34-.839.7-1.669,1.013-2.518.356-.974.672-1.964,1-2.951.138-.42.253-.849.374-1.275a10.05,10.05,0,0,1,.3-1.064c.419-1.03.865-2.051,1.308-3.072.147-.339.324-.665.471-1,.306-.707.6-1.419.9-2.13.076-.183.144-.369.216-.554a.608.608,0,0,0-.335.254,74.741,74.741,0,0,0-3.537,7.191M59.283,36.322c.24-.1.4-.234.553-.219a3.583,3.583,0,0,0,1.659-.411c.256-.1.3-.306.178-.549a1.024,1.024,0,0,0-.174-.258c-.252-.25-.5-.5-.775-.732a1.255,1.255,0,0,1-.52-1.076.425.425,0,0,0-.2-.465,1.449,1.449,0,0,1-.79.367c-.408,0-.448-.35-.593-.592-.226.075-.166.252-.188.385a1.185,1.185,0,0,1-.4.77.6.6,0,0,1-.63.087c-.223-.085-.254-.278-.236-.479.022-.249.063-.5.1-.746.018-.132.038-.264.057-.4L57.253,32l-.289.526-.245-.195a1.761,1.761,0,0,0-.325,1.054.98.98,0,0,1-.565.789c-.124.066-.25.129-.416.215a1.367,1.367,0,0,0,.868.032,9.718,9.718,0,0,1,1.267-.23A1.14,1.14,0,0,1,58.87,35c.086.283.179.564.268.846.047.15.092.3.146.476M30.83,55.826c.093-.338.15-.593.233-.84.444-1.321.88-2.645,1.347-3.958a41.5,41.5,0,0,0,1.237-4.272.543.543,0,0,0-.217-.622c-.095-.072-.192-.14-.292-.2-.35-.226-.448-.2-.561.195-.247.868-.458,1.747-.722,2.61-.455,1.488-.944,2.966-1.411,4.45-.138.438-.259.882-.376,1.326-.05.189-.022.356.281.381.079-.2.167-.4.237-.606q.287-.842.563-1.688.714-2.2,1.422-4.4c.167-.523.313-1.052.473-1.577.032-.1.046-.245.254-.191a1.687,1.687,0,0,1-.046.2c-.092.25-.2.5-.282.749-.483,1.511-.954,3.026-1.441,4.536-.286.889-.6,1.77-.887,2.658a1.03,1.03,0,0,0-.042.473,7.09,7.09,0,0,0,.23.78M58.261,31.335c.15-.594.269-1.19.451-1.766.38-1.2.8-2.393,1.19-3.593.291-.9.559-1.813.828-2.723.117-.4.21-.8.31-1.206a1.062,1.062,0,0,0,.011-.2,1.207,1.207,0,0,0-.277.458c-.327.923-.64,1.851-.974,2.771-.273.752-.617,1.481-.837,2.247-.1.354-.487.686-.212,1.122.017.026-.015.085-.027.128-.186.64-.351,1.287-.563,1.918a13.8,13.8,0,0,0-.5,2.462.748.748,0,0,0,.037.223l.1.019c.075-.185.159-.366.22-.554a1.9,1.9,0,0,0,.067-.395.351.351,0,0,1,.375-.356c.074,0,.149-.013.222-.012a.511.511,0,0,0,.564-.445c.1-.431.237-.857.384-1.276.3-.854.626-1.7.92-2.553.367-1.067.709-2.142,1.068-3.211.052-.156.062-.357.409-.426a27.44,27.44,0,0,0-1.242,3.829c.381-.855.713-1.727,1.058-2.593.081-.2.214-.384.315-.579.045-.087.115-.193.1-.273-.122-.558-.263-1.111-.417-1.739-.1.115-.161.16-.182.22Q60.374,26.5,59.1,30.167l.259.132c-.313.383-.155.954-.543,1.3l-.556-.269m-40.748-15.9a.566.566,0,0,0,.086,0,.651.651,0,0,0,.506-.645c.066-.649.173-.736.824-.657.454.055.9.17,1.355.228a3.323,3.323,0,0,0,.788,0,4.308,4.308,0,0,0,.734-.173c.312-.093.608-.278.639-.6s.263-.571.311-.856a3.084,3.084,0,0,0-.124-.95,1.8,1.8,0,0,0-.068-.225l-.09,0a2.149,2.149,0,0,0-.031.364.393.393,0,0,1-.306.432.4.4,0,0,1-.472-.159,1.858,1.858,0,0,1-.266-.5c-.112-.364-.191-.74-.289-1.138a2.077,2.077,0,0,1-.627.03,1.687,1.687,0,0,1-.472-.324.222.222,0,0,0-.013.073,1.553,1.553,0,0,1-.279,1.262.666.666,0,0,0-.058.637A1.2,1.2,0,0,1,18.575,13.8a1.37,1.37,0,0,0-1.082.506.419.419,0,0,1-.52.113c-.293-.1-.594-.172-.9-.258l-.114-.342-.087,0-.405,1.265c.38-.132.7-.053.952-.293a.381.381,0,0,1,.561.045c.188.186.35.4.529.6m-6.183-.415.322.141c-.044.089-.07.157-.108.216a10.66,10.66,0,0,0-.884,1.588c-.486,1.179-1.028,2.335-1.552,3.5A11.8,11.8,0,0,0,8.086,23a.32.32,0,0,0,.236.426c.083-.157.168-.293.232-.439.255-.585.5-1.176.757-1.758.729-1.624,1.466-3.245,2.2-4.868.213-.473.415-.952.63-1.425.05-.11.086-.272.3-.2a1.06,1.06,0,0,1-.25.812,3.023,3.023,0,0,0-.366.607,14.794,14.794,0,0,1-.762,1.7c-.782,1.631-1.519,3.284-2.265,4.933-.122.269-.2.558-.3.837-.067.187.009.308.211.433.1-.178.2-.337.275-.5.1-.214.183-.438.281-.654.62-1.364,1.253-2.72,1.858-4.09s1.185-2.751,1.77-4.131a3.571,3.571,0,0,0,.127-.5,4.886,4.886,0,0,0-1.684.843m-.558,15.1.112.026a.779.779,0,0,0,.1-.141c.447-1.1.9-2.2,1.335-3.3a5.3,5.3,0,0,0,.4-1.226,10.726,10.726,0,0,1,.988-2.894c.479-1.1,1.041-2.168,1.554-3.255.4-.845.795-1.693,1.16-2.553a7.7,7.7,0,0,0,.352-1.192.33.33,0,0,0-.124-.28c-.107-.065-.294.1-.269.256a.753.753,0,0,1-.234.641,1.344,1.344,0,0,0-.2.346c-.153.354-.284.717-.448,1.065-.577,1.22-1.163,2.436-1.75,3.652-.476.988-.965,1.971-1.434,2.963a5.5,5.5,0,0,1-.718,1.374.773.773,0,0,0-.111.24q-.462,1.249-.921,2.5a.786.786,0,0,0,.124.8,4.042,4.042,0,0,0,.233-.454c.268-.756.519-1.517.789-2.271.184-.517.387-1.027.585-1.538a.563.563,0,0,1,.4-.4c-.214.495-.427.943-.6,1.4s-.311.928-.466,1.392-.314.957-.487,1.429a4.4,4.4,0,0,0-.368,1.416M55.6,33.731c.062-.313.1-.577.17-.829.1-.341.237-.67.343-1.009.456-1.458.9-2.919,1.361-4.376.1-.325.226-.643.357-.957a.487.487,0,0,1,.214-.26.443.443,0,0,0,.259-.332c.328-1.015.655-2.032.992-3.045.319-.957.653-1.91.972-2.867a6.568,6.568,0,0,0,.24-.9.422.422,0,0,0-.242-.55c-.2.515-.392.991-.557,1.478q-.6,1.771-1.171,3.55c-.222.69-.415,1.389-.624,2.083-.025.084-.042.2-.1.238-.321.188-.364.527-.473.827q-.624,1.736-1.232,3.478-.294.841-.563,1.689c-.161.507-.3,1.021-.464,1.528-.037.115-.076.266-.278.234,0-.146.059-.362-.011-.417-.232-.183-.165-.429-.209-.661a3.9,3.9,0,0,0-.41,1.513,2.062,2.062,0,0,0,1.428-.415m-23.4-12.7L32.126,21c-.145.425-.306.846-.434,1.276-.474,1.606-.906,3.225-1.415,4.819-.351,1.1-.8,2.168-1.213,3.247-.292.761-.617,1.51-.9,2.273-.4,1.07-.747,2.16-1.166,3.221a18.786,18.786,0,0,0-1.022,2.933c-.052.243-.005.352.248.435.118-.313.207-.609.339-.886a3.771,3.771,0,0,0,.4-1.8,1.01,1.01,0,0,1,.212-.61,6.5,6.5,0,0,0,.713-1.275c.345-.93.618-1.887.925-2.832.087-.268.177-.536.29-.793.142-.324.325-.629.461-.955.3-.725.565-1.469.887-2.185a35.112,35.112,0,0,0,1.871-5.423.5.5,0,0,0-.076-.5.65.65,0,0,1-.1-.632,2.865,2.865,0,0,0,.063-.289m-2.7,1.7-.122-.054a3.567,3.567,0,0,0-.343.547c-.306.754-.6,1.515-.879,2.279a.515.515,0,0,0,0,.375.536.536,0,0,1-.022.508c-.178.42-.365.838-.526,1.266-.544,1.442-1.074,2.89-1.617,4.333-.439,1.166-.891,2.326-1.331,3.492-.051.135-.13.337-.072.419.162.226.067.418.005.622-.134.44-.273.877-.411,1.315-.068.216,0,.342.248.373a1.184,1.184,0,0,0,.138-.223q.294-.863.573-1.732a1.471,1.471,0,0,0,.032-.3,1.83,1.83,0,0,1,.048-.428c.339-.965.68-1.929,1.041-2.886.622-1.652,1.269-3.294,1.886-4.947a24.066,24.066,0,0,0,.785-2.358c.114-.439.444-.858.24-1.364-.026-.064.048-.166.07-.252.085-.327.168-.654.252-.98m4.329,24.144c-.064.168-.121.287-.153.411-.093.358-.153.726-.268,1.077-.629,1.915-1.246,3.835-1.918,5.735a11.737,11.737,0,0,0-.471,2.473,1,1,0,0,0,.108.377c-.138.292-.289.565-.4.853q-.376.975-.721,1.962-.323.923-.615,1.857c-.1.313-.082.318.173.6.21-.608.421-1.208.626-1.809.306-.9.576-1.811.925-2.692a10.825,10.825,0,0,0,.49-1.659,10.4,10.4,0,0,1,.27-1.031c.29-.872.6-1.738.9-2.607.513-1.487.972-2.989,1.335-4.521a.909.909,0,0,0-.278-1.024M27.89,52.9c.689-2.466,1.365-4.887,2.048-7.338a3.735,3.735,0,0,0-1.187,0c-.065,0-.148.1-.18.171-.113.257-.21.521-.307.785a5.261,5.261,0,0,1-.72,1.828.476.476,0,0,0-.066.165c-.153.48-.329.956-.452,1.444-.118.47-.441.918-.173,1.448.057.113-.008.287-.017.434l.11.015c.138-.509.268-1.021.417-1.527s.311-.991.474-1.484.352-1.008.513-1.517c.393-1.244.389-1.245.635-1.392-.317.922-.646,1.833-.941,2.754a14.128,14.128,0,0,0-.731,2.795,3.664,3.664,0,0,0,.478-.886c.208-.649.36-1.316.553-1.97.248-.839.511-1.674.776-2.508.054-.168.11-.36.394-.385a1.835,1.835,0,0,1-.066.247,6.384,6.384,0,0,0-.3.643c-.265.833-.515,1.672-.767,2.51q-.442,1.47-.874,2.945c-.142.487-.134.491.377.825m24.9-7.143a.549.549,0,0,0,.388-.649A1.97,1.97,0,0,1,53.415,44c.444-1.084.924-2.154,1.342-3.248.629-1.647,1.22-3.31,1.822-4.967.108-.3.188-.605.285-.918-.484-.023-.563.03-.733.45l-1.269,3.132q-.56,1.38-1.122,2.76c-.245.6-.491,1.209-.726,1.817a5.51,5.51,0,0,0-.158.58.923.923,0,0,0,.317-.327c.079-.113.125-.27.388-.256A9.956,9.956,0,0,0,52.5,45.507l.289-.047ZM38.984,16.95c.066-.169.112-.269.145-.374.1-.325.191-.656.3-.978q.411-1.176.84-2.345c.409-1.114.809-2.231,1.244-3.335.5-1.27,1.06-2.517,1.545-3.792.395-1.038.717-2.1,1.069-3.157a.611.611,0,0,0,.053-.214c0-.064-.053-.18-.078-.179a.286.286,0,0,0-.213.089,6.962,6.962,0,0,0-.419.83c-.241.606-.454,1.224-.689,1.834-.528,1.37-1.064,2.736-1.591,4.106-.271.7-.542,1.41-.789,2.124-.176.508-.252,1.045-.45,1.552q-.564,1.449-1.068,2.923a.784.784,0,0,0,.1.917M12.834,34.981c.054-.125.09-.2.12-.283.386-1.011.74-2.036,1.163-3.032.754-1.774,1.583-3.519,2.178-5.357a11.059,11.059,0,0,0,.723-2.644,1.1,1.1,0,0,1,.079-.347c.3-.711.6-1.42.9-2.128.058-.137.12-.272.18-.407.052-.115.1-.23.158-.345-.5.479-.606,1.189-1.107,1.652a.258.258,0,0,0-.07.162,2.444,2.444,0,0,1-.418.914c-.072.146-.158.285-.222.434a.373.373,0,0,0-.041.256.821.821,0,0,1-.15.832,1.976,1.976,0,0,0-.137.328c-.438,1.182-.858,2.37-1.316,3.544-.394,1.008-.824,2-1.249,3a15.765,15.765,0,0,0-.968,2.813.548.548,0,0,0,.174.61M13.9,14.054c-.231-.061-.4-.081-.5.086a10.17,10.17,0,0,0-.51.975c-.366.825-.707,1.662-1.071,2.488-.609,1.382-1.229,2.759-1.842,4.139-.1.231-.308.444-.128.733.025.041-.034.136-.057.205-.2.649-.412,1.3-.607,1.947a.7.7,0,0,0,.281.808,2.388,2.388,0,0,0,.179-.578,4.589,4.589,0,0,1,.382-1.537c.52-1.307,1.1-2.592,1.646-3.886q.964-2.27,1.921-4.543c.112-.266.2-.543.306-.837m3.337,2.017a.441.441,0,0,0-.438.31c-.688,1.478-1.386,2.951-2.073,4.429-.494,1.062-.978,2.129-1.46,3.2a.556.556,0,0,0-.036.55c.048.087-.022.25-.061.371-.045.14-.121.27-.172.408-.383,1.026-.757,2.056-1.149,3.079-.249.651-.526,1.29-.784,1.937a.968.968,0,0,0-.039.807c.059-.1.092-.146.113-.195.286-.666.58-1.33.854-2,.448-1.1.934-2.185,1.306-3.309a22.035,22.035,0,0,1,.742-2.181c.861-1.906,1.7-3.822,2.541-5.738.23-.526.422-1.068.655-1.663m22.684-3.9c.088-.216.158-.376.22-.539.418-1.11.785-2.242,1.263-3.326.809-1.836,1.448-3.733,2.126-5.616a.363.363,0,0,0,.043-.17c-.017-.078-.05-.187-.107-.212a.236.236,0,0,0-.215.08,6.575,6.575,0,0,0-.46.81c-.363.812-.719,1.627-1.053,2.451-.272.673-.5,1.363-.762,2.041-.377.982-.769,1.959-1.146,2.942a1.44,1.44,0,0,0,.09,1.54M33.98,20.849l.1.048c-.158.521-.331,1.038-.471,1.564a49.922,49.922,0,0,1-1.83,5.39,7.3,7.3,0,0,0-.2.718l.088.026c.166-.442.311-.893.5-1.323A31.84,31.84,0,0,0,34.24,20.9c.073-.349-.044-.472-.39-.413a.4.4,0,0,0-.341.4,2.963,2.963,0,0,1-.048.526c-.166.552-.349,1.1-.538,1.646-.439,1.26-.88,2.519-1.333,3.774-.181.5-.406.988-.6,1.487A20.755,20.755,0,0,0,30,31.074c-.005.023.012.051.018.075h.213c-.02.107-.038.2-.062.329.262-.138.437-.259.392-.563a.847.847,0,0,1,.1-.381c.113-.29.248-.572.352-.866.559-1.6,1.132-3.188,1.658-4.794.355-1.084.642-2.191.958-3.288a1.764,1.764,0,0,1,.344-.737M50.762,44.863l.093.04c.087-.184.176-.366.261-.551.2-.431.383-.868.595-1.292a.89.89,0,0,1,.329-.4.793.793,0,0,0,.4-.5c.071-.195.153-.386.23-.578.668-1.646,1.344-3.289,2-4.941.194-.492.325-1.009.486-1.518-.506-.1-.516-.085-.673.3-.441,1.068-.888,2.132-1.332,3.2a33.407,33.407,0,0,0-1.289,3.31c-.1.342-.03.756-.408.983a11.21,11.21,0,0,0-.686,1.954m10.091-8.425a.633.633,0,0,0-.728.472c-.357,1.021-.724,2.038-1.113,3.047-.4,1.037-.824,2.064-1.249,3.091-.181.437-.426.851-.579,1.3-.307.9-.573,1.806-.851,2.712a1.553,1.553,0,0,0-.023.314c.085-.068.132-.087.15-.122a6.188,6.188,0,0,0,.721-1.468,7.176,7.176,0,0,1,.4-1.131c.439-1.07.9-2.129,1.336-3.2.615-1.527,1.211-3.061,1.813-4.593.047-.12.074-.248.125-.419m-27.841-14.5a.625.625,0,0,0-.464.442c-.245.809-.482,1.621-.754,2.421q-.465,1.37-.991,2.718c-.3.774-.673,1.52-.972,2.3-.488,1.272-.944,2.556-1.409,3.836-.129.356-.243.717-.388,1.148a1.226,1.226,0,0,0,.839-.778,25.989,25.989,0,0,0,.89-2.628,11.548,11.548,0,0,1,.819-2.488c.857-2.075,1.6-4.189,2.263-6.331.06-.194.1-.394.165-.634m14.651-16.7-.149-.023a3.881,3.881,0,0,0-.17.39c-.129.41-.237.826-.372,1.233-.587,1.774-1.166,3.553-1.778,5.318-.315.91-.695,1.8-1.048,2.7a.709.709,0,0,0-.076.556.743.743,0,0,0,.652-.538c.145-.467.359-.911.513-1.376.537-1.62,1.059-3.245,1.592-4.867a2.371,2.371,0,0,1,.331-.818,1.894,1.894,0,0,0,.43-1.269c.007-.221.073-.44.087-.662s-.006-.427-.011-.642M62.372,24.865a1.684,1.684,0,0,0-.549.941c-.409,1.062-.792,2.133-1.169,3.206-.27.767-.518,1.541-.763,2.316a.743.743,0,0,0-.012.589c.493-.1.5-.1.63-.472.64-1.815,1.269-3.635,1.918-5.446a1.556,1.556,0,0,0-.055-1.135M56.056,47.053a2.6,2.6,0,0,0,.148-.305c.117-.4.2-.812.348-1.2.662-1.669,1.353-3.327,2.017-4.995.429-1.075.834-2.16,1.239-3.244a5.12,5.12,0,0,0,.142-.683c-.182.1-.3.128-.341.2a3.715,3.715,0,0,0-.36.659c-.3.774-.576,1.559-.877,2.333-.2.51-.434,1.006-.636,1.515-.23.579-.42,1.174-.665,1.745a24.783,24.783,0,0,0-1.013,2.757,2.294,2.294,0,0,0,0,1.216m-39.2-7.205a3.884,3.884,0,0,0,.192-.36c.286-.7.559-1.406.848-2.1.557-1.343,1.136-2.677,1.675-4.027.347-.867.647-1.752.952-2.635.147-.424.257-.86.4-1.36a1.1,1.1,0,0,0-.591.721c-.317.972-.655,1.94-1.04,2.887s-.847,1.9-1.272,2.843c-.273.608-.571,1.207-.806,1.83-.213.566-.362,1.156-.528,1.739a.346.346,0,0,0,.165.466M33.33,27.622a.687.687,0,0,0,.454-.465c.415-1.207.84-2.41,1.248-3.619a.544.544,0,0,0-.024-.412,1.574,1.574,0,0,0-.7-.617,1.474,1.474,0,0,0-.111.2c-.15.434-.289.873-.444,1.306-.38,1.062-.769,2.121-1.149,3.183-.044.122-.116.29-.068.379.136.251-.01.43-.1.622-.208.457-.448.9-.641,1.364a2.246,2.246,0,0,0-.2,1.265c.1-.02.212-.015.225-.05.111-.284.21-.573.3-.864.2-.638.375-1.282.588-1.914a2.315,2.315,0,0,1,.324-.463,1.3,1.3,0,0,0,.23-.411c.061-.3.031-.626.116-.919.226-.783.483-1.558.748-2.329a1.879,1.879,0,0,1,.54-.715c.221.1.135.217.081.341-.138.312-.289.619-.4.94-.184.532-.341,1.075-.511,1.612-.159.5-.322,1-.5,1.564m-4,26.728c.072-.276.127-.549.215-.812.4-1.208.836-2.407,1.223-3.621.4-1.27.773-2.552,1.152-3.83a2.35,2.35,0,0,0,.049-.37c-.4-.062-.5.012-.622.408-.235.8-.454,1.595-.7,2.388-.208.679-.439,1.352-.659,2.027-.257.789-.515,1.577-.768,2.367-.031.1-.078.274-.048.291.235.132.056.279.026.41s-.1.279-.143.42c-.068.213.039.294.272.322m3.826-48c.327,0,.363-.175.42-.318.3-.743.571-1.5.889-2.23.29-.666.617-1.317.95-1.963a.876.876,0,0,1,.675-.538c-.3.436-.582.79-.8,1.18-.229.413-.4.86-.589,1.295s-.374.843-.527,1.276A3.315,3.315,0,0,0,33.834,6.4c.422.048.42.047.51-.3a3.771,3.771,0,0,1,.138-.47Q35.223,3.8,35.975,1.97c.121-.294.262-.58.409-.9a2.79,2.79,0,0,0-.512-.075.419.419,0,0,0-.3.143,11.92,11.92,0,0,0-.9,1.428c-.426.881-.8,1.788-1.173,2.693-.139.335-.224.692-.352,1.1M58.611,16.677l.122.048a.977.977,0,0,1,0,.3,20.131,20.131,0,0,1-.683,1.927,17.166,17.166,0,0,0-1.16,3.675c-.027.131.009.241.22.209.054-.153.114-.318.171-.485q.331-.969.661-1.939c.342-1.012.664-2.031,1.033-3.032a1.182,1.182,0,0,0-.107-1.013c-.08-.16-.2-.3-.374-.243-.094.028-.181.176-.217.287-.141.437-.239.889-.391,1.322-.276.783-.593,1.552-.863,2.336a1.1,1.1,0,0,0-.04.93,2.783,2.783,0,0,0,.2-.356,31.967,31.967,0,0,0,1.283-3.7,1.086,1.086,0,0,1,.152-.269M4.058,22.65,3.947,22.6a4.092,4.092,0,0,1,.182-.608c.475-1,.966-2,1.447-3s.959-2.005,1.436-3.009c.053-.111.171-.219.032-.377a1.459,1.459,0,0,0-.572.7,3.825,3.825,0,0,1-.162.361c-.216.368-.464.72-.659,1.1Q4.907,19.208,4.2,20.671a6.912,6.912,0,0,1-.475,1.1.774.774,0,0,0-.03.9,1.4,1.4,0,0,1,.05,1c-.068.242-.164.475-.233.716a1.449,1.449,0,0,0-.023.307l.1.015c.191-.752.553-1.453.683-2.224l-.086-.048-.132.22M60.79,19.692l-.128-.032c-.047.1-.1.206-.14.313q-.358,1.03-.707,2.063c-.311.913-.633,1.823-.927,2.741-.349,1.086-.675,2.18-1.007,3.272a1.038,1.038,0,0,1-.388.578.751.751,0,0,0-.243.348c-.214.616-.416,1.237-.611,1.859-.078.25-.129.509-.192.764l.078.057c.153-.129.3-.261.46-.385a1.04,1.04,0,0,0,.369-.913,1.307,1.307,0,0,1,.158-.758,3.287,3.287,0,0,0,.222-.533c.346-1.027.685-2.056,1.03-3.083.63-1.871,1.266-3.74,1.891-5.613a5.412,5.412,0,0,0,.136-.677m-52.5-3.869-.107-.094a.971.971,0,0,0-.257.182,3.779,3.779,0,0,0-.315.535Q6.791,18.12,5.977,19.8c-.277.573-.541,1.151-.805,1.73-.061.134-.159.291-.134.416a1.422,1.422,0,0,1-.2.847,1.762,1.762,0,0,0-.056.214,1.1,1.1,0,0,0,.359-.28A3.552,3.552,0,0,0,5.7,21.68c.419-.866.84-1.731,1.242-2.6.413-.9.809-1.8,1.2-2.711a3.9,3.9,0,0,0,.15-.542m.346.016c-.2.361-.4.674-.555,1.008-.427.929-.833,1.868-1.248,2.8q-.473,1.062-.95,2.122l.077.065c.208-.124.489-.2.611-.383a14.985,14.985,0,0,0,1.245-2.4c.288-.666.577-1.333.851-2,.143-.352.256-.716.392-1.1l-.424-.108m23.9,29.847c-.278-.066-.34.115-.4.307-.159.524-.311,1.051-.482,1.572-.631,1.927-1.273,3.851-1.9,5.78a5.043,5.043,0,0,0-.168.824.291.291,0,0,0,.194.373.92.92,0,0,0,.138-.2c.12-.366.212-.741.346-1.1a51.808,51.808,0,0,0,1.96-6.545c.075-.328.2-.645.311-1m-3.767,8.248c.058-.23.093-.412.149-.589.349-1.086.713-2.167,1.055-3.255.434-1.384.853-2.772,1.275-4.159.038-.124.1-.273-.065-.353a.252.252,0,0,0-.36.157,4.974,4.974,0,0,0-.271.652q-.778,2.642-1.541,5.289c-.109.375-.216.75-.347,1.2l.28-.2a5.019,5.019,0,0,0-.189.616c-.034.188-.258.384.015.64m1.781-8.346c-.4-.1-.448.189-.506.371-.3.932-.573,1.872-.843,2.813s-.5,1.923-.8,2.871A10.379,10.379,0,0,0,28.2,53.22c-.006.037.052.083.11.17.8-2.613,1.708-5.137,2.244-7.8M16.031,15.612a.48.48,0,0,0-.475.338c-.171.345-.332.693-.488,1.045-.5,1.123-.99,2.25-1.491,3.372-.464,1.041-.944,2.074-1.4,3.118a1.316,1.316,0,0,0-.206.74,2.108,2.108,0,0,0,.237-.28c.164-.3.319-.6.471-.9.571-1.137,1.166-2.263,1.7-3.417.56-1.21,1.061-2.446,1.582-3.673a1.816,1.816,0,0,0,.07-.338M43.11,2.161c-.2-.18-.359-.134-.476.069a7.155,7.155,0,0,0-.457.863c-.5,1.251-1,2.507-1.483,3.764C40.34,7.769,40,8.687,39.653,9.6c-.131.347-.264.693-.381,1.044a1.02,1.02,0,0,0,0,.3c.139-.045.212-.1.243-.171.151-.339.3-.679.434-1.024.631-1.616,1.248-3.238,1.892-4.849A17.234,17.234,0,0,1,43.11,2.161M62.878,28.979a2.566,2.566,0,0,0-.122.236c-.3.82-.593,1.644-.9,2.462-.2.542-.422,1.076-.624,1.617-.046.121-.115.29-.067.381a1.4,1.4,0,0,0,.84.808,3.077,3.077,0,0,0,.128-.3c.313-1.066.628-2.131.931-3.2a1.4,1.4,0,0,0-.055-.988,7.2,7.2,0,0,0-.77,1.972c-.189.66-.366,1.323-.549,1.987-.187-.055-.162-.177-.134-.294a20.069,20.069,0,0,1,1.306-4.1.556.556,0,0,0,.013-.58M11.2,15.179c-.173.107-.291.139-.339.216a17.93,17.93,0,0,0-.957,1.6c-.273.555-.452,1.157-.693,1.73-.3.722-.65,1.429-.94,2.157-.207.52-.353,1.064-.52,1.6a.5.5,0,0,0,.021.191A72.761,72.761,0,0,0,11.2,15.179M58.01,24.5c.1-.261.17-.435.229-.613q.646-1.965,1.288-3.93c.135-.408.291-.809.415-1.22.09-.3.01-.459-.3-.665-.066.151-.139.294-.194.445-.255.711-.519,1.419-.752,2.138-.277.859-.529,1.727-.781,2.594a1.2,1.2,0,0,0-.036.437c.02.234.07.465.127.817M39.1,55.456a1.5,1.5,0,0,0,1-.967c.184-.564.317-1.145.53-1.7a8.283,8.283,0,0,1,.855-2.036c.086-.117.023-.259-.132-.321a.565.565,0,0,0-.806.356c-.18.487-.362.973-.528,1.464q-.432,1.285-.841,2.577a3.84,3.84,0,0,0-.078.624m-4.5-3.49-.069-.025a3.283,3.283,0,0,0-.149.3c-.565,1.482-1.132,2.963-1.688,4.448a2.957,2.957,0,0,0-.32,1.1,1.884,1.884,0,0,1-.381,1.084,1.19,1.19,0,0,0-.089.153q-.482,1.34-.959,2.681a.733.733,0,0,0,.031.545.949.949,0,0,0,.514-.762,4.755,4.755,0,0,1,.286-.979c.233-.657.5-1.3.715-1.964.346-1.071.645-2.157.993-3.227.329-1.014.7-2.016,1.044-3.025a2.659,2.659,0,0,0,.072-.328M41.157,2.491l-.092-.041a7.315,7.315,0,0,0-.51.87c-.493,1.176-.964,2.361-1.438,3.546a17.067,17.067,0,0,0-1.051,3.014c-.027.137-.044.232.157.269.9-2.58,2.192-5.014,2.934-7.657M7.575,22c.961-2.006,1.752-4.062,2.526-6.13a4.03,4.03,0,0,0-.624.84c-.357.73-.677,1.478-1,2.223-.385.879-.832,1.731-1.134,2.647-.085.256-.007.35.235.419m37.879-8.558a.585.585,0,0,0,.594-.4c.112-.274.2-.559.312-.832a4.491,4.491,0,0,1,.705-1.518.264.264,0,0,0,.058-.205A3.225,3.225,0,0,1,47.246,9.3,2.471,2.471,0,0,0,47.29,8.21c-.71,1.7-1.163,3.483-1.836,5.231m17.271,14.13c-.214.017-.21.192-.25.317-.222.69-.43,1.385-.657,2.073-.354,1.075-.723,2.146-1.076,3.221-.02.06.048.15.075.226.068-.038.172-.06.2-.117.074-.159.111-.335.172-.5.262-.708.534-1.413.789-2.123.225-.627.391-1.278.663-1.883a1.778,1.778,0,0,0,.087-1.215M38.544,10.5a10.329,10.329,0,0,0,.715-1.579c.254-.551.44-1.133.657-1.7s.425-1.107.634-1.662.446-1.133.628-1.713a6.765,6.765,0,0,0,.452-1.665.571.571,0,0,0-.167.243c-.377,1.03-.728,2.071-1.132,3.091C39.834,6.766,39.285,8,38.78,9.248a2.076,2.076,0,0,0-.236,1.252m2.224-8.98-.081-.091c-.076.045-.179.072-.223.138a3.341,3.341,0,0,0-.3.542q-.5,1.164-.985,2.335-.55,1.336-1.084,2.678a1.828,1.828,0,0,0-.171.9l.09.023L40.768,1.52M59.234,17.413c-.09.254-.169.458-.236.665a6.719,6.719,0,0,1-.223.722,35.276,35.276,0,0,0-1.332,3.908c-.057.178-.069.354.22.44.064-.164.133-.32.186-.483.362-1.113.716-2.229,1.081-3.342.148-.45.322-.891.472-1.34a.417.417,0,0,0-.168-.57M34.586,6.273l.108.046c.049-.047.12-.086.144-.143Q35.926,3.653,37,1.125c.012-.029-.022-.078-.046-.158-.083.062-.169.1-.207.159a10.756,10.756,0,0,0-.8,1.376C35.5,3.578,35.106,4.678,34.7,5.771a3.515,3.515,0,0,0-.11.5M60.956,20.4a45.955,45.955,0,0,0-1.8,5.408c.1-.053.206-.075.252-.138a1.2,1.2,0,0,0,.137-.325c.335-1,.663-1.993,1-2.986.163-.476.352-.943.525-1.416a.415.415,0,0,0-.117-.544M23.51,17.551a1.017,1.017,0,0,0,.856-.741c.265-.77.582-1.521.876-2.28a.787.787,0,0,0,.086-.3c0-.085-.062-.213-.127-.235a.328.328,0,0,0-.257.092.617.617,0,0,0-.115.235c-.259.644-.514,1.289-.775,1.932-.166.408-.342.812-.544,1.293m39.028,8.827a5.874,5.874,0,0,0-.253.557c-.291.884-.564,1.773-.86,2.655-.159.473-.369.93-.523,1.4a1.866,1.866,0,0,0-.138,1.076c.092-.187.151-.282.186-.383q.822-2.369,1.64-4.739a.6.6,0,0,0-.052-.571M9.6,15.923c-.121.065-.185.078-.209.116a4.8,4.8,0,0,0-.5.83,43.657,43.657,0,0,1-1.963,4.468,1.5,1.5,0,0,0-.074.314c.109-.024.2-.02.209-.049.844-1.863,1.751-3.7,2.537-5.678M34.027,27.017a.668.668,0,0,0,.617-.491c.273-.831.563-1.657.845-2.486.037-.107.137-.243-.016-.306-.062-.026-.221.064-.269.142a5.63,5.63,0,0,0-.361.712c-.088.2-.151.418-.221.629-.192.575-.381,1.151-.594,1.8M21.64,22.763c-.725,1.911-1.561,3.713-2.2,5.6a.417.417,0,0,0,.206-.2c.176-.408.338-.823.513-1.232q.734-1.718,1.475-3.435a.718.718,0,0,0,0-.739M38.078,52.019l-.086-.037a1.029,1.029,0,0,0-.086.149c-.626,1.692-1.259,3.381-1.868,5.079a2.5,2.5,0,0,0-.194,1.183c.656-2.157,1.619-4.206,2.234-6.374M29.392,23.724c.352-.017.383-.206.443-.367.2-.528.4-1.055.587-1.585.223-.629.438-1.261.65-1.894a.726.726,0,0,0,0-.219,22.9,22.9,0,0,0-1.683,4.065M52.2,45.6a4.19,4.19,0,0,0,.376-1.131,4.765,4.765,0,0,1,.2-1.331,4.214,4.214,0,0,0-.981,2.636L52.2,45.6M29.9,13.609l.8-2.151c-.4-.213-.411-.213-.588.133-.081.157-.142.325-.233.475a1.45,1.45,0,0,0,.025,1.543M40.49,50.42l-.089-.033a1.569,1.569,0,0,0-.1.184c-.32.827-.652,1.649-.954,2.483-.256.709-.481,1.429-.711,2.147a1.717,1.717,0,0,0-.036.366c.21.027.272-.048.282-.193a1.463,1.463,0,0,1,.046-.348c.222-.7.444-1.41.682-2.11.285-.836.587-1.665.882-2.5M26.149,26.7l-.094-.023-1.526,4.06c.229.069.293-.041.36-.193a25.988,25.988,0,0,0,1.217-3.527,2.213,2.213,0,0,0,.043-.317m10.04.178c-.016-.129,0-.232-.036-.255-.39-.25-.277-.593-.139-.9a11.794,11.794,0,0,1,.587-1.028l-.259-.257a3.578,3.578,0,0,0-.853,2.244l.7.2M34.8,26.75c.239.015.4-.01.445-.239a5.754,5.754,0,0,1,.817-2.2A.261.261,0,0,0,36,24.066a.345.345,0,0,0-.268.05c-.054.031-.081.121-.107.189-.231.624-.465,1.248-.687,1.876a5.694,5.694,0,0,0-.138.569m-5.042-4.805c.121-.294.227-.55.332-.806q.32-.78.638-1.56a.2.2,0,0,0-.1-.3c-.148-.067-.227.022-.272.142-.256.677-.511,1.353-.755,2.034a.363.363,0,0,0,.157.487m-.526-.552.115,0,.858-2.276c-.2-.168-.362-.18-.445.019a6.479,6.479,0,0,0-.609,2.027.639.639,0,0,0,.081.228m3.106-16A6.212,6.212,0,0,0,33.37,3c-.206.122-.457.156-.47.427a1.447,1.447,0,0,1-.3.727,6.1,6.1,0,0,0-.378.7.385.385,0,0,0,.113.534M29.553,18.934l-.1-.086c-.082.044-.191.068-.241.136a3.832,3.832,0,0,0-.672,1.572c-.046.243.072.384.329.471l.682-2.093M51.327,40.15a1.6,1.6,0,0,0-.578.907c-.158.645-.291,1.3-.429,1.946-.008.04.029.089.045.135a14.1,14.1,0,0,0,.961-2.987M35.086,1.075l-.125-.059a9.1,9.1,0,0,0-.851,1.649A8.049,8.049,0,0,0,33.418,4.5c.089-.048.145-.059.16-.09q.742-1.567,1.474-3.137a.78.78,0,0,0,.034-.2M31.344,13.907l.077.056a1.931,1.931,0,0,0,.782-1.114c.029-.258.082-.447.341-.553.058-.024.068-.163.1-.249-.091-.031-.213-.115-.267-.082a.843.843,0,0,0-.337.324c-.248.532-.467,1.077-.7,1.618m-14.487-.18a10.339,10.339,0,0,0,.284-1.05c.058-.355.372-.629.352-1.055-.11.031-.185.028-.213.063a4.483,4.483,0,0,0-.786,1.623c-.068.248.036.335.362.419m24.661,37.3a10.221,10.221,0,0,0-.6,1.78,4.911,4.911,0,0,0,.764-.508.357.357,0,0,0,.112-.229,1.34,1.34,0,0,0-.275-1.043M27.394,1.422a4.72,4.72,0,0,1,.691.039,1.544,1.544,0,0,0,1.356-.38c-.71-.31-1.843-.116-2.046.34M42.366,17.6l-.1-.033c-.163.392-.328.783-.487,1.176-.376.935-.375.936-.245,1.222a4.431,4.431,0,0,0,.835-2.365M34.7,30.074a.388.388,0,0,0,.492-.084,1,1,0,0,0,.23-1.023.363.363,0,0,0-.244-.2c-.062-.013-.192.086-.222.163a2.494,2.494,0,0,0-.256,1.147m-.395-1c-.106.384-.21.768-.314,1.147.238.089.353,0,.391-.161.1-.409.181-.823.27-1.238a.842.842,0,0,0-.9,1.1c.343-.194.294-.586.55-.845m4.14-13.042.16.053q.656-1.785,1.31-3.571a13.855,13.855,0,0,0-1.471,3.519M17.305,13.179a1.035,1.035,0,0,0,.4-.01c.144-.072.079-.216.04-.35-.018-.06.074-.15.106-.23a2.955,2.955,0,0,0,.36-.979,1.62,1.62,0,0,0-.906,1.568M27,11.811c.262-.056.419-.128.493-.31.16-.395.312-.792.469-1.194-.206-.167-.363-.145-.467.087-.157.352-.308.705-.451,1.063a1.68,1.68,0,0,0-.045.354M37.3,29.3c.57-.706.591-.906.149-1.617-.132.361-.264.7-.381,1.045-.1.3-.078.336.232.572M19.985,41.944a1.719,1.719,0,0,1,.089-1.333,1.641,1.641,0,0,0,.072-.473c.009-.22,0-.442-.012-.663a1.72,1.72,0,0,0-.034-.213c-.147.2-.321.474-.246.6.162.262.039.444-.023.661-.085.3-.184.592-.239.895-.066.362-.045.37.394.532m11.957-30.13c-.453.1-.537.43-.684.673a2.573,2.573,0,0,0-.475,1.277,5,5,0,0,0,1.159-1.951m-1.483,1.61a5,5,0,0,1,1.129-1.716c-.444-.132-.555-.133-.712.164a10.555,10.555,0,0,0-.5,1.219c-.022.059.036.148.087.333m2.39,14.819a3.813,3.813,0,0,0-.378,1.8,1.4,1.4,0,0,0,.261-.3c.169-.406.315-.82.469-1.231l-.352-.262m4.246-2.658c-.1.017-.16.009-.179.033a3.074,3.074,0,0,0-.516,1.353.226.226,0,0,0,.086.186c.168.1.349.185.609.318a1.211,1.211,0,0,1-.183-1.2c.031-.1.089-.189.115-.289.031-.12.043-.246.067-.4M14.449,38.236l-.122.02c0,.19-.079.466.016.553.216.2-.021.356.03.52a.424.424,0,0,0,.067.114c.128.178.252.36.39.53a1.365,1.365,0,0,0,.278.18,6.584,6.584,0,0,0-.659-1.918M46.276,13.13a.727.727,0,0,0,.622-.138c.112-.081.208-.21.1-.339-.176-.219-.1-.445-.077-.677a2.653,2.653,0,0,0,0-.314,4.059,4.059,0,0,0-.652,1.468M59.428,31.692l.124.038c.109-.346.221-.69.327-1.037s.224-.706.313-1.065c.085-.339.337-.632.264-1.014a13.057,13.057,0,0,0-1.028,3.079M15.452,9.941c-.178.356-.352.679-.5,1.015a.99.99,0,0,0-.047.416c0,.029.123.085.182.076.2-.03.231-.2.266-.362a1.584,1.584,0,0,1,.339-.8c.136-.146.081-.215-.243-.345m15.271,21.02c.319-.022.467-.126.532-.329.178-.556.349-1.113.523-1.669l-.083-.034a17.126,17.126,0,0,0-.972,2.033m-7.35,13.013c.054-.061.083-.08.092-.1.223-.656.448-1.311.663-1.97a1.409,1.409,0,0,0,0-.367,4.008,4.008,0,0,0-.761,1.821c-.04.181-.178.381,0,.621M6.114,16.417l-.122-.063c-.5.95-1.011,1.9-1.509,2.852a3.469,3.469,0,0,0-.177.5c0,.007.016.024.027.031a.172.172,0,0,0,.048.01l1.731-3.328m-2.5,9.026c.3.128.345.122.528-.07A.928.928,0,0,0,4.217,24.2l-.6,1.248M53.79,34.031c.24-.647.462-1.241.679-1.838.046-.127.142-.265-.062-.444a9.972,9.972,0,0,0-.648,1.694.547.547,0,0,0,.031.588M15.99,10.392a1.169,1.169,0,0,0-.439.883c-.011.12-.046.244.108.294a.247.247,0,0,0,.318-.166c.1-.223.2-.451.3-.7l-.291-.315M27.365,9.9a3.757,3.757,0,0,0-.833,2.024c.059-.044.125-.067.143-.111q.376-.9.738-1.8c.01-.026-.03-.073-.047-.113M15.112,33.76c.187-.48.376-.959.558-1.441.088-.234.166-.473.242-.712.04-.126.091-.261-.158-.369a15.4,15.4,0,0,0-.643,2.522m13.019-9.07a2.136,2.136,0,0,0,.409-1.428c-.463.222-.615.718-.409,1.428M25.366,1.418a1.151,1.151,0,0,0-.711,1.529l.711-1.529M39.546,50.53c-.2.6-.389,1.185-.581,1.771l.108.037c.23-.629.464-1.256.687-1.887a.242.242,0,0,0-.187-.341c-.225-.049-.273.1-.276.293l.249.128M33.721,28.988c-.41-.108-.488-.066-.607.272-.163.464-.138.585.167.722l.44-.995M27.956,46.844a2.865,2.865,0,0,0,.363-1.084c.008-.053-.089-.159-.154-.175s-.208.031-.223.08a1.459,1.459,0,0,0,.015,1.179m27.8,2.864a5.7,5.7,0,0,0,.781-1.9,4.537,4.537,0,0,0-.781,1.9m-29.3.262a8.365,8.365,0,0,0,.6-1.718,1.836,1.836,0,0,0-.6,1.718m2.563-16a.886.886,0,0,0,.582-1.326l-.582,1.326m.9-23.1a2.921,2.921,0,0,0-.673,1.572c.132-.073.205-.088.223-.128q.262-.585.5-1.18c.017-.041-.019-.1-.053-.265M24.761,44.958c.45-.767.45-.767.268-1.19-.382.181-.39.552-.448.882-.012.073.093.166.18.308m13.278,9.561-.118-.041a6.044,6.044,0,0,0-.619,2.386q.369-1.173.737-2.346M31.9,14.469l-.207-.4c-.076.094-.135.158-.182.229s-.1.17-.145.254c.388.223.754.241.9.039.041-.056.026-.153.038-.248l-.406.128m-2.98-2.694.118.061c.223-.445.452-.887.664-1.337.025-.053-.031-.145-.072-.311a5.843,5.843,0,0,0-.711,1.586m9.8-.44c-.057.524.137.9.485.979a.874.874,0,0,0-.485-.979m-12.364.059c-.413-.038-.471.247-.549.434s0,.414.242.606l.307-1.041m9.83,14.82c.364-.206.413-.609.591-.929.028-.05-.028-.145-.063-.3a1.919,1.919,0,0,0-.528,1.227m2.348-11.321c.076-.2.149-.41.229-.613.087-.219.192-.431.268-.654.063-.188.265-.346.163-.6a4.125,4.125,0,0,0-.659,1.871M29.779,59.654l.46-1.666-.085-.024c-.195.544-.6,1.031-.375,1.69M18.628,12.207a1.239,1.239,0,0,0-.417.974c0,.047.09.149.125.143.071-.012.183-.073.191-.127.047-.328.07-.661.1-.991m-2.2.421c.236-.392.427-.7.606-1.017a.161.161,0,0,0-.044-.149c-.06-.018-.177-.013-.192.019-.155.334-.451.621-.37,1.147m16.3,1.85a.414.414,0,0,0,.508-.286c.058-.222-.123-.325-.313-.394a.509.509,0,0,0-.194.68M21.2,42.573c.031-.111.065-.221.093-.333.087-.346.085-.349-.329-.476-.019.207-.046.408-.053.61-.006.179.114.214.289.2m.514.335a5.273,5.273,0,0,0,.187-.58c.016-.076-.049-.168-.077-.254-.087.034-.2.044-.256.107-.155.188-.1.428.145.727m-5.685-30.73.1.038c.162-.288.331-.573.478-.868a.237.237,0,0,0-.059-.22c-.1-.081-.2-.019-.239.093-.1.317-.188.638-.28.957m6.212,31.013a1.616,1.616,0,0,0,.106-.216,3.35,3.35,0,0,0,.125-.508.227.227,0,0,0-.117-.188c-.055-.015-.186.05-.2.1a4.672,4.672,0,0,0-.087.687c0,.035.1.076.17.128m.795-.837c-.392.122-.55.588-.368,1.086a4.033,4.033,0,0,0,.368-1.086m.792,1.9c.108-.285.193-.516.284-.746a.249.249,0,0,0-.171-.37c-.24.62-.248.693-.113,1.115m2.544,1.555c-.134-.252-.213-.518-.559-.526-.107.447.012.564.559.526m.08-28.691c-.247.011-.3.206-.338.384a.464.464,0,0,0,.217.476c.194-.535.195-.543.121-.861m-21-.415a2.842,2.842,0,0,0-.637,1.347A2.885,2.885,0,0,0,5.451,16.7M40.926,2.012c.415.154.429.145.545-.314-.367-.182-.4-.166-.545.314m-22,11.222c.388-.327.436-.475.294-.829a.716.716,0,0,0-.294.829M31.062.7a.323.323,0,0,0-.436.082.468.468,0,0,0,.015.545A.977.977,0,0,0,31.062.7m-5.53,10.89c.252-.3.238-.371-.124-.661-.23.412-.216.484.124.661m-1.263,32.8a1,1,0,0,0,.3-.684c-.012-.05-.1-.082-.151-.122-.327.439-.339.508-.145.806m7.788-30.277.111.063c.175-.2.425-.35.415-.669,0-.046-.09-.089-.188-.179l-.338.785M29.518,9.761a1.922,1.922,0,0,0-.675,1.379l.675-1.379M31.583.712a1.1,1.1,0,0,0-.615.762c.265-.2.556-.385.615-.762M28.459,20.164l.374-1c-.274.271-.552.539-.374,1m-5.037-7.556a5.569,5.569,0,0,0-.352.508c-.033.061.012.166.024.265.3-.2.544-.391.328-.773m4.713-1.8a1.645,1.645,0,0,0-.466.9c.32-.126.371-.228.466-.9m3.338-9.25.839-.848L32.243.638a1.6,1.6,0,0,0-.77.918M55.8,48.713c-.431.645-.472.762-.381,1.09l.381-1.09M23.589,9.642c.53-.127.617-.307.369-.683l-.369.683m8.1,10.889c.194.036.378.124.441-.092.057-.192-.026-.363-.309-.419-.044.17-.085.327-.132.51M25.272,44.655c-.221.384-.221.384.092.507v.324c.211-.521.211-.521-.092-.831m15.97-25.467c.394-.637.395-.638.3-.942a2.042,2.042,0,0,0-.3.942M33.072,5.843a1.054,1.054,0,0,1-.3.055.779.779,0,0,1-.21-.133c-.067.282.067.386.284.485l.227-.406M26.736,17.954l.466-.036c-.169-.355-.258-.427-.422-.346-.011.1-.024.209-.044.382m.5-16.822c-.332.081-.357.112-.375.461.406-.153.406-.153.375-.461M19.553,40.525a1.469,1.469,0,0,0-.278,1.2l.278-1.2M38.6,13.342c.195-.215.31-.377.171-.6a.125.125,0,0,0-.12-.019c-.191.16-.167.348-.051.617M21.89,11.808l.094-.016c-.009-.185-.017-.37-.029-.622-.263.293-.263.3-.065.638m5.092,37.677a1.158,1.158,0,0,0-.4.935l.1.032.307-.966M8.8,24.395l.084.037a1.023,1.023,0,0,0,.243-.908l-.327.87M14.975,37.5l-.09.022a1.442,1.442,0,0,0,.2.868l.088-.02q-.1-.434-.2-.869m10.4-34.538-.185.528c.374-.082.4-.135.185-.528M47.24,12.117c.359-.4.364-.447.124-.686-.044.243-.084.465-.124.686M57.984,26.9l-.084-.024-.3.956.113.033q.136-.482.271-.965M38,9.025c-.263-.025-.389.058-.408.217-.009.074.106.162.222.324L38,9.025m-7.522,53.14-.2.513.08.079.335-.152-.218-.44m-10.2-21.305a.544.544,0,0,0-.057.629c.173-.233.245-.411.057-.629M19.061,10.493l.092.093c.1-.132.4-.068.3-.416l-.4.323m8.447,35.722a.62.62,0,0,0,.083-.675.617.617,0,0,0-.083.675m24-39.069c.18.291.18.291.454.347l-.454-.347M21.492,20.791l-.106-.057q-.111.324-.222.647l.073.026.255-.617m9.559-6.91-.095-.022-.2.442.145.065c.167-.107.113-.315.146-.485M20.533,42.068c.109-.224.3-.38.125-.665a.631.631,0,0,0-.125.665m13.4-27.3-.1-.015c-.134.236-.134.236.03.43.027-.166.047-.29.067-.415m-19.215-4.31c.2-.156.353-.333.244-.614l-.244.614m-.841,14.057a.708.708,0,0,0,.289-.705l-.289.705M20.965,9.987l.089.059c.219-.1.219-.1.124-.408l-.213.348m12.482,4.485c-.269.187-.269.187-.082.383.03-.139.057-.261.082-.383M28.408,41.412c.253.03.427-.047.439-.341l-.439.341M26.4,40.775l.132,0c0-.145.13-.3-.132-.494ZM38.151,12.707l.127.015a.443.443,0,0,0-.017-.511l-.11.5M26.425,1.11c-.01-.048-.021-.1-.032-.144-.082.022-.166.041-.245.07a.366.366,0,0,0,.023.108c.086-.005.17-.02.255-.033M56.135,47.9l-.1-.038-.145.389.094.035c.051-.129.1-.258.152-.387m-4.873-6.254.09.046.145-.425-.1-.036-.134.415M38.511,50.765l-.083-.039-.182.371.094.044q.086-.187.172-.376m-8.1-37-.128-.059a2.476,2.476,0,0,0-.091.231.4.4,0,0,0,.1.05c.045-.071.082-.147.121-.222M34.323,1.1c-.17.13-.17.13-.079.391l.079-.391M47.028,11.123c.068.042.116.093.146.085a.155.155,0,0,0,.1-.107c0-.036-.065-.106-.1-.1s-.08.062-.15.125M26.182,16.57l-.1-.018q-.032.166-.064.331l.106.019q.03-.166.059-.333M4.253,23.432l.069.007c.018-.115.037-.229.055-.344l-.09-.01-.034.347m20.825-13,.122.019v-.237l-.06-.006-.062.224M23.519,9.091l.1.046c.02-.061.041-.121.057-.182a.213.213,0,0,0-.066-.029c-.032.053-.059.11-.087.165m-.9,27.769-.059-.038L22.479,37l.045.024.1-.16M26.4,1.4l-.07.135c.025.012.065.039.071.033a1.071,1.071,0,0,0,.1-.122L26.4,1.4m-3.3,10.164.03.008.066-.18-.058-.018c-.012.064-.025.127-.038.19m28.621,28.9.09.015c0-.051.005-.1.006-.151,0,0-.034-.008-.037,0-.022.046-.04.093-.06.14M38.234,51.454l-.065-.015c-.017.074-.034.147-.051.221l.068.015.048-.221" transform="translate(0 0)"/>
        <path id="Path_9255" data-name="Path 9255" d="M100.914,41.116a2.886,2.886,0,0,1,.606,1.857,4.471,4.471,0,0,0,.243,2.135,2.674,2.674,0,0,1-.052,1.186,1.675,1.675,0,0,1-.515.962c-.313.321-.534.33-.926.071a2.178,2.178,0,0,0-.406-.163.767.767,0,0,1-.279-1.342,1.05,1.05,0,0,0,.248-.41c.1-.341.148-.7.241-1.038a1.575,1.575,0,0,0-.118-1.038,2.087,2.087,0,0,1,.161-1.789c.157-.311.483-.3.8-.431m.121,3.45a4.189,4.189,0,0,0-.545,1.3,1.182,1.182,0,0,0-.123.776c.248-.34.148-.807.6-1.036-.073.276-.134.484-.181.695s-.18.431-.042.671c.673-.445.782-1.355.294-2.405m-.409-.027a2.248,2.248,0,0,0,.362-1.532,3.532,3.532,0,0,0-.362,1.532m.12-1.912a.81.81,0,0,0-.236.524l.1.025q.066-.275.133-.55m-.726,3.695-.06-.026c-.033.038-.088.072-.095.114a.47.47,0,0,0,.037.166l.073-.005c.015-.082.03-.165.045-.248m.552-4.419-.063-.019c-.027.082-.055.164-.083.245l.074.023c.024-.083.048-.166.072-.249" transform="translate(-45.842 -18.982)"/>
        <path id="Path_9256" data-name="Path 9256" d="M31.348,11.282c.018-.069.045-.114.038-.152a.686.686,0,0,1,.134-.662,1.547,1.547,0,0,1,.945-.533c.308-.043.628.222.424.558a2.846,2.846,0,0,1-.584.761,2.232,2.232,0,0,1-.756.229c.017.2.223.318.411.408.215.1.367-.059.474-.227a1.4,1.4,0,0,1,.988-.616c.564-.1.8.152.738.716a1.1,1.1,0,0,1-.7.938,8.927,8.927,0,0,0-1.644.942.585.585,0,0,1-.695-.068c-.074-.072-.137-.156-.229-.263-.35.294-.605-.014-.882-.163a.373.373,0,0,1-.179-.285c.032-.262-.151-.381-.32-.538.076-.1.141-.172.2-.252a5.332,5.332,0,0,0,.384-.539.66.66,0,0,1,.835-.389c.138.034.272.089.415.136m1.3,1.281a2.182,2.182,0,0,0,.886-1.012c-.535-.058-.791.24-.886,1.012m-.882.609c.352-.2.385-.552.587-.86-.48.116-.615.321-.587.86m-.685-1.432a4.606,4.606,0,0,1-.185.454c-.069.124-.142.237-.051.394.327-.363.379-.523.236-.847m1.4-1.23-.1-.079-.46.53c.322-.073.514-.182.555-.451m-1.138,2.173a.293.293,0,0,0,.258-.319c0-.031-.082-.062-.127-.094-.055.109-.112.217-.165.328,0,.008.009.025.034.085" transform="translate(-13.625 -4.584)"/>
        <path id="Path_9257" data-name="Path 9257" d="M44.007,12.021c-.092.052-.139.081-.188.108-.287.157-.318.146-.453-.148-.029-.064-.057-.145-.111-.177-.158-.1-.32-.2-.311-.4a3.037,3.037,0,0,1,.116-.694,4.868,4.868,0,0,1,.247-.568.45.45,0,0,1,.508-.34c.288.008.35.08.483.365a3.663,3.663,0,0,0,.435.7.473.473,0,0,0,.483.149,1.081,1.081,0,0,1,.523.033,2.169,2.169,0,0,0,1.226.024,2.324,2.324,0,0,1,1.316-.027c.21.073.39.164.424.4a.558.558,0,0,1-.277.521,1.211,1.211,0,0,1-.665.209,6.673,6.673,0,0,0-.823.156,5.673,5.673,0,0,1-1.661.25,2.661,2.661,0,0,0-.568.069c-.3.052-.388,0-.516-.279-.052-.114-.116-.223-.186-.356m.706-.073-.025.083c.02.034.039.1.061.1a7.069,7.069,0,0,0,1.309.03c.64-.094,1.267-.279,1.9-.436a1.471,1.471,0,0,0,.31-.179,1.048,1.048,0,0,0-.789-.167c-.38.06-.759.125-1.135.2a2.1,2.1,0,0,0-.324.127c-.417.159-.8.5-1.3.245m-.788-.548c.314-.166.32-.186.139-.48a.332.332,0,0,0-.139.48m-.242-.364L43.6,10.97c-.122.067-.279.114-.139.4l.222-.334m1.528.588.024.091c.185.012.187.014.279-.073.01-.009-.011-.051-.031-.127l-.272.109m-.471-.064c-.044-.041-.085-.095-.1-.088a.213.213,0,0,0-.115.1c-.009.025.052.074.081.112l.134-.122m-.907-1.119-.076-.017c-.012.083-.025.167-.038.251l.052.011.062-.245" transform="translate(-19.825 -4.525)"/>
        <path id="Path_9258" data-name="Path 9258" d="M65.911,107.008a5.911,5.911,0,0,0,.977-.053c.709-.154,1.408-.354,2.11-.539.488-.129.984-.235,1.457-.407.752-.273,1.491-.582,2.228-.894.928-.394,1.854-.794,2.771-1.213a22.4,22.4,0,0,0,2.7-1.545c1.166-.744,2.231-1.617,3.315-2.467.443-.347.845-.746,1.267-1.119.081-.072.172-.13.259-.195l.066.074c-.353.369-.7.747-1.062,1.1a10.609,10.609,0,0,1-1.05.957A30.5,30.5,0,0,1,77.776,103c-.746.422-1.478.869-2.234,1.273-.4.215-.843.357-1.263.539-.2.087-.4.2-.6.284-.613.265-1.221.544-1.844.78-.5.188-1.014.32-1.52.483-.423.136-.839.293-1.265.417-.627.181-1.257.357-1.893.5a4.535,4.535,0,0,1-.926.075.294.294,0,0,1-.322-.346" transform="translate(-30.428 -45.508)"/>
        <path id="Path_9259" data-name="Path 9259" d="M91.054,32c-.515-.055-.957-.1-1.4-.15a.465.465,0,0,1-.437-.433c-.048-.32-.08-.644-.125-.965a1.277,1.277,0,0,0-.084-.342.76.76,0,0,1,.224-1.04.8.8,0,0,1,1.164.207,1.181,1.181,0,0,0,1.273.86c.353,0,.526.206.6.55a1.211,1.211,0,0,1-.065.783.673.673,0,0,1-.561.444c-.221.026-.44.064-.589.086m.181-1.352c-.139-.1-.269-.083-.343.05a2.674,2.674,0,0,0-.238.563c-.02.071.059.17.093.255.079-.043.2-.068.228-.133.1-.237.176-.488.26-.735m.471.017c-.164.241-.4.419-.331.752.482-.048.564-.23.331-.752m-1.2.036-.09-.064-.229.409.093.051.227-.4m-.838-.552.085.039a.362.362,0,0,0,.107-.4l-.192.358" transform="translate(-41.04 -13.345)"/>
        <path id="Path_9260" data-name="Path 9260" d="M11.624,91.222c.346.4.668.825,1.041,1.2C13.7,93.463,14.7,94.53,15.831,95.48c.657.553,1.351,1.053,2.016,1.592.092.074.195.134.291.2.383.278.784.535,1.145.84a16.861,16.861,0,0,0,2.659,1.768c.838.472,1.65.995,2.511,1.42a18.441,18.441,0,0,0,2.945,1.344c.74.216,1.476.441,2.263.677a5.429,5.429,0,0,1-1.424-.254,23.1,23.1,0,0,1-5.614-2.442c-.574-.34-1.168-.649-1.72-1.021-.712-.481-1.393-1.008-2.083-1.521-.715-.53-1.429-1.062-2.136-1.6a22.734,22.734,0,0,1-3.2-2.884,21.953,21.953,0,0,1-1.763-2c-.071-.1-.136-.207-.2-.31l.108-.068" transform="translate(-5.316 -42.113)"/>
        <path id="Path_9261" data-name="Path 9261" d="M50.512,6.445c.028-.174.046-.352.087-.523a3.06,3.06,0,0,0,.1-1.4c-.074-.332.03-.46.362-.541a.957.957,0,0,1,.394-.024c.349.066.7.143,1.037.243.307.09.4.219.321.531a1.667,1.667,0,0,0,.057,1.125.5.5,0,0,1-.061.413,2.17,2.17,0,0,1-.466.463c-.186.144-.415.236-.6.385a.757.757,0,0,1-1.239-.67m.725-1.119c.281-.171.212-.556.608-.684l-.365.765a1.2,1.2,0,0,0,.552-.837.442.442,0,0,0-.1-.083c-.46-.2-.707-.041-.7.447,0,.117,0,.235,0,.392m.5,1.222c-.191,0-.347.045-.423-.013s-.064-.219-.092-.341c-.345.3-.328.413.134.747l.381-.392m-.089-.626c.519-.405.57-.515.458-.921l-.458.921m.465.31c.268-.008.388-.111.3-.453l-.3.453" transform="translate(-23.317 -1.821)"/>
        <path id="Path_9262" data-name="Path 9262" d="M12.752,17.988a1.45,1.45,0,0,1,.111-.229c.468-.629.908-1.283,1.42-1.874a20.751,20.751,0,0,1,1.576-1.57c.434-.4.95-.727,1.344-1.163A25.625,25.625,0,0,1,19.5,10.985a12.151,12.151,0,0,1,1.623-1.163C22,9.286,22.914,8.8,23.835,8.329c-.212.343-.6.448-.9.672-.319.24-.665.443-.995.67-.4.277-.8.555-1.2.844-.359.263-.713.531-1.056.814a26.864,26.864,0,0,0-2.328,2.108c-.583.608-1.258,1.128-1.866,1.713a11.649,11.649,0,0,0-1.761,1.936c-.154.234-.272.493-.418.733s-.261.284-.567.169" transform="translate(-5.887 -3.845)"/>
        <path id="Path_9263" data-name="Path 9263" d="M97.616,48.659a.8.8,0,0,1-.366-.945,7.226,7.226,0,0,1,.18-.817.718.718,0,0,1,.661-.507.394.394,0,0,1,.52.392,1.516,1.516,0,0,1-.686,1.645,2.55,2.55,0,0,0-.308.232" transform="translate(-44.886 -21.412)"/>
        <path id="Path_9264" data-name="Path 9264" d="M40.507,11.56c.331.054.431.115.489.339a.6.6,0,0,1-.258.689,1.227,1.227,0,0,1-1.108-.024.385.385,0,0,1,.006-.714,8.869,8.869,0,0,1,.87-.29" transform="translate(-18.186 -5.337)"/>
        <path id="Path_9265" data-name="Path 9265" d="M46.885,9.671c0-.278.471-.616.842-.6a.849.849,0,0,1,.548.621.92.92,0,0,1-.8.752q-.581-.01-.587-.771m.861.127c-.25-.1-.25-.1-.293.162l.293-.162" transform="translate(-21.645 -4.187)"/>
        <path id="Path_9266" data-name="Path 9266" d="M56.268,77.87A1.155,1.155,0,0,1,55.2,78.877a.37.37,0,0,1-.369-.412,1.174,1.174,0,0,1,.68-.977c.392-.177.746.008.754.382m-.914.465c.338.009.345,0,.429-.367a.439.439,0,0,0-.429.367" transform="translate(-25.312 -35.742)"/>
        <path id="Path_9267" data-name="Path 9267" d="M40,7.881a.735.735,0,0,1-.2.615.492.492,0,0,1-.769-.03.684.684,0,0,1,.186-1.148c.437-.245.755-.069.781.432,0,.044,0,.089,0,.131m-.589.394a.406.406,0,0,0,.1-.593c-.138.205-.241.338-.1.593" transform="translate(-17.912 -3.328)"/>
        <path id="Path_9268" data-name="Path 9268" d="M43.424,110.841a26.1,26.1,0,0,1-6.1-1.8,1.059,1.059,0,0,1,.278,0c.616.211,1.224.448,1.846.642.848.264,1.7.507,2.563.735a3.847,3.847,0,0,0,.79.073.662.662,0,0,1,.622.344" transform="translate(-17.231 -50.337)"/>
        <path id="Path_9269" data-name="Path 9269" d="M96.911,93.879c.095.234-.033.335-.154.446-.532.49-1.058.987-1.592,1.476-.327.3-.663.588-1,.879a.158.158,0,0,1-.182.013l2.924-2.813" transform="translate(-43.39 -43.34)"/>
        <path id="Path_9270" data-name="Path 9270" d="M29.339,64.451a2.732,2.732,0,0,1,.038-.359,14.177,14.177,0,0,1,.826-2.3c.652-1.524,1.265-3.065,1.895-4.6.01-.025.033-.045.1-.053-.086.263-.156.532-.259.788-.547,1.36-1.107,2.715-1.654,4.075-.177.439-.338.886-.494,1.332a.824.824,0,0,0-.035.349c.045.424.032.471-.417.763" transform="translate(-13.545 -26.381)"/>
        <path id="Path_9271" data-name="Path 9271" d="M39.443,46.821c.122-.31.249-.617.367-.929q.762-2.017,1.524-4.035c.054-.143.1-.313.386-.327-.875,1.749-1.382,3.6-2.276,5.291" transform="translate(-18.209 -19.173)"/>
        <path id="Path_9272" data-name="Path 9272" d="M37.858,60.663l-.126.443-.079-.034.215-.4-.01-.011" transform="translate(-17.383 -28.006)"/>
        <path id="Path_9273" data-name="Path 9273" d="M30.845,57.92l.235-.371-.235.371" transform="translate(-14.24 -26.568)"/>
        <path id="Path_9274" data-name="Path 9274" d="M21.342,45.671a3.6,3.6,0,0,1-.119-.831,3.291,3.291,0,0,1,.249-.985c.486-1.131,1.005-2.248,1.5-3.375.353-.8.683-1.611,1.04-2.411.2-.459.443-.9.662-1.355.361-.748.731-1.492,1.076-2.248.493-1.079.978-2.162,1.444-3.253.449-1.051.868-2.115,1.3-3.173.064-.156.088-.356.347-.339.088.188-.03.325-.093.464-.318.7-.68,1.386-.957,2.1-.594,1.538-1.348,3-2.012,4.508-.412.935-.943,1.817-1.284,2.786a.78.78,0,0,0-.058.419,1.058,1.058,0,0,1-.125.5q-.426,1.072-.869,2.139c-.342.82-.713,1.63-1.038,2.458-.255.647-.46,1.314-.685,1.972-.079.23-.074.508-.38.62m.146-1.26.093.033a1.773,1.773,0,0,0,.1-.177q.586-1.319,1.169-2.642c.1-.23.2-.462.31-.69A11.655,11.655,0,0,0,23.913,39a.888.888,0,0,0,0-.221,1.068,1.068,0,0,0-.248.375c-.3.724-.6,1.451-.909,2.173-.363.844-.742,1.68-1.1,2.524a4.807,4.807,0,0,0-.166.561" transform="translate(-9.796 -12.788)"/>
        <path id="Path_9275" data-name="Path 9275" d="M28.035,38.98a8.206,8.206,0,0,1-.279.924c-.227.528-.49,1.04-.744,1.556-.026.054-.092.089-.207.088.168-.369.328-.742.506-1.106.238-.488.489-.968.734-1.452l-.01-.009" transform="translate(-12.375 -17.995)"/>
        <path id="Path_9276" data-name="Path 9276" d="M104.881,68.848c.042-.2.073-.4.128-.6q.436-1.538.883-3.071c.051-.176.062-.381.332-.471a1.579,1.579,0,0,1-.027.277c-.185.606-.36,1.217-.567,1.815-.236.683-.5,1.356-.756,2.034l.007.011" transform="translate(-48.416 -29.874)"/>
        <path id="Path_9277" data-name="Path 9277" d="M40.584,56.028a2.25,2.25,0,0,1,.069-.32q.321-.875.656-1.746c.031-.081.078-.187.146-.216.328-.143.316-.458.415-.728.306-.836.638-1.661.956-2.493q.707-1.851,1.408-3.7c.1-.272.094-.275.348-.431-.052.192-.081.328-.125.459-.571,1.688-1.318,3.306-1.969,4.962-.195.5-.354,1.006-.523,1.512-.046.139-.066.265-.233.346a.707.707,0,0,0-.286.359c-.253.616-.486,1.242-.727,1.863a1.392,1.392,0,0,1-.08.151l-.053-.016" transform="translate(-18.736 -21.417)"/>
        <path id="Path_9278" data-name="Path 9278" d="M36.573,40.389a.869.869,0,0,1,.033.2.2.2,0,0,1-.107.14c.027-.11.055-.221.081-.334l-.008-.009" transform="translate(-16.85 -18.646)"/>
        <path id="Path_9279" data-name="Path 9279" d="M37.453,24.124a5.407,5.407,0,0,1,.329-.671,1.414,1.414,0,0,1,1.024-.127.377.377,0,0,1,.185.418,1.32,1.32,0,0,1-1,1.016c-.32.037-.536-.164-.535-.637m.648.186c.263-.165.446-.282.378-.59-.333.064-.327.3-.378.59" transform="translate(-17.29 -10.749)"/>
        <path id="Path_9280" data-name="Path 9280" d="M112.544,73.45c-.111.349-.2.708-.339,1.047-.3.749-.629,1.489-.951,2.231a1.4,1.4,0,0,1-.145.218,2.472,2.472,0,0,1,.093-.426q.547-1.351,1.113-2.694a2.8,2.8,0,0,1,.229-.376" transform="translate(-51.294 -33.909)"/>
        <path id="Path_9281" data-name="Path 9281" d="M74.747,94.768q-.674,1.864-1.352,3.726c-.009.025-.073.03-.177.067a8.208,8.208,0,0,1,.668-1.971,7.576,7.576,0,0,1,.861-1.822" transform="translate(-33.802 -43.75)"/>
        <path id="Path_9282" data-name="Path 9282" d="M48.487,25.659l.368-.91-.368.91" transform="translate(-22.384 -11.426)"/>
      </g>
    </g>
  </g>
</svg>
