<svg xmlns="http://www.w3.org/2000/svg" xmlns:xlink="http://www.w3.org/1999/xlink" width="99" height="99" viewBox="0 0 99 99">
  <defs>
    <clipPath id="clip-path">
      <rect id="Rectangle_151" data-name="Rectangle 151" width="74.377" height="53.048" fill="none"/>
    </clipPath>
  </defs>
  <g id="Group_822" data-name="Group 822" transform="translate(-1294 -823.5)">
    <circle id="Ellipse_5" data-name="Ellipse 5" cx="49.5" cy="49.5" r="49.5" transform="translate(1294 823.5)" fill="#fbad18"/>
    <g id="Group_729" data-name="Group 729" transform="translate(1305.883 846.5)">
      <g id="Group_272" data-name="Group 272" transform="translate(0 0)" clip-path="url(#clip-path)">
        <path id="Path_7870" data-name="Path 7870" d="M14.68,1.452C19.772.849,25.1,1.086,30.417.807,35.613.536,40.82.5,46.022.343,51.191.19,56.358-.241,61.533.178a4.752,4.752,0,0,1,4.2,2.7q3,5.605,5.619,11.383a53.863,53.863,0,0,1,2.789,6.984,4.6,4.6,0,0,1-.5,3.984,27.067,27.067,0,0,0-3.592,8.538,86.969,86.969,0,0,1-3.859,12.55,9.621,9.621,0,0,1-1.468,2.922c-1.22,1.362-2.869,1.345-4.478,1.491-2.805.253-5.628.152-8.433.494-2.044.249-4.113.281-6.17.428-5.144.369-10.284.819-15.433,1.1-3.83.208-7.672.191-11.508.292a9.9,9.9,0,0,1-5.434-1.1,5.151,5.151,0,0,1-2.23-3.019C9.9,45.76,8.888,42.548,7.582,39.461c-1.159-2.738-1.721-5.686-3.108-8.328-.082-.156-.155-.36-.292-.438-5.816-3.318-4.6-10.357-2.137-15.261.841-1.675,1.593-3.4,2.269-5.149a46.517,46.517,0,0,1,3.64-6.568,3.51,3.51,0,0,1,2.233-1.538,11.555,11.555,0,0,1,4.492-.726M67.141,36.514c.841-2.152,1.353-4.405,2.044-6.6.154-.49.014-.781-.6-.718-.919.095-1.843.166-2.766.194-4.2.124-8.4.217-12.6.346-4.615.142-9.232.5-13.842.413-4.065-.074-8.113.134-12.161.276-3.857.135-7.714.411-11.574.531-2.851.09-5.707.037-8.561.056-.474,0-1.031-.117-.716.748C8.417,37.4,10.417,43.065,12.49,48.7a4.14,4.14,0,0,0,3.488,3.039,27.374,27.374,0,0,0,4.645.19c6.151-.435,12.324-.279,18.473-.937,3.368-.36,6.773-.571,10.169-.736,2.542-.124,5.095-.22,7.615-.545,1.9-.243,3.849-.046,5.7-.721.481-.176.845-.459.895-.875a7.853,7.853,0,0,1,.7-1.787c1.17-3.222,2.113-6.518,2.984-9.836ZM18.792,2.282c-1.227-.038-2.443.236-3.652.224C11.6,2.471,9.259,4.17,7.6,7.189c-1.047,1.9-2.042,3.827-2.934,5.8a38.951,38.951,0,0,0-3.237,8.449C1.085,23.177,1.6,24,3.279,24.66c2.341.922,4.8.833,7.222.872,3.644.058,7.291-.134,10.935-.108,6.84.048,13.674-.236,20.5-.508,6.088-.244,12.186-.132,18.268-.613,3.428-.271,6.851-.582,10.267-.959,1.263-.14,1.6-.694,1.533-1.969-.14-2.7-1.355-5.062-2.513-7.388-1.641-3.3-3.283-6.592-4.831-9.93a4.407,4.407,0,0,0-4.018-2.774c-2.574-.159-5.151-.1-7.731-.023-5.912.182-11.828.251-17.74.424-5.461.16-10.92.4-16.379.6M69.776,27.695a7.561,7.561,0,0,0,1.346-.8c.413-.378,1.06-.851.877-1.4-.2-.6-.844-.032-1.292-.046-3.984-.128-7.965.053-11.947.184-6.6.216-13.2.464-19.807.679-2.288.075-4.577.083-6.865.145-1.433.038-1.768.624-1.234,2.009.107.277.2.411.528.426a26.552,26.552,0,0,0,3.652.066c.7-.063.809-.242.562-.868-.148-.376-.353-1,.2-1.127.723-.161.786.5.785,1.033,0,.346-.032.778.315.869a10.839,10.839,0,0,0,3.745.028c.592-.053.009-1.036.241-1.557a1.37,1.37,0,0,1,.077-.205c.13-.2.116-.564.5-.475.339.08.425.316.437.664.053,1.621.065,1.62,1.679,1.6.333,0,.667,0,1-.011,1.914-.047,1.928-.048,1.972-1.936.007-.289-.058-.561.313-.535.3.021.728-.009.76.466a1.692,1.692,0,0,1-.08.769c-.411.934.007,1.066.837,1.016,1.146-.069,2.3-.038,3.444-.048.806-.007,1.484-.092,1.3-1.218-.063-.382-.077-1.069.534-1.02.6.047.6.6.443,1.123-.2.659.049.981.761.952a18.619,18.619,0,0,1,2,0c1,.068,1.8-.013,1.561-1.365a2.057,2.057,0,0,1,.156-.866c.1-.325.365-.323.633-.253s.367.213.265.492a3.686,3.686,0,0,0-.209.746c-.1.746-.1,1.246,1,1.163a27.3,27.3,0,0,1,2.955-.159c1.074.035,1.787-.147,1.546-1.45a1.4,1.4,0,0,1,.084-.433c.04-.236.12-.441.407-.428a.464.464,0,0,1,.481.5c0,.326-.05.652-.08.978-.036.391.084.686.529.658a6.23,6.23,0,0,0,2.29-.265c.5-.233.322-.922.615-1.334.062-.088.066-.217.126-.306.176-.26.4-.475.735-.292a.483.483,0,0,1,.185.752,1.63,1.63,0,0,0-.365,1.079m-66.137.639c.2-.171.107-.314.046-.441-.2-.417-.1-.769.332-.886.472-.129.485.339.59.626a2.612,2.612,0,0,1,.328,1.159c-.2,1.183.573,1.036,1.264,1.033,1.765-.009,3.531-.048,5.3-.035,1.227.008,1.371-.168,1.012-1.451-.088-.317-.251-.641.027-.939a.4.4,0,0,1,.51-.072c.322.183.359.453.368.832.035,1.293.4,1.593,1.731,1.6.555,0,1.109,0,1.664,0,1.6-.009,1.6-.01,1.315-1.475-.029-.145-.079-.285-.11-.43-.041-.189-.045-.373.172-.464a.483.483,0,0,1,.516.1,1.109,1.109,0,0,1,.388.775c.112,1.12.753,1.4,1.812,1.329,2.761-.2,5.526-.322,8.29-.445.709-.031,1.112-.229.692-.959-.3-.52.209-1.249-.289-1.554s-1.142-.038-1.721.061a3.519,3.519,0,0,1-.554.007q-3.377.027-6.753.054c-5.7.048-11.418.618-17.074-.625a1.339,1.339,0,0,0-1.191.111,5.781,5.781,0,0,0,1.337,2.089" transform="translate(0 0)" fill="#221e1f" fill-rule="evenodd"/>
        <path id="Path_7871" data-name="Path 7871" d="M53.879,37.586c-5.947-.216-11.9.038-17.847-.111-3.854-.1-7.713.082-11.563.348-.321.022-.854.307-.92-.238-.058-.488.449-.626.871-.655,1.676-.115,3.35-.281,5.028-.3,4.141-.059,8.283-.072,12.425-.066,4.762.006,9.525.116,14.286.065,3.761-.04,7.521-.273,11.283-.385q4.474-.132,8.95-.16c.492,0,1.344-.216,1.41.414.049.458-.8.278-1.226.307-2.772.189-5.548.344-8.326.447-3.863.142-7.728.233-11.593.334-.926.024-1.852,0-2.779,0" transform="translate(-8.988 -13.758)" fill="#221e1f" fill-rule="evenodd"/>
        <path id="Path_7872" data-name="Path 7872" d="M69.2,7.692c-.31.4-.668.34-1.046.355-4.977.2-9.953.6-14.929.6-4.019,0-8.035.233-12.06.038a110.655,110.655,0,0,0-12.711.1c-1.2.079-2.408.042-3.613.028-.318,0-.778-.03-.747-.469.028-.391.462-.263.735-.275,8.5-.374,17.011-.179,25.516-.229,5.273-.031,10.534-.334,15.8-.592,1.006-.049,2.123-.372,3.054.443" transform="translate(-9.198 -2.727)" fill="#221e1f" fill-rule="evenodd"/>
        <path id="Path_7873" data-name="Path 7873" d="M11.648,26.979l-1.789.515,2.8.45a3.815,3.815,0,0,1-2.307.42c-.916-.014-1.829-.176-2.745-.247a2.347,2.347,0,0,1-1.975-3.29A45.04,45.04,0,0,1,8.8,18.512c.9-1.591,1.779-3.2,2.672-4.792A4.958,4.958,0,0,1,12,12.884c.172-.2.322-.582.7-.359.4.236.114.532-.013.762-.645,1.162-1.344,2.294-1.967,3.466-1.365,2.567-2.69,5.155-4.042,7.729a3.306,3.306,0,0,0-.242,1.612.858.858,0,0,0,1.029.894c1.174-.1,2.349-.182,3.523-.288.217-.019.433-.143.663.279" transform="translate(-2.08 -4.755)" fill="#221e1f" fill-rule="evenodd"/>
        <path id="Path_7874" data-name="Path 7874" d="M108.24,23.212c-.125.33.283.96-.472,1-.653.034-.535-.581-.55-.9a8.583,8.583,0,0,0-1.159-3.192c-1.474-3.175-3.1-6.277-4.677-9.406-.139-.278-.511-.556-.079-.844s.68.065.855.4c1.032,1.948,2.081,3.889,3.065,5.861.919,1.843,1.763,3.723,2.641,5.587a2.327,2.327,0,0,1,.376,1.5" transform="translate(-38.593 -3.725)" fill="#221e1f" fill-rule="evenodd"/>
        <path id="Path_7875" data-name="Path 7875" d="M28.783,15.721c1.79.239,3.545-.39,5.33-.02-3.905.294-7.772,1.105-11.716.868,1.8-1.02,3.788-.295,5.829-.7-.92-.751-1.807-.385-2.621-.318-.554.046-1.1.058-1.656.062-.2,0-.383-.067-.374-.3a.34.34,0,0,1,.4-.3c2.372.236,4.69-.475,7.051-.394.231.008.48.006.5.289.014.232-.236.224-.4.291a9.121,9.121,0,0,1-2.339.525" transform="translate(-8.549 -5.577)" fill="#221e1f" fill-rule="evenodd"/>
        <path id="Path_7876" data-name="Path 7876" d="M68.712,3.447a9.65,9.65,0,0,1-3.01.409c-3.485.292-6.977.483-10.467.712a3.062,3.062,0,0,1-.552.015c-.263-.033-.557-.127-.532-.444.028-.373.356-.287.607-.271a38.651,38.651,0,0,0,6.275-.048c2.382-.237,4.79-.155,7.152-.616a.434.434,0,0,1,.529.242" transform="translate(-20.67 -1.217)" fill="#221e1f" fill-rule="evenodd"/>
        <path id="Path_7877" data-name="Path 7877" d="M66.815,5.268H80.1l0,.367c-4.423.048-8.846-.082-13.267.18-.008-.182-.015-.365-.023-.547" transform="translate(-25.505 -2.011)" fill="#221e1f" fill-rule="evenodd"/>
        <path id="Path_7878" data-name="Path 7878" d="M103.933,29.486c-.514.093-.668-.738-1.185-.23-.095.093-.378-.182-.44-.4a12.709,12.709,0,0,0-1.235-2.812c-.109-.191-.227-.407-.041-.609.249-.271.484-.032.69.077a2.035,2.035,0,0,1,1.138,1.348,21.252,21.252,0,0,0,1.073,2.627" transform="translate(-38.529 -9.661)" fill="#221e1f" fill-rule="evenodd"/>
        <path id="Path_7879" data-name="Path 7879" d="M80.564,3.059a27.884,27.884,0,0,1,5.683.014c0,.1,0,.2.006.3H80.589c-.009-.106-.017-.211-.025-.317" transform="translate(-30.753 -1.109)" fill="#221e1f" fill-rule="evenodd"/>
        <path id="Path_7880" data-name="Path 7880" d="M60.2,67.617c-3.1.132-6.17.547-9.267.685-2.914.13-5.818.409-8.741.419-3.909.013-7.816.157-11.724.2a30.2,30.2,0,0,1-3.746-.187A5,5,0,0,1,22.2,64.486c-.548-2.516-1.495-4.939-1.74-7.528a15.2,15.2,0,0,0-.571-2.022c-.252-1.054.181-1.593,1.256-1.685,7.5-.64,15.011-.31,22.52-.3,2.882,0,5.766-.1,8.648-.2,3.834-.14,7.668-.3,11.5-.511,2.213-.121,4.421-.336,6.629-.537,1.237-.113,1.666.3,1.292,1.514-.674,2.187-1.546,4.317-2.129,6.527a25.851,25.851,0,0,1-2.056,5.467,3.3,3.3,0,0,1-2.939,1.979c-1.472.058-2.937.281-4.4.432M28.916,53.8a55.769,55.769,0,0,0-6.825.238c-1.156.084-1.34.584-1.119,1.546.652,2.83,1.18,5.7,1.983,8.481.406,1.4.971,2.949,2.686,3.419a12.734,12.734,0,0,0,3.726.5c2.327-.062,4.657-.133,6.983-.1a190.141,190.141,0,0,0,19.028-.768c2.8-.241,5.6-.454,8.4-.683a3.324,3.324,0,0,0,2.9-1.906c1.694-3.386,2.534-7.079,3.819-10.612.421-1.16.247-1.322-1-1.3a3.978,3.978,0,0,0-.549.046,92.929,92.929,0,0,1-11.13.822c-5.528.235-11.067.2-16.6.283-4.356.063-8.713-.219-12.308.033" transform="translate(-7.565 -19.727)" fill="#221e1f" fill-rule="evenodd"/>
        <path id="Path_7881" data-name="Path 7881" d="M16.506,63.728q-.371-1.368-.742-2.736c-.085-.313-.1-.616.281-.718.306-.083.5.108.555.4q.547,2.7,1.075,5.4c.007.038-.086.1-.134.147a17.847,17.847,0,0,1-3.4-7c-.393-1.386-.828-2.76-1.234-4.142-.1-.331-.4-.794.1-.954s.678.368.751.749a45.14,45.14,0,0,0,1.485,6,9,9,0,0,0,1.267,2.856" transform="translate(-4.856 -20.647)" fill="#221e1f" fill-rule="evenodd"/>
        <path id="Path_7882" data-name="Path 7882" d="M107.354,55.873a16.643,16.643,0,0,0-1.337,3.38,4.071,4.071,0,0,1-.676,1.506,26,26,0,0,1,1.489-9.466c.1-.326.216-.579.579-.513.428.077.489.436.4.778a3.708,3.708,0,0,1-.447,1.126,2.966,2.966,0,0,0-.02,3.212Z" transform="translate(-40.197 -19.379)" fill="#221e1f" fill-rule="evenodd"/>
        <path id="Path_7883" data-name="Path 7883" d="M12.478,45.778c-.14.228.037.725-.367.55-.735-.32-.735-1.095-.845-1.77-.047-.289.04-.606.364-.5.875.278.523,1.182.847,1.724" transform="translate(-4.296 -16.809)" fill="#221e1f" fill-rule="evenodd"/>
        <path id="Path_7884" data-name="Path 7884" d="M38.755,45.154c-.069.278-.148.632-.454.53-.582-.195-.478-.833-.645-1.287a.309.309,0,0,1,.33-.44c.67.122.473.83.769,1.2" transform="translate(-14.365 -16.777)" fill="#221e1f" fill-rule="evenodd"/>
      </g>
    </g>
  </g>
</svg>
