<svg xmlns="http://www.w3.org/2000/svg" xmlns:xlink="http://www.w3.org/1999/xlink" width="99" height="99" viewBox="0 0 99 99">
  <defs>
    <clipPath id="clip-path">
      <rect id="Rectangle_399" data-name="Rectangle 399" width="36.333" height="48.912" fill="none"/>
    </clipPath>
  </defs>
  <g id="Group_843" data-name="Group 843" transform="translate(-861 -412)">
    <circle id="Ellipse_5" data-name="Ellipse 5" cx="49.5" cy="49.5" r="49.5" transform="translate(861 412)" fill="#fbad18"/>
    <g id="Group_838" data-name="Group 838" transform="translate(892 437)">
      <g id="Group_837" data-name="Group 837" clip-path="url(#clip-path)">
        <path id="Path_11708" data-name="Path 11708" d="M34.736,48.352a1.859,1.859,0,0,0,.553-2.612c2.2-1.643.381-5.352-.557-7.221-.691-1.377-1.633-2.67-2.451-3.969a8.336,8.336,0,0,0-1.5-2.282c-.047-.033-1.973-.947-1.717-.342a41.8,41.8,0,0,0,2.752,4.858c.722,1.2,1.693,2.27,2.354,3.51.282.528.89,1.123.845,1.769-.014.2-.584,1.9-.858,1.495a85.054,85.054,0,0,1-5.8-10.577,2.326,2.326,0,0,0-4-.743c-1.667,1.552-1.437,3.632-4.4,2.219a12.09,12.09,0,0,1-4.217-4.247c-2.091-3.1-6-8.146-5.216-12.11.417-2.116,2.793-1.634,4.306-2.114,1.739-.545,1.1-1.327.96-2.78-.021-.206.729-1.359.79-1.83a5.446,5.446,0,0,0-.325-2.085A15.951,15.951,0,0,0,13.9,4.817C13.649,4.458,10.6.1,10.134,1.117c-.664,1.431,2.08,3.55,2.807,4.5,1.187,1.558,2.705,3.706,2.53,5.759-2.3-1.733-3.7-4.42-5.124-6.86-1.013-1.743-1.628-6-4.486-3.991-6.874,4.846-7.17,12.887-3.628,19.665a159.672,159.672,0,0,0,8.4,14.969c1.776,2.662,3.951,5.032,5.833,7.593,1.966,2.672,4.42,4.946,7.682,5.823a13.315,13.315,0,0,0,9.31-1.417c.081,1.245.719,1.486,1.279,1.191M13.607,10.267c-1.046-.758-1.9-2.351-2.8-3.728a24.639,24.639,0,0,1,2.8,3.728M26.5,46.667c-6.366-.185-11.038-7.063-14.247-11.775-1.385-2.035-2.161-4.325-3.472-5.808.639,1.824,1.715,3.06,2.5,5.007-.91-1.147-2.036-2.669-3.009-4.065a19.217,19.217,0,0,1-2.039-4.516,26.552,26.552,0,0,0-1.576-2.772A24.081,24.081,0,0,1,2.7,16.6c2.246,4.219,3.342,7.578,5.865,12.14C7.5,25.44,5.649,22.322,4.361,19c-1.181-3.045-2.94-6.562-2.578-9.918C2.061,6.5,4.731,2.736,7.2,1.8c.91,1.383,8.647,11.128,6.841,12.422-2.325,1.66-5.143-.729-5.741,2.745-.35,2.027,1.416,5.017,2.283,6.734,1.789,3.553,4.155,8.525,7.244,11.17.934.8,3.169,2.655,4.53,2.391,1.557-.3,2.445-3.007,4.141-3.606A41.479,41.479,0,0,1,31,40.408c1.773,3.067,2.059,4.925-1.832,5.944a9.433,9.433,0,0,1-2.671.314" transform="translate(0 0)" fill="#092c3c"/>
      </g>
    </g>
  </g>
</svg>
