<svg xmlns="http://www.w3.org/2000/svg" xmlns:xlink="http://www.w3.org/1999/xlink" width="99" height="99" viewBox="0 0 99 99">
  <defs>
    <clipPath id="clip-path">
      <rect id="Rectangle_398" data-name="Rectangle 398" width="42.122" height="47.701" fill="none"/>
    </clipPath>
  </defs>
  <g id="Group_842" data-name="Group 842" transform="translate(-860.805 -285)">
    <circle id="Ellipse_5" data-name="Ellipse 5" cx="49.5" cy="49.5" r="49.5" transform="translate(860.805 285)" fill="#fbad18"/>
    <g id="Group_836" data-name="Group 836" transform="translate(889.242 305.533)">
      <g id="Group_835" data-name="Group 835" clip-path="url(#clip-path)">
        <path id="Path_11707" data-name="Path 11707" d="M14.7,15.856c.214.124.3.444.5.62.372.331.981-.13,1.4-.222a1.236,1.236,0,0,1,1.012.02c.267.147.39.261.7.231s.626-.163.927-.212a20.656,20.656,0,0,1,2.268-.229c.774-.043,1.55-.065,2.324-.118.525-.036,1.038-.159,1.56-.222.49-.059.644.141,1.09.247.161.038,2.413.165,2.32.36.139-.29.478-.382.429-.86-.932.031-1.865.031-2.8.035-1.638.005-3.284-.035-4.919.066-.8.05-1.6.088-2.4.178-.269.03-.639.222-.9.152-.2-.052-.289-.291-.477-.352a1.73,1.73,0,0,0-.733-.012,1.534,1.534,0,0,0-.674.218c-.217.136-.381.383-.662.408-.317.028-.291-.144-.422-.383-.331-.606-1.02-.388-1.59-.31a.688.688,0,0,0-1.289,0,.677.677,0,0,0,.589.9c.654.138.88-.441,1.453-.554a.414.414,0,0,1,.3.04m-2.023,5.093a19.217,19.217,0,0,1,3.091,0c.616.014,1.232.02,1.847-.019a3.878,3.878,0,0,0,.821-.08c.457-.139.771-.592,1.253-.253.415.292.47.466,1.053.43a38.989,38.989,0,0,1,4.115.048c.45.019.9.009,1.346,0,.393-.008.554-.215.92-.308.418-.107.572.363.9.486.692.255.531-.726-.023-.834a9.652,9.652,0,0,0-1.931.161c-.878.015-1.757-.018-2.633-.082a14.593,14.593,0,0,0-2.572-.087c-.3.034-.455.128-.714-.035-.153-.1-.242-.4-.494-.284a5.3,5.3,0,0,1-2.906.157,3.426,3.426,0,0,0-1.4.021c-.387.14-.626.49-1.016.1-.151-.153-.179-.317-.4-.407-.066-.026-.629-.08-.616.027-.108-.857-.629-.763-1.074-.43,0,.611-.067,1.283.429,1.395m16.116-.536c.03.47.188.815.752.75v-.857c-.339-.054-.379.193-.752.107M20.2,25.074a.609.609,0,0,1-.28-.037c-.359-.183-.573-.553-.975-.681a1.651,1.651,0,0,0-2.078.891c.574.305.893-.235,1.4-.322.786.126,2.088,1.026,2.794.213-.064-.187-.522-.076-.859-.065m4.567-.159a1.114,1.114,0,0,0-.19-.081,4.54,4.54,0,0,0-2.767.414c.32.039.839.149,1.04.165a6.018,6.018,0,0,0,1.331-.033c.345-.051.954-.251.586-.465m1.492.291a.363.363,0,0,0,.171.09c.356.1.737-.509.3-.583-.235-.04-.648.3-.471.493M15.148,46.951v.214c.222-.063.747.174.645-.214Zm2.148.214c-.51-.226-.995-.059-1.4-.214.161.425,1.1.442,1.4.214M41.8,18.6a3.7,3.7,0,0,0-.139-1.932,7.909,7.909,0,0,0-1.96-1.913c-.825-.694-1.721-1.3-2.543-2-.617-.523-1.228-1.054-1.843-1.578-.2-.168-1.692-1.184-1.683-1.4a1.922,1.922,0,0,0-.215-1.29c-.509-.044-.739.192-1.289.106C28.223,5.8,24.718,2.605,20.628,0,17,3.322,12.835,6.1,9.026,9.24c-.311-.029-.762,0-1.089-.063,0,.338,0,.609.013.923C5.967,12.235,3.319,13.7,1.5,16.009c-.006.3.467.294.215.537C.282,26.08,2.352,37.483.966,46.2c.542.215,1.093-.24,1.183.428C1.726,46.9.161,45.982,0,46.951a2.605,2.605,0,0,1,1.827.75,2.947,2.947,0,0,0,.967-.428c4.27.26,7.692-.465,11.281-.109.342-.13-.072-.4.429-.429a42.1,42.1,0,0,1,4.835.109,4.721,4.721,0,0,1-1.933.214c.683.472,1.5.2,2.47.215,1.792.024,3.559-.47,5.373-.538,1.748-.065,3.668.145,5.479.216,1.241.048,2.518.338,3.761.322,1.282-.018,2.535-.367,3.76-.322a21.155,21.155,0,0,0,2.319.221c.5-.037,1.651-.593,1.549-1.3a56.278,56.278,0,0,1-.515-6.032c-.145-3.932-.017-7.868.067-11.8.044-2.07.081-4.141.073-6.212,0-.948-.067-1.913.018-2.852.011-.123.025-.251.039-.382M1.719,24.817a17.664,17.664,0,0,1,0-4.189c.324,1.531-.1,2.63,0,4.189M40.5,21.7c.356.038.169.62.215.968-.356-.039-.169-.619-.215-.968M20.144,1.688a3.713,3.713,0,0,1,.509-.327,28.986,28.986,0,0,1,2.683,1.688c.816.578,1.633,1.18,2.474,1.734Q27.655,6,29.438,7.3a4.817,4.817,0,0,1,1.5,1.4c-1.69-.235-3.769.387-5.157.538a24.8,24.8,0,0,1-3.115-.215c-1-.029-2.066.139-3.009.109-1.905-.062-3.805-.356-5.714-.257a27.647,27.647,0,0,1-4.063.257c.205.018,1.087-.872,1.288-1.02.438-.324.887-.632,1.341-.932.935-.621,1.894-1.2,2.842-1.8.973-.617,1.935-1.25,2.85-1.949.643-.491,1.261-1.23,1.939-1.741m8.328,8.3a15.471,15.471,0,0,1-6.124,0c2.1-.353,4.423.143,6.124,0m-7.412.322c-.082.243-.6.043-.862.108.08-.241.6-.04.862-.108M17.835,9.99c-.629.206-1.912-.176-2.363,0,.4-.62,1.928.143,2.363,0m-7.629,8.917c-.549-1.41-.065-3.87-.107-5.477a54.609,54.609,0,0,1,.107,5.477M3.868,15.939q-.132-.143-.258-.3A18.174,18.174,0,0,0,5.634,13.8,5.285,5.285,0,0,0,6.641,12.68a6.191,6.191,0,0,1,.37-.935c.084-.121.839-.7.833-.786.115,1.643.187,3.29.268,4.937.041.832.01,1.69.076,2.516.052.651.368.836.883,1.192a4.013,4.013,0,0,1,.91.655c.049.063.417.75.333.8.892-.5.213-1.84.215-2.9A65.123,65.123,0,0,1,10.609,11a20.8,20.8,0,0,0,2.756.028,18.188,18.188,0,0,0,2.33-.169,8.013,8.013,0,0,1,2.571-.011c2.512.143,5.257-.1,7.735-.108,1.283,0,2.558.161,3.84.166,1.059,0,2.055-.306,3.093-.352.789-.036,1.209.665,1.706,1.152.554.541,1.145,1.042,1.731,1.546a16.517,16.517,0,0,1,3.167,3.291c-2.05,1.209-3.816,2.7-5.91,3.867.018-3.4-.181-5.671-.107-9.562a7.194,7.194,0,0,0-.967.215c0,2.885,0,5.825,0,8.38a10.8,10.8,0,0,1,.108,1.612c-.18.6-2.488,2.355-3.009,2.794-.561.473-1.112.9-1.612,1.287-.82.641-1.695,1.224-2.579,1.936-1.181.95-2.7,2.071-4.082,3.009-4.348-4.076-9.5-7.152-14.056-10.973-.559-.468-1.072-.953-1.594-1.464-.626-.612-1.279-1.068-1.863-1.709M35.778,20.2c-.035.249-.333.239-.43.428-.269-.137.112-.521.43-.428m-.753.535c-.022,0-.429.469-.495.522-.183.151-.452.41-.7.215-.115-.093.989-.751,1.19-.737M2.3,34.164c-.026-1.023-.039-2.046.021-3.062.128-2.173.031-4.349.006-6.523-.013-1.148.058-2.294.132-3.439a15.327,15.327,0,0,1,.176-2.672,7.181,7.181,0,0,1,2.416,1.339q1.47,1.053,2.968,2.067,3.157,2.143,6.326,4.265c.627.42,1.258.835,1.883,1.258-1.1-1.262-2.813-1.915-3.762-3.332,2.764,1.751,5.613,4.344,8.382,6.449-.12-.091-4.6,3.58-5.033,3.92-1.556,1.209-3.111,2.175-4.761,3.235-1.065.684-2.082,1.439-3.081,2.214-.976.758-1.932,1.541-2.9,2.306-.312.245-2.279,1.677-2.809,2.076a63.267,63.267,0,0,1,.085-6.588c.031-1.168-.014-2.34-.043-3.512m.818,12.463v-.213a4.713,4.713,0,0,1,3.438.213c-.935-.136-2.527.125-3.438,0m29.224-7.411c1.181.945,2.622,1.821,2.9,3.008a15.523,15.523,0,0,1,4.081,3.652c-11.437.239-25.582.425-36.637-.215.821-.669,1.7-1.613,2.011-1.832,1.353-.952,2.648-1.984,3.947-3.006,1.209-.952,2.234-2.112,3.462-3.028.757-.565,1.477-1.178,2.241-1.736s1.808-.888,2.522-1.463c1.539-1.239,3.007-2.276,4.631-3.493,1.663.951,2.949,2.107,4.5,3.169-.925-1.509-2.657-2.308-3.87-3.53,1.488-1.172,2.772-1.984,4.193-3.023.882-.648,1.532-1.33,2.578-2.043,2.068-1.408,4.321-2.845,6.554-4.3a28.368,28.368,0,0,1,4.3-2.808c-.025.011.177,4.025.189,4.439.049,1.671.067,3.342.075,5.014.015,3.389-.015,6.781.05,10.17.036,1.881.1,3.762.225,5.64-1.818-.044-3.09-1.358-4.406-2.362a42.434,42.434,0,0,0-6.339-4.514,28.619,28.619,0,0,0,2.793,2.258m8.38-6.77c-.482-.615-.143-1.443-.215-2.363.521.51-.02,1.78.215,2.363m-.107-5.156c.2-.262.072.707.107.967-.2.261-.072-.708-.107-.967m.107-.322c-.192-1.278-.1-2.837-.215-4.191.414,1.058.2,3.052.215,4.191m.511-2.637a.13.13,0,0,1,.026.057c.029.68.017.2-.026-.057-.029-.041-.074-.078-.082-.049.034-.143.062-.074.082.049m.026,9.728a65.656,65.656,0,0,1,0-9.133,78.07,78.07,0,0,1,0,9.133M29.206,36.884c.059.029.116.053.168.073a1.537,1.537,0,0,0-.2-.393,1.751,1.751,0,0,0-.237-.215c-.256-.215-.553-.346-.828-.538.083.437.66.862,1.093,1.072m5.711,4.91a11.107,11.107,0,0,0-2.578-2.149,6.973,6.973,0,0,0,2.578,2.149" fill="#092c3c"/>
      </g>
    </g>
  </g>
</svg>
