<svg xmlns="http://www.w3.org/2000/svg" xmlns:xlink="http://www.w3.org/1999/xlink" width="99" height="99" viewBox="0 0 99 99">
  <defs>
    <clipPath id="clip-path">
      <rect id="Rectangle_397" data-name="Rectangle 397" width="50.399" height="51.281" fill="none"/>
    </clipPath>
  </defs>
  <g id="Group_844" data-name="Group 844" transform="translate(-861 -539)">
    <circle id="Ellipse_5" data-name="Ellipse 5" cx="49.5" cy="49.5" r="49.5" transform="translate(861 539)" fill="#fbad18"/>
    <g id="Group_834" data-name="Group 834" transform="translate(885 560)">
      <g id="Group_833" data-name="Group 833" clip-path="url(#clip-path)">
        <path id="Path_11706" data-name="Path 11706" d="M34.645,7.188c.149-.868-.075-1.284.876-1.414a22.37,22.37,0,0,1,2.851.253c.682,0,1.764-.271,2.335.207.848.711.247,2.694.216,3.594a4.742,4.742,0,0,0-.059,1.115c.107.443.983.882,1.408,1.291a10.761,10.761,0,0,0,1.466,1.232c1.087.748,2.108,1.716,2.993,2.346.538.383,1.047.641,1.642,1.115.506.4,2.211,1.106,2.009,1.9-.273,1.071-3.557.383-4.356.736a15.957,15.957,0,0,0-.175,3.344c0,2.9.242,5.688.058,8.918-.069,1.209-.258,2.863-.235,4.4a91.742,91.742,0,0,1,.058,9.213c-.125,1.529.213,3.15-.068,4.665-.3,1.63-1.467,1.049-2.739.909a20.135,20.135,0,0,0-2.38.208q-1.7.02-3.4-.031c-2.156-.064-4.3-.131-6.46-.147-1.9-.013-3.811.031-5.716,0-3.965-.066-7.924.172-11.885-.013a42.13,42.13,0,0,0-5.127.01c-.873.06-2.541.536-3.258-.058-1.024-.849-.372-3.519-.333-4.653.061-1.745.179-3.486.179-5.233,0-1.089-.122-2.3-.117-3.462,0-.369.15-.731.176-1.115.124-1.805-.127-3.719,0-5.515A124.38,124.38,0,0,0,4.664,18.1c-.873-.526-3.607.335-4.462-.564-.931-.98,1.635-1.86,2.193-2.187a47.418,47.418,0,0,0,4.734-3.527c1.37-1.057,2.793-2.058,4.283-3.052,1.885-1.258,3.847-2.658,5.749-3.989.491-.344,1.056-.546,1.526-.88A51.263,51.263,0,0,1,24.554.09c.707-.37,1.025.491,1.643.937.583.422,1.323.707,1.819,1.056.386.271.629.683,1,1,.426.363.985.627,1.467,1,.451.345.9.731,1.35,1.054a17.05,17.05,0,0,0,2.816,2.054m-.817,1.341a.606.606,0,0,0-.058-.048c-.637-.47-1.4-.872-2.058-1.352-.315-.229-.6-.556-.938-.822s-.72-.43-1.115-.7c-1.314-.912-2.445-1.988-3.7-2.934-.634-.478-1.032-1.09-1.525-.821-.966.526-1.913,1.215-2.758,1.761-.321.207-.661.325-1,.528-1.228.738-2.28,1.8-3.521,2.581S14.73,8.351,13.582,9.241a15.471,15.471,0,0,1-3.755,2.346c.586-1.056,1.789-1.5,2.817-2.112,1.793-1.922,4.421-3.01,6.278-4.87C16.58,5.648,15.04,7.491,12.7,8.537c-1.341,1.121-2.919,2.087-4.283,3.11-.465.35-1.072.623-1.349,1.174.854-.358,1.413-1.013,2.523-1.115A10.5,10.5,0,0,1,7.48,13.289c-.969.633-1.881,1.28-2.757,1.937a5.651,5.651,0,0,0-1.291,1.055c.728.426,2.406-.1,2.816.646.022,3.72-.25,7.988-.117,12.2.034,1.075.059,2.319.059,3.461a7.9,7.9,0,0,1-.176,2.757c-.862-1.368.1-4.555-.587-6.1a10.036,10.036,0,0,0-.176,2.523c.009,1.826-.234,3.842-.234,5.808,0,1.947.139,3.878.234,5.573,0-1.109.245-2.375.352-3.462.049-.5-.153-1.21.352-1.467.186,3.5-.244,7.357.117,10.973,2.855.492,5.865-.594,8.273.233-.546.531-1.35.316-2.288.234-.579-.049-1.143.122-1.642.119-.328,0-.681-.2-1-.176-.288.024-.551.254-.88.293a7.951,7.951,0,0,0-2.054.118c.764.632,1.858.195,2.816.117,1.5-.124,3.327.061,4.929.059.359,0,.717-.092,1.056-.059a19.635,19.635,0,0,0,2.582.294c.533-.024.974-.312,1.467-.118-.707-.584-2.484-.1-2.993-.88.45-.527,1.222,0,1.761.06,1.728.181,3.894.122,6.043.117,1.656,0,3.409-.069,5.1-.117.976-.029,1.97.081,2.876,0,1.213-.111,2.41-.065,3.52-.177a14.023,14.023,0,0,1,2.757.177,23.147,23.147,0,0,0,2.655.082c1.309-.043,2.039-.169,3.172-.225.363-3.454-.017-7.545.275-11.122a15.933,15.933,0,0,0,0-2.7c-.194-2.007-.21-4.061-.235-6.1-.008-.622-.017-1.249,0-1.878.085-3.13-.037-6.3.293-9.446.432-.553,1.981-.2,2.724-.3-.174-.637-1.45-1.011-1.982-1.361-1.3-.848-2.57-2.234-4.028-3.152A3.4,3.4,0,0,1,39.607,10.8c-.14-.946.546-2.219.2-3.074-.443-1.1-3.169-1.064-3.84-.281-.442.522.422,1.958-.505,2.245-.535.166-1.292-.868-1.636-1.164m12.376,7.7A3.3,3.3,0,0,0,44.62,14.99,2.479,2.479,0,0,0,46.2,16.223m-1.174,13.9c.6-.606.232-2.068.235-3.226,0-.662.172-1.387-.058-1.761-.075,0-.081-.076-.176-.059a30.109,30.109,0,0,0,0,5.045m.176,1.761c.135-.2.02-.644.058-.939h-.176c.068.284-.142.846.118.939M5.133,45.208c.167,1.52-.529,3.318.117,4.165.21-1.664.01-3.9.059-5.632-.075,0-.081-.076-.176-.059-.374.472-.065.936,0,1.526M36.112,49.9c-1.752.115-3.554.107-5.222.351.953,0,1.958.2,2.992.294,1.868.162,3.875-.1,5.574-.058.535.013,1.039.268,1.467-.117-1.463.022-3.124-.581-4.811-.47m5.221.529c.7.1,2.174.357,2.523-.235a4.8,4.8,0,0,0-2.523.235m-19.068-.178c-.086.034-.3-.067-.293.06.075.08.287.091.293-.06" transform="translate(0 0)" fill="#092c3c" fill-rule="evenodd"/>
      </g>
    </g>
  </g>
</svg>
