<svg xmlns="http://www.w3.org/2000/svg" xmlns:xlink="http://www.w3.org/1999/xlink" width="99" height="99" viewBox="0 0 99 99">
  <defs>
    <clipPath id="clip-path">
      <rect id="Rectangle_18" data-name="Rectangle 18" width="69.263" height="81.265"/>
    </clipPath>
    <clipPath id="clip-path-2">
      <rect id="Rectangle_27" data-name="Rectangle 27" width="68.284" height="40.793" fill="#fff"/>
    </clipPath>
  </defs>
  <g id="Group_782" data-name="Group 782" transform="translate(-239 -2752.457)">
    <g id="Group_759" data-name="Group 759" transform="translate(-863.591 1335.609)">
      <circle id="Ellipse_5" data-name="Ellipse 5" cx="49.5" cy="49.5" r="49.5" transform="translate(1102.591 1416.848)" fill="#fbad18"/>
    </g>
    <g id="Group_228" data-name="Group 228" transform="translate(-8927.697 -12439.117)">
      <g id="Group_208" data-name="Group 208" transform="translate(9187.566 15196.853)">
        <g id="Group_42" data-name="Group 42" clip-path="url(#clip-path)">
          <path id="Path_138" data-name="Path 138" d="M110.379,22.285c-.027.014.007,0,.034-.014l-.034.014" transform="translate(-78.585 -15.857)"/>
          <path id="Path_139" data-name="Path 139" d="M64.39,256.352l-.017-.022.017.022" transform="translate(-45.834 -182.511)"/>
          <path id="Path_140" data-name="Path 140" d="M184.191,170.824c.008-.016.018-.042.025-.058-.007.019-.016.039-.025.058" transform="translate(-131.147 -121.588)"/>
          <path id="Path_141" data-name="Path 141" d="M180.671,87.169a.347.347,0,0,0,.473-.124,27.073,27.073,0,0,0,2.385-5.115c3.333-10.024,2.345-7.2,3.5-12.534a24.478,24.478,0,0,0-5.283-1.023.431.431,0,0,0-.428.428c0,.765,1.082.169,4.048,1.092,1.053.325.944.122.787.529-.385,1-3.654,12.8-5.04,15.288-.36.652-.88,1.207-.443,1.459" transform="translate(-128.522 -48.683)"/>
          <path id="Path_142" data-name="Path 142" d="M187.917,68.652l-.029,0,.029,0" transform="translate(-133.779 -48.878)"/>
          <path id="Path_143" data-name="Path 143" d="M189.358,119.774l.016-.037-.016.037" transform="translate(-134.826 -85.255)"/>
          <path id="Path_144" data-name="Path 144" d="M78.432,188.014c-.427.586-4.723,4.993-5.209,5.417-1.247,1.074-6.524,5.427-8.026,6.064-.661.28-.592.212-.627.165-.054-.078-.217-.1-.221-.3-.706-.927-.636-.771-.9-1.1-4.619-5.892-7.984-16.25-8.384-22.39a.34.34,0,0,0-.679,0c.422,6.44,2.966,14.671,5.388,18.883.029.051,2.571,3.711,2.476,3.577.515.675,1,1.192,1.584,1.957.627.821.183.554,1.4.1.538-.243,1.075-.288,4.679-3.282,5.53-4.589,3.563-3,6.243-5.686a33.352,33.352,0,0,0,4.569-5.342c.33-.552,2.23-3.764,1.906-4.32-.429.963-4.184,6.233-4.2,6.262M62.417,198.539c-.033-.044.031.038.053.068l-.053-.068m5.187.374.058-.045-.058.045" transform="translate(-38.726 -124.981)"/>
          <path id="Path_145" data-name="Path 145" d="M99.913,256.884l-.062.049.062-.049" transform="translate(-71.095 -182.905)"/>
          <path id="Path_146" data-name="Path 146" d="M153.214,83.251c-1.111-3.242-.868-4.15-1.021-1.965.03,1.211-.138.355.563,2.641,1.455,4.707,2.491,8.835,2.85,9.9.6,1.788.388,1.726.627,1.075.4-1.1.325-.1-.407-3.066-.237-.968-1.949-6.668-2.612-8.589" transform="translate(-108.364 -57.027)"/>
          <path id="Path_147" data-name="Path 147" d="M149.511,122.876c-1.482-6.4.493,1.085-2.338-8.976a9.608,9.608,0,0,0-.626-1.721c-.2,1.3-.2,1-.077,1.377,2.676,8.488,2.118,11.7,3.208,9.921-.008-.071-.108-.352-.167-.6" transform="translate(-104.231 -79.874)"/>
          <path id="Path_148" data-name="Path 148" d="M142.992,146.879c.173-.264.263-.429.465-.762-2.671-7.93-1.839-8.14-2.51-6.341.716,3.012,2.035,7.072,2.045,7.1" transform="translate(-100.356 -98.866)"/>
          <path id="Path_149" data-name="Path 149" d="M133.414,161.215c.852,2.4,1.1,3.5,1.512,4.781.738-.866.659-.323.054-2.4-.247-.846-.594-1.855-.892-2.687a.369.369,0,0,0-.357-.27c-.132,0-.066-.043-.317.572" transform="translate(-94.993 -114.379)"/>
          <path id="Path_150" data-name="Path 150" d="M128.992,173.024c-.265.864-.226-.319.905,3.941l.517-.646c-.322-1.263-.878-3.486-1.422-3.295" transform="translate(-91.748 -123.188)"/>
          <path id="Path_151" data-name="Path 151" d="M125.709,185.111c-.314-1.752-.359-1.9-.571-1.992-.509,1.213-.434.418-.114,2.18a.355.355,0,0,0,.685-.189" transform="translate(-88.838 -130.383)"/>
          <path id="Path_152" data-name="Path 152" d="M9.961,93.019c.293,0,.3-.1.406-2.561.06-1.447.662-6.447.675-8.7.021-3.641,1.263-8.854.025-7.617-.128.128-.081.09-.29,2.218-.326,3.3-.471,2.623-.569,5.127-.022.536-.426,7.685-.429,8.684-.014,2.423-.249,2.848.182,2.848" transform="translate(-6.908 -52.657)"/>
          <path id="Path_153" data-name="Path 153" d="M.421,103.028c.756,0,.229-1.252.4-4.821.017-.342.255-2.981-.058-3.294a.287.287,0,0,0-.486.2C.5,97.39.127,97.2.037,101.043c-.028,1.169-.172,1.985.384,1.985" transform="translate(0 -67.521)"/>
          <path id="Path_154" data-name="Path 154" d="M15.695,222.521c2.738,5.746,3.55,8.648,7.464,13.09a.272.272,0,0,0,.454-.12c.083-.306-1.441-1.794-3.656-5.969-.452-.847-3.541-7.384-3.555-7.414a.409.409,0,0,0-.707.413" transform="translate(-11.137 -157.999)"/>
          <path id="Path_155" data-name="Path 155" d="M13.09,242.071c-.395-.88-.485-1.034-.681-1.034a.258.258,0,0,0-.223.388c.932,1.718.754,2.731,3.294,5.96.31.419.321.777.609.7.324-.092.1-.453-.031-.786-.461-1.153-1.712-2.442-2.969-5.229" transform="translate(-8.653 -171.622)"/>
          <path id="Path_156" data-name="Path 156" d="M147.075,238.148a22.2,22.2,0,0,0,1.352-2.339.4.4,0,0,0-.343-.6c-.783,0,.195,1.077-5.181,6.329-1.838,1.789-1.582,1.777-2.9,2.687-.58.4-.689.478-.717.582-.443,1.634,6.426-4.709,7.795-6.661" transform="translate(-99.155 -167.474)"/>
          <path id="Path_157" data-name="Path 157" d="M155.793,256.461c1.724-1.209,1.961-.036,4.686-4.338a.314.314,0,0,0-.542-.318c-2.079,3.292-3.182,3.3-4.415,4.305-.2.16.062.5.271.351" transform="translate(-110.684 -179.177)"/>
          <path id="Path_158" data-name="Path 158" d="M216.2,115.729a39.653,39.653,0,0,1-2.263,8.09c.1-.255-.577,1.526-1.2,2.769-.207.412-.265.516-.235.62a.236.236,0,0,0,.289.164c.088-.025,4.044-8.086,4.783-15.1a.386.386,0,0,0-.34-.385c-.009.027-.989,3.655-1.03,3.843" transform="translate(-151.296 -79.664)"/>
          <path id="Path_159" data-name="Path 159" d="M229.548,132.771a.2.2,0,0,0,.071.272c.315.183.3-.334.952-1.447s1.135-2.192,2.1-6.726a.364.364,0,0,0-.215-.434c-2.761,7.481-.982,3.752-2.913,8.335" transform="translate(-163.424 -88.6)"/>
          <path id="Path_160" data-name="Path 160" d="M62.433,63.662c-.007.051-.01.074,0,.022-.021.147-.021.159,0-.022" transform="translate(-44.44 -45.328)"/>
          <path id="Path_161" data-name="Path 161" d="M62.469,63.535l.011-.083c0,.028-.007.055-.011.083" transform="translate(-44.479 -45.179)"/>
          <path id="Path_162" data-name="Path 162" d="M54.1,59.936c.51,0,.108-.66.565-6.568.626-8.3,2.034-18.151,2.039-18.179.145-.782-.647-.122,3.791-.078,2.626.03,9.967-1.681,13.777-3.608a36.186,36.186,0,0,0,3.724-2.6c1.056,1.4,1.11,2.1,2.291,3.422a39.618,39.618,0,0,0,4.041,3.695.382.382,0,0,0,.56-.43c-.029-.1-3.295-2.92-3.509-3.134-2.163-2.152-1.926-3.032-3.191-4.278-.348-.351-.691.1-1.164.567-3.267,3.2-13.723,5.37-15.838,5.556a15.283,15.283,0,0,1-4.856-.331.364.364,0,0,0-.4.548c-1.361,9.421-1.11,1.98-2.057,24.574-.017.4-.128.84.23.84M77.866,29l.03-.023-.03.023m-15.632,5.2-.111.015.111-.015m-6.351,7.069c0-.014.012-.094.015-.111,0,.037-.01.074-.015.111m-1.355,2.914-.007.047c0-.016.007-.047.007-.047" transform="translate(-38.335 -19.977)"/>
          <path id="Path_163" data-name="Path 163" d="M83.452,52.1l-.016,0,.016,0" transform="translate(-59.408 -37.095)"/>
          <path id="Path_164" data-name="Path 164" d="M84.046,52.009,84,52.015l.043-.006" transform="translate(-59.811 -37.031)"/>
          <path id="Path_165" data-name="Path 165" d="M83.369,52.11l-.015,0,.015,0" transform="translate(-59.349 -37.103)"/>
          <path id="Path_166" data-name="Path 166" d="M134.381,33.6l-.011.008.011-.008" transform="translate(-95.673 -23.922)"/>
          <path id="Path_167" data-name="Path 167" d="M38.3,67.7A56.311,56.311,0,0,0,49.071,81.264c.03-.014,7.879-3.525,8.234-3.662,2.159-.841,9.32-6.678,13.371-12.4a43.619,43.619,0,0,0,5.065-8.329c4.2-8.366,4.507-9.319,6.194-14.792,5.273-17.166,1.365-2.617,6.795-22.128.149-.812.44-1.62.662-2.414.2-.707.721-1.883-.382-2-1.785-.2-3.585-.069-5.374-.2a22.131,22.131,0,0,1-4.4-.727,19.574,19.574,0,0,1-8.073-4.256,20.705,20.705,0,0,1-3.917-4.818A11.467,11.467,0,0,1,66,2.658a8.048,8.048,0,0,1-.209-1.385C65.769.99,65.906.3,65.726.094c-.149-.173-.439-.083-.606.072A46.631,46.631,0,0,1,58.4,5.345c-2.925,1.848-6.209,2.406-8.955,3.062a9.5,9.5,0,0,1-2.715.223A18.835,18.835,0,0,1,40.572,8,22.9,22.9,0,0,1,36.4,7.13c-.329,2.1-2.284,20.191-2.455,28.208-.006.253-.039.5-.06.755-1.487,17.328.473,22.924,4.418,31.61M64.371,70.81c.249-.311,1.206-1.19-.09.11l.09-.11m9.374-58.587-.086-.036c.03.012.058.023.086.036m-26.13-2.8c3.327-.213,10.226-2.2,13.089-4.188A46.647,46.647,0,0,0,64.73,1.247C64.7,5.339,69.615,12.026,74.5,13.782c4.637,1.674,6.393,3.132,13.263,2.722-.12,3.086-8.643,27.368-9.706,29.945-4.447,10.814-6.809,15.814-15.4,23.98-5.328,5.074-6.24,5.131-9.016,6.815-1.125.684-3.3,2.465-4.7,1.819a13.519,13.519,0,0,1-2.713-2.408,20.08,20.08,0,0,1-2.305-2.494,61.633,61.633,0,0,1-3.579-5.233,47.717,47.717,0,0,1-5.166-13.15c-1.853-9.509,1.589-46.469,1.909-47.6,2.039.9,8.127,1.4,10.522,1.246" transform="translate(-23.769 0)"/>
        </g>
      </g>
      <g id="Group_209" data-name="Group 209" transform="translate(9188.178 15217.725)">
        <g id="Group_64" data-name="Group 64" transform="translate(0 0)" clip-path="url(#clip-path-2)">
          <path id="Path_203" data-name="Path 203" d="M1.37,34.743c.084-.438-.166-.614-.38-.823C.72,33.658.463,33.383.215,33.1c-.276-.317-.291-.5-.021-.834a9.933,9.933,0,0,1,.891-.953C1.634,30.8,2.2,30.3,2.768,29.807c.162-.141.353-.25.594-.417l-1.2-.562a6.789,6.789,0,0,1,.617-.719c1.061-.924,2.09-1.891,3.213-2.734q6.539-4.9,13.133-9.733c4.2-3.083,8.425-6.133,12.638-9.2a2.549,2.549,0,0,1,1.543-.678,1.152,1.152,0,0,0,.525-.251.787.787,0,0,1,.768-.107l-.161.426.973.374c.13.05.262.092.389.147.684.3.762.62.215,1.141-.53.505-1.1.97-1.667,1.434q-7.2,5.9-14.4,11.784c-.18.147-.355.3-.606.513a.793.793,0,0,0,.622-.188q5.159-3,10.315-6.012,12-6.966,24.249-13.473a22.845,22.845,0,0,1,3.546-1.5A3.245,3.245,0,0,1,58.81,0l-.149.422a.547.547,0,0,0,.13.107c.46.183.929.347,1.383.543.411.178.47.373.191.73a3.056,3.056,0,0,1-.653.594Q52.375,7.569,45.031,12.732a83.956,83.956,0,0,0-7.6,6A210.806,210.806,0,0,1,16.75,34.718c-2.753,1.9-5.582,3.7-8.388,5.528a2.711,2.711,0,0,1-.929.351,13.989,13.989,0,0,1-1.471.186.681.681,0,0,1-.45-.059c-.434-.367-.839-.769-1.308-1.209a9.98,9.98,0,0,1,.766-.775c1.754-1.423,3.5-2.861,5.281-4.242C17.337,29.02,24.579,23.754,31.86,18.542c.773-.554,1.533-1.126,2.3-1.692a2.525,2.525,0,0,0,.208-.19l-.06-.1c-.23.129-.464.251-.689.388Q23.2,23.276,12.787,29.607q-2.819,1.713-5.653,3.4c-.408.244-.841.445-1.253.682a5.184,5.184,0,0,1-2.439.665,8.274,8.274,0,0,0-1.271.269c-.242.049-.489.073-.8.117" transform="translate(0 0)" fill="#fff"/>
          <path id="Path_204" data-name="Path 204" d="M70.528,44.691a5.228,5.228,0,0,1-.694.133,5.3,5.3,0,0,1-1.9-.413,3.829,3.829,0,0,1-2.359-2.772,1.682,1.682,0,0,1,.4-1.809c.548-.572,1.08-1.162,1.66-1.7,1.235-1.144,2.5-2.258,3.748-3.387a1.55,1.55,0,0,0,.369-.477c-.181.1-.366.19-.544.294-4.4,2.568-8.789,5.149-13.2,7.7-1.406.813-2.867,1.529-4.291,2.312A4.125,4.125,0,0,1,52.131,45a13.99,13.99,0,0,0-1.571.28c-.4.092-.38.1-.657-.32a3.6,3.6,0,0,0-.5-.5c-.209-.211-.409-.431-.622-.638a.379.379,0,0,1-.005-.617,11.234,11.234,0,0,1,.93-.831c1.77-1.336,3.523-2.7,5.332-3.981,7.449-5.282,14.979-10.451,22.629-15.438,6.225-4.058,12.565-7.936,19.076-11.524.59-.325,1.193-.627,1.792-.935a1.187,1.187,0,0,1,.437-.174.514.514,0,0,1,.392.154.454.454,0,0,1,.035.419,4.019,4.019,0,0,1-.583.587,47.2,47.2,0,0,1-4.858,3.621q-9.245,6.439-18.5,12.867a2.4,2.4,0,0,0-.662.616c.145-.065.3-.121.436-.2,1.433-.764,2.843-1.574,4.3-2.281a31.152,31.152,0,0,1,2.987-1.152.94.94,0,0,1,1.041.13l-.118.352c.279.12.562.248.85.364.221.089.45.156.67.245a.692.692,0,0,1,.373,1.133,4.764,4.764,0,0,1-.7.881c-1.065,1.035-2.124,2.08-3.231,3.069-2.867,2.56-5.769,5.082-8.635,7.643a30.647,30.647,0,0,0-2.221,2.233,4.752,4.752,0,0,0-.876,1.326,1.554,1.554,0,0,0,.66,2.1,1.7,1.7,0,0,1,.191.257" transform="translate(-31.154 -6.615)" fill="#fff"/>
        </g>
      </g>
      <g id="Group_210" data-name="Group 210" transform="translate(9187.566 15196.853)">
        <g id="Group_42-2" data-name="Group 42" clip-path="url(#clip-path)">
          <path id="Path_138-2" data-name="Path 138" d="M110.379,22.285c-.027.014.007,0,.034-.014l-.034.014" transform="translate(-78.585 -15.857)"/>
          <path id="Path_139-2" data-name="Path 139" d="M64.39,256.352l-.017-.022.017.022" transform="translate(-45.834 -182.511)"/>
          <path id="Path_140-2" data-name="Path 140" d="M184.191,170.824c.008-.016.018-.042.025-.058-.007.019-.016.039-.025.058" transform="translate(-131.147 -121.588)"/>
          <path id="Path_141-2" data-name="Path 141" d="M180.671,87.169a.347.347,0,0,0,.473-.124,27.073,27.073,0,0,0,2.385-5.115c3.333-10.024,2.345-7.2,3.5-12.534a24.478,24.478,0,0,0-5.283-1.023.431.431,0,0,0-.428.428c0,.765,1.082.169,4.048,1.092,1.053.325.944.122.787.529-.385,1-3.654,12.8-5.04,15.288-.36.652-.88,1.207-.443,1.459" transform="translate(-128.522 -48.683)"/>
          <path id="Path_142-2" data-name="Path 142" d="M187.917,68.652l-.029,0,.029,0" transform="translate(-133.779 -48.878)"/>
          <path id="Path_143-2" data-name="Path 143" d="M189.358,119.774l.016-.037-.016.037" transform="translate(-134.826 -85.255)"/>
          <path id="Path_144-2" data-name="Path 144" d="M78.432,188.014c-.427.586-4.723,4.993-5.209,5.417-1.247,1.074-6.524,5.427-8.026,6.064-.661.28-.592.212-.627.165-.054-.078-.217-.1-.221-.3-.706-.927-.636-.771-.9-1.1-4.619-5.892-7.984-16.25-8.384-22.39a.34.34,0,0,0-.679,0c.422,6.44,2.966,14.671,5.388,18.883.029.051,2.571,3.711,2.476,3.577.515.675,1,1.192,1.584,1.957.627.821.183.554,1.4.1.538-.243,1.075-.288,4.679-3.282,5.53-4.589,3.563-3,6.243-5.686a33.352,33.352,0,0,0,4.569-5.342c.33-.552,2.23-3.764,1.906-4.32-.429.963-4.184,6.233-4.2,6.262M62.417,198.539c-.033-.044.031.038.053.068l-.053-.068m5.187.374.058-.045-.058.045" transform="translate(-38.726 -124.981)"/>
          <path id="Path_145-2" data-name="Path 145" d="M99.913,256.884l-.062.049.062-.049" transform="translate(-71.095 -182.905)"/>
          <path id="Path_146-2" data-name="Path 146" d="M153.214,83.251c-1.111-3.242-.868-4.15-1.021-1.965.03,1.211-.138.355.563,2.641,1.455,4.707,2.491,8.835,2.85,9.9.6,1.788.388,1.726.627,1.075.4-1.1.325-.1-.407-3.066-.237-.968-1.949-6.668-2.612-8.589" transform="translate(-108.364 -57.027)"/>
          <path id="Path_147-2" data-name="Path 147" d="M149.511,122.876c-1.482-6.4.493,1.085-2.338-8.976a9.608,9.608,0,0,0-.626-1.721c-.2,1.3-.2,1-.077,1.377,2.676,8.488,2.118,11.7,3.208,9.921-.008-.071-.108-.352-.167-.6" transform="translate(-104.231 -79.874)"/>
          <path id="Path_148-2" data-name="Path 148" d="M142.992,146.879c.173-.264.263-.429.465-.762-2.671-7.93-1.839-8.14-2.51-6.341.716,3.012,2.035,7.072,2.045,7.1" transform="translate(-100.356 -98.866)"/>
          <path id="Path_149-2" data-name="Path 149" d="M133.414,161.215c.852,2.4,1.1,3.5,1.512,4.781.738-.866.659-.323.054-2.4-.247-.846-.594-1.855-.892-2.687a.369.369,0,0,0-.357-.27c-.132,0-.066-.043-.317.572" transform="translate(-94.993 -114.379)"/>
          <path id="Path_150-2" data-name="Path 150" d="M128.992,173.024c-.265.864-.226-.319.905,3.941l.517-.646c-.322-1.263-.878-3.486-1.422-3.295" transform="translate(-91.748 -123.188)"/>
          <path id="Path_151-2" data-name="Path 151" d="M125.709,185.111c-.314-1.752-.359-1.9-.571-1.992-.509,1.213-.434.418-.114,2.18a.355.355,0,0,0,.685-.189" transform="translate(-88.838 -130.383)"/>
          <path id="Path_152-2" data-name="Path 152" d="M9.961,93.019c.293,0,.3-.1.406-2.561.06-1.447.662-6.447.675-8.7.021-3.641,1.263-8.854.025-7.617-.128.128-.081.09-.29,2.218-.326,3.3-.471,2.623-.569,5.127-.022.536-.426,7.685-.429,8.684-.014,2.423-.249,2.848.182,2.848" transform="translate(-6.908 -52.657)"/>
          <path id="Path_153-2" data-name="Path 153" d="M.421,103.028c.756,0,.229-1.252.4-4.821.017-.342.255-2.981-.058-3.294a.287.287,0,0,0-.486.2C.5,97.39.127,97.2.037,101.043c-.028,1.169-.172,1.985.384,1.985" transform="translate(0 -67.521)"/>
          <path id="Path_154-2" data-name="Path 154" d="M15.695,222.521c2.738,5.746,3.55,8.648,7.464,13.09a.272.272,0,0,0,.454-.12c.083-.306-1.441-1.794-3.656-5.969-.452-.847-3.541-7.384-3.555-7.414a.409.409,0,0,0-.707.413" transform="translate(-11.137 -157.999)"/>
          <path id="Path_155-2" data-name="Path 155" d="M13.09,242.071c-.395-.88-.485-1.034-.681-1.034a.258.258,0,0,0-.223.388c.932,1.718.754,2.731,3.294,5.96.31.419.321.777.609.7.324-.092.1-.453-.031-.786-.461-1.153-1.712-2.442-2.969-5.229" transform="translate(-8.653 -171.622)"/>
          <path id="Path_156-2" data-name="Path 156" d="M147.075,238.148a22.2,22.2,0,0,0,1.352-2.339.4.4,0,0,0-.343-.6c-.783,0,.195,1.077-5.181,6.329-1.838,1.789-1.582,1.777-2.9,2.687-.58.4-.689.478-.717.582-.443,1.634,6.426-4.709,7.795-6.661" transform="translate(-99.155 -167.474)"/>
          <path id="Path_157-2" data-name="Path 157" d="M155.793,256.461c1.724-1.209,1.961-.036,4.686-4.338a.314.314,0,0,0-.542-.318c-2.079,3.292-3.182,3.3-4.415,4.305-.2.16.062.5.271.351" transform="translate(-110.684 -179.177)"/>
          <path id="Path_158-2" data-name="Path 158" d="M216.2,115.729a39.653,39.653,0,0,1-2.263,8.09c.1-.255-.577,1.526-1.2,2.769-.207.412-.265.516-.235.62a.236.236,0,0,0,.289.164c.088-.025,4.044-8.086,4.783-15.1a.386.386,0,0,0-.34-.385c-.009.027-.989,3.655-1.03,3.843" transform="translate(-151.296 -79.664)"/>
          <path id="Path_159-2" data-name="Path 159" d="M229.548,132.771a.2.2,0,0,0,.071.272c.315.183.3-.334.952-1.447s1.135-2.192,2.1-6.726a.364.364,0,0,0-.215-.434c-2.761,7.481-.982,3.752-2.913,8.335" transform="translate(-163.424 -88.6)"/>
          <path id="Path_160-2" data-name="Path 160" d="M62.433,63.662c-.007.051-.01.074,0,.022-.021.147-.021.159,0-.022" transform="translate(-44.44 -45.328)"/>
          <path id="Path_161-2" data-name="Path 161" d="M62.469,63.535l.011-.083c0,.028-.007.055-.011.083" transform="translate(-44.479 -45.179)"/>
          <path id="Path_162-2" data-name="Path 162" d="M54.1,59.936c.51,0,.108-.66.565-6.568.626-8.3,2.034-18.151,2.039-18.179.145-.782-.647-.122,3.791-.078,2.626.03,9.967-1.681,13.777-3.608a36.186,36.186,0,0,0,3.724-2.6c1.056,1.4,1.11,2.1,2.291,3.422a39.618,39.618,0,0,0,4.041,3.695.382.382,0,0,0,.56-.43c-.029-.1-3.295-2.92-3.509-3.134-2.163-2.152-1.926-3.032-3.191-4.278-.348-.351-.691.1-1.164.567-3.267,3.2-13.723,5.37-15.838,5.556a15.283,15.283,0,0,1-4.856-.331.364.364,0,0,0-.4.548c-1.361,9.421-1.11,1.98-2.057,24.574-.017.4-.128.84.23.84M77.866,29l.03-.023-.03.023m-15.632,5.2-.111.015.111-.015m-6.351,7.069c0-.014.012-.094.015-.111,0,.037-.01.074-.015.111m-1.355,2.914-.007.047c0-.016.007-.047.007-.047" transform="translate(-38.335 -19.977)"/>
          <path id="Path_163-2" data-name="Path 163" d="M83.452,52.1l-.016,0,.016,0" transform="translate(-59.408 -37.095)"/>
          <path id="Path_164-2" data-name="Path 164" d="M84.046,52.009,84,52.015l.043-.006" transform="translate(-59.811 -37.031)"/>
          <path id="Path_165-2" data-name="Path 165" d="M83.369,52.11l-.015,0,.015,0" transform="translate(-59.349 -37.103)"/>
          <path id="Path_166-2" data-name="Path 166" d="M134.381,33.6l-.011.008.011-.008" transform="translate(-95.673 -23.922)"/>
          <path id="Path_167-2" data-name="Path 167" d="M38.3,67.7A56.311,56.311,0,0,0,49.071,81.264c.03-.014,7.879-3.525,8.234-3.662,2.159-.841,9.32-6.678,13.371-12.4a43.619,43.619,0,0,0,5.065-8.329c4.2-8.366,4.507-9.319,6.194-14.792,5.273-17.166,1.365-2.617,6.795-22.128.149-.812.44-1.62.662-2.414.2-.707.721-1.883-.382-2-1.785-.2-3.585-.069-5.374-.2a22.131,22.131,0,0,1-4.4-.727,19.574,19.574,0,0,1-8.073-4.256,20.705,20.705,0,0,1-3.917-4.818A11.467,11.467,0,0,1,66,2.658a8.048,8.048,0,0,1-.209-1.385C65.769.99,65.906.3,65.726.094c-.149-.173-.439-.083-.606.072A46.631,46.631,0,0,1,58.4,5.345c-2.925,1.848-6.209,2.406-8.955,3.062a9.5,9.5,0,0,1-2.715.223A18.835,18.835,0,0,1,40.572,8,22.9,22.9,0,0,1,36.4,7.13c-.329,2.1-2.284,20.191-2.455,28.208-.006.253-.039.5-.06.755-1.487,17.328.473,22.924,4.418,31.61M64.371,70.81c.249-.311,1.206-1.19-.09.11l.09-.11m9.374-58.587-.086-.036c.03.012.058.023.086.036m-26.13-2.8c3.327-.213,10.226-2.2,13.089-4.188A46.647,46.647,0,0,0,64.73,1.247C64.7,5.339,69.615,12.026,74.5,13.782c4.637,1.674,6.393,3.132,13.263,2.722-.12,3.086-8.643,27.368-9.706,29.945-4.447,10.814-6.809,15.814-15.4,23.98-5.328,5.074-6.24,5.131-9.016,6.815-1.125.684-3.3,2.465-4.7,1.819a13.519,13.519,0,0,1-2.713-2.408,20.08,20.08,0,0,1-2.305-2.494,61.633,61.633,0,0,1-3.579-5.233,47.717,47.717,0,0,1-5.166-13.15c-1.853-9.509,1.589-46.469,1.909-47.6,2.039.9,8.127,1.4,10.522,1.246" transform="translate(-23.769 0)"/>
        </g>
      </g>
    </g>
  </g>
</svg>
