<svg xmlns="http://www.w3.org/2000/svg" xmlns:xlink="http://www.w3.org/1999/xlink" width="106" height="99" viewBox="0 0 106 99">
  <defs>
    <clipPath id="clip-path">
      <rect id="Rectangle_22" data-name="Rectangle 22" width="37.749" height="55.643" fill="#fff"/>
    </clipPath>
    <clipPath id="clip-path-2">
      <rect id="Rectangle_16" data-name="Rectangle 16" width="84.966" height="71.852" fill="none"/>
    </clipPath>
  </defs>
  <g id="Group_779" data-name="Group 779" transform="translate(-232 -1751.383)">
    <g id="Group_753" data-name="Group 753" transform="translate(-863.591 334.535)">
      <circle id="Ellipse_5" data-name="Ellipse 5" cx="49.5" cy="49.5" r="49.5" transform="translate(1102.591 1416.848)" fill="#fbad18"/>
    </g>
    <g id="Group_225" data-name="Group 225" transform="translate(-9299 -13086.701)">
      <g id="Group_216" data-name="Group 216" transform="translate(9587.27 14859.986)">
        <g id="Group_54" data-name="Group 54" transform="translate(0 0)" clip-path="url(#clip-path)">
          <path id="Path_189" data-name="Path 189" d="M34.206,13.247l-.3.719c.61.245,1.178.478,1.752.7.462.179.949.3,1.389.526a1.042,1.042,0,0,1,.313,1.791,14.225,14.225,0,0,1-2.185,1.7c-3.866,2.425-7.757,4.81-11.634,7.215q-5.015,3.111-10.021,6.238c-.162.1-.306.23-.535.4a2.44,2.44,0,0,0,1.451.366c3.364.246,6.73.454,10.091.735,1.975.165,3.942.433,5.911.674a2.206,2.206,0,0,1,1.674.914c-.469.017-.9.168-1.109.017a5.956,5.956,0,0,0-3.134-.746c-4.94-.424-9.887-.776-14.832-1.147-.382-.029-.768,0-1.151,0l-.029.262c.388.069.773.171,1.163.2,4.58.353,9.163.681,13.742,1.05,1.184.1,2.355.4,3.538.451,1.674.079,3.049.955,4.532,1.533a1.211,1.211,0,0,1,.486,1.97A6.317,6.317,0,0,1,34.092,40.1c-2.124,1.629-4.26,3.245-6.423,4.822q-4.087,2.981-8.225,5.893a52.213,52.213,0,0,1-6.9,3.9A17.028,17.028,0,0,1,8.6,55.63a.545.545,0,0,1-.382-.052c-.634-.411-1.266-.826-1.876-1.27a.566.566,0,0,1-.055-.879A14.524,14.524,0,0,1,7.4,52.173a55.16,55.16,0,0,1,7.273-5.806c3.238-2.289,6.436-4.634,9.648-6.959.231-.167.438-.365.835-.7-3.972-.432-7.749-.619-11.517-.88-3.79-.263-7.585-.446-11.5-.671.323-.538.028-.816-.316-1.139C1.184,35.411.6,34.742,0,34.119a1.18,1.18,0,0,1,.7-1.142c1.784-1.134,3.558-2.287,5.353-3.4q9.176-5.7,18.364-11.379c.222-.137.435-.288.8-.534a8.463,8.463,0,0,0-.845-.134c-4.427-.188-8.854-.358-13.28-.558-2.245-.1-4.49-.237-6.732-.394a18.915,18.915,0,0,1-1.93-.33L2.461,16l2.19.214c.016-.073.031-.147.046-.221a11.086,11.086,0,0,0-1.47-.272,1.617,1.617,0,0,1-1.344-.677c-.429-.584-.94-1.107-1.4-1.666a.868.868,0,0,1,.087-1.368,13.6,13.6,0,0,1,1.894-1.255c4.631-2.48,9.294-4.894,14.117-6.988C19.277,2.6,21.964,1.4,24.648.193a1.765,1.765,0,0,1,1.868.162.975.975,0,0,1,.3,1.526A5.983,5.983,0,0,1,25.8,2.954,68.6,68.6,0,0,1,17.2,9c-1.275.767-2.566,1.507-3.848,2.263-.272.161-.533.339-.8.509.01.072.021.143.031.215a12.234,12.234,0,0,0,1.3.184q9.12.336,18.241.652a3.681,3.681,0,0,1,2.076.429m-23.041-.61-.02.3c.354.037.706.094,1.06.107q9.8.388,19.606.756a4.689,4.689,0,0,0,1-.18c-.007-.066-.015-.132-.022-.2l-21.622-.788" transform="translate(0 0)" fill="#fff"/>
        </g>
      </g>
      <g id="Group_217" data-name="Group 217" transform="translate(9531 14850.233)">
        <g id="Group_25" data-name="Group 25" clip-path="url(#clip-path-2)">
          <path id="Path_91" data-name="Path 91" d="M84.137,29.484c-1.567-.908-3.111-1.854-4.694-2.8l.744-4.118c-2.355-1.434-4.595-2.9-6.929-4.2C68.9,15.948,64.5,13.611,60.1,11.281c-1.163-.616-2.4-1.085-3.607-1.626a3.284,3.284,0,0,0-2.249-.315c-.014-.056-.028-.115-.043-.171s-.141-.059-.132.018.018.134.027.2a2.668,2.668,0,0,0-1.186.924c-.035.046-.108.062-.15.1l-.01.009a.082.082,0,0,0-.121.091l0,.015a2.147,2.147,0,0,1-3.154.172,4.049,4.049,0,0,0-1.451-.472c-.277-.073-.609-.006-.851-.13-4.394-2.235-8.783-4.48-13.2-6.671A71.53,71.53,0,0,0,27.227.149c-1.546-.57-2.544.625-3.792,1.415-3.986,2.527-7.49,5.7-11.28,8.485-1.313.966-2.595,1.976-3.854,3.011C6.14,14.837,4.01,16.654,1.859,18.445c-.621.517-1.342.976-.643,1.925.016.022.012.06.017.09a41.769,41.769,0,0,1,.712,7.416,14.211,14.211,0,0,0,.08,1.565c.056.6.262,1.071,1.01,1.051a1.517,1.517,0,0,1,.7.22q4.523,2.395,9.034,4.81c.072.039.114.135.2.237-1.723.923-3.449,1.8-5.123,2.757C5.734,39.725,3.668,41,1.6,42.265c-.282.173-.476.483-.744.685A1.618,1.618,0,0,0,.2,44.3Q.122,47.6.019,50.892c-.035,1.162-.136,2.091.932,2.784q7.033,4.563,14.038,9.168c.871.573,1.7,1.215,2.525,1.851.8.617,1.542,1.319,2.373,1.891,1.19.819,2.451,1.534,3.658,2.329.764.5,1.569.938,2.338,1.432a20.585,20.585,0,0,0,1.739,1.387,1.058,1.058,0,0,0,.339.111c.636.077,1.374-.691,1.938-.961a13.55,13.55,0,0,0,2.476-1.5c1.553-1.205,3.187-2.314,4.843-3.376a73.632,73.632,0,0,0,6.912-5.224c1.521-1.249,3.01-2.537,4.526-3.791.521-.431,1.091-.8,1.623-1.222a.772.772,0,0,1,1.017-.017,24.734,24.734,0,0,0,4.093,2.457c1.329.77,2.643,1.568,3.959,2.36a1.328,1.328,0,0,1,.26.251c.467.5.543.51,1.01.054,2.314-2.255,4.6-4.542,6.946-6.759,2.081-1.964,4.188-3.906,6.368-5.759,3.209-2.727,6.488-5.372,9.752-8.033A1.411,1.411,0,0,0,84.317,39a9.119,9.119,0,0,1,.069-1.566c.184-2.114.38-4.226.569-6.339a1.538,1.538,0,0,0-.819-1.611m-.438.908c-1.864,1.566-3.651,3.11-5.484,4.6-4.734,3.839-9.492,7.65-14.235,11.479-.67.541-1.315,1.115-1.96,1.686-.669.591-.742.614-1.528.212-1.972-1.008-3.929-2.044-5.911-3.03-4.046-2.014-8.114-3.986-12.155-6.01-2.172-1.088-4.307-2.249-6.594-3.447l1.4-1.17c.742.354,1.49.695,2.224,1.065q9.182,4.644,18.359,9.3c.576.292,1.153.585,1.74.853a7.044,7.044,0,0,0,.83.267l.158-.207a2.439,2.439,0,0,0-.449-.519,27.175,27.175,0,0,0-2.443-1.487c-4.034-2.032-8.084-4.032-12.132-6.036-2.344-1.161-4.7-2.307-7.04-3.465A4.112,4.112,0,0,1,38,34.131a1.067,1.067,0,0,1,1.185-.018c2.1,1.027,4.212,2.015,6.307,3.041,2.015.987,4.011,2.014,6.022,3.008,1.732.856,3.475,1.69,5.274,2.426a19.82,19.82,0,0,0-3.8-2.369c-1.349-.737-2.667-1.533-4.031-2.241-1.336-.693-2.713-1.309-4.073-1.957l-4.324-2.058c1.031-.2,1.883-.331,2.718-.535a18.852,18.852,0,0,0,7.679-3.635,7.231,7.231,0,0,1,.662-.5,13.957,13.957,0,0,0,3.871-4.28,7.671,7.671,0,0,0,.957-3.245c.078-.515.141-1.033.222-1.635,4.584,2.4,9.049,4.744,13.526,7.066,1.173.608,2.375,1.164,3.585,1.7a1.221,1.221,0,0,1,.892,1.212,10,10,0,0,0,.467,1.967c-.42.32-.871.681-1.34,1.015-.3.213-.656.353-.94.584-3.434,2.787-7.476,4.778-10.543,8.044a2.043,2.043,0,0,1-1.542.646,6.5,6.5,0,0,0-3.087.607c.157.079.318.233.471.225.582-.031,1.161-.149,1.742-.166s1.14.087,1.706.065a1.411,1.411,0,0,0,.8-.3c.919-.771,1.78-1.613,2.709-2.371,1.164-.95,2.372-1.848,3.567-2.761.854-.654,1.721-1.289,2.574-1.944.781-.6,1.56-1.2,2.321-1.826.7-.577,1.382-1.184,1.94-1.666-.1-1.035-.132-1.943-.3-2.825-.055-.284-.422-.585-.719-.734-2.936-1.487-5.894-2.93-8.834-4.412-2.638-1.329-5.258-2.7-7.892-4.034-.515-.261-1.057-.469-1.659-.733a3.648,3.648,0,0,0-.246.525,5.9,5.9,0,0,0-.282,1.163c-.182,2.211-1.428,3.886-2.742,5.53a2.527,2.527,0,0,1-.387.395,32.856,32.856,0,0,1-7.345,4.735,13.667,13.667,0,0,1-4.73,1.106,2.872,2.872,0,0,1-.46-.011c-.045,0-.085-.07-.175-.15,5.373-4.884,10.958-9.5,16.8-13.924L79,30.338a3.78,3.78,0,0,1-.511.461c-1.9,1.182-3.353,2.881-5.065,4.278-2.168,1.769-4.376,3.49-6.563,5.237-.649.518-1.277,1.061-1.925,1.579q-1.188.949-2.4,1.875A4.124,4.124,0,0,0,60.9,45.594a3.049,3.049,0,0,0,.778-.243c1.374-1.036,2.75-2.069,4.093-3.144,1.92-1.537,3.816-3.106,5.717-4.667,1.212-1,2.423-1.993,3.621-3q1.87-1.579,3.71-3.192c.34-.3.636-.646,1.02-1.041a4.208,4.208,0,0,0-.755-.739c-1.208-.667-2.433-1.3-3.663-1.928-.983-.5-2-.938-2.973-1.458-3.172-1.7-6.326-3.427-9.5-5.123-1.3-.7-2.633-1.331-3.948-2-.463-.236-.916-.493-1.506-.813l1.1-.823c8.49,4.011,17.1,7.749,25.1,12.974M18.2,32.628c.563.286,1.134.559,1.7.838-.016.2-.032.4-.048.593-.561-.284-1.117-.579-1.67-.878.008-.183.01-.368.016-.553m-.065-2.578c.656.3,1.309.612,1.967.911-.021.272-.044.543-.065.815l-1.834-.8c-.012-.313-.038-.62-.068-.927m.08,2.077c0-.142,0-.282,0-.424l1.767.77-.041.516c-.57-.3-1.134-.616-1.725-.862m1.8,2.368.924.457q-.014.355-.02.7l-1.01-.545c.042-.2.071-.41.106-.616m.057-.331c.029-.191.055-.383.078-.576.282.137.561.28.844.416-.014.2-.026.391-.036.587-.3-.141-.593-.279-.886-.426m.125-1.043c.017-.178.041-.354.052-.533.279.122.561.241.849.336-.023.194-.045.388-.063.584-.284-.118-.564-.246-.838-.387m.073-1.244c.007-.281.011-.56,0-.838.2.091.4.186.607.274a1.6,1.6,0,0,1,.421.253c-.044.235-.084.471-.119.71l-.914-.4m1,3.25c.242.157.341.355.146.795l-.244-.132q.051-.328.1-.663m.05-.363c.025-.183.05-.367.072-.552.155.116.229.284.082.626-.052-.023-.1-.05-.154-.074m9.051,9.821A39.663,39.663,0,0,0,34.042,46.7a33.877,33.877,0,0,1,3.907,1.869c.144.084.7.242.662.444-.026.154-.177.25-.313.326q-.1.056-.2.114c-.966.572-1.813,1.3-2.745,1.939-1.7,1.17-3.409,2.317-5.082,3.518a2.048,2.048,0,0,1-1.469.332c-.695-.049-1.4.01-2.092-.021a2.127,2.127,0,0,1-1.029-.21c-1.981-1.3-3.92-2.661-5.9-3.958-2.291-1.5-4.61-2.956-6.921-4.422-.987-.627-1.99-1.228-2.98-1.85A2.716,2.716,0,0,1,9.2,42.65a1.053,1.053,0,0,1,.392-.361q2.207-1.428,4.422-2.844c.743-.476,1.472-.977,2.237-1.414a1.512,1.512,0,0,1,1.47.036q6.431,3.04,12.643,6.516M22.395,30.832a15.091,15.091,0,0,1,1.794.826.955.955,0,0,1,.272.772,36.243,36.243,0,0,1-.827,6.58,4.6,4.6,0,0,0-.08.672L22.07,38.9c.371-2.629.989-5.23.324-8.066m13.16,6.792c-.19-.138-.176-.355-.113-.668.057.02.109.035.164.052-.019.2-.035.411-.051.617m.882,5.521c-.01.372-.014.742-.011,1.111l-.054-.028c-.281-.145-.575-.268-.846-.429.028-.319.05-.64.072-.962.285.1.565.2.838.307m-1-3.687c-.01.207-.023.413-.031.62-.173-.134-.261-.318-.081-.668l.112.048m-.168,1.5.114.054c-.005.268-.011.537-.013.8-.271-.164-.423-.382-.1-.858m-.159,1.708c.088.032.175.062.263.092,0,.32.006.64.014.957-.35-.225-.343-.292-.277-1.049M36.446,45c.017.467.042.931.085,1.387l-1.754-.957.105-1.1c.526.232,1.047.452,1.564.671m.024-2.655c-.271-.128-.542-.255-.813-.384.015-.269.024-.539.035-.808l.824.386q-.027.4-.046.806m-1.985-7.276.175.34-1.917-.923c2.045-1.785,3.958-3.52,5.942-5.172,2.933-2.441,5.926-4.81,8.876-7.232,2.186-1.8,4.333-3.636,6.517-5.432a19.744,19.744,0,0,1,1.669-1.119l2.294,1.133a7.534,7.534,0,0,1-.748.688A117.613,117.613,0,0,0,47.656,24.5c-.774.657-1.589,1.266-2.376,1.908q-4.577,3.735-9.152,7.472c-.524.426-1.1.8-1.645,1.192m-1.661.674,1.841.807-.909,8.5-1.69-.832.759-8.473M32.161,36c-.3,2.559-.565,5.121-.862,7.867l-6.625-3.706.442-8.08a5.133,5.133,0,0,1,.687.222c1.987.962,3.967,1.939,5.955,2.9a.655.655,0,0,1,.4.8m4.416,4.725q-.424-.226-.847-.451c.006-.229,0-.456.008-.685l.911.386c-.025.249-.05.5-.071.749m-.795-2.994c-.019,0-.032-.012-.049-.018,0-.222-.008-.445-.015-.666a2.771,2.771,0,0,1,.406.148l.808.393c-.028.209-.055.421-.082.633l-.062-.032a5.552,5.552,0,0,0-1-.457m1.14,5.627c.323.154.645.312.968.467-.009.392-.013.784-.007,1.173l-1.033-.522q.042-.557.073-1.117m.038-.771c.012-.272.024-.543.033-.815l.965.452c-.016.272-.031.545-.042.817-.318-.152-.636-.3-.955-.454m.058-1.627q.011-.41.02-.819l1.037.44q-.037.445-.069.9c-.329-.172-.661-.341-.988-.516M65.412,18.54c-.456-.265-.914-.528-1.376-.782-.13-.421-.247-.847-.357-1.287l1.259.674a9.021,9.021,0,0,0,.474,1.394m-.278-1.289q.615.33,1.231.66,4.341,2.339,8.671,4.7c.106.058.207.127.3.186l-1.112,1.041c-.308-.131-.775-.178-.722-.79.009-.1-.158-.259-.279-.333a13.289,13.289,0,0,0-2.147-1.249,35.232,35.232,0,0,1-5.294-2.709c-.062-.126-.122-.253-.179-.381-.166-.371-.315-.748-.47-1.123m-1.228,1.066q.077.185.165.359l-1.179-.537c-.036-.141-.073-.283-.109-.424l1.123.6m-.485-.894c-.271-.142-.546-.277-.819-.417-.1-.422-.2-.848-.3-1.274l1.187.636a5.2,5.2,0,0,0,.164,1.18c-.077-.041-.153-.085-.231-.126m-1.069.061q.063.238.137.471c-.4-.184-.81-.367-1.214-.554-.065-.2-.13-.4-.19-.6l1.267.679m-1.437-1.336c-.092-.423-.161-.849-.222-1.277.445.237.888.477,1.332.714a10.368,10.368,0,0,0,.168,1.213c-.426-.216-.85-.437-1.278-.65M60.7,16.6c.047.209.1.413.168.613-.323-.151-.649-.3-.97-.455-.039-.219-.083-.438-.129-.656l.93.5m-1.048-1.077c-.019-.094-.039-.189-.056-.283-.063-.343-.111-.69-.16-1.036.345.182.687.366,1.031.549a10.338,10.338,0,0,0,.115,1.231c-.31-.154-.619-.309-.93-.461m-.1,1.056a3.07,3.07,0,0,1-.89-1.072l.7.376c.056.238.12.469.19.7m-.781-1.317a2.974,2.974,0,0,1-.436-.01c-.09-.585-.181-1.171-.266-1.756.142.067.284.135.423.207.2.1.391.209.587.312a11.748,11.748,0,0,0,.171,1.328,1.236,1.236,0,0,0-.479-.081M77.533,25.364c-.131.11-.4.053-.608.072l-.057-.258,2.21-1.577.166.184c-.347.737-1.117,1.08-1.711,1.579m-18.9-13.43c6.016,2.746,11.884,5.781,17.651,9.016.908.51,1.846.967,2.828,1.479-.711.607-1.364,1.2-2.057,1.747-.879.69-.894.672-2.056.093.337-.333.647-.644.962-.95.541-.525.53-.715-.142-1.093-3.133-1.764-6.262-3.535-9.41-5.269-2.126-1.171-4.265-2.322-6.433-3.414-.232-.117-.468-.227-.7-.339-.027-.145-.053-.289-.086-.432-.016-.07-.117-.051-.121.016-.006.1-.006.208-.008.312q-.555-.259-1.117-.505c-.046-.327-.093-.654-.138-.981.277.106.561.2.831.32m-.667,3.256a4.215,4.215,0,0,1-1.142-.43c-.171-.678-.363-1.352-.5-2.037.439.2.885.383,1.326.577a13.552,13.552,0,0,0,.319,1.89M57.4,11.44c.063.032.128.059.192.087q-.02.448,0,.915-.715-.311-1.43-.618c-.064-.391-.123-.783-.183-1.174.476.259.942.544,1.426.79m-1.018,3.068c-.431-.26-.865-.514-1.3-.766-.051-.555-.134-1.117-.234-1.68a3.967,3.967,0,0,1,.834.353c.077.04.157.075.236.113a15.352,15.352,0,0,0,.465,1.98m-1.476-.869q-.741-.427-1.483-.852c-.017-.081-.036-.163-.055-.244a2.049,2.049,0,0,1,1.147-.527c.111.552.24,1.095.391,1.623m.315-3.364c.16.069.315.146.47.225.02.383.054.773.1,1.165l-.173-.075a5.9,5.9,0,0,0-.7-.229c-.072-.021-.143-.039-.214-.055q-.118-.567-.251-1.125a1.585,1.585,0,0,1,.767.094m-1.133.006a.849.849,0,0,1,.119-.042c.048.337.1.675.163,1.014a1.458,1.458,0,0,0-1.227.414c-.062-.218-.126-.435-.192-.652a13.122,13.122,0,0,1,1.137-.734m-1.3.848q.1.358.2.713c-.016.021-.034.036-.05.059-.108.15-.229.291-.385.487l-.805-.516c.36-.251.7-.5,1.039-.743m1.985,3.8c-1.555,1.24-3.053,2.388-4.5,3.6C48.034,20.4,45.832,22.315,43.6,24.2c-1.337,1.133-2.719,2.214-4.033,3.373-2.442,2.154-4.85,4.348-7.335,6.581l-6.553-3.286,1.395-.93c3.406-2.264,6.855-4.468,10.2-6.816,2.161-1.515,4.16-3.259,6.257-4.868,1.826-1.4,3.689-2.754,5.529-4.136.589-.442,1.156-.91,1.829-1.442l3.88,2.246m-6.269-3.7,1.408.876c-4.14,3.23-8.127,6.5-12.286,9.538s-8.509,5.85-12.971,8.894l-1.8-.856c1.462-1.144,2.835-2.271,4.261-3.325q5.711-4.222,11.465-8.385c1.745-1.257,3.561-2.416,5.343-3.623,1.524-1.034,3.044-2.073,4.58-3.12M29.186,23.506a16.2,16.2,0,0,1,2.97-3.986,21.835,21.835,0,0,1,7.193-4.384q1.659-.651,3.321-1.3l.066.119L29.186,23.506M3.209,18.4c2.072-1.645,4.134-3.3,6.207-4.946.965-.765,1.953-1.5,2.921-2.259q5.772-4.531,11.542-9.063c.652-.509,1.371-.931,2.067-1.4L46.788,11.224l-1.617,1.051c-1.474-.828-2.916-1.639-4.36-2.447C39.336,9,37.877,8.147,36.379,7.367,34.909,6.6,33.41,5.889,31.9,5.2A22.461,22.461,0,0,0,27.435,3.2l-.16.216a3.764,3.764,0,0,0,.651.595c1.692.943,3.386,1.882,5.1,2.784,3.591,1.889,7.2,3.754,10.792,5.631a3.354,3.354,0,0,1,.33.23,1.011,1.011,0,0,1-.238.151,49.621,49.621,0,0,0-7.04,2.436,16.946,16.946,0,0,0-6.589,4.63A30.857,30.857,0,0,0,27.3,24.29a3.85,3.85,0,0,1-1.162,1.363c-.409.27-.784.592-1.156.876l-1.253-.42-.176.261.9.435c-.422.647-.712.467-1.026.311-2.669-1.322-5.33-2.662-8.018-3.944S10,20.663,7.29,19.42A2.213,2.213,0,0,0,6.248,19.2,7.3,7.3,0,0,0,8.409,20.63c.81.44,1.643.839,2.462,1.263.793.41,1.576.836,2.371,1.241.82.417,1.648.819,2.474,1.223.8.39,1.6.779,2.4,1.159.83.394,1.671.762,2.494,1.17.793.393,1.568.824,2.44,1.285-.322.193-.6.346-.869.525a1.445,1.445,0,0,1-1.617-.005c-4.607-2.262-9.238-4.476-13.851-6.726-1.132-.552-2.223-1.189-3.335-1.782-.431-.23-.869-.446-1.377-.705.4-.288.818-.564,1.208-.873M2.747,28.97c-.117-1.535-.215-3.2-.35-4.982.849.289,1.66.559,2.456.83.024-.038.055-.076.079-.114-.762-.455-1.5-.952-2.29-1.349-.417-.209-.527-.451-.442-1l3.133,1.292c.015-.033.032-.065.047-.1-.961-.6-1.908-1.231-2.889-1.8A1.23,1.23,0,0,1,1.8,20.441c.453.224.858.4,1.237.617,1.085.625,2.135,1.318,3.245,1.894,2.127,1.1,4.277,2.165,6.437,3.2,2.575,1.238,5.171,2.433,7.757,3.649a2.661,2.661,0,0,1,.645.351,2.374,2.374,0,0,1,.359.588c0,.006,0,.013,0,.019l-1.237-.531c0-.063,0-.129-.008-.192a.027.027,0,0,0-.054,0c0,.053-.009.106-.013.16-3.211-1.377-6.316-2.71-9.417-4.035A2.245,2.245,0,0,0,10.3,26.1a1.9,1.9,0,0,0,1.219,1.083c1.891.817,3.791,1.613,5.676,2.442.266.117.53.238.794.36-.03.287-.059.575-.072.869-1.187-.517-2.376-1.027-3.575-1.517-2.4-.979-4.689-2.222-7.15-3.044l-.143.232a2.4,2.4,0,0,0,.474.418c.909.449,1.823.893,2.751,1.3q3.812,1.674,7.633,3.326c0,.146-.008.29-.006.436-.131-.047-.262-.095-.4-.133l-.122.214c.178.125.351.258.532.376.005.195.009.389.017.583a69.8,69.8,0,0,0-6.8-3.464L11,29.748c.09.121.155.284.275.356.368.222.754.418,1.139.61q2.765,1.38,5.531,2.755c.014.282.029.565.044.842a.067.067,0,0,0,.135,0c.014-.241.026-.488.038-.734l1.664.824c-.018.212-.034.425-.051.637l-1.327-.715c-.052.092-.163.184-.215.277.888.547,1.783,1.1,2.68,1.678,0,.055,0,.112,0,.167,0,.082.134.106.147.02,0-.028.009-.057.014-.085l.1.067v1.918c-5.915-2.9-11.957-6.7-18.435-9.4M16.206,59.51c3.452,2.473,6.9,4.954,10.366,7.408.362.256.387.5.229.976-4.118-2.758-8.189-5.514-12.289-8.224S6.27,54.285,2.276,51.679a5.208,5.208,0,0,0,.492.437c3.054,2.234,6.07,4.525,9.181,6.678,4.3,2.977,8.672,5.851,13.017,8.764a12.689,12.689,0,0,0,1.426.851.8.8,0,0,1,.44,1.147,2.11,2.11,0,0,1-.339-.138C22.859,67.166,19.239,64.9,15.827,62.3A102.068,102.068,0,0,0,5.666,55.293c-1.458-.853-2.88-1.766-4.336-2.62A.905.905,0,0,1,.84,51.79C.814,50.47.723,49.152.71,47.833A9.743,9.743,0,0,1,.86,45.2c.117-.339.31-.514.625-.345A95.237,95.237,0,0,1,17.031,55.292c-1.227-.257-2.57-1.437-3.6-2.115a13.758,13.758,0,0,1-1.109-.9l-.639-.036c4.886,3.823,10.156,6.917,15.028,10.615l-2.5-1.237-.072.118c.757.489,1.5,1,2.275,1.461a.848.848,0,0,1,.369,1.147L25.2,63.368l-.107.121c.3.248.6.493.89.744.274.234.211.405-.167.537a7.858,7.858,0,0,1,.7.5,4.672,4.672,0,0,1,.453.537L26.791,66l-11-7-.1.129c.171.13.339.264.514.389m10.73,1.279a29.561,29.561,0,0,1-5.907-3.806A136.207,136.207,0,0,0,9.735,48.834a50.384,50.384,0,0,0-7.664-4.607,10.755,10.755,0,0,1-1.144-.713c.954-.613,1.791-1.209,2.681-1.711,2.7-1.524,5.425-3.016,8.146-4.509.612-.336,1.245-.634,1.877-.932.535-.251,1.036-.024,1.637.753-1.654.936-3.308,1.85-4.941,2.8Q7.737,41.425,5.183,43c-.6.371-.557.7.128,1.17q3.119,2.145,6.248,4.273,7.252,4.921,14.511,9.831c.076.052.151.106.228.158.278.186.615.307.786-.045.078-.16-.078-.52-.236-.69a7.31,7.31,0,0,0-1-.818,131.478,131.478,0,0,0-14.117-9.232c-2.162-1.229-4.258-2.574-6.482-3.925.584-.416,1.1-.83,1.661-1.173q3.3-2.024,6.632-4.007c.364-.218.724-.616,1.353-.178a30.126,30.126,0,0,1-3.284,2.061c-1.058.669-2.141,1.3-3.2,1.938a2.7,2.7,0,0,1,.19.941,1.672,1.672,0,0,0,.936,1.813c1.011.7,2.052,1.356,3.078,2.035,2.461,1.629,4.916,3.266,7.382,4.888,1.825,1.2,3.666,2.375,5.491,3.574a4.489,4.489,0,0,0,2.516.331c.713,0,1.658.386,2.234-.033q3.321-2.416,6.64-4.834c.37-.268.744-.533,1.136-.765.1-.058.273.017.473.037a5.532,5.532,0,0,1-.739.8c-1.454,1.032-2.937,2.024-4.392,3.056q-2.782,1.971-5.535,3.985a5.3,5.3,0,0,0-.627.646c.437.486.731.2,1.015-.006.968-.71,1.937-1.417,2.892-2.142q3.27-2.482,6.529-4.98c.672-.512,1.887-1.149,2.237-1.917a14.542,14.542,0,0,1,1.581.746,26.441,26.441,0,0,0-3.125,2.3c-.945.765-1.9,1.522-2.891,2.22-2.767,1.939-5.6,3.786-8.5,5.738M42.792,56.36a13.519,13.519,0,0,1-.185-1.516c-.023-.569.5-.675.9-.874a2.123,2.123,0,0,1-.429,2.794c-.092-.136-.185-.271-.282-.4m.176,3.188c-.284-.452-.6-.89-.928-1.319.208-.123.428-.253.682-.4.1.657.191,1.2.246,1.723m-.319-5.6c-.075-.04-.272-.081-.272-.121V52.441c.493.029,1.019.125,1.1.627.1.6-.539.578-.829.874m-.2,1.956c-.123-.158-.247-.315-.372-.47l-.268-.334.217-.294.258.066c.051.344.113.688.166,1.032m-.672-1.37-.221-.131c-.022-.57-.259-1.163.21-1.724.529.332.374.869.417,1.3.017.169-.262.367-.406.552m-.164.832c.015.019.032.036.047.054.311.387.595.79.875,1.2.009.1.02.2.025.293.009.2-.261.464-.467.6-.134.089-.27.175-.405.262-.336-.425-.675-.847-1-1.272-.087-.113-.173-.231-.259-.349.083-.1.14-.247.225-.354.24-.3.485-.275.656-.02l.3-.412M27.876,65.419a1.082,1.082,0,0,1,.545-1.073c1.281-.9,2.539-1.84,3.8-2.77a4.809,4.809,0,0,0,.456-.436c-.768.442-1.544.871-2.3,1.33-.806.488-1.594,1-2.472,1.56-.078-.885.563-1.361.882-2.1l-.823.309c-.211-.447.01-.692.339-.93.972-.7,1.9-1.472,2.9-2.125q1.873-1.219,3.766-2.408c.306.6.822,1.128,1.175,1.7.4.649.737,1.32,1.069,2a.079.079,0,0,0,.144-.061,10.631,10.631,0,0,0-1.032-2.2,6.292,6.292,0,0,0-1.167-1.561l1.309-.824a5.833,5.833,0,0,0,.98,1.905c-.217.206-.433.412-.652.616l.764-.453c.123.178.244.353.353.524.263.408.528.818.807,1.219q-4.542,2.884-9.075,5.78c-.557.358-1.056.806-1.76,1.351,0-.583.028-.97-.007-1.351m11.655-9.84a.983.983,0,0,1-.386.6c-.129.109-.254.224-.381.337a9.436,9.436,0,0,0-.982-1.193c-.043-.042-.136,0-.109.064a7,7,0,0,0,.8,1.386c-.254.231-.506.466-.756.7a6.423,6.423,0,0,0-1.2-1.681l2.073-1.3c.057-.036.123-.066.183-.1a7.2,7.2,0,0,0,.757,1.186m-.6-1.27c.136-.065.282-.132.446-.213.037.289.072.544.1.789a5.74,5.74,0,0,0-.55-.575M38.09,58.1c-.079-.123-.156-.252-.233-.383.3-.18.606-.365.909-.546.277.362.564.713.832,1.057.146.189.294.382.443.575-.175.109-.351.217-.526.328l-.523.332c-.3-.456-.608-.907-.9-1.363m1.864.068c-.3-.377-.578-.785-.862-1.191.35-.209.7-.419,1.051-.63.182.223.362.444.529.662.239.314.473.634.709.955q-.522.332-1.049.658c-.128-.15-.257-.3-.379-.454m.233-4.495c.056.085.113.17.175.251A2.729,2.729,0,0,1,40,55.554c-.083-.115-.169-.229-.255-.342-.267-.759-.136-1.2.443-1.539m.879,1.072a2.375,2.375,0,0,1-.313.34,7.135,7.135,0,0,1-.057-.754c.122.139.244.277.37.414m-.34-.849a2.545,2.545,0,0,1,.35-.975,2.853,2.853,0,0,1,.159,1.489,6.435,6.435,0,0,0-.51-.514m1.962,6.484a8.832,8.832,0,0,1-1.126.952c-3.832,2.569-7.639,5.172-11.3,7.981-.742.569-1.569,1.026-2.412,1.569a1.257,1.257,0,0,1,.7-1.152q2.12-1.556,4.243-3.109a2.687,2.687,0,0,0,.72-.729l-5.4,3.41a.932.932,0,0,1,.338-1.253A24.752,24.752,0,0,0,30.91,66.1l-2.841,1.727c-.207-.309-.23-.534.118-.76,2.861-1.855,5.71-3.729,8.578-5.575.749-.483,1.506-.954,2.265-1.421.2.267.4.53.626.779.06.067.162-.019.121-.094-.155-.285-.323-.563-.5-.838l1.106-.679a9.134,9.134,0,0,0,1.5,1.555c.058.045.133-.04.1-.1a13.572,13.572,0,0,0-1.292-1.646l.536-.33c.158-.1.32-.2.488-.3a16.123,16.123,0,0,0,1.142,1.385.1.1,0,0,0,.134.015c0,.01,0,.02,0,.03a.849.849,0,0,1-.311.529m.721-.724a1.984,1.984,0,0,1-.176-2.046c.063.087.123.174.187.26a.137.137,0,0,0,.237-.138c-.065-.128-.139-.251-.211-.377a1.929,1.929,0,0,1,.284-.222c.463,1.346.353,2.127-.32,2.522m.944-6.337a7.676,7.676,0,0,1,.226,2.409c-.011.121-.247.22-.379.329l-.172-.053c.148-.821-.514-1.691.325-2.686m.034,5.744c-.178-.837-.65-1.7.139-2.454.078.829.412,1.679-.139,2.454m.836-3.708a3.466,3.466,0,0,1-.1-2.286,3.567,3.567,0,0,1,.1,2.286m2.623.661c.011.6-.046.87-1.032,1.15V53.72a10.086,10.086,0,0,1,1.126.42,18.461,18.461,0,0,0-.094,1.877m12.007-5.549c.859.569.928.731.6,1.849l-1.533-.4-.052.148,1.618.862L59.842,57l-1.2-.387-.119.189a5.816,5.816,0,0,0,.8.557.672.672,0,0,1,.459.79c-.09.574-.157,1.151-.251,1.86-.664-.409-1.29-.777-1.9-1.173-.644-.418-1.288-.838-1.9-1.3A102.8,102.8,0,0,0,43.48,50.187q-3.4-1.863-6.826-3.728c.054-.432.1-.868.139-1.307q.56.239,1.11.484c.017.447.042.891.085,1.326.007.073.126.1.14.019.06-.385.106-.778.146-1.175.365.167.729.337,1.085.519.149.076.3.157.446.235.006.08.008.161.015.24s.13.107.144.019c.008-.054.014-.109.022-.163,1.778.934,3.519,1.94,5.281,2.909q3.679,2.022,7.363,4.036a1.31,1.31,0,0,0,.676.185C52.16,53.135,51,52.508,49.87,51.832c-2.4-1.437-4.762-2.954-7.2-4.334-.86-.487-1.735-.947-2.614-1.4.044-.389.075-.785.1-1.183l.954.462c.008.144.011.291.022.434a.094.094,0,0,0,.189,0c.008-.107.01-.216.017-.324l1.449.7c.007.2.007.407.022.609a.062.062,0,0,0,.123,0c.013-.175.012-.353.019-.53q.753.365,1.506.729c1.606.773,3.222,1.527,4.885,2.313,0-.154.015-.222,0-.231q-3.182-1.71-6.368-3.412c0-.37-.006-.739-.018-1.107L54.92,50.174l.062-.121c-.258-.142-.512-.294-.775-.427q-6.42-3.226-12.841-6.451-.019-.618-.059-1.228l3.292,1.4.068-.1-.6-.442.059-.122,6.367,2.869A48.985,48.985,0,0,0,43.113,41.4c-1.6-.779-3.18-1.6-4.762-2.414,0-.025,0-.051,0-.076a.064.064,0,0,0-.127,0v.009q-.572-.3-1.144-.589c0-.225.01-.449.015-.672,4.378,2.128,8.76,4.246,13.121,6.407,3.14,1.555,6.245,3.183,9.366,4.776.191.1.39.179.588.263.535.228.536.227.463,1.054l-2.943-1.4-.074.151c.746.52,1.483,1.055,2.24,1.557m-21.068-8.59c-.121-.061-.241-.127-.361-.189q-.006-.489-.018-.973l1.548.656q-.045.522-.085,1.05l-1.085-.545m1.039,1.217q-.027.434-.045.869l-.037-.02c-.437-.23-.879-.45-1.323-.666q.008-.419.009-.838l1.4.655m-.066,1.63c-.006.412-.006.823.01,1.228-.48-.245-.959-.491-1.44-.733.03-.382.054-.766.069-1.153l1.361.659m.451-1.45.867.407c0,.326,0,.651.005.975-.3-.157-.592-.317-.889-.473.01-.3.015-.605.017-.908m-.014-1.8.958.406c-.026.383-.045.769-.059,1.157l-.884-.444c0-.375-.008-.748-.015-1.119m1.18,3.339c.01-.328.012-.658.009-.987l1.411.661s-.005.007-.005.012c-.011.352-.018.707-.018,1.062-.466-.248-.93-.5-1.4-.748m42.959-13.37c-.161,1.25-.311,2.5-.525,3.744a1.621,1.621,0,0,1-.515.9c-1.327,1.1-2.7,2.145-4.04,3.228a22.027,22.027,0,0,0-1.843,1.672,40.667,40.667,0,0,0,6.076-4.63,3.411,3.411,0,0,1-1.244,3.25c-2.386,1.943-4.8,3.846-7.2,5.775-.668.538-1.309,1.109-1.963,1.665l.138.184c1.671-1.206,3.388-2.355,5-3.635,1.634-1.3,3.165-2.724,4.773-4.122.152.645-.251.945-.631,1.253-2.587,2.088-5.2,4.144-7.756,6.27q-3.584,2.983-7.064,6.089c-2.113,1.885-4.156,3.849-6.231,5.777-.086.079-.185.144-.309.24a1.065,1.065,0,0,1,.3-1.262q1.375-1.494,2.752-2.989a1.1,1.1,0,0,0,.327-.621l-3.147,2.909a.333.333,0,0,1-.088-.047.115.115,0,0,1-.037-.078c.016-.087.015-.2.069-.253,2.37-2.413,4.745-4.821,7.03-7.338L61.24,55.58c.07-1.573.037-2.977,1.3-4.119,1.365-1.235,2.575-2.643,3.825-3.946L61.91,50.95l-.1-.1,6.514-6.106-.121-.133-6.185,5.411c-.238-.58.119-.782.391-1.014,2.3-1.956,4.582-3.926,6.9-5.858C73.094,40,76.9,36.877,80.689,33.728c.756-.629,1.459-1.323,2.191-1.98.427-.384.866-.756,1.456-1.268a9.231,9.231,0,0,1,0,.962" transform="translate(0 0)"/>
          <path id="Path_92" data-name="Path 92" d="M7.379,94.492q-2.5-1.434-5-2.864c-.162.526.255.7.576.91,1.486.967,2.966,1.943,4.478,2.869a20.31,20.31,0,0,0,1.938.931l.139-.2L8.323,95.056c-.314-.188-.626-.381-.943-.563" transform="translate(-1.188 -46.463)"/>
          <path id="Path_93" data-name="Path 93" d="M131.532,54.517c-.209-.327-.266-.53-.4-.6q-4.092-2.284-8.2-4.533a3.057,3.057,0,0,0-.753-.188l-.137.3c2.753,1.893,5.883,3.128,8.749,4.822a3.6,3.6,0,0,0,.739.2" transform="translate(-61.886 -24.945)"/>
          <path id="Path_94" data-name="Path 94" d="M122.133,53.557c1.091.624,2.174,1.263,3.275,1.869.958.527,1.936,1.017,2.906,1.524l.2-.129c-.046-.2-.035-.448-.152-.587a2.511,2.511,0,0,0-.664-.484c-1.111-.653-2.218-1.313-3.345-1.937-.751-.415-1.524-.8-2.309-1.142-.2-.088-.481.015-.725.031a5.621,5.621,0,0,0,.425.622,1.489,1.489,0,0,0,.393.234" transform="translate(-61.516 -26.691)"/>
          <path id="Path_95" data-name="Path 95" d="M137.719,62.443a.859.859,0,0,0,.932.9c.746.021,1.294-.39,1.305-.98a.891.891,0,0,0-.969-.962,1.156,1.156,0,0,0-1.268,1.041" transform="translate(-69.834 -31.136)"/>
          <path id="Path_96" data-name="Path 96" d="M11.1,21.653c1.29-.943,2.578-1.891,3.834-2.88.844-.666,1.625-1.411,2.449-2.1q1.484-1.245,2.994-2.459c2.157-1.735,4.31-3.475,6.489-5.181.695-.544,1.468-.987,2.206-1.475l-.031.03h0l.019-.019c.557-.546,1.119-1.087,1.666-1.643a2.292,2.292,0,0,0,.279-.459c-7.408,4.735-14,10.432-20.579,16.2a.785.785,0,0,0,.673-.005" transform="translate(-5.289 -2.77)"/>
          <path id="Path_97" data-name="Path 97" d="M29.248,12.263c-1.4,1.054-2.783,2.108-4.1,3.275-2.277,2.019-4.673,3.9-7.041,5.82-1.307,1.056-1.319,1.009-.5,2.361.031.052.026.141.067.169.157.1.327.19.491.282.055-.188.2-.408.149-.558a10.089,10.089,0,0,0-.567-1.162l.741-.6q3.58-2.91,7.16-5.822c1.094-.894,2.169-1.809,3.256-2.71,1.114-.921,2.309-1.76,3.325-2.777A3.929,3.929,0,0,1,35.4,9.41c.223.009.448,0,.739,0-.578-.6-.662-.691-1.313-.61-.816.1-1.619.3-2.428.464a34.944,34.944,0,0,1-3.154,3" transform="translate(-8.644 -4.45)"/>
          <path id="Path_98" data-name="Path 98" d="M66.5,15.791c1.321.72,2.693,1.347,4.054,1.991.286.136.63.469,1.031-.1-.273-.168-.507-.334-.759-.463-2.93-1.492-5.866-2.971-8.793-4.467-1.4-.713-2.775-1.458-4.166-2.181-.236-.123-.492-.208-.739-.31l-.077.186c.25.167.489.352.751.5,2.9,1.623,5.783,3.261,8.7,4.849" transform="translate(-28.929 -5.202)"/>
          <path id="Path_99" data-name="Path 99" d="M31.89,45.067q-5.023-2.424-10.061-4.818c-.405-.193-.833-.34-1.25-.508l-.1.212a2.912,2.912,0,0,0,.36.251q5.77,2.879,11.546,5.749c.021.01.062-.007.088-.022a.86.86,0,0,0,.114-.1c.086-.508-.38-.608-.7-.763" transform="translate(-10.387 -20.152)"/>
          <path id="Path_100" data-name="Path 100" d="M33.213,40.8c-.972-.378-1.962-.713-2.917-1.131-2.161-.944-4.305-1.927-6.6-2.96a1.687,1.687,0,0,0,1.029,1.019q3.4,1.649,6.822,3.26c.721.339,1.465.631,2.213.907.161.059.382-.043.575-.071-.063-.21-.062-.505-.2-.611a3.806,3.806,0,0,0-.917-.412" transform="translate(-12.015 -18.613)"/>
          <path id="Path_101" data-name="Path 101" d="M44.735,31.188a2.155,2.155,0,0,0-1.759.69,1.081,1.081,0,0,0-.311,1.172.981.981,0,0,0,1.009.661,5.87,5.87,0,0,0,1.738-.446,1.267,1.267,0,0,0,.659-1.476c-.213-.63-.74-.641-1.335-.6m-1.228,1.629c.449-.946.827-1.118,1.8-.869-.056.835-.742,1.185-1.8.869" transform="translate(-21.598 -15.808)"/>
          <path id="Path_102" data-name="Path 102" d="M37.608,28.8a1.276,1.276,0,0,0-.131,1.016c.114.261.542.385.688.479a2.547,2.547,0,0,0,2.322-1.123,1.357,1.357,0,0,0,.01-1.108,1.1,1.1,0,0,0-.9-.445A2.573,2.573,0,0,0,37.608,28.8m1.682-.625a1.907,1.907,0,0,1,.75.092c-.06.274-.03.634-.2.8a2,2,0,0,1-1.845.5,1.842,1.842,0,0,1,1.29-1.4" transform="translate(-18.975 -14.002)"/>
          <path id="Path_103" data-name="Path 103" d="M53.327,11.676l-.157.218a5.1,5.1,0,0,0,.615.565c.994.659,2,1.3,3.007,1.941.257.164.576.394.787.013s-.169-.535-.425-.679c-.934-.523-1.875-1.034-2.816-1.544-.333-.18-.674-.344-1.011-.515" transform="translate(-26.961 -5.921)"/>
          <path id="Path_104" data-name="Path 104" d="M33.67,27.538c.116.07.226.171.258.15.865-.547,1.74-1.081,2.568-1.681.211-.153.108-.494-.213-.536a1.711,1.711,0,0,0-1.441.263l.373.434c-.45.526-1.258.642-1.544,1.371" transform="translate(-17.073 -12.893)"/>
          <path id="Path_105" data-name="Path 105" d="M51.761,14.388a8.045,8.045,0,0,0,2.621,1.623,2.883,2.883,0,0,0-2.621-1.623" transform="translate(-26.247 -7.296)"/>
          <path id="Path_106" data-name="Path 106" d="M51.3,92.385a.935.935,0,0,0,1.073-1.04,1.887,1.887,0,0,0-.129-.462,3.913,3.913,0,0,0-2.107-1.967,1.1,1.1,0,0,0-1.281.233,1.265,1.265,0,0,0-.192.928A3.675,3.675,0,0,0,51.3,92.385m.218-.7c-.985.141-1.685-.515-1.964-1.841a1.992,1.992,0,0,1,1.964,1.841" transform="translate(-24.667 -45.036)"/>
          <path id="Path_107" data-name="Path 107" d="M59.514,104.164q2.175-1.615,4.331-3.256a6.226,6.226,0,0,0,.549-.528l-.12-.209a3.567,3.567,0,0,0-.788.272c-1.549.982-3.092,1.974-4.615,2.994-.309.207-.774.553-.452.959.373.473.77.01,1.1-.232" transform="translate(-29.567 -50.795)"/>
          <path id="Path_108" data-name="Path 108" d="M26,83.645c-.3.242-.948.464-.563.952.345.439.792-.048,1.105-.282,1.275-.956,2.522-1.949,3.779-2.929l1.266-.989-.129-.313a2.338,2.338,0,0,0-.564.191q-1.638,1.078-3.256,2.187c-.557.38-1.118.758-1.639,1.184" transform="translate(-12.838 -40.609)"/>
          <path id="Path_109" data-name="Path 109" d="M31.608,84.822c-.856.644-1.709,1.294-2.525,1.987-.149.127-.116.467-.167.709a5.373,5.373,0,0,0,.749.027c.1-.009.19-.144.284-.222,1.149-.964,2.3-1.923,3.445-2.893.241-.2.452-.442.677-.665l-.174-.289a4.812,4.812,0,0,0-.77.313c-.52.323-1.029.665-1.518,1.033" transform="translate(-14.663 -42.329)"/>
          <path id="Path_110" data-name="Path 110" d="M45.639,95.287a7.385,7.385,0,0,1,.982.467c.352.244.657.557,1,.816.266.2.592.472.879.094.257-.338-.081-.556-.306-.751-.533-.464-1.071-.924-1.621-1.368-.3-.241-.637-.67-1.015-.329-.158.142.014.654.044,1,0,.055.054.106.036.074" transform="translate(-23.068 -47.711)"/>
          <path id="Path_111" data-name="Path 111" d="M3.163,100.846l4.423,2.934c.035-.105.077-.185.064-.195a34.614,34.614,0,0,0-4.383-2.9l-.1.165" transform="translate(-1.604 -51.053)"/>
          <path id="Path_112" data-name="Path 112" d="M41.215,123.472a47.669,47.669,0,0,0-4.072-2.824l-.123.181,4.066,2.833.129-.19" transform="translate(-18.772 -61.178)"/>
          <path id="Path_113" data-name="Path 113" d="M22.766,65.284q-5.547-3.13-11.094-6.259c-.322-.182-.67-.318-1.006-.476q-.059.095-.116.189a1.4,1.4,0,0,0,.274.311c.656.4,1.309.81,1.985,1.173C16.251,62.072,19.7,63.9,23.146,65.75a15.742,15.742,0,0,0,1.525.862,7.866,7.866,0,0,0,1.483.293c-.969-.536-1.725-1.5-2.979-1.418-.131.008-.275-.126-.409-.2" transform="translate(-5.349 -29.689)"/>
          <path id="Path_114" data-name="Path 114" d="M136.045,38.188a.052.052,0,0,0,.1-.014,1.909,1.909,0,0,0-.8-1.393c-.041-.031-.088.035-.053.07a3.109,3.109,0,0,1,.754,1.337" transform="translate(-68.597 -18.647)"/>
        </g>
      </g>
    </g>
  </g>
</svg>
