<svg xmlns="http://www.w3.org/2000/svg" xmlns:xlink="http://www.w3.org/1999/xlink" width="99" height="99" viewBox="0 0 99 99">
  <defs>
    <clipPath id="clip-path">
      <rect id="Rectangle_24" data-name="Rectangle 24" width="42.428" height="38.499" fill="#fff"/>
    </clipPath>
    <clipPath id="clip-path-2">
      <rect id="Rectangle_15" data-name="Rectangle 15" width="79.297" height="79.991"/>
    </clipPath>
  </defs>
  <g id="Group_781" data-name="Group 781" transform="translate(-239 -2418.766)">
    <g id="Group_757" data-name="Group 757" transform="translate(-863.591 1001.918)">
      <circle id="Ellipse_5" data-name="Ellipse 5" cx="49.5" cy="49.5" r="49.5" transform="translate(1102.591 1416.848)" fill="#fbad18"/>
    </g>
    <g id="Group_229" data-name="Group 229" transform="translate(-8677.771 -12768.361)">
      <g id="Group_206" data-name="Group 206" transform="translate(8948.787 15214.514)">
        <g id="Group_58" data-name="Group 58" transform="translate(0 0)" clip-path="url(#clip-path)">
          <path id="Path_191" data-name="Path 191" d="M15.743,18.516c-.354-.37-.623-.664-.906-.942C11.118,13.907,7.38,10.258,3.686,6.566c-1-1-1.881-2.115-2.787-3.2A14.526,14.526,0,0,1,0,2.011c.189-.144.286-.279.392-.287a4.151,4.151,0,0,1,2.99.61c.942.711,1.924,1.368,2.852,2.1q6.246,4.9,12.469,9.83c.21.166.427.322.729.549.3-.258.612-.5.893-.766,3.769-3.62,7.579-7.2,11.649-10.479C33.437,2.383,35.043,1.377,36.6.312c.287-.2.626-.483,1.01-.18a1.064,1.064,0,0,1,.33,1.275,10.83,10.83,0,0,1-1.808,3.368q-2.962,3.716-5.985,7.382c-1.672,2.029-3.383,4.026-5.072,6.04-.193.229-.365.475-.611.8.3.334.559.676.871.958,4.953,4.484,9.627,9.248,14.188,14.124.827.885,1.565,1.854,2.333,2.792a3.557,3.557,0,0,1,.434.681c.31.633.108.992-.611.944a3.255,3.255,0,0,1-1.43-.41,46.431,46.431,0,0,1-4.753-3.059c-4.577-3.606-9.075-7.311-13.6-10.978-.105-.085-.2-.179-.309-.261-.757-.578-1.055-.563-1.722.132-1.819,1.9-3.6,3.84-5.457,5.7-1.838,1.83-3.749,3.587-5.654,5.349-.491.455-1.08.8-1.618,1.209a4.785,4.785,0,0,1-2.9.683,2.915,2.915,0,0,1-1.5-.736.9.9,0,0,1-.117-.8,4.839,4.839,0,0,1,.686-1.231c1.932-2.594,3.826-5.22,5.844-7.747,1.892-2.369,3.923-4.627,5.891-6.935.216-.254.421-.518.719-.885" transform="translate(0 0)" fill="#fff"/>
        </g>
      </g>
      <g id="Group_207" data-name="Group 207" transform="translate(8926 15198.126)">
        <g id="Group_21" data-name="Group 21" clip-path="url(#clip-path-2)">
          <path id="Path_90" data-name="Path 90" d="M19.353,35.266a22.327,22.327,0,0,0-1.99,3.717c-.378.827-1.209,1.965-1,2.907a.222.222,0,0,0,.4.052,11.791,11.791,0,0,0,.6-1.515c.232-.506.469-1.006.689-1.518a20.237,20.237,0,0,1,1.738-3.387c.185-.274-.252-.52-.439-.257m1.932,3.956a11.694,11.694,0,0,1-.907,1.668c-.2.351-.554.774-.353,1.176a.174.174,0,0,0,.232.061c.239-.106.251-.24.357-.478.123-.275.272-.538.418-.8a9.29,9.29,0,0,0,.72-1.5c.1-.3-.358-.416-.468-.129M63.533,21.8a18.256,18.256,0,0,0-2.038,3.819c-.268.636-.522,1.277-.787,1.915a12.362,12.362,0,0,0-.834,1.945.28.28,0,0,0,.464.27,4.955,4.955,0,0,0,.778-1.508c.288-.69.55-1.389.816-2.088a18.932,18.932,0,0,1,2.005-4.118c.173-.251-.228-.474-.4-.236M54.69,71.5a24.434,24.434,0,0,1-1.941,3.193c-.337.5-.7.988-1.028,1.5a5.449,5.449,0,0,0-.874,1.526.172.172,0,0,0,.249.191A3.414,3.414,0,0,0,52.162,76.6c.328-.512.691-1,1.013-1.513a28.466,28.466,0,0,0,1.94-3.341c.129-.285-.289-.535-.424-.248M65.968,6.752a6.049,6.049,0,0,0-5.162-.067,6.767,6.767,0,0,0-.887.486A5.006,5.006,0,0,0,57.486,9.8a7.2,7.2,0,0,0-.582,3.88c.328,2.726,2.146,5.155,5.022,5.4a7.338,7.338,0,0,0,7.263-4.38,6.435,6.435,0,0,0-3.22-7.943m-7.184,8.042a5.27,5.27,0,0,1-.254-.714,6.768,6.768,0,0,1-.046-3.313c.01-.043.021-.086.032-.129a9.787,9.787,0,0,1,2.4-2.163,9.6,9.6,0,0,1-1.7,2.764c-.432.631-1.026,1.576-.664,2.354.043.093.168.052.2-.026a14.082,14.082,0,0,1,.475-1.539,9.563,9.563,0,0,1,.734-1.153,5.869,5.869,0,0,0,1.186-2.4.112.112,0,0,0-.04-.106A4.585,4.585,0,0,1,62.018,8a34.38,34.38,0,0,0-1.88,3.807c-.3.7-.6,1.411-.917,2.111-.128.285-.294.577-.437.875m.346.646a10.5,10.5,0,0,0,.606-1.377c.276-.643.542-1.291.81-1.937A46.029,46.029,0,0,1,62.466,7.9a3.87,3.87,0,0,1,1.119-.016,14.615,14.615,0,0,0-2.652,4.307,38.077,38.077,0,0,0-1.666,3.446c-.047-.065-.093-.131-.136-.2m3.688,1.8a4.56,4.56,0,0,1-.48.013,32.161,32.161,0,0,1,1.371-3.1c.594-1.451,1.32-2.843,2.012-4.249.124-.251-.249-.474-.379-.221-.725,1.414-1.5,2.8-2.155,4.25A18.12,18.12,0,0,0,61.7,17.19a3.877,3.877,0,0,1-.528-.133.15.15,0,0,0-.1-.219l.045-.269c.032-.148.074-.295.12-.439A8.719,8.719,0,0,1,61.712,15c.286-.6.57-1.2.858-1.795A41.569,41.569,0,0,1,64.66,9.15c.141-.226-.206-.422-.353-.207a34.7,34.7,0,0,0-2.468,4.449,10.542,10.542,0,0,0-1.38,3.34,3.794,3.794,0,0,1-.735-.562,32.232,32.232,0,0,1,1.724-3.81,15.149,15.149,0,0,1,2.419-4.229.178.178,0,0,0,.039-.19,4.622,4.622,0,0,1,.6.166,4.979,4.979,0,0,1,2.753,2.474.268.268,0,0,0-.441-.014A24.378,24.378,0,0,0,64.777,14.2,8.276,8.276,0,0,0,63.7,17.094a5.4,5.4,0,0,1-.877.146m3.951-2.092c.066-.168.134-.33.209-.482.191-.388.4-.766.613-1.14a4.422,4.422,0,0,1-.822,1.622m-.362-.662a8.7,8.7,0,0,0-.8,1.742,5.9,5.9,0,0,1-.97.542c0-.029.007-.057.009-.088a.15.15,0,0,0-.181-.154A13.785,13.785,0,0,1,65.517,14.1a23.857,23.857,0,0,1,1.726-3.282.21.21,0,0,0,.025-.21,4.414,4.414,0,0,1,.449,1.733,21.136,21.136,0,0,0-1.31,2.143M54.826,54.237a6.049,6.049,0,0,0-5.162-.067,6.762,6.762,0,0,0-.887.486,5.007,5.007,0,0,0-2.433,2.627,7.2,7.2,0,0,0-.582,3.88c.328,2.726,2.146,5.155,5.022,5.4a7.338,7.338,0,0,0,7.263-4.38,6.435,6.435,0,0,0-3.22-7.943m-7.484,4.015c.01-.043.021-.086.032-.129a7.849,7.849,0,0,1,3.39-2.6c-.154.246-.3.5-.455.744-.489.769-1.015,1.523-1.519,2.282a21.554,21.554,0,0,0-1.574,2.166,6.986,6.986,0,0,1,.126-2.458m.085,3.445c.26-.447.427-.959.718-1.4.359-.54.789-1.029,1.141-1.574.7-1.083,1.309-2.263,2.03-3.34a3.944,3.944,0,0,1,1.57.065,11.1,11.1,0,0,0-.892,1.161c-.509.827-1.068,1.62-1.619,2.419-.465.673-.93,1.347-1.389,2.024a6.413,6.413,0,0,0-1.006,1.854,4.927,4.927,0,0,1-.552-1.214m.921,1.711a.324.324,0,0,0,.032-.044c.425-.689.737-1.428,1.194-2.106s.92-1.356,1.372-2.041c.485-.733.98-1.461,1.422-2.221.287-.493.645-.941.965-1.412l.025.008a4.762,4.762,0,0,1,1.3.709c-.873,1.476-2.069,2.73-2.956,4.2-.507.838-1.116,1.6-1.615,2.446-.19.322-.765.931-.618,1.356a3.822,3.822,0,0,1-1.121-.895m3.328,1.317a4.061,4.061,0,0,1-1.976-.31.126.126,0,0,0,.058-.035c.534-.215.744-.9,1.017-1.356.48-.795,1.031-1.532,1.51-2.326.85-1.406,1.93-2.662,2.726-4.1a5.065,5.065,0,0,1,.853,1.023.262.262,0,0,0-.09.052,13.486,13.486,0,0,0-2.344,2.933c-.355.549-.707,1.1-1.038,1.663a2.973,2.973,0,0,0-.651,1.717.169.169,0,0,0,.284.118A6.853,6.853,0,0,0,53,62.467c.288-.49.585-.976.882-1.462A13.42,13.42,0,0,1,56.1,58.046a4.579,4.579,0,0,1,.375,1.053c-.591.811-1.125,1.658-1.657,2.508a21.857,21.857,0,0,0-1.548,2.6.163.163,0,0,0,0,.137,5.612,5.612,0,0,1-1.6.377m4.792-3.787a5.008,5.008,0,0,1-2.681,3.18,12.5,12.5,0,0,0,1.424-2.123c.44-.74.884-1.476,1.362-2.192a3.983,3.983,0,0,1-.105,1.135m22.5-48.861a13.658,13.658,0,0,0-5.131-8.358A17.87,17.87,0,0,0,62.373.017a13.21,13.21,0,0,0-6.189,1.921.268.268,0,0,0-.273-.039,14.07,14.07,0,0,0-6.642,7.057,21.552,21.552,0,0,0-2.175,8.7,11.344,11.344,0,0,1-1.657.514c-.711.212-1.393.488-2.091.738-1.368.489-2.754.922-4.144,1.344s-2.761.865-4.145,1.29a21.274,21.274,0,0,0-2.046.662c-.475.2-.921.437-1.389.639A13.669,13.669,0,0,0,26.75,15.6a17.87,17.87,0,0,0-11.464-3.7A13.211,13.211,0,0,0,9.1,13.819a.268.268,0,0,0-.273-.039,14.072,14.072,0,0,0-6.642,7.057A20.54,20.54,0,0,0,.062,31.272a12.053,12.053,0,0,0,4.2,8.433,21.46,21.46,0,0,0,9.48,4.363,15.859,15.859,0,0,0,10.39-1.393,14.11,14.11,0,0,0,6.8-7.8,21.128,21.128,0,0,0,.945-10.92l0-.022a4.556,4.556,0,0,0,1.113-.26c.719-.25,1.469-.419,2.206-.609,1.537-.4,3.039-.891,4.558-1.35,1.475-.446,2.958-.891,4.4-1.435a22.114,22.114,0,0,1,2.226-.744c.268-.07.522-.135.766-.217,0,.024,0,.047,0,.071a12.053,12.053,0,0,0,4.2,8.433,21.46,21.46,0,0,0,9.48,4.363,17.4,17.4,0,0,0,1.921.263c-.324.936-.523,1.909-.806,2.877-.475,1.632-.94,3.274-1.357,4.921-.409,1.614-.775,3.24-1.038,4.884a34.126,34.126,0,0,0-.576,3.871,17.356,17.356,0,0,0-7.743-1.5,13.21,13.21,0,0,0-6.189,1.921.268.268,0,0,0-.273-.039,14.072,14.072,0,0,0-6.642,7.057,20.541,20.541,0,0,0-2.119,10.435,12.053,12.053,0,0,0,4.2,8.433,21.46,21.46,0,0,0,9.48,4.363,15.858,15.858,0,0,0,10.39-1.393,14.11,14.11,0,0,0,6.8-7.8,21.128,21.128,0,0,0,.945-10.92A13.658,13.658,0,0,0,62.695,51.2a17.581,17.581,0,0,0-2.082-1.377.863.863,0,0,0,.107-.435,28.011,28.011,0,0,1,.606-4.215c.265-1.642.631-3.265,1.028-4.879.384-1.563.779-3.124,1.11-4.7.171-.813.272-1.634.422-2.45.039-.211.087-.427.126-.644a15.517,15.517,0,0,0,7.209-1.709,14.109,14.109,0,0,0,6.8-7.8,21.126,21.126,0,0,0,.945-10.92M9.817,41.046q-.424-.182-.84-.381c0-.283.007-.569-.006-.83q-.046-.9-.054-1.8a4.973,4.973,0,0,1,.589-2.731,3.627,3.627,0,0,1,2.526-1.693,11.481,11.481,0,0,0-1.567,2.559c-.515.96-1.605,2.094-1.466,3.262.03.255.41.357.482.065a15.9,15.9,0,0,1,1.459-3.171,12.6,12.6,0,0,1,1.525-2.791,11.79,11.79,0,0,1,1.83-.081c-.841,1.412-1.885,2.713-2.684,4.15-.532.958-1.073,1.9-1.534,2.9-.073.157-.182.347-.259.541m.618.253c.11-.281.214-.569.341-.843.46-.99,1.017-1.93,1.535-2.889.76-1.407,1.744-2.681,2.483-4.094l.613.021c.329.011.658.028.987.047a23.4,23.4,0,0,1-1.321,2.215c-.5.869-.97,1.752-1.465,2.62-.559.979-1.746,2.157-1.911,3.374q-.638-.205-1.262-.451m7.875,1.268a9.822,9.822,0,0,0,1.037-2.22A13.322,13.322,0,0,0,20.553,38c.092-.3-.364-.418-.462-.128a17.233,17.233,0,0,1-1.337,2.418,5.211,5.211,0,0,0-.829,2.287.149.149,0,0,0,0,.021,13.112,13.112,0,0,1-1.735.016,16.689,16.689,0,0,1-1.662-.184,9.015,9.015,0,0,0,.662-1.731c.306-.739.637-1.478,1.012-2.184.807-1.52,1.57-3.067,2.521-4.5.166-.251-.228-.471-.4-.233a41.046,41.046,0,0,0-2.784,4.665c-.346.649-.652,1.332-.942,2.008a3.23,3.23,0,0,0-.461,1.913q-.9-.164-1.778-.415a12.676,12.676,0,0,1,.859-1.785c.44-.684.869-1.348,1.247-2.069.444-.849.929-1.676,1.359-2.532a17.989,17.989,0,0,0,1.049-2c.731.045,1.462.091,2.194.089a4.016,4.016,0,0,1,3.139,1,4.719,4.719,0,0,1,1.2,3.016c.055.588.125,1.177.17,1.765.037.487-.067,1.009.016,1.487a14.129,14.129,0,0,1-5.283,1.644M29.935,32.106a13.135,13.135,0,0,1-4.664,7.738c-.022-.539-.125-1.092-.165-1.56a9.538,9.538,0,0,0-.68-3.256,5.219,5.219,0,0,0-5.087-3.007c-3.861.042-9.584-1.287-11.406,3.286a6.877,6.877,0,0,0-.284,3.372c.051.441.089.923.172,1.394-.3-.163-.592-.331-.879-.506a10.51,10.51,0,0,1-4.995-6.548A18.548,18.548,0,0,1,3.023,22.269,17.416,17.416,0,0,1,5.3,17.981c2.773-1.759,5.354-4.027,8.746-4.448a16.181,16.181,0,0,1,9.695,2.126,12.612,12.612,0,0,1,5.808,6.285,17.583,17.583,0,0,1,.39,10.162M44.922,76.27c0-.281.008-.566-.005-.83-.018-.338-.03-.677-.039-1.016a12.4,12.4,0,0,1,1.041-1.753c.421-.62.822-1.25,1.224-1.883.221-.348.424-.708.644-1.055.09-.142.2-.365.328-.549a9.322,9.322,0,0,1,1.7-.131c-.7,1.205-1.649,2.24-2.391,3.429a20.879,20.879,0,0,0-2.285,3.888l-.213-.1m-.06-2.83a4.685,4.685,0,0,1,.7-2.7,3.56,3.56,0,0,1,2.151-1.467l-.013.018c-.467.648-.922,1.31-1.359,1.979-.457.7-.977,1.36-1.418,2.07-.02.032-.038.065-.057.1m.8,3.168c1.038-2.776,3.349-4.9,4.642-7.548.4.01.8.03,1.186.043.215.008.43.018.645.03a33.733,33.733,0,0,1-3.2,4.457c-.479.568-.987,1.108-1.427,1.708-.354.482-.848,1.125-.688,1.754a.131.131,0,0,0,.01.024q-.591-.217-1.167-.468m9.87,1.372A20.888,20.888,0,0,0,56.776,75.8a.263.263,0,0,0-.454-.266c-.309.544-.606,1.1-.937,1.627-.206.33-.446.638-.666.958a13.423,13.423,0,0,1-1.457.121,11.313,11.313,0,0,0,1.2-1.568,19.283,19.283,0,0,0,1.554-2.524c.148-.291-.289-.549-.439-.257A19.162,19.162,0,0,1,54.094,76.3a15.578,15.578,0,0,0-1.477,1.944q-.24,0-.479-.019a17.419,17.419,0,0,1-2.994-.448A5.819,5.819,0,0,0,50.221,76.4c.46-.707.9-1.428,1.324-2.156.826-1.412,1.606-2.85,2.385-4.289a.26.26,0,0,0-.449-.263c-.786,1.38-1.573,2.761-2.4,4.12q-.582.962-1.19,1.908a8.076,8.076,0,0,0-1.118,1.961q-.884-.228-1.747-.536a.154.154,0,0,0,.046-.029,3.008,3.008,0,0,0,.5-.793,8.78,8.78,0,0,1,.791-1.152c.463-.578.962-1.124,1.416-1.71a31.152,31.152,0,0,0,2.838-4.3c.842.05,1.683.106,2.526.1a3.854,3.854,0,0,1,3.083,1.078,4.834,4.834,0,0,1,1.127,3.007c.049.565.12,1.129.164,1.693.037.487-.067,1.009.016,1.487a14.215,14.215,0,0,1-4.006,1.452m9.957-20.432a17.583,17.583,0,0,1,.39,10.162,13.135,13.135,0,0,1-4.664,7.739c-.022-.529-.123-1.071-.162-1.534a9.679,9.679,0,0,0-.632-3.174,5.191,5.191,0,0,0-5-3.116c-3.879.024-9.712-1.306-11.54,3.287a6.754,6.754,0,0,0-.3,3.243c.05.476.088,1,.18,1.519-.3-.162-.587-.329-.872-.5a10.51,10.51,0,0,1-4.995-6.548,18.548,18.548,0,0,1,1.075-10.749,17.416,17.416,0,0,1,2.273-4.288c2.773-1.759,5.354-4.027,8.746-4.448a16.181,16.181,0,0,1,9.695,2.126,12.611,12.611,0,0,1,5.808,6.285M56.065,28.785c0-.283.007-.569-.006-.83s-.023-.52-.032-.781a.224.224,0,0,0,.058-.27c-.09-.19.662-1.3.763-1.484.289-.521.544-1.048.808-1.581.324-.654.591-1.34.955-1.973a6.035,6.035,0,0,1,1.213-.24c-.656.919-1.152,1.979-1.713,2.93-.659,1.118-2.124,2.551-2,3.951a.3.3,0,0,0,.437.251.475.475,0,0,0,.294-.362.141.141,0,0,0-.074-.166,16.422,16.422,0,0,1,1.9-3.457,35.925,35.925,0,0,1,1.784-3.19c.329-.012.662-.011.991,0-.894,1.554-1.66,3.188-2.66,4.671A7.869,7.869,0,0,0,57.25,29.31q-.6-.246-1.186-.524m-.059-2.938a4.659,4.659,0,0,1,.588-2.42,3.38,3.38,0,0,1,1.374-1.3c-.376.623-.653,1.344-.959,1.945s-.674,1.177-1,1.771m9.971,4.767c.274-.5.433-1.095.689-1.6.376-.736.794-1.449,1.187-2.176a.26.26,0,0,0-.449-.263c-.438.751-.9,1.486-1.32,2.25a4.892,4.892,0,0,0-.764,1.865,13.231,13.231,0,0,1-1.75.053,5.014,5.014,0,0,0,.393-.857c.247-.6.494-1.194.778-1.775.507-1.039,1.065-2.053,1.623-3.065a.269.269,0,0,0-.465-.272c-.612,1.035-1.224,2.072-1.779,3.139-.27.519-.5,1.052-.729,1.588a5,5,0,0,0-.46,1.2q-.679-.055-1.357-.165c.269-.519.427-1.127.709-1.641.361-.658.715-1.319,1.077-1.976a29,29,0,0,0,1.976-4.04c.117-.321-.386-.451-.507-.14a35.514,35.514,0,0,1-2.362,4.478c-.359.635-.73,1.272-1.058,1.924a3.484,3.484,0,0,0-.466,1.282A19.859,19.859,0,0,1,58,29.6a.153.153,0,0,0-.1-.045,7.983,7.983,0,0,1,1.675-3.409,20.216,20.216,0,0,0,1.2-2.3c.371-.748.743-1.494,1.076-2.259l.644.022c1.221.04,2.44.169,3.661.165a4.016,4.016,0,0,1,3.139,1,4.719,4.719,0,0,1,1.2,3.016c.055.588.125,1.177.17,1.765.037.487-.067,1.009.016,1.487a14.174,14.174,0,0,1-4.706,1.572M77.023,20.225a13.135,13.135,0,0,1-4.664,7.738c-.022-.539-.125-1.092-.165-1.56a9.54,9.54,0,0,0-.68-3.256,5.219,5.219,0,0,0-5.087-3.007c-3.861.042-9.584-1.287-11.406,3.286a6.877,6.877,0,0,0-.284,3.372c.051.441.089.923.172,1.394-.3-.163-.592-.331-.879-.506a10.511,10.511,0,0,1-4.995-6.548,18.549,18.549,0,0,1,1.075-10.749A17.416,17.416,0,0,1,52.384,6.1c2.773-1.759,5.354-4.027,8.746-4.448a16.181,16.181,0,0,1,9.695,2.126,12.612,12.612,0,0,1,5.808,6.285,17.584,17.584,0,0,1,.39,10.162M18.881,18.632a6.048,6.048,0,0,0-5.162-.067,6.769,6.769,0,0,0-.887.486A5.006,5.006,0,0,0,10.4,21.679a7.2,7.2,0,0,0-.582,3.88c.328,2.726,2.146,5.155,5.022,5.4a7.338,7.338,0,0,0,7.263-4.38,6.435,6.435,0,0,0-3.22-7.943M11.4,22.647c.01-.043.021-.086.032-.129a8.84,8.84,0,0,1,2.835-2.389c-.4.587-.738,1.243-1.046,1.733-.515.82-1.042,1.638-1.49,2.5-.139.267-.3.56-.44.866a6.955,6.955,0,0,1,.109-2.577m.121,3.56c.309-.517.471-1.157.75-1.685.391-.741.843-1.448,1.275-2.166a21.612,21.612,0,0,1,1.638-2.538A3.939,3.939,0,0,1,17,19.864a33.677,33.677,0,0,0-2.651,3.446c-.548.794-1.058,1.614-1.6,2.41a6.621,6.621,0,0,0-.84,1.374,4.99,4.99,0,0,1-.388-.886m9-.875a5.4,5.4,0,0,1-4.792,3.787,3.849,3.849,0,0,1-3.5-1.524c1.776-2.5,3.348-5.131,5.147-7.618l.031.01a4.711,4.711,0,0,1,1.047.529c-.918,1.2-1.761,2.449-2.613,3.7-.485.711-.972,1.421-1.41,2.162a4.49,4.49,0,0,0-.855,2.131.154.154,0,0,0,.26.107,12.212,12.212,0,0,0,1.181-2.05c.414-.7.87-1.381,1.324-2.059.829-1.239,1.635-2.494,2.466-3.732a5.068,5.068,0,0,1,1.149,1.309,7.9,7.9,0,0,1-.917,1.175,19.206,19.206,0,0,0-1.282,1.66c-.487.693-1.013,1.356-1.507,2.043a4.361,4.361,0,0,0-1.05,1.994c-.013.166.194.212.3.124a10.337,10.337,0,0,0,1.432-2.017c.514-.717,1.059-1.412,1.543-2.15.506-.772,1.252-1.514,1.736-2.353a4.557,4.557,0,0,1,.315.922q-.719.9-1.383,1.847a9.606,9.606,0,0,0-1.541,2.532.177.177,0,0,0,.293.171,10.8,10.8,0,0,0,1.61-2.331q.536-.836,1.109-1.645a4,4,0,0,1-.1,1.276" transform="translate(0 0)"/>
        </g>
      </g>
    </g>
  </g>
</svg>
