<svg xmlns="http://www.w3.org/2000/svg" xmlns:xlink="http://www.w3.org/1999/xlink" width="99" height="99" viewBox="0 0 99 99">
  <defs>
    <clipPath id="clip-path">
      <rect id="Rectangle_23" data-name="Rectangle 23" width="48.896" height="50.078" fill="#fff"/>
    </clipPath>
    <clipPath id="clip-path-2">
      <rect id="Rectangle_19" data-name="Rectangle 19" width="72.991" height="70.824" fill="none"/>
    </clipPath>
    <clipPath id="clip-path-3">
      <rect id="Rectangle_19-2" data-name="Rectangle 19" width="72.991" height="70.824"/>
    </clipPath>
  </defs>
  <g id="Group_780" data-name="Group 780" transform="translate(-239 -2085.074)">
    <g id="Group_755" data-name="Group 755" transform="translate(-863.591 668.227)">
      <circle id="Ellipse_5" data-name="Ellipse 5" cx="49.5" cy="49.5" r="49.5" transform="translate(1102.591 1416.848)" fill="#fbad18"/>
    </g>
    <g id="Group_226" data-name="Group 226" transform="translate(-9630 -12756.262)">
      <g id="Group_218" data-name="Group 218" transform="translate(9896.282 14865.552)">
        <g id="Group_56" data-name="Group 56" transform="translate(0 0)" clip-path="url(#clip-path)">
          <path id="Path_190" data-name="Path 190" d="M33.724,4.065C29.741,2.954,25.546,1.87,21.376,2.358c-4.121.483-7.209,2.683-9.863,5.76C6.271,14.2,1.056,21.425.537,29.711.082,36.982,3.644,44.454,10.693,47.119c7.755,2.932,17.771,1.1,24.818-2.885A26.219,26.219,0,0,0,48.751,24.728,22.087,22.087,0,0,0,39.74,4.568c-13.786-10.347-33.4-1.979-38.4,13.71C-1.1,25.963-.241,35.143,4.2,41.965A17.749,17.749,0,0,0,13.365,49.4c4.184,1.38,8.716.5,12.6-1.351a26.268,26.268,0,0,0,14.347-19.6A19.284,19.284,0,0,0,28.627,7.938c-3.911-1.654-8.833-2.48-12.941-1.081A13.814,13.814,0,0,0,8,13.975C4.5,21.093,4.233,31.267,9.243,37.744c5.15,6.659,14.39,7.535,20.245,1.276,5.334-5.7,7.171-15.646,1.843-21.974C26.5,11.3,17.26,10.933,12.9,17.374,9.061,23.042,8.081,35.03,16.052,37.732c8.271,2.805,13-10.125,8.233-15.646-6.474-7.5-12.061,9.415-4.07,9.56a4.152,4.152,0,0,0,3.729-2.453c.949-2,.09-4.039-.945-5.8A1.939,1.939,0,0,0,19.979,23a3.605,3.605,0,0,0,1.449,5.907c2.365.994,3.4-2.868,1.062-3.85q.539.2.207.661l-3.019-.389a2.274,2.274,0,0,1,.505,1.186c.023.233-.1,1.071.1.886.326-.315,0,.119.119-.425a3.835,3.835,0,0,0-.1-.761c-.026-.378-.121-1.717.2-1.961.686-.523,1.213.814,1.356,1.258.768,2.36-.12,6.786-2.512,8.05-3.128,1.654-4.925-3.01-5.039-5.253A14.358,14.358,0,0,1,16.2,19.995c2.933-4.583,9.491-3.691,12.276.617C31.74,25.668,29.544,33.14,25.035,36.7c-4.792,3.79-10.879,1.009-13.256-4.117-2.325-5.014-1.85-12.1.842-16.9a7.678,7.678,0,0,1,5.928-4.316,15.986,15.986,0,0,1,8.506,1.8,14.032,14.032,0,0,1,7.65,14.274C33.69,37.723,19.639,50.666,10.27,41.122c-8.225-8.378-6.5-23.691,1.849-31.262,8.485-7.7,22.207-7.11,29.049,2.462,7.274,10.178,1.3,23.561-8.987,28.859a29.731,29.731,0,0,1-18.465,2.744C7.927,42.834,4.5,38.044,3.809,32.379c-.75-6.16,2.005-12.034,5.316-17.049a50.239,50.239,0,0,1,5.762-7.52,11.87,11.87,0,0,1,8.922-3.548,38.08,38.08,0,0,1,9.421,1.6.931.931,0,0,0,.495-1.794" transform="translate(0 0)" fill="#fff"/>
        </g>
      </g>
      <g id="Group_219" data-name="Group 219" transform="translate(9881.229 14854.794)">
        <g id="Group_47" data-name="Group 47" transform="translate(0 0)">
          <g id="Group_46" data-name="Group 46" transform="translate(0 0)" clip-path="url(#clip-path-2)">
            <path id="Path_168" data-name="Path 168" d="M27.022,64.487a7.247,7.247,0,0,0,3.116.844c3.2.127,4.507-.469,5.012-3.514.666-4.009,3.09-7.651,7.768-5.214a1.929,1.929,0,0,1,.838.848l1.709,3.416a2.8,2.8,0,0,0,3.34,1.39,11.333,11.333,0,0,0,2.085-.971C53.423,59.78,55.077,58,53.545,55.2c-1.047-1.909-3.812-8.467.675-8.685,1.652-.08,3.855,1.56,5.291,2.24a2.806,2.806,0,0,0,2.569-.1,6.546,6.546,0,0,0,2.2-2.012c1.494-2.182,1.614-4.564-.172-6.1a5,5,0,0,0-.862-.593c-2.805-1.542-7.588-2.981-6.34-7.121.7-2.322,4.285-2.949,6.383-3.8a2.752,2.752,0,0,0,1.688-2.116,6.9,6.9,0,0,0-.518-3.88c-.7-1.528-2.164-3.058-3.981-3.09-1.62-.029-2.864,1.444-4.533,1.377-5.066-.2-4.2-5.75-2.265-8.764A2.747,2.747,0,0,0,53.6,9.462,8.428,8.428,0,0,0,48.077,6.09c-4.416-.692-4,7.025-8.524,5.939-3.791-.908-2.832-7.431-6.236-8.075a11.607,11.607,0,0,0-5.855.394A2.949,2.949,0,0,0,25.344,7.9c.34,2.573.647,4.612-.615,7.052-.035.029-.061.06-.1.088-2.655,1.964-5.852-.932-7.867-2.474a2.837,2.837,0,0,0-3.579.178c-.26.221-.508.425-.743.618-1.709,1.408-3.885,3.949-2.963,6.361.536,1.406,1.58,1.666,2.636,2.433,2.176,1.579,2.332,5.307-.1,6.775-1.363.822-4.007.333-5.555.364a2.731,2.731,0,0,0-2.68,2.321,11.556,11.556,0,0,0,.166,4.234c.65,2.871,3.654,2.467,5.931,2.665a5.007,5.007,0,0,1,4.048,2.064c2.773,4.127-.7,5.958-3.572,8.307a2.731,2.731,0,0,0-.77,3.282,9.073,9.073,0,0,0,3.657,3.983c2.011,1.171,2.719.25,4.148-.987a5.091,5.091,0,0,1,5.285-1.07c1.5.441,3.089.591,3.384,2.342.273,1.628-.315,3.718-.469,5.363a2.735,2.735,0,0,0,1.44,2.69M53.975,21.745a.418.418,0,0,0-.1.07c-.037-.032-.082-.054-.117-.088s-.076-.088-.115-.129c.107.054.218.1.329.146M25.78,54.311a18.7,18.7,0,0,0-2.413-1.517.451.451,0,0,0-.2-.264q1.314.762,2.632,1.523a.442.442,0,0,0,.445-.764l-4.511-2.611a.443.443,0,0,0-.447.764l1.861,1.076a.445.445,0,0,0-.177-.048c-.093-.007-.188-.006-.282-.009-.258-.124-.516-.254-.775-.365a2.82,2.82,0,0,0-1.107-.225,2.744,2.744,0,0,0-.675.093q-.467-.745-.935-1.488c-.3-.482-1.068-.038-.764.445l.875,1.395a2.615,2.615,0,0,0-.313.226l-.644.555q-.574-.745-1.143-1.49c-.343-.444-1.111,0-.765.447q.622.808,1.243,1.618l-.936.808-1.224-1.5c-.362-.44-.984.188-.627.625l1.184,1.446-.184.159a1.844,1.844,0,0,1-.337.206.371.371,0,0,0-.162-.048c-.009-.01-.012-.02-.022-.031l-1.77-1.62c-.419-.386-1.049.24-.627.624l1.408,1.29a1.88,1.88,0,0,1-.727-.226A8.218,8.218,0,0,1,10.352,51.8a1.879,1.879,0,0,1,.537-2.256l3.895-3.182a2.771,2.771,0,0,0,.93-2.827,20.618,20.618,0,0,0-.834-2.554c-.025-.064-.058-.129-.085-.193a.4.4,0,0,0-.042-.353c-.086-.145-.19-.26-.285-.39-.235-.514-.483-1.019-.759-1.51a2.677,2.677,0,0,0-1.246-1.108.384.384,0,0,0,.159-.339q-.028-.885-.058-1.767c-.019-.568-.9-.57-.884,0,.018.589.038,1.177.057,1.767a.447.447,0,0,0,.029.129,2.613,2.613,0,0,0-.454-.06H10.4a.452.452,0,0,0,.072-.333q-.147-.883-.3-1.767c-.093-.559-.946-.323-.854.235q.149.883.3,1.767a.388.388,0,0,0,.037.1H8.135L8,35.321c-.041-.565-.927-.57-.884,0l.134,1.836h-.6c-.053,0-.1-.009-.152-.013,0-.009,0-.016,0-.025q-.147-.883-.3-1.767c-.095-.561-.948-.323-.853.234l.2,1.222a1.909,1.909,0,0,1-.774-1.146A10.735,10.735,0,0,1,4.51,33.04a10.5,10.5,0,0,1,.11-1.3A1.882,1.882,0,0,1,6.472,30.15l4.627-.089a2.741,2.741,0,0,0,2.037-.948A9.248,9.248,0,0,0,15.2,24.739a2.683,2.683,0,0,0-.307-1.731.5.5,0,0,0-.015-.213.374.374,0,0,0,.275-.218c.1-.2.2-.391.295-.589.254-.508-.51-.957-.764-.445-.1.2-.2.393-.3.589a.5.5,0,0,0-.041.149c-.013-.01-.02-.026-.034-.038-.035-.031-.174-.139-.48-.368h0q.221-.738.441-1.474a.443.443,0,0,0-.853-.235q-.171.572-.343,1.143l-.933-.7-.085-.064q.226-.883.45-1.766a.443.443,0,0,0-.853-.235l-.364,1.428-.645-.485a.449.449,0,0,0,.063-.127q.234-.881.47-1.761a.447.447,0,0,0-.736-.431c.381-1.351,1.227-2.068,2.537-3.147.238-.2.491-.4.774-.644a1.955,1.955,0,0,1,2.489-.136l3.942,3.022a2.775,2.775,0,0,0,1.681.574c.015.019.105,0,.158,0a5.808,5.808,0,0,0,3.095-1.094.382.382,0,0,0,.315-.213c.018-.035.032-.072.051-.105a5.912,5.912,0,0,0,1.573-2.2c.028-.072.048-.148.072-.222a2.247,2.247,0,0,0,1.8-.662.442.442,0,0,0-.627-.624,1.37,1.37,0,0,1-1.062.419,2.807,2.807,0,0,0-.037-.367l-.092-.552c.507-.007,1.014-.013,1.522-.022a.442.442,0,0,0,0-.884l-1.669.023L26.8,9.3q.922-.066,1.846-.129c.565-.039.57-.923,0-.885l-1.991.14-.165-.984,1.828-.253c.562-.077.323-.929-.235-.853l-1.6.222a1.894,1.894,0,0,1,1.254-1.4,10.721,10.721,0,0,1,1.912-.45,10.834,10.834,0,0,1,3.52.086,1.922,1.922,0,0,1,1.574,1.69l.329,3.207a2.7,2.7,0,0,0,.792,1.669,6.2,6.2,0,0,0,1.972,1.288,6.563,6.563,0,0,0,4.532.089,2.745,2.745,0,0,0,1.154-.743l1.108.606c.5.273.948-.489.447-.762l-1.04-.57.3-.5,1.766.819c.514.24.962-.523.447-.762L44.779,10l.6-1.021,2.2,1.241a.442.442,0,0,0,.445-.762c-.733-.415-1.466-.827-2.2-1.241l.215-.361a1.951,1.951,0,0,1,.441-.5.34.34,0,0,0,.222.342l2.656,1.177c.517.229.967-.533.447-.762L47.246,6.98a1.734,1.734,0,0,1,.7-.047,7.543,7.543,0,0,1,4.967,3.035,1.886,1.886,0,0,1,.042,2.128l-2.221,3.463a2.762,2.762,0,0,0-.291,2.388,11.3,11.3,0,0,0,1.3,2.654,11.424,11.424,0,0,0,1.415,1.729,2.793,2.793,0,0,0,2.459.756l.881,2.348c.2.527,1.056.3.854-.235l-.885-2.357c0-.009-.01-.015-.013-.022l1.44-.57a.459.459,0,0,0,.013.329q.443,1.032.885,2.064c.225.521.987.07.765-.447q-.442-1.032-.886-2.064a.388.388,0,0,0-.1-.148l1.269-.5.536,1.875a.443.443,0,0,0,.853-.235q-.274-.964-.551-1.929a1.9,1.9,0,0,1,.859-.031.392.392,0,0,0,.019.131q.442,1.253.886,2.5c.187.533,1.043.3.853-.235s-.38-1.075-.571-1.612a5.835,5.835,0,0,1,.958,1.437,6.044,6.044,0,0,1,.451,3.4,1.9,1.9,0,0,1-1.165,1.453l-5.087,2.072a2.739,2.739,0,0,0-1.514,1.5,7.427,7.427,0,0,0-.085,5.455,2.694,2.694,0,0,0,.808,1.119q-.412,1.43-.827,2.864a.443.443,0,0,0,.854.235q.377-1.308.755-2.617l.774.381a.461.461,0,0,0-.07.2L58.282,42.1c-.063.564.822.559.884,0l.27-2.461.992.486a.371.371,0,0,0-.057.089q-.445,1.179-.885,2.357c-.2.535.654.764.853.235q.432-1.15.865-2.3l1.284.629a.4.4,0,0,0-.2.258q-.3,1.106-.59,2.21a.444.444,0,0,0,.854.237q.294-1.106.59-2.21a.447.447,0,0,0,.01-.168l.321.158a1.885,1.885,0,0,1,1.068,1.858,5.7,5.7,0,0,1-2.886,4.441,1.947,1.947,0,0,1-1.779.07l-4.1-1.945a2.758,2.758,0,0,0-1.809-.2,6.232,6.232,0,0,0-2.721,1.382A6.333,6.333,0,0,0,49.3,50.474a2.713,2.713,0,0,0,.117,1.6l-2.208,1.79c-.443.359.188.981.627.627q1.008-.817,2.012-1.636l.012.018.359.435-1.7,1.567c-.419.387.209,1.011.627.625l1.64-1.51.641.775q-.793.789-1.583,1.58a.442.442,0,0,0,.625.624q.762-.758,1.523-1.519l.713.86a1.956,1.956,0,0,1,.237.38q-.944.874-1.888,1.747c-.419.387.207,1.012.625.625q.723-.666,1.443-1.335a1.946,1.946,0,0,1-.543,1.16,10.516,10.516,0,0,1-4.048,2.562,1.928,1.928,0,0,1-2.293-.967l-1.709-3.416a2.776,2.776,0,0,0-1.208-1.222,8.079,8.079,0,0,0-4.209-.9,7.914,7.914,0,0,0-3.3.958,2.714,2.714,0,0,0-1.285,1.659l-2.493-.139c-.568-.032-.565.853,0,.884l2.326.13-.146,1.009-2.359-.377c-.558-.089-.8.764-.235.853l2.47.394-.127.9-2.075-.258c-.564-.07-.558.815,0,.885l1.951.242-.076.523c-.006.042-.026.08-.035.123H31.44a.443.443,0,0,0,0,.885h1.844a1.814,1.814,0,0,1-.758.517,6.4,6.4,0,0,1-5.107-.4,1.883,1.883,0,0,1-.986-1.856L26.9,56.8a2.766,2.766,0,0,0-1.125-2.49" transform="translate(1.682 1.726)" fill="#565655"/>
            <path id="Path_169" data-name="Path 169" d="M28.429,48.654c.5-.044,1.044-.063,1.723-.063.365,0,.73,0,1.1.01s.74.01,1.111.01a15.348,15.348,0,0,0,3.346-.3c5.278-1.186,9.024-4.676,11.785-10.987a19.536,19.536,0,0,0,1.484-7.1c.336-7.8-5.736-15.339-13.532-16.795a27.509,27.509,0,0,0-5.04-.488c-6.746,0-11.94,2.836-15.017,8.2a21.682,21.682,0,0,0-2.334,12.641c.428,4.3,3.4,7.676,6.161,10.5,2.838,2.909,5.7,4.386,8.524,4.386.228,0,.46-.01.691-.029m-8.6-4.952C17.173,40.977,14.3,37.733,13.9,33.71A20.805,20.805,0,0,1,16.13,21.577c3.683-6.424,9.8-7.774,14.274-7.774a26.845,26.845,0,0,1,4.884.473c7.4,1.382,13.152,8.523,12.834,15.918a18.73,18.73,0,0,1-1.412,6.792c-2.643,6.04-6.2,9.374-11.19,10.494a14.537,14.537,0,0,1-3.159.277c-.367,0-.732-.006-1.1-.012s-.74-.01-1.11-.01c-.705,0-1.278.02-1.8.066-2.824.245-5.647-1.145-8.527-4.1" transform="translate(5.953 5.962)" fill="#565655"/>
            <path id="Path_170" data-name="Path 170" d="M29.416,45.049c.308,0,.618,0,.927.01s.628.009.94.009a12.96,12.96,0,0,0,2.84-.254c4.482-1.006,7.661-3.968,10.005-9.32a16.606,16.606,0,0,0,1.259-6.02A14.406,14.406,0,0,0,33.9,15.214,23.472,23.472,0,0,0,29.63,14.8c-5.725,0-10.134,2.408-12.746,6.965A18.382,18.382,0,0,0,14.9,32.486C15.267,36.139,17.79,39,20.128,41.4c2.408,2.472,4.849,3.727,7.249,3.727.194,0,.391-.009.589-.026.416-.035.878-.053,1.45-.053M20.848,40.6c-2.163-2.25-4.5-4.93-4.822-8.244a17.386,17.386,0,0,1,1.809-10.017c3-5.3,7.966-6.41,11.609-6.41a20.694,20.694,0,0,1,3.978.391c5.931,1.16,10.724,7.2,10.436,13.128a15.991,15.991,0,0,1-1.148,5.605c-2.153,4.986-5.044,7.739-9.1,8.662a11.583,11.583,0,0,1-2.566.228c-.3,0-.6,0-.9-.009s-.606-.009-.908-.009c-.578,0-1.047.018-1.475.054-2.29.2-4.575-.945-6.915-3.379" transform="translate(6.813 6.814)" fill="#565655"/>
            <path id="Path_171" data-name="Path 171" d="M15.528,14.523a6.012,6.012,0,0,0,5.771-1.7c.4-.41-.229-1.037-.624-.625a5.1,5.1,0,0,1-4.913,1.471c-.553-.13-.79.721-.235.851" transform="translate(7.003 5.555)" fill="#565655"/>
            <path id="Path_172" data-name="Path 172" d="M11.3,24.782a7.373,7.373,0,0,0,2.391-6.331c-.064-.558-.951-.565-.886,0a6.548,6.548,0,0,1-2.131,5.706c-.422.384.206,1.008.627.625" transform="translate(4.849 8.3)" fill="#565655"/>
            <path id="Path_173" data-name="Path 173" d="M10.564,27.354a10.734,10.734,0,0,1,2.586,5.525c.089.561.942.323.853-.235a11.571,11.571,0,0,0-2.813-5.915c-.378-.426-1,.2-.627.625" transform="translate(4.81 12.24)" fill="#565655"/>
            <path id="Path_174" data-name="Path 174" d="M30,38.049l-5.192.862c-.561.092-.321.945.235.851l5.192-.86c.562-.092.324-.945-.235-.853" transform="translate(11.276 17.514)" fill="#565655"/>
            <path id="Path_175" data-name="Path 175" d="M37.6,32.372A7.922,7.922,0,0,0,34,36.539c-.2.533.651.764.854.237a6.971,6.971,0,0,1,3.192-3.641c.5-.276.051-1.038-.447-.764" transform="translate(15.641 14.876)" fill="#565655"/>
            <path id="Path_176" data-name="Path 176" d="M39.342,27.511l.719-5.453c.074-.564-.812-.558-.885,0q-.359,2.725-.72,5.453c-.073.562.812.556.886,0" transform="translate(17.703 9.961)" fill="#565655"/>
            <path id="Path_177" data-name="Path 177" d="M38.735,19.047a11.372,11.372,0,0,1-3.213-6.264c-.095-.559-.948-.323-.853.235a12.165,12.165,0,0,0,3.439,6.654.443.443,0,0,0,.627-.625" transform="translate(15.958 5.738)" fill="#565655"/>
            <path id="Path_178" data-name="Path 178" d="M24.946,10.692a14.237,14.237,0,0,0,9.576,1.219c.556-.121.32-.973-.237-.853a13.228,13.228,0,0,1-8.891-1.13c-.508-.256-.958.508-.448.764" transform="translate(11.382 4.547)" fill="#565655"/>
            <path id="Path_179" data-name="Path 179" d="M9.221,10.447A27.638,27.638,0,0,1,32.272,2.155l-3.13.269c-.564.048-.57.933,0,.884l5.871-.5a.454.454,0,0,0,.426-.39.415.415,0,0,0-.225-.673c-.459-.1-.917-.178-1.379-.257L29.647.027c-.539-.188-.771.666-.235.851l.651.228A28.525,28.525,0,0,0,8.594,9.822c-.393.412.231,1.038.627.625" transform="translate(3.899 0)" fill="#565655"/>
            <path id="Path_180" data-name="Path 180" d="M42.276,6.259c-.429-.371-1.059.251-.627.625A28.5,28.5,0,0,1,51.4,30.537q-.145-1.621-.292-3.244c-.05-.562-.936-.567-.885,0q.289,3.216.58,6.429c.034.384.631.667.824.223L53.841,28.9c.225-.516-.536-.967-.765-.445q-.4.9-.792,1.805a29.356,29.356,0,0,0-10.008-24" transform="translate(19.109 2.829)" fill="#565655"/>
            <path id="Path_181" data-name="Path 181" d="M54.238,38.548c.31-.48-.456-.923-.764-.445A29.969,29.969,0,0,1,30.786,51.63l3.065-.831a.442.442,0,0,0-.235-.851q-3.227.872-6.451,1.747c-.254-.012-.505-.009-.759-.028-.521-.035-.556.7-.121.851a.435.435,0,0,0,.33.19l7.3.666c.568.053.564-.832,0-.884l-1.5-.137A30.9,30.9,0,0,0,54.238,38.548" transform="translate(11.963 17.448)" fill="#565655"/>
            <path id="Path_182" data-name="Path 182" d="M3.515,28.683q.212-4.184.421-8.368c.026-.54-.694-.543-.87-.118-.037.091-.073.18-.111.27a.387.387,0,0,0-.3.292c-.092.349-.174.7-.256,1.047Q1.217,24.676.035,27.544c-.216.526.64.755.853.235l.83-2.008a33.851,33.851,0,0,0,19.2,34.387c.513.241.961-.52.447-.762a32.978,32.978,0,0,1-18.49-35.5q-.12,2.394-.24,4.789c-.029.568.856.567.884,0" transform="translate(0 9.158)" fill="#565655"/>
            <path id="Path_183" data-name="Path 183" d="M19.661,17.067a1.519,1.519,0,0,0,.272-.34.471.471,0,0,0-.2-.618.41.41,0,0,0-.571.184c-.025.034-.082.093-.161.181-3.192,3.528-9.621,13-.4,24.76a.443.443,0,1,0,.7-.546c-8.806-11.226-2.683-20.257.359-23.621" transform="translate(6.369 7.394)" fill="#565655"/>
            <path id="Path_184" data-name="Path 184" d="M36.961,36.612c-1.643,2.173-4.812,4.808-10.567,5.012l-.147.006a.442.442,0,0,0,.019.884h.019l.139,0c6.106-.218,9.485-3.038,11.245-5.364a18.031,18.031,0,0,0,3.826-13.284.443.443,0,0,0-.875.14,17.114,17.114,0,0,1-3.658,12.611" transform="translate(11.888 10.814)" fill="#565655"/>
          </g>
        </g>
        <g id="Group_48" data-name="Group 48" transform="translate(0 0)">
          <g id="Group_46-2" data-name="Group 46" transform="translate(0 0)" clip-path="url(#clip-path-3)">
            <path id="Path_168-2" data-name="Path 168" d="M27.022,64.487a7.247,7.247,0,0,0,3.116.844c3.2.127,4.507-.469,5.012-3.514.666-4.009,3.09-7.651,7.768-5.214a1.929,1.929,0,0,1,.838.848l1.709,3.416a2.8,2.8,0,0,0,3.34,1.39,11.333,11.333,0,0,0,2.085-.971C53.423,59.78,55.077,58,53.545,55.2c-1.047-1.909-3.812-8.467.675-8.685,1.652-.08,3.855,1.56,5.291,2.24a2.806,2.806,0,0,0,2.569-.1,6.546,6.546,0,0,0,2.2-2.012c1.494-2.182,1.614-4.564-.172-6.1a5,5,0,0,0-.862-.593c-2.805-1.542-7.588-2.981-6.34-7.121.7-2.322,4.285-2.949,6.383-3.8a2.752,2.752,0,0,0,1.688-2.116,6.9,6.9,0,0,0-.518-3.88c-.7-1.528-2.164-3.058-3.981-3.09-1.62-.029-2.864,1.444-4.533,1.377-5.066-.2-4.2-5.75-2.265-8.764A2.747,2.747,0,0,0,53.6,9.462,8.428,8.428,0,0,0,48.077,6.09c-4.416-.692-4,7.025-8.524,5.939-3.791-.908-2.832-7.431-6.236-8.075a11.607,11.607,0,0,0-5.855.394A2.949,2.949,0,0,0,25.344,7.9c.34,2.573.647,4.612-.615,7.052-.035.029-.061.06-.1.088-2.655,1.964-5.852-.932-7.867-2.474a2.837,2.837,0,0,0-3.579.178c-.26.221-.508.425-.743.618-1.709,1.408-3.885,3.949-2.963,6.361.536,1.406,1.58,1.666,2.636,2.433,2.176,1.579,2.332,5.307-.1,6.775-1.363.822-4.007.333-5.555.364a2.731,2.731,0,0,0-2.68,2.321,11.556,11.556,0,0,0,.166,4.234c.65,2.871,3.654,2.467,5.931,2.665a5.007,5.007,0,0,1,4.048,2.064c2.773,4.127-.7,5.958-3.572,8.307a2.731,2.731,0,0,0-.77,3.282,9.073,9.073,0,0,0,3.657,3.983c2.011,1.171,2.719.25,4.148-.987a5.091,5.091,0,0,1,5.285-1.07c1.5.441,3.089.591,3.384,2.342.273,1.628-.315,3.718-.469,5.363a2.735,2.735,0,0,0,1.44,2.69M53.975,21.745a.418.418,0,0,0-.1.07c-.037-.032-.082-.054-.117-.088s-.076-.088-.115-.129c.107.054.218.1.329.146M25.78,54.311a18.7,18.7,0,0,0-2.413-1.517.451.451,0,0,0-.2-.264q1.314.762,2.632,1.523a.442.442,0,0,0,.445-.764l-4.511-2.611a.443.443,0,0,0-.447.764l1.861,1.076a.445.445,0,0,0-.177-.048c-.093-.007-.188-.006-.282-.009-.258-.124-.516-.254-.775-.365a2.82,2.82,0,0,0-1.107-.225,2.744,2.744,0,0,0-.675.093q-.467-.745-.935-1.488c-.3-.482-1.068-.038-.764.445l.875,1.395a2.615,2.615,0,0,0-.313.226l-.644.555q-.574-.745-1.143-1.49c-.343-.444-1.111,0-.765.447q.622.808,1.243,1.618l-.936.808-1.224-1.5c-.362-.44-.984.188-.627.625l1.184,1.446-.184.159a1.844,1.844,0,0,1-.337.206.371.371,0,0,0-.162-.048c-.009-.01-.012-.02-.022-.031l-1.77-1.62c-.419-.386-1.049.24-.627.624l1.408,1.29a1.88,1.88,0,0,1-.727-.226A8.218,8.218,0,0,1,10.352,51.8a1.879,1.879,0,0,1,.537-2.256l3.895-3.182a2.771,2.771,0,0,0,.93-2.827,20.618,20.618,0,0,0-.834-2.554c-.025-.064-.058-.129-.085-.193a.4.4,0,0,0-.042-.353c-.086-.145-.19-.26-.285-.39-.235-.514-.483-1.019-.759-1.51a2.677,2.677,0,0,0-1.246-1.108.384.384,0,0,0,.159-.339q-.028-.885-.058-1.767c-.019-.568-.9-.57-.884,0,.018.589.038,1.177.057,1.767a.447.447,0,0,0,.029.129,2.613,2.613,0,0,0-.454-.06H10.4a.452.452,0,0,0,.072-.333q-.147-.883-.3-1.767c-.093-.559-.946-.323-.854.235q.149.883.3,1.767a.388.388,0,0,0,.037.1H8.135L8,35.321c-.041-.565-.927-.57-.884,0l.134,1.836h-.6c-.053,0-.1-.009-.152-.013,0-.009,0-.016,0-.025q-.147-.883-.3-1.767c-.095-.561-.948-.323-.853.234l.2,1.222a1.909,1.909,0,0,1-.774-1.146A10.735,10.735,0,0,1,4.51,33.04a10.5,10.5,0,0,1,.11-1.3A1.882,1.882,0,0,1,6.472,30.15l4.627-.089a2.741,2.741,0,0,0,2.037-.948A9.248,9.248,0,0,0,15.2,24.739a2.683,2.683,0,0,0-.307-1.731.5.5,0,0,0-.015-.213.374.374,0,0,0,.275-.218c.1-.2.2-.391.295-.589.254-.508-.51-.957-.764-.445-.1.2-.2.393-.3.589a.5.5,0,0,0-.041.149c-.013-.01-.02-.026-.034-.038-.035-.031-.174-.139-.48-.368h0q.221-.738.441-1.474a.443.443,0,0,0-.853-.235q-.171.572-.343,1.143l-.933-.7-.085-.064q.226-.883.45-1.766a.443.443,0,0,0-.853-.235l-.364,1.428-.645-.485a.449.449,0,0,0,.063-.127q.234-.881.47-1.761a.447.447,0,0,0-.736-.431c.381-1.351,1.227-2.068,2.537-3.147.238-.2.491-.4.774-.644a1.955,1.955,0,0,1,2.489-.136l3.942,3.022a2.775,2.775,0,0,0,1.681.574c.015.019.105,0,.158,0a5.808,5.808,0,0,0,3.095-1.094.382.382,0,0,0,.315-.213c.018-.035.032-.072.051-.105a5.912,5.912,0,0,0,1.573-2.2c.028-.072.048-.148.072-.222a2.247,2.247,0,0,0,1.8-.662.442.442,0,0,0-.627-.624,1.37,1.37,0,0,1-1.062.419,2.807,2.807,0,0,0-.037-.367l-.092-.552c.507-.007,1.014-.013,1.522-.022a.442.442,0,0,0,0-.884l-1.669.023L26.8,9.3q.922-.066,1.846-.129c.565-.039.57-.923,0-.885l-1.991.14-.165-.984,1.828-.253c.562-.077.323-.929-.235-.853l-1.6.222a1.894,1.894,0,0,1,1.254-1.4,10.721,10.721,0,0,1,1.912-.45,10.834,10.834,0,0,1,3.52.086,1.922,1.922,0,0,1,1.574,1.69l.329,3.207a2.7,2.7,0,0,0,.792,1.669,6.2,6.2,0,0,0,1.972,1.288,6.563,6.563,0,0,0,4.532.089,2.745,2.745,0,0,0,1.154-.743l1.108.606c.5.273.948-.489.447-.762l-1.04-.57.3-.5,1.766.819c.514.24.962-.523.447-.762L44.779,10l.6-1.021,2.2,1.241a.442.442,0,0,0,.445-.762c-.733-.415-1.466-.827-2.2-1.241l.215-.361a1.951,1.951,0,0,1,.441-.5.34.34,0,0,0,.222.342l2.656,1.177c.517.229.967-.533.447-.762L47.246,6.98a1.734,1.734,0,0,1,.7-.047,7.543,7.543,0,0,1,4.967,3.035,1.886,1.886,0,0,1,.042,2.128l-2.221,3.463a2.762,2.762,0,0,0-.291,2.388,11.3,11.3,0,0,0,1.3,2.654,11.424,11.424,0,0,0,1.415,1.729,2.793,2.793,0,0,0,2.459.756l.881,2.348c.2.527,1.056.3.854-.235l-.885-2.357c0-.009-.01-.015-.013-.022l1.44-.57a.459.459,0,0,0,.013.329q.443,1.032.885,2.064c.225.521.987.07.765-.447q-.442-1.032-.886-2.064a.388.388,0,0,0-.1-.148l1.269-.5.536,1.875a.443.443,0,0,0,.853-.235q-.274-.964-.551-1.929a1.9,1.9,0,0,1,.859-.031.392.392,0,0,0,.019.131q.442,1.253.886,2.5c.187.533,1.043.3.853-.235s-.38-1.075-.571-1.612a5.835,5.835,0,0,1,.958,1.437,6.044,6.044,0,0,1,.451,3.4,1.9,1.9,0,0,1-1.165,1.453l-5.087,2.072a2.739,2.739,0,0,0-1.514,1.5,7.427,7.427,0,0,0-.085,5.455,2.694,2.694,0,0,0,.808,1.119q-.412,1.43-.827,2.864a.443.443,0,0,0,.854.235q.377-1.308.755-2.617l.774.381a.461.461,0,0,0-.07.2L58.282,42.1c-.063.564.822.559.884,0l.27-2.461.992.486a.371.371,0,0,0-.057.089q-.445,1.179-.885,2.357c-.2.535.654.764.853.235q.432-1.15.865-2.3l1.284.629a.4.4,0,0,0-.2.258q-.3,1.106-.59,2.21a.444.444,0,0,0,.854.237q.294-1.106.59-2.21a.447.447,0,0,0,.01-.168l.321.158a1.885,1.885,0,0,1,1.068,1.858,5.7,5.7,0,0,1-2.886,4.441,1.947,1.947,0,0,1-1.779.07l-4.1-1.945a2.758,2.758,0,0,0-1.809-.2,6.232,6.232,0,0,0-2.721,1.382A6.333,6.333,0,0,0,49.3,50.474a2.713,2.713,0,0,0,.117,1.6l-2.208,1.79c-.443.359.188.981.627.627q1.008-.817,2.012-1.636l.012.018.359.435-1.7,1.567c-.419.387.209,1.011.627.625l1.64-1.51.641.775q-.793.789-1.583,1.58a.442.442,0,0,0,.625.624q.762-.758,1.523-1.519l.713.86a1.956,1.956,0,0,1,.237.38q-.944.874-1.888,1.747c-.419.387.207,1.012.625.625q.723-.666,1.443-1.335a1.946,1.946,0,0,1-.543,1.16,10.516,10.516,0,0,1-4.048,2.562,1.928,1.928,0,0,1-2.293-.967l-1.709-3.416a2.776,2.776,0,0,0-1.208-1.222,8.079,8.079,0,0,0-4.209-.9,7.914,7.914,0,0,0-3.3.958,2.714,2.714,0,0,0-1.285,1.659l-2.493-.139c-.568-.032-.565.853,0,.884l2.326.13-.146,1.009-2.359-.377c-.558-.089-.8.764-.235.853l2.47.394-.127.9-2.075-.258c-.564-.07-.558.815,0,.885l1.951.242-.076.523c-.006.042-.026.08-.035.123H31.44a.443.443,0,0,0,0,.885h1.844a1.814,1.814,0,0,1-.758.517,6.4,6.4,0,0,1-5.107-.4,1.883,1.883,0,0,1-.986-1.856L26.9,56.8a2.766,2.766,0,0,0-1.125-2.49" transform="translate(1.682 1.726)"/>
            <path id="Path_169-2" data-name="Path 169" d="M28.429,48.654c.5-.044,1.044-.063,1.723-.063.365,0,.73,0,1.1.01s.74.01,1.111.01a15.348,15.348,0,0,0,3.346-.3c5.278-1.186,9.024-4.676,11.785-10.987a19.536,19.536,0,0,0,1.484-7.1c.336-7.8-5.736-15.339-13.532-16.795a27.509,27.509,0,0,0-5.04-.488c-6.746,0-11.94,2.836-15.017,8.2a21.682,21.682,0,0,0-2.334,12.641c.428,4.3,3.4,7.676,6.161,10.5,2.838,2.909,5.7,4.386,8.524,4.386.228,0,.46-.01.691-.029m-8.6-4.952C17.173,40.977,14.3,37.733,13.9,33.71A20.805,20.805,0,0,1,16.13,21.577c3.683-6.424,9.8-7.774,14.274-7.774a26.845,26.845,0,0,1,4.884.473c7.4,1.382,13.152,8.523,12.834,15.918a18.73,18.73,0,0,1-1.412,6.792c-2.643,6.04-6.2,9.374-11.19,10.494a14.537,14.537,0,0,1-3.159.277c-.367,0-.732-.006-1.1-.012s-.74-.01-1.11-.01c-.705,0-1.278.02-1.8.066-2.824.245-5.647-1.145-8.527-4.1" transform="translate(5.953 5.962)"/>
            <path id="Path_170-2" data-name="Path 170" d="M29.416,45.049c.308,0,.618,0,.927.01s.628.009.94.009a12.96,12.96,0,0,0,2.84-.254c4.482-1.006,7.661-3.968,10.005-9.32a16.606,16.606,0,0,0,1.259-6.02A14.406,14.406,0,0,0,33.9,15.214,23.472,23.472,0,0,0,29.63,14.8c-5.725,0-10.134,2.408-12.746,6.965A18.382,18.382,0,0,0,14.9,32.486C15.267,36.139,17.79,39,20.128,41.4c2.408,2.472,4.849,3.727,7.249,3.727.194,0,.391-.009.589-.026.416-.035.878-.053,1.45-.053M20.848,40.6c-2.163-2.25-4.5-4.93-4.822-8.244a17.386,17.386,0,0,1,1.809-10.017c3-5.3,7.966-6.41,11.609-6.41a20.694,20.694,0,0,1,3.978.391c5.931,1.16,10.724,7.2,10.436,13.128a15.991,15.991,0,0,1-1.148,5.605c-2.153,4.986-5.044,7.739-9.1,8.662a11.583,11.583,0,0,1-2.566.228c-.3,0-.6,0-.9-.009s-.606-.009-.908-.009c-.578,0-1.047.018-1.475.054-2.29.2-4.575-.945-6.915-3.379" transform="translate(6.813 6.814)"/>
            <path id="Path_171-2" data-name="Path 171" d="M15.528,14.523a6.012,6.012,0,0,0,5.771-1.7c.4-.41-.229-1.037-.624-.625a5.1,5.1,0,0,1-4.913,1.471c-.553-.13-.79.721-.235.851" transform="translate(7.003 5.555)"/>
            <path id="Path_172-2" data-name="Path 172" d="M11.3,24.782a7.373,7.373,0,0,0,2.391-6.331c-.064-.558-.951-.565-.886,0a6.548,6.548,0,0,1-2.131,5.706c-.422.384.206,1.008.627.625" transform="translate(4.849 8.3)"/>
            <path id="Path_173-2" data-name="Path 173" d="M10.564,27.354a10.734,10.734,0,0,1,2.586,5.525c.089.561.942.323.853-.235a11.571,11.571,0,0,0-2.813-5.915c-.378-.426-1,.2-.627.625" transform="translate(4.81 12.24)"/>
            <path id="Path_174-2" data-name="Path 174" d="M30,38.049l-5.192.862c-.561.092-.321.945.235.851l5.192-.86c.562-.092.324-.945-.235-.853" transform="translate(11.276 17.514)"/>
            <path id="Path_175-2" data-name="Path 175" d="M37.6,32.372A7.922,7.922,0,0,0,34,36.539c-.2.533.651.764.854.237a6.971,6.971,0,0,1,3.192-3.641c.5-.276.051-1.038-.447-.764" transform="translate(15.641 14.876)"/>
            <path id="Path_176-2" data-name="Path 176" d="M39.342,27.511l.719-5.453c.074-.564-.812-.558-.885,0q-.359,2.725-.72,5.453c-.073.562.812.556.886,0" transform="translate(17.703 9.961)"/>
            <path id="Path_177-2" data-name="Path 177" d="M38.735,19.047a11.372,11.372,0,0,1-3.213-6.264c-.095-.559-.948-.323-.853.235a12.165,12.165,0,0,0,3.439,6.654.443.443,0,0,0,.627-.625" transform="translate(15.958 5.738)"/>
            <path id="Path_178-2" data-name="Path 178" d="M24.946,10.692a14.237,14.237,0,0,0,9.576,1.219c.556-.121.32-.973-.237-.853a13.228,13.228,0,0,1-8.891-1.13c-.508-.256-.958.508-.448.764" transform="translate(11.382 4.547)"/>
            <path id="Path_179-2" data-name="Path 179" d="M9.221,10.447A27.638,27.638,0,0,1,32.272,2.155l-3.13.269c-.564.048-.57.933,0,.884l5.871-.5a.454.454,0,0,0,.426-.39.415.415,0,0,0-.225-.673c-.459-.1-.917-.178-1.379-.257L29.647.027c-.539-.188-.771.666-.235.851l.651.228A28.525,28.525,0,0,0,8.594,9.822c-.393.412.231,1.038.627.625" transform="translate(3.899 0)"/>
            <path id="Path_180-2" data-name="Path 180" d="M42.276,6.259c-.429-.371-1.059.251-.627.625A28.5,28.5,0,0,1,51.4,30.537q-.145-1.621-.292-3.244c-.05-.562-.936-.567-.885,0q.289,3.216.58,6.429c.034.384.631.667.824.223L53.841,28.9c.225-.516-.536-.967-.765-.445q-.4.9-.792,1.805a29.356,29.356,0,0,0-10.008-24" transform="translate(19.109 2.829)"/>
            <path id="Path_181-2" data-name="Path 181" d="M54.238,38.548c.31-.48-.456-.923-.764-.445A29.969,29.969,0,0,1,30.786,51.63l3.065-.831a.442.442,0,0,0-.235-.851q-3.227.872-6.451,1.747c-.254-.012-.505-.009-.759-.028-.521-.035-.556.7-.121.851a.435.435,0,0,0,.33.19l7.3.666c.568.053.564-.832,0-.884l-1.5-.137A30.9,30.9,0,0,0,54.238,38.548" transform="translate(11.963 17.448)"/>
            <path id="Path_182-2" data-name="Path 182" d="M3.515,28.683q.212-4.184.421-8.368c.026-.54-.694-.543-.87-.118-.037.091-.073.18-.111.27a.387.387,0,0,0-.3.292c-.092.349-.174.7-.256,1.047Q1.217,24.676.035,27.544c-.216.526.64.755.853.235l.83-2.008a33.851,33.851,0,0,0,19.2,34.387c.513.241.961-.52.447-.762a32.978,32.978,0,0,1-18.49-35.5q-.12,2.394-.24,4.789c-.029.568.856.567.884,0" transform="translate(0 9.158)"/>
            <path id="Path_183-2" data-name="Path 183" d="M19.661,17.067a1.519,1.519,0,0,0,.272-.34.471.471,0,0,0-.2-.618.41.41,0,0,0-.571.184c-.025.034-.082.093-.161.181-3.192,3.528-9.621,13-.4,24.76a.443.443,0,1,0,.7-.546c-8.806-11.226-2.683-20.257.359-23.621" transform="translate(6.369 7.394)"/>
            <path id="Path_184-2" data-name="Path 184" d="M36.961,36.612c-1.643,2.173-4.812,4.808-10.567,5.012l-.147.006a.442.442,0,0,0,.019.884h.019l.139,0c6.106-.218,9.485-3.038,11.245-5.364a18.031,18.031,0,0,0,3.826-13.284.443.443,0,0,0-.875.14,17.114,17.114,0,0,1-3.658,12.611" transform="translate(11.888 10.814)"/>
          </g>
        </g>
      </g>
    </g>
  </g>
</svg>
