<svg xmlns="http://www.w3.org/2000/svg" xmlns:xlink="http://www.w3.org/1999/xlink" width="99" height="100" viewBox="0 0 99 100">
  <defs>
    <clipPath id="clip-path">
      <rect id="Rectangle_168" data-name="Rectangle 168" width="23.052" height="61.36" fill="#fff"/>
    </clipPath>
    <clipPath id="clip-path-2">
      <rect id="Rectangle_227" data-name="Rectangle 227" width="76.167" height="83.07" fill="none"/>
    </clipPath>
    <clipPath id="clip-path-3">
      <rect id="Rectangle_226" data-name="Rectangle 226" width="76.168" height="83.071" fill="none"/>
    </clipPath>
  </defs>
  <g id="Group_784" data-name="Group 784" transform="translate(-239 -1084)">
    <g id="Group_721" data-name="Group 721" transform="translate(-863.591 -332.848)">
      <circle id="Ellipse_5" data-name="Ellipse 5" cx="49.5" cy="49.5" r="49.5" transform="translate(1102.591 1416.848)" fill="#fbad18"/>
    </g>
    <g id="Group_750" data-name="Group 750" transform="translate(-173.018 -255.381)">
      <g id="Group_402" data-name="Group 402" transform="translate(431.72 1355.137) rotate(-30)">
        <g id="Group_400" data-name="Group 400" transform="translate(0 0)" clip-path="url(#clip-path)">
          <path id="Path_9252" data-name="Path 9252" d="M5.983,0C6.689.356,7.56.874,8.522,1.266a8.857,8.857,0,0,1,4.727,4.192,49.715,49.715,0,0,1,4.726,12.483c1.432,6.485,2.514,13.014,3.7,19.529A86.022,86.022,0,0,1,23,56a14.823,14.823,0,0,1-1.037,5.289c-1.707.255-2.751-.229-3.35-1.246-.8-1.354-1.611-2.71-2.275-4.1A239.782,239.782,0,0,1,6.193,30.242C3.914,23.611,1.5,17,.655,10.15.365,7.807.2,5.455.012,3.105A4.893,4.893,0,0,1,.141,1.632C.4.528.848.27,2.358.207,3.509.158,4.658.077,5.983,0" transform="translate(0 0)" fill="#fff"/>
        </g>
      </g>
      <g id="Group_552" data-name="Group 552" transform="translate(421.434 1356.311)">
        <g id="Group_551" data-name="Group 551" clip-path="url(#clip-path-2)">
          <g id="Group_550" data-name="Group 550" transform="translate(0 -0.001)">
            <g id="Group_549" data-name="Group 549" clip-path="url(#clip-path-3)">
              <g id="Group_548" data-name="Group 548" transform="translate(0 0.001)" style="mix-blend-mode: multiply;isolation: isolate">
                <g id="Group_547" data-name="Group 547" transform="translate(0 0)">
                  <g id="Group_546" data-name="Group 546" clip-path="url(#clip-path-2)">
                    <path id="Path_11407" data-name="Path 11407" d="M11.915,77.37a18.845,18.845,0,0,1,3.858-5.364,31.789,31.789,0,0,1,5.681-4.518c7.918-5.119,19.62-10.146,28.257-11.034a5.647,5.647,0,0,1,2.026-.275c.686-.059,1.528-.281,2.1-.306.447-.02.9.228,1.166-.079.242-.275.107-1.413-.07-1.942a17.794,17.794,0,0,0-4.144-6.614,12.235,12.235,0,0,0-2.242-1.6c-.267-.174-.559-.4-.854-.576a43.427,43.427,0,0,0-6.943-3.172c-1.689-.68-3.439-1.419-5.181-2.048a53.346,53.346,0,0,0-6.614-1.6,58.066,58.066,0,0,0-11.531-1.27A42.51,42.51,0,0,0,21.114,46.1c-.357.2.1.632-.317.657a14.718,14.718,0,0,1-2.043-3.925,31.252,31.252,0,0,1-2.071-5.965,35.013,35.013,0,0,1-3.894-.289c-3.869-.107-7.887.132-10.7-2.318A5.64,5.64,0,0,1,.985,32.5c-.163-.284-.466-.5-.593-.77C-.439,30,.255,28.673.634,27.335a12.343,12.343,0,0,1,.607-1.981,36.741,36.741,0,0,1,8-10.067c4.282-3.83,8.179-7.538,14.31-10.143-1.056-1.363-2.6-2.315-3.3-4.06.275-.374.936-.59.91-1.085a6.317,6.317,0,0,1,2.228,1.784,26.17,26.17,0,0,1,2.057,2.369c1.579-.652,4.226-1.545,5.855-1.335-.59,1.576-3.279,1.88-4.642,2.959,6.49,6.749,12.562,14.085,18.682,20.741,2.124,2.315,4.262,4.658,6.308,7.047,4.035,4.723,8.381,9.278,12.495,13.987,3.669,4.2,7.142,8.769,10.727,12.686a4.938,4.938,0,0,1,1.3,1.84,17.088,17.088,0,0,1-3.3-2.863c-2.155-2.237-4.529-4.254-6.544-6.606-1.037-1.2-2.088-2.43-3.189-3.594-4.3-4.569-8.544-9.339-12.739-13.961-2.119-2.34-4.307-4.644-6.384-7.021-2.127-2.442-4.164-4.925-6.333-7.3-4.3-4.7-8.4-9.519-12.925-13.8a11.97,11.97,0,0,0-5.232,6.549c-.464,1.419-.91,2.787-1.354,4.195a39.5,39.5,0,0,0-.924,18.673,68.567,68.567,0,0,1,21.019,3.773c1.045.379,2,.812,3,1.188a37.082,37.082,0,0,1,4.052,1.422c.323.171.554.525.91.722a23.738,23.738,0,0,1,4.844,3.051c2.163,1.989,5.125,6.209,4.768,9.432a8.352,8.352,0,0,1,3.807.067c.947.126,2.1.138,2.551.952a5.813,5.813,0,0,0-2.54-.528,4.684,4.684,0,0,1,3.211,1.874c-.053-.48-.767-.719-.472-1.087a3.027,3.027,0,0,1,1.163,1.9c.885,3.709-1.337,7.28-2.234,10.494-.66.495-.545,1.3-1.3,1.759-.211-.5.228-.745.171-1.191-.18.25-.407.733-.809.7a4.537,4.537,0,0,1,1.425-2.245c.913-3.3,3.307-6.319,1.467-10.5-1.764-1.61-4.144-1.646-6.583-1.531-.84,3.015-3.049,5.633-5.532,8.235a55.126,55.126,0,0,1-14.456,10.8,89.164,89.164,0,0,1-9.087,4.192c-4.577,1.745-11.77,4.737-14.52,2.338.455-.008,1.337.944,1.9.635.107-.447-.775-.025-.6-.6,4.768.185,9.918-1.986,15.17-4a60.088,60.088,0,0,0,15.3-8.679c4.307-3.388,8.058-6.934,10.224-10.865.028-.787.719-1.315.719-2.113A64.362,64.362,0,0,0,37.3,60.282a98.974,98.974,0,0,0-10.859,5.046c-.433.222-.91.509-1.312.742C19.389,69.458,15.011,72.6,12.789,76.817c-.542,1.026-1.2,3-.854,3.976.256.694.756.818.992,1.287-.43.388-.9-.59-.947-.194.225-.093.146.478.025.244-1.253-1.36-.6-3.459-.09-4.76m4.7-41.078c-.775-2.428-.517-4.864-.486-7.257a35.083,35.083,0,0,1,.02-3.526,42.852,42.852,0,0,1,1.88-9.738,25.476,25.476,0,0,1,2.546-6c.489-.708,1.273-1.205,1.731-1.95A11.629,11.629,0,0,0,24.3,6.277c-.385-.983-1.36-.143-1.77.081-1.649.916-3.4,1.728-5.1,2.891a60.219,60.219,0,0,0-5.844,4.934A48.337,48.337,0,0,0,4.028,22.09c-.669.952-1.45,1.863-1.916,2.714C1.305,26.3.316,29.569,1,31.55a6.148,6.148,0,0,0,3,3.164c1.787.952,3.984.927,6.215,1.082,2.206.157,4.375.528,6.395.5m7.19,30.092c.309.115.582-.287.868-.376-.323-.124-.534.306-.868.376m7.828,10.941a34.554,34.554,0,0,0,4.383-2.155,46.96,46.96,0,0,0-4.383,2.155M12.17,13.158a1.958,1.958,0,0,0,1.006-.865c-.407.261-.624.6-1.006.865M48.626,65.845c.531-.11.922-.8,1.3-1.16-.23,0-.851.854-1.3,1.16M22.311,1.3c-.037-.458-.7-.649-1.042-.834-.91.916.7.424,1.042.834M38.379,40.592c.006.3.66.256.891.475-.022-.239-.655-.25-.891-.475M24.025,4.85a1.972,1.972,0,0,1,.75-.239c-.79-1.217-1.891-1.891-2.9-3.122-.16.037-.166.132-.253.2.407,1.45,1.641,2.088,2.4,3.161m.823,1.107C34.038,15.965,43.3,26.425,52.7,36.8c2.329,2.565,4.6,5.111,7.021,7.685a23.365,23.365,0,0,0,2.366,2.5c-2.894-3.335-5.92-6.538-8.9-9.876-7.51-8.384-14.827-16.555-22.306-24.756-1.5-1.644-2.911-3.4-4.411-5.038-.332-.362-1.177-.714-.989-1.29a.385.385,0,0,0,.3-.3c.523.121.655.7.961,1.037,1.121,1.236,2.414,2.346,3.47,3.65.037.391-.362.006-.4.261,6.743,7.451,13.484,14.97,20.275,22.455,6.78,7.468,13.3,15.189,20.244,22.385.674.981,1.453,1.672,2.155,2.588-1.292-2.4-3.714-4.018-5.012-6.417-14.189-15.6-28.2-31.859-42.525-47.489-.222-.1.472.59.509.981.053.573-.472.613-.6.781m-.214-.686c.059.2.23.124.382.1-.031-.275-.2-.194-.382-.1m16.055,36.3c.16.157.4.115.556.273.1-.205-.351-.326-.556-.273m-14-34.525a19.913,19.913,0,0,0,3.119,3.45c-1.011-1.208-2.054-2.366-3.119-3.45m24.515,56.23c.034.166.472-.472.672-.632-.275-.048-.441.461-.672.632M25.9,4.636a6.568,6.568,0,0,0,.385.691,28.416,28.416,0,0,1,3.445-1.75c-1.023-.222-2.717.587-3.83,1.059M42.175,42.213a1.794,1.794,0,0,0,.615.247c.053-.129-.393-.3-.615-.247m20.044,4.88c-.1.343.4.483.523.806.081-.326-.407-.483-.523-.806m.955,1.214c.725.843,1.484,1.6,2.189,2.484a9.407,9.407,0,0,0-2.189-2.484m3.063,3.313c-.1.11.177.539.362.441a1.23,1.23,0,0,0-.362-.441" transform="translate(0.001 0)" fill-rule="evenodd"/>
                  </g>
                </g>
              </g>
            </g>
          </g>
        </g>
      </g>
      <g id="Group_553" data-name="Group 553" transform="translate(421.434 1356.311)">
        <g id="Group_551-2" data-name="Group 551" clip-path="url(#clip-path-2)">
          <g id="Group_550-2" data-name="Group 550" transform="translate(0 -0.001)">
            <g id="Group_549-2" data-name="Group 549" clip-path="url(#clip-path-3)">
              <g id="Group_548-2" data-name="Group 548" transform="translate(0 0.001)" style="mix-blend-mode: multiply;isolation: isolate">
                <g id="Group_547-2" data-name="Group 547" transform="translate(0 0)">
                  <g id="Group_546-2" data-name="Group 546" clip-path="url(#clip-path-2)">
                    <path id="Path_11407-2" data-name="Path 11407" d="M11.915,77.37a18.845,18.845,0,0,1,3.858-5.364,31.789,31.789,0,0,1,5.681-4.518c7.918-5.119,19.62-10.146,28.257-11.034a5.647,5.647,0,0,1,2.026-.275c.686-.059,1.528-.281,2.1-.306.447-.02.9.228,1.166-.079.242-.275.107-1.413-.07-1.942a17.794,17.794,0,0,0-4.144-6.614,12.235,12.235,0,0,0-2.242-1.6c-.267-.174-.559-.4-.854-.576a43.427,43.427,0,0,0-6.943-3.172c-1.689-.68-3.439-1.419-5.181-2.048a53.346,53.346,0,0,0-6.614-1.6,58.066,58.066,0,0,0-11.531-1.27A42.51,42.51,0,0,0,21.114,46.1c-.357.2.1.632-.317.657a14.718,14.718,0,0,1-2.043-3.925,31.252,31.252,0,0,1-2.071-5.965,35.013,35.013,0,0,1-3.894-.289c-3.869-.107-7.887.132-10.7-2.318A5.64,5.64,0,0,1,.985,32.5c-.163-.284-.466-.5-.593-.77C-.439,30,.255,28.673.634,27.335a12.343,12.343,0,0,1,.607-1.981,36.741,36.741,0,0,1,8-10.067c4.282-3.83,8.179-7.538,14.31-10.143-1.056-1.363-2.6-2.315-3.3-4.06.275-.374.936-.59.91-1.085a6.317,6.317,0,0,1,2.228,1.784,26.17,26.17,0,0,1,2.057,2.369c1.579-.652,4.226-1.545,5.855-1.335-.59,1.576-3.279,1.88-4.642,2.959,6.49,6.749,12.562,14.085,18.682,20.741,2.124,2.315,4.262,4.658,6.308,7.047,4.035,4.723,8.381,9.278,12.495,13.987,3.669,4.2,7.142,8.769,10.727,12.686a4.938,4.938,0,0,1,1.3,1.84,17.088,17.088,0,0,1-3.3-2.863c-2.155-2.237-4.529-4.254-6.544-6.606-1.037-1.2-2.088-2.43-3.189-3.594-4.3-4.569-8.544-9.339-12.739-13.961-2.119-2.34-4.307-4.644-6.384-7.021-2.127-2.442-4.164-4.925-6.333-7.3-4.3-4.7-8.4-9.519-12.925-13.8a11.97,11.97,0,0,0-5.232,6.549c-.464,1.419-.91,2.787-1.354,4.195a39.5,39.5,0,0,0-.924,18.673,68.567,68.567,0,0,1,21.019,3.773c1.045.379,2,.812,3,1.188a37.082,37.082,0,0,1,4.052,1.422c.323.171.554.525.91.722a23.738,23.738,0,0,1,4.844,3.051c2.163,1.989,5.125,6.209,4.768,9.432a8.352,8.352,0,0,1,3.807.067c.947.126,2.1.138,2.551.952a5.813,5.813,0,0,0-2.54-.528,4.684,4.684,0,0,1,3.211,1.874c-.053-.48-.767-.719-.472-1.087a3.027,3.027,0,0,1,1.163,1.9c.885,3.709-1.337,7.28-2.234,10.494-.66.495-.545,1.3-1.3,1.759-.211-.5.228-.745.171-1.191-.18.25-.407.733-.809.7a4.537,4.537,0,0,1,1.425-2.245c.913-3.3,3.307-6.319,1.467-10.5-1.764-1.61-4.144-1.646-6.583-1.531-.84,3.015-3.049,5.633-5.532,8.235a55.126,55.126,0,0,1-14.456,10.8,89.164,89.164,0,0,1-9.087,4.192c-4.577,1.745-11.77,4.737-14.52,2.338.455-.008,1.337.944,1.9.635.107-.447-.775-.025-.6-.6,4.768.185,9.918-1.986,15.17-4a60.088,60.088,0,0,0,15.3-8.679c4.307-3.388,8.058-6.934,10.224-10.865.028-.787.719-1.315.719-2.113A64.362,64.362,0,0,0,37.3,60.282a98.974,98.974,0,0,0-10.859,5.046c-.433.222-.91.509-1.312.742C19.389,69.458,15.011,72.6,12.789,76.817c-.542,1.026-1.2,3-.854,3.976.256.694.756.818.992,1.287-.43.388-.9-.59-.947-.194.225-.093.146.478.025.244-1.253-1.36-.6-3.459-.09-4.76m4.7-41.078c-.775-2.428-.517-4.864-.486-7.257a35.083,35.083,0,0,1,.02-3.526,42.852,42.852,0,0,1,1.88-9.738,25.476,25.476,0,0,1,2.546-6c.489-.708,1.273-1.205,1.731-1.95A11.629,11.629,0,0,0,24.3,6.277c-.385-.983-1.36-.143-1.77.081-1.649.916-3.4,1.728-5.1,2.891a60.219,60.219,0,0,0-5.844,4.934A48.337,48.337,0,0,0,4.028,22.09c-.669.952-1.45,1.863-1.916,2.714C1.305,26.3.316,29.569,1,31.55a6.148,6.148,0,0,0,3,3.164c1.787.952,3.984.927,6.215,1.082,2.206.157,4.375.528,6.395.5m7.19,30.092c.309.115.582-.287.868-.376-.323-.124-.534.306-.868.376m7.828,10.941a34.554,34.554,0,0,0,4.383-2.155,46.96,46.96,0,0,0-4.383,2.155M12.17,13.158a1.958,1.958,0,0,0,1.006-.865c-.407.261-.624.6-1.006.865M48.626,65.845c.531-.11.922-.8,1.3-1.16-.23,0-.851.854-1.3,1.16M22.311,1.3c-.037-.458-.7-.649-1.042-.834-.91.916.7.424,1.042.834M38.379,40.592c.006.3.66.256.891.475-.022-.239-.655-.25-.891-.475M24.025,4.85a1.972,1.972,0,0,1,.75-.239c-.79-1.217-1.891-1.891-2.9-3.122-.16.037-.166.132-.253.2.407,1.45,1.641,2.088,2.4,3.161m.823,1.107C34.038,15.965,43.3,26.425,52.7,36.8c2.329,2.565,4.6,5.111,7.021,7.685a23.365,23.365,0,0,0,2.366,2.5c-2.894-3.335-5.92-6.538-8.9-9.876-7.51-8.384-14.827-16.555-22.306-24.756-1.5-1.644-2.911-3.4-4.411-5.038-.332-.362-1.177-.714-.989-1.29a.385.385,0,0,0,.3-.3c.523.121.655.7.961,1.037,1.121,1.236,2.414,2.346,3.47,3.65.037.391-.362.006-.4.261,6.743,7.451,13.484,14.97,20.275,22.455,6.78,7.468,13.3,15.189,20.244,22.385.674.981,1.453,1.672,2.155,2.588-1.292-2.4-3.714-4.018-5.012-6.417-14.189-15.6-28.2-31.859-42.525-47.489-.222-.1.472.59.509.981.053.573-.472.613-.6.781m-.214-.686c.059.2.23.124.382.1-.031-.275-.2-.194-.382-.1m16.055,36.3c.16.157.4.115.556.273.1-.205-.351-.326-.556-.273m-14-34.525a19.913,19.913,0,0,0,3.119,3.45c-1.011-1.208-2.054-2.366-3.119-3.45m24.515,56.23c.034.166.472-.472.672-.632-.275-.048-.441.461-.672.632M25.9,4.636a6.568,6.568,0,0,0,.385.691,28.416,28.416,0,0,1,3.445-1.75c-1.023-.222-2.717.587-3.83,1.059M42.175,42.213a1.794,1.794,0,0,0,.615.247c.053-.129-.393-.3-.615-.247m20.044,4.88c-.1.343.4.483.523.806.081-.326-.407-.483-.523-.806m.955,1.214c.725.843,1.484,1.6,2.189,2.484a9.407,9.407,0,0,0-2.189-2.484m3.063,3.313c-.1.11.177.539.362.441a1.23,1.23,0,0,0-.362-.441" transform="translate(0.001 0)" fill-rule="evenodd"/>
                  </g>
                </g>
              </g>
            </g>
          </g>
        </g>
      </g>
    </g>
  </g>
</svg>
