<svg xmlns="http://www.w3.org/2000/svg" xmlns:xlink="http://www.w3.org/1999/xlink" width="122.174" height="99" viewBox="0 0 122.174 99">
  <defs>
    <clipPath id="clip-path">
      <rect id="Rectangle_168" data-name="Rectangle 168" width="16.916" height="49.071" fill="#fff"/>
    </clipPath>
    <clipPath id="clip-path-4">
      <rect id="Rectangle_167" data-name="Rectangle 167" width="122.174" height="70.854"/>
    </clipPath>
  </defs>
  <g id="Group_778" data-name="Group 778" transform="translate(-228 -1417.691)">
    <g id="Group_751" data-name="Group 751" transform="translate(-862.591 0.844)">
      <circle id="Ellipse_5" data-name="Ellipse 5" cx="49.5" cy="49.5" r="49.5" transform="translate(1102.591 1416.848)" fill="#fbad18"/>
    </g>
    <g id="Group_765" data-name="Group 765" transform="translate(-501.2 75.162)">
      <g id="Group_401" data-name="Group 401" transform="translate(792.045 1360.202) rotate(11)">
        <g id="Group_400" data-name="Group 400" transform="translate(0 0)" clip-path="url(#clip-path)">
          <path id="Path_9252" data-name="Path 9252" d="M4.39,0c.518.285,1.157.7,1.863,1.012A6.73,6.73,0,0,1,9.722,4.365a42.026,42.026,0,0,1,3.468,9.983c1.051,5.186,1.845,10.408,2.717,15.618a74.847,74.847,0,0,1,.968,14.822,12.79,12.79,0,0,1-.761,4.23,2.1,2.1,0,0,1-2.458-1c-.586-1.083-1.182-2.167-1.67-3.279A202.324,202.324,0,0,1,4.545,24.185C2.872,18.882,1.1,13.593.481,8.117.267,6.243.147,4.363.009,2.483A4.253,4.253,0,0,1,.1,1.3C.29.422.622.216,1.731.165,2.575.126,3.418.061,4.39,0" transform="translate(0 0)" fill="#fff"/>
        </g>
      </g>
      <g id="Group_402" data-name="Group 402" transform="translate(822.045 1360.202) rotate(11)">
        <g id="Group_400-2" data-name="Group 400" transform="translate(0 0)" clip-path="url(#clip-path)">
          <path id="Path_9252-2" data-name="Path 9252" d="M4.39,0c.518.285,1.157.7,1.863,1.012A6.73,6.73,0,0,1,9.722,4.365a42.026,42.026,0,0,1,3.468,9.983c1.051,5.186,1.845,10.408,2.717,15.618a74.847,74.847,0,0,1,.968,14.822,12.79,12.79,0,0,1-.761,4.23,2.1,2.1,0,0,1-2.458-1c-.586-1.083-1.182-2.167-1.67-3.279A202.324,202.324,0,0,1,4.545,24.185C2.872,18.882,1.1,13.593.481,8.117.267,6.243.147,4.363.009,2.483A4.253,4.253,0,0,1,.1,1.3C.29.422.622.216,1.731.165,2.575.126,3.418.061,4.39,0" transform="translate(0 0)" fill="#fff"/>
        </g>
      </g>
      <g id="Group_403" data-name="Group 403" transform="translate(753.045 1360.202) rotate(11)">
        <g id="Group_400-3" data-name="Group 400" transform="translate(0 0)" clip-path="url(#clip-path)">
          <path id="Path_9252-3" data-name="Path 9252" d="M4.39,0c.518.285,1.157.7,1.863,1.012A6.73,6.73,0,0,1,9.722,4.365a42.026,42.026,0,0,1,3.468,9.983c1.051,5.186,1.845,10.408,2.717,15.618a74.847,74.847,0,0,1,.968,14.822,12.79,12.79,0,0,1-.761,4.23,2.1,2.1,0,0,1-2.458-1c-.586-1.083-1.182-2.167-1.67-3.279A202.324,202.324,0,0,1,4.545,24.185C2.872,18.882,1.1,13.593.481,8.117.267,6.243.147,4.363.009,2.483A4.253,4.253,0,0,1,.1,1.3C.29.422.622.216,1.731.165,2.575.126,3.418.061,4.39,0" transform="translate(0 0)" fill="#fff"/>
        </g>
      </g>
      <g id="Group_399" data-name="Group 399" transform="translate(729.2 1360.202)">
        <g id="Group_398" data-name="Group 398" transform="translate(0 0)" clip-path="url(#clip-path-4)">
          <path id="Path_9194" data-name="Path 9194" d="M121.634,65.827a.382.382,0,0,0-.332-.189c-.068.006-.133.017-.2.025a.579.579,0,0,0-.067-.019,47.728,47.728,0,0,0-5.712-.235c.219-3.945.072-7.935.074-11.872l.009-14.814q0-7.4.009-14.792,0-3.5,0-7c0-.9.048-1.848.067-2.8a48.076,48.076,0,0,0,5.158-.245c.018.767.113,1.524.207,2.286a5.205,5.205,0,0,0,.368,1.89.231.231,0,0,0,.417-.054,5.962,5.962,0,0,0-.153-2.159,19.74,19.74,0,0,0-.371-2.161.323.323,0,0,0-.017-.037.385.385,0,0,0-.333-.551,45.784,45.784,0,0,0-5.274-.235,11.613,11.613,0,0,0-.3-2.532.305.305,0,0,0-.583,0l0,.027a6.127,6.127,0,0,0-2.693-.175,10.75,10.75,0,0,0-1.489.063.325.325,0,0,0-.584.08c-.007.035-.012.073-.02.108a1.68,1.68,0,0,0-.3.185.1.1,0,0,0,0,.143,1.678,1.678,0,0,0,.21.136,13.716,13.716,0,0,0-.176,2.054c-.227,0-.456.005-.683.005l-4.182,0c.011-1.105.024-2.208.033-3.313a15.89,15.89,0,0,1,.75-5.853c.4-1.027.983-2.009.179-3.029a2.217,2.217,0,0,0-1.85-.746c-1.289-.032-2.585,0-3.878.026-2.391-.058-4.82.075-7.125.052l-7-.068c-1.363-.013-3.091-.089-3.336,1.7a2.83,2.83,0,0,0,.379,1.534,10.649,10.649,0,0,1,.921,3.474c.032.505.02,1.017.025,1.522q.02,2.34.046,4.679L74.1,12.927c-1.266,0-2.531,0-3.8,0q.015-1.537.03-3.073A15.837,15.837,0,0,1,71.08,4c.4-1.029.981-2.01.177-3.03A2.211,2.211,0,0,0,69.408.224c-1.289-.032-2.585,0-3.878.026C63.14.192,60.709.324,58.4.3l-7-.068c-1.364-.013-3.091-.089-3.336,1.7a2.82,2.82,0,0,0,.378,1.534,10.623,10.623,0,0,1,.921,3.474c.032.505.021,1.017.025,1.522q.02,2.226.043,4.451-6.426,0-12.855,0,.017-1.582.031-3.163A15.86,15.86,0,0,1,37.36,3.9c.4-1.029.982-2.01.178-3.029A2.209,2.209,0,0,0,35.689.125C34.4.091,33.1.124,31.81.152,29.42.093,26.989.225,24.685.2l-7-.069c-1.364-.013-3.091-.089-3.336,1.7a2.819,2.819,0,0,0,.378,1.533,10.829,10.829,0,0,1,.909,3.345,2.577,2.577,0,0,0,.017.957c0,.013.014.019.018.03,0,.221,0,.443,0,.663q.021,2.276.045,4.552h-1.43c-.74,0-1.484-.005-2.226-.011a10.879,10.879,0,0,0-.294-2.3.3.3,0,0,0-.582,0l-.005.027a6.1,6.1,0,0,0-2.691-.175A10.724,10.724,0,0,0,7,10.526a.326.326,0,0,0-.585.08c-.008.035-.013.073-.021.108a1.694,1.694,0,0,0-.3.185.1.1,0,0,0,0,.143,1.746,1.746,0,0,0,.21.135,12.919,12.919,0,0,0-.17,1.716c-1.67.014-3.337.057-5,.166a.426.426,0,0,0-.21.787.229.229,0,0,0-.1.124,28.063,28.063,0,0,0-.747,3.3.457.457,0,0,0,.506.526.3.3,0,0,0,.269.185c1.775.116,3.554.19,5.337.239q0,2.823,0,5.646,0,7.491.019,14.986C6.222,47.694,5.92,56.6,6.4,65.436c-1.664.014-3.327.06-4.984.169a.422.422,0,0,0-.362.619,2.283,2.283,0,0,0-1.045,2.13,2.632,2.632,0,0,0,.859,1.751.3.3,0,0,0,.269.423c7.8.512,15.675.263,23.486.277q11.586.018,23.173,0,23.33,0,46.66-.017l13.153-.017c4.211-.006,8.459.123,12.668-.1a.417.417,0,0,0,.35.077c.85-.217,1.312-1.4,1.469-2.182a3.729,3.729,0,0,0-.457-2.744M11.985,53.966q0-7.552.009-15.1,0-7.411.008-14.823,0-2.868,0-5.735,1.887,0,3.773-.007.059,5.462.124,10.926c.072,5.754.136,11.491.022,17.242-.062,3.146.194,7.741,2.953,9.75l-.056-.005a.1.1,0,0,0-.053.193c2,1.17,4.744,1.362,7.012,1.373a16.776,16.776,0,0,0,6.379-.9c3.244-1.171,4.1-5.247,4.212-8.364.084-2.24-.118-4.478-.126-6.717-.008-2.775.069-5.552.1-8.328q.1-7.6.178-15.2H49.491q.059,5.529.126,11.057c.072,5.753.136,11.491.022,17.242-.062,3.145.194,7.741,2.953,9.75l-.056-.005a.1.1,0,0,0-.053.193c2,1.17,4.744,1.361,7.012,1.373a16.738,16.738,0,0,0,6.379-.905c3.244-1.171,4.1-5.246,4.212-8.363.084-2.24-.118-4.478-.126-6.717-.008-2.775.069-5.553.1-8.328q.1-7.65.178-15.3,6.814,0,13.627-.009.058,5.428.124,10.857c.072,5.754.135,11.492.022,17.243-.063,3.145.193,7.741,2.952,9.75l-.055-.005a.1.1,0,0,0-.052.192c2,1.171,4.742,1.362,7.011,1.374a16.727,16.727,0,0,0,6.378-.905c3.245-1.171,4.1-5.246,4.213-8.363.084-2.24-.12-4.478-.127-6.717-.007-2.776.07-5.553.105-8.328q.094-7.56.176-15.119l2.705,0c.759,0,1.518,0,2.279.009q0,2.832,0,5.664,0,7.408.018,14.816c.012,8.906-.293,17.881.189,26.78-.226,0-.452.006-.677.006L97.549,65.5q-11.586-.006-23.173-.026-23.328-.029-46.659-.012l-13.153.008c-.883,0-1.769-.006-2.656-.013.213-3.817.074-7.677.076-11.488M12,17.02c0-.91.05-1.877.067-2.844,4.191-.02,8.388-.121,12.552-.117q11.586.008,23.173.006,23.33,0,46.66-.042,6.577-.006,13.153-.007c.641,0,1.289.011,1.937.022.018.905.062,1.809.062,2.673v.3c-4.211.018-8.426.108-12.612.1Q85.405,17.1,73.818,17.1q-23.331,0-46.661,0c-5.036.009-10.1-.085-15.157-.06Zm91.225,25.595c.087,3.752,1.249,11.192-2.812,13.391-.82.094-1.609.345-2.428.5a23.419,23.419,0,0,1-4.112.369,35.743,35.743,0,0,1-5.153-.58c-4.332-1.57-3.65-8.322-3.513-11.963.179-4.761-.018-9.543-.085-14.305q-.084-5.884-.153-11.767h.505c.036,9.491.469,18.987.773,28.461l-.037,0c-.2-.007-.211.265-.044.329.029.01.063.018.093.029.01.321.021.643.031.963a.012.012,0,0,0,.024,0q0-.471,0-.944c.126.045.255.084.384.126q.014,1.536.041,3.076c-.181.077-.362.155-.539.233a6.207,6.207,0,0,1-.126-.873.072.072,0,0,0-.141-.019,3.628,3.628,0,0,0-.111,1.059h0c-.018.007-.01.022,0,.03A5.34,5.34,0,0,0,88.62,54.8a10.685,10.685,0,0,0,8.236.612c.1-.036.132-.213,0-.231a8.937,8.937,0,0,0-1.073-.088,15.218,15.218,0,0,0,3.553-1.452.183.183,0,0,0-.141-.332,16.7,16.7,0,0,0-4.064,1.277.976.976,0,0,0-.392-1.117,1,1,0,0,0-1.257.242.268.268,0,0,0,.379.379.313.313,0,0,1,.449.027c.14.155.07.39.177.562a.318.318,0,0,0,.138.118l-.209.087a.308.308,0,0,0-.187.235,11.38,11.38,0,0,1-3.838-.248,6.373,6.373,0,0,1-2.327-1.235,7.771,7.771,0,0,0,1.571-.426.141.141,0,0,0-.037-.275,8.243,8.243,0,0,0-1.756.137.23.23,0,0,0-.2.171,5.57,5.57,0,0,1-1.406-2.571l.509-.083c0,.023,0,.048,0,.072a.069.069,0,0,0,.138,0c0-.032,0-.065,0-.1a17.648,17.648,0,0,0,1.936-.433c.009.307.014.615.023.923-.587.141-1.173.345-1.7.488a.307.307,0,0,0,.163.592c.548-.114,1.176-.2,1.774-.345a1.157,1.157,0,0,0,.235.343,1.435,1.435,0,0,0,.455.24c.17.08.319-.164.15-.254a.633.633,0,0,1-.285-.489,4.1,4.1,0,0,0,.418-.169,1.281,1.281,0,0,1,.61.406.124.124,0,0,0,.23-.062,1.186,1.186,0,0,0-1.551-1.094.49.49,0,0,0-.345.308l-.063.014c.01-.314.015-.63.024-.944a8.118,8.118,0,0,0,1.4-.561.141.141,0,0,0-.072-.26,7.836,7.836,0,0,0-1.312.236c.006-.253.013-.506.019-.759a4.869,4.869,0,0,0,1.672-.525.166.166,0,0,0-.083-.307,4.649,4.649,0,0,0-1.575.28c0-.153.007-.3.01-.459A44.558,44.558,0,0,0,94.314,48c.883.014,1.829.041,2.789.03l-.018.248a36.115,36.115,0,0,0-3.6,1.055.116.116,0,0,0,.061.223c1.159-.191,2.347-.419,3.5-.73-.03.446-.06.889-.089,1.335l-.442.139c-.278.086-.158.522.121.436l.29-.089c-.032.508-.067,1.017-.1,1.525,0,.053.083.066.092.013.083-.535.157-1.072.233-1.608q.58-.178,1.161-.361c.015.427.024.856.047,1.284a.052.052,0,0,0,.1,0c.042-.455.07-.911.1-1.366q.719-.231,1.42-.506c0,.393,0,.786.006,1.179a.039.039,0,0,0,.078,0c.025-.413.042-.826.065-1.239.182-.073.364-.142.543-.221.11-.05.026-.2-.078-.184-.151.028-.3.067-.449.1q.04-.726.076-1.452a12.314,12.314,0,0,0,1.306-.271c-.006.867-.031,1.733-.114,2.59a6.612,6.612,0,0,1-3.08,5.248c-.1.073-.085.291.073.27,2.992-.385,3.648-4.217,3.736-6.64.02-.558.029-1.115.043-1.673.093-.032.186-.064.278-.1a.114.114,0,0,0-.03-.223c-.08,0-.159,0-.239,0,.086-3.733.061-7.477.1-11.209q.073-6.659.109-13.318c.008-1.412.025-2.827.04-4.244l1.069,0q-.049,3.924-.1,7.849c-.072,5.5-.327,11.031-.2,16.532m-34.379.21c.087,3.752,1.251,11.192-2.811,13.391-.82.094-1.609.345-2.427.5a23.439,23.439,0,0,1-4.113.369,35.776,35.776,0,0,1-5.153-.58c-4.331-1.57-3.649-8.322-3.513-11.963.179-4.761-.018-9.543-.086-14.305q-.082-5.983-.154-11.966H51.1c.03,9.287.443,18.578.746,27.85a.258.258,0,0,0,.013.38q.029.874.057,1.749a.012.012,0,1,0,.024,0c0-.57,0-1.142,0-1.713a.209.209,0,0,0,.108-.012,26.138,26.138,0,0,0,4.483-1.776.143.143,0,0,0-.109-.26,25.783,25.783,0,0,0-4.481,1.574c.02-9.254.147-18.532-.106-27.792h.443c.013.832.022,1.662.022,2.49,0,2.16,0,4.322-.005,6.483a54.446,54.446,0,0,0,.111,6.792.054.054,0,0,0,.107,0,54.446,54.446,0,0,0,.105-6.792Q52.61,24,52.609,20.754c0-.827.008-1.658.019-2.49H62.4c-.2,5.931-.361,11.865-.389,17.8-.456,0-.909,0-1.353-.009a27.634,27.634,0,0,0-6.314.1.094.094,0,0,0,0,.179,27.737,27.737,0,0,0,6.314.44c.445.013.9.036,1.35.063v.015c-.919.044-1.837.078-2.753.057-2.381-.057-4.742-.4-7.12-.473a.116.116,0,0,0-.03.227,27.37,27.37,0,0,0,7.151.885c.9.02,1.822.043,2.75.024,0,.292,0,.583,0,.876-.628.234-1.249.487-1.875.709a.021.021,0,0,0,.011.041c.615-.165,1.242-.3,1.865-.46q0,.583,0,1.166c-.663.261-1.319.531-1.968.768-.243.088-.143.478.108.393.608-.207,1.239-.394,1.871-.59a.043.043,0,0,0,.079-.021v0c.631-.2,1.262-.4,1.872-.645.006.359.01.715.015,1.073a47.406,47.406,0,0,0-4.8,1.835c-.3.116-.18.609.137.5,1.5-.529,3.185-.945,4.674-1.627.008.409.019.818.026,1.227a54.012,54.012,0,0,0-5.4,1.991.175.175,0,0,0,.093.336c1.718-.441,3.586-.9,5.33-1.533q.039,1.817.1,3.634a40.049,40.049,0,0,0-3.973,1.07.245.245,0,0,0,.131.473c1.26-.328,2.617-.573,3.859-1.025.013.377.024.753.037,1.129a22.885,22.885,0,0,0-4.524,1.9c-.022.012-.006.043.016.037a23.242,23.242,0,0,0,4.528-1.338c.006.157.009.315.016.472a.039.039,0,0,0,.078,0c0-.171,0-.344.007-.518.451-.194.886-.4,1.3-.631.139-.076.039-.269-.1-.243-.391.073-.787.171-1.186.283.006-.387.011-.773.016-1.16.2-.076.4-.158.589-.248a.161.161,0,0,0-.081-.3c-.167.015-.334.037-.5.063q.021-1.861.028-3.723c.478-.182.94-.385,1.388-.6q-.04,1.9-.072,3.792c-.033,2.02.282,5.524-1.765,6.646a.2.2,0,0,0-.176-.28,17.372,17.372,0,0,0-4.532,1.234.273.273,0,0,0,.146.527,22.424,22.424,0,0,0,3.485-.943C65.034,54,66,51.938,66.166,49.983a57.49,57.49,0,0,0-.005-7.283l.035-.017c.161-.084.087-.274-.05-.319-.042-.921-.082-1.837-.107-2.743a.094.094,0,0,0-.187,0q-.039,1.393-.068,2.786c-.463.082-.929.186-1.4.31,0-.437,0-.873,0-1.311.238-.12.471-.246.7-.385a.19.19,0,0,0-.146-.345c-.185.029-.368.07-.552.11q0-.574-.005-1.147a10.663,10.663,0,0,0,.962-.464c.153-.084.043-.292-.11-.265-.286.051-.57.119-.854.192,0-.384,0-.767,0-1.15a.08.08,0,0,0,0-.136l0-.4A13.259,13.259,0,0,0,66.432,37a.106.106,0,0,0,.035-.184c.176-.024.352-.049.526-.083a.156.156,0,0,0,0-.3,11.412,11.412,0,0,0-1.972-.3c.285-4.691.166-9.416.189-14.118.005-1.25.017-2.5.028-3.749h2.086c-.1,4.888-.031,9.793-.077,14.646q-.055,5.887-.1,11.771c-.014,1.873.071,3.785-.109,5.653a6.61,6.61,0,0,1-3.08,5.248c-.1.073-.084.291.073.27,2.992-.385,3.649-4.217,3.736-6.64.159-4.395.1-8.807.152-13.2q.074-6.659.111-13.318c.007-1.472.026-2.948.041-4.426h1.069q-.049,4.014-.1,8.029c-.074,5.5-.329,11.031-.2,16.532m-33.72-.1c.087,3.752,1.251,11.193-2.811,13.392-.82.093-1.61.344-2.428.494a23.419,23.419,0,0,1-4.112.369,35.776,35.776,0,0,1-5.153-.58c-4.331-1.57-3.649-8.323-3.513-11.963.179-4.761-.018-9.543-.086-14.305q-.082-5.921-.152-11.84l.506,0c.019,5.7.183,11.4.378,17.1l-.031.014c-.252.1-.182.484.049.477.141,4.092.3,8.182.42,12.269a.012.012,0,0,0,.024,0c0-4.141.029-8.286.046-12.434.281-.1.567-.2.852-.308q-.011.992-.014,1.982c-.156.086-.311.17-.462.25-.275.142-.033.523.238.407.072-.031.148-.062.223-.092q0,.947,0,1.893c-.137.086-.273.172-.4.259-.156.105-.062.4.137.323.087-.034.177-.074.266-.111q0,.978-.005,1.954c-.117.062-.234.124-.35.182-.309.158-.037.614.269.462.025-.011.052-.023.077-.036-.018,2.017-.107,4.053.014,6.066q.02.336.054.671c-.089.045-.177.087-.263.128-.3.141-.039.594.262.45.021-.01.045-.019.066-.03a5.753,5.753,0,0,0,1.266,3.061c.079.089.251-.006.206-.12a12.957,12.957,0,0,1-.451-1.346.28.28,0,0,0,.179-.017,11.651,11.651,0,0,0,2.155-1.116.126.126,0,0,0-.1-.229,11.893,11.893,0,0,0-2.346.854c-.007,0-.01.008-.016.012-.108-.456-.2-.917-.265-1.379a6.884,6.884,0,0,0,1.561-.848A.524.524,0,0,0,21.866,49a.178.178,0,0,0-.089-.329.268.268,0,0,1-.241-.3c.04-.167.286-.164.412-.119.432.158.259.743.586.978a.136.136,0,0,0,.139,0c.375-.228.147-.867-.053-1.136a1.01,1.01,0,0,0-1.1-.383.71.71,0,0,0-.489.9.739.739,0,0,0,.066.144,6.818,6.818,0,0,0-1.322.542c-.061-.532-.1-1.068-.127-1.606A5.712,5.712,0,0,0,21.664,46.6a.179.179,0,0,0-.125-.3,4.7,4.7,0,0,0-1.914.721c-.008-.3-.011-.609-.011-.914.368-.129.73-.278,1.088-.431a3.335,3.335,0,0,0,1.1-.606.16.16,0,0,0-.112-.271,3.054,3.054,0,0,0-1.086.361c-.333.151-.662.309-.985.477q.006-.649.022-1.3a9.68,9.68,0,0,0,2.868-1.2.163.163,0,0,0-.114-.275,8.677,8.677,0,0,0-2.74.934q.018-.6.031-1.2A9.19,9.19,0,0,0,21.5,41.53c.124-.1-.011-.284-.145-.25a8.157,8.157,0,0,0-1.654.673c0-.2.007-.4.008-.6q0-.658.011-1.317a6.423,6.423,0,0,0,1.373-.848c.105-.089-.008-.255-.129-.222a6.011,6.011,0,0,0-1.241.512l.018-1.787A6.468,6.468,0,0,0,21.8,36.55c.079-.075.024-.25-.1-.235a5.915,5.915,0,0,0-1.956.722q.008-.942.009-1.885a6.427,6.427,0,0,0,1.034-.544.163.163,0,0,0-.125-.3,6.138,6.138,0,0,0-.91.245q0-.854-.012-1.706c.326-.093.65-.211.961-.31a8.709,8.709,0,0,0,1.879-.768c.09-.053.061-.23-.059-.214a9.068,9.068,0,0,0-2.071.6c-.232.088-.476.175-.717.269q-.014-.9-.042-1.8a14.848,14.848,0,0,0,3.462-1.341.138.138,0,0,0-.105-.251A14.243,14.243,0,0,0,19.677,30.1q-.029-.775-.072-1.548a13.277,13.277,0,0,0,3.137-1.069c.121-.071.078-.292-.075-.279a16.618,16.618,0,0,0-3.548,1.073c-.241.081-.141.46.105.384l.124-.034c-.036.547-.068,1.1-.094,1.644-.187.076-.375.15-.559.221-.249.094-.151.493.111.407.141-.046.284-.089.427-.134-.026.638-.05,1.276-.066,1.915a2.972,2.972,0,0,0-.427.267c-.024.02,0,.06.024.06a2.89,2.89,0,0,0,.4-.034q-.023.909-.034,1.816c-.291.12-.576.247-.859.372q.017-4.514-.013-9.025a44.293,44.293,0,0,0,6.917.24c1.209.01,2.426.041,3.637.009q.055.966.1,1.931a41.1,41.1,0,0,0-4.484,2c-.174.076-.022.327.15.254a46.355,46.355,0,0,0,4.356-1.8c.012.32.018.639.029.958A17.708,17.708,0,0,0,24.4,31.827a.021.021,0,0,0,.015.038,20.921,20.921,0,0,0,3.152-.933,1.011,1.011,0,0,0-.371,1.451.207.207,0,0,0,.357-.209.573.573,0,0,1,.376-.779c.4-.048.49.38.582.672-1.322.479-2.608,1.211-3.856,1.795-.223.1-.029.423.19.327a38.226,38.226,0,0,0,4.171-1.875c.008.6.005,1.2.005,1.793-1.347.538-2.652,1.253-3.95,1.847-.228.105-.03.433.2.335,1.224-.534,2.53-1,3.757-1.593q0,.655-.011,1.309c-1.066.482-2.095,1.1-3.118,1.6-.242.119-.03.473.211.361.932-.437,1.941-.815,2.895-1.274-.01.543-.016,1.085-.032,1.628-1.565.608-3.093,1.471-4.564,2.177-.191.091-.054.428.145.345,1.42-.585,2.972-1.118,4.4-1.809-.013.386-.03.772-.047,1.158-1.452.54-2.88,1.278-4.269,1.875-.234.1-.063.517.176.417,1.313-.548,2.739-1.036,4.069-1.647-.063,1.426-.139,2.851-.238,4.274-1.046.3-2.072.682-3.1,1.025-.245.082-.141.471.106.389.984-.327,1.986-.627,2.961-.994-.02.287-.045.572-.066.858-.92.371-1.821.819-2.7,1.191-.231.1-.134.48.105.384.82-.328,1.7-.623,2.551-.966-.031.38-.056.761-.089,1.14,0,.044.071.054.077.01.057-.4.107-.806.158-1.21a13.374,13.374,0,0,0,1.219-.563q.02.772.048,1.546a29.051,29.051,0,0,0-4.092,1.56c-.242.1-.14.5.11.4a31.249,31.249,0,0,0,3.994-1.66c.019.516.037,1.031.063,1.546a.087.087,0,0,0-.074-.012,25.381,25.381,0,0,0-3.852,1.594c-.245.109-.031.468.211.36a24.97,24.97,0,0,0,3.714-1.78c.005,0,.005-.008.009-.012q.064,1.214.153,2.426a.081.081,0,0,0,.162,0c.1-2.091.124-4.188.114-6.288h0a.129.129,0,0,0,0-.221c-.011-1.914-.048-3.832-.1-5.747.031-.019.065-.036.1-.055a.154.154,0,0,0-.1-.284q-.018-.722-.038-1.44c.1-.064.2-.122.3-.187a.155.155,0,0,0-.119-.283c-.065.017-.13.04-.193.058q-.026-.934-.048-1.867c.163-.1.324-.212.479-.326a.146.146,0,0,0-.111-.265c-.128.032-.253.075-.38.114q-.018-.729-.032-1.46c.126-.075.252-.147.374-.226a.131.131,0,0,0-.1-.238c-.094.025-.186.058-.281.087-.01-.5-.02-1-.027-1.5-.028-1.959-.036-3.921-.046-5.884a18.793,18.793,0,0,0,2.239-.283.124.124,0,0,0,0-.237,18.45,18.45,0,0,0-2.243-.283c-.011-2.421-.032-4.841-.086-7.26h.8a55.906,55.906,0,0,0,.109,6.824.042.042,0,0,0,.084,0,56.049,56.049,0,0,0,.226-6.824H33.3c-.065,4.484-.011,8.977-.052,13.427q-.055,5.884-.1,11.769c-.014,1.875.071,3.787-.108,5.655a6.619,6.619,0,0,1-3.081,5.248c-.1.072-.084.29.073.27,2.992-.385,3.648-4.218,3.736-6.641.16-4.394.1-8.806.153-13.2q.074-6.659.109-13.318c.006-1.067.02-2.137.031-3.206h1.356q-.047,3.964-.1,7.928c-.074,5.5-.329,11.03-.2,16.531m66.5-10.025q-.056,5.887-.1,11.771c-.006.842.007,1.69.007,2.538-.422.012-.846.037-1.27.072.452-9.6.5-19.232.654-28.843h.776c-.09,4.827-.026,9.67-.071,14.462M87.11,48.967c.527-.074,1.107-.116,1.681-.2.006.258.012.516.019.774a16.33,16.33,0,0,0-1.906.677q.065-1.451.117-2.9a13.881,13.881,0,0,0,1.742.37c0,.193.01.386.014.579-.58.208-1.15.465-1.68.66a.021.021,0,0,0,.012.04m11.133-2.12c-.207-.023-.416-.039-.625-.06a165.011,165.011,0,0,0,.216-28.545l1.088,0c-.1,4.121-.185,8.243-.281,12.363-.125,5.4-.428,10.832-.4,16.244m.494,1.12-.022,0v0l.022,0M97.19,46.749a75.083,75.083,0,0,0-8.144-.092c.176-9.466.036-18.94-.049-28.406q2.587,0,5.175,0l3.516-.005c.223,4.6.3,9.221.239,13.82-.059,4.911-.4,9.8-.736,14.686m-10.154-28.5c-.084,3.956-.138,7.914-.193,11.865-.078,5.543-.181,11.085-.145,16.627-.127-.008-.253-.019-.381-.025.014-9.477.156-18.981-.1-28.467Zm.309,11.865c.052-3.951.105-7.909.128-11.866h1.3c-.079,9.467-.213,18.944-.03,28.411-.416.01-.833.02-1.245.028a.092.092,0,0,0-.094.106l-.362-.03c.187-5.547.234-11.1.306-16.649m9.183,17.355a21.3,21.3,0,0,1-2.215.1,35.946,35.946,0,0,1-4.7-.5c2.283.2,4.618.4,6.914.4m1.728.522v.047c-.264.046-.53.1-.794.152.007-.057.015-.114.021-.172.257,0,.516-.013.773-.026m.005.464c.008.428.023.856.036,1.284q-.536.161-1.072.33c.061-.45.114-.9.17-1.349.291-.082.579-.171.865-.265m.435-.151c.147-.053.293-.1.438-.161a.127.127,0,0,0,.034-.213c.272-.025.545-.054.813-.09,0,.483,0,.967.006,1.45-.463.105-.925.223-1.381.357.031-.449.063-.9.089-1.343m1.08-1.18a.1.1,0,0,0-.086-.075c-.3-.052-.614-.088-.921-.131.255-5.43.171-10.9.266-16.319.073-4.12.155-8.243.223-12.363l1.432,0c-.3,9.617-.71,19.248-.712,28.87l-.2.019M64.919,36.122c-.185-.013-.372-.024-.559-.032-.058-5.943-.186-11.889-.3-17.825h.849c0,1.25-.006,2.5-.015,3.749-.032,4.7-.207,9.419.022,14.11m-.948,3.092c-.616.183-1.228.408-1.833.645.02-.388.038-.776.059-1.165a13.687,13.687,0,0,0,1.758-.556c0,.359.011.717.016,1.076m-.02-1.354a13.055,13.055,0,0,0-1.738.516c.012-.269.028-.539.041-.809.566-.014,1.132-.047,1.693-.1,0,.132,0,.263,0,.4m-.055-19.6c0,5.931-.015,11.872.038,17.809-.539-.013-1.082-.012-1.618-.009.25-5.929.367-11.865.446-17.8ZM29.742,32.209c.008.541.011,1.083.015,1.625-.119.041-.235.086-.352.13q0-.937-.024-1.875c.017-.012.035-.022.052-.032a.134.134,0,0,0-.059-.247q-.023-.86-.057-1.719c.1-.059.2-.116.3-.177a.168.168,0,0,0-.129-.306c-.061.012-.126.03-.187.045q-.023-.535-.051-1.07c.067-.041.138-.078.2-.121a.146.146,0,0,0-.111-.265c-.037.009-.075.022-.111.031q-.052-.924-.119-1.85c.172-.006.343-.01.515-.019.047,1.952.092,3.9.119,5.851m.1,13.723c-.38.106-.757.237-1.132.384.035-.287.067-.575.1-.863.342-.133.681-.274,1.012-.43.006.3.015.606.022.91m-.026-1.091a.1.1,0,0,0-.065-.011c-.3.063-.6.141-.9.221q.231-2.191.361-4.381c.19-.092.378-.185.562-.284,0,1.485.014,2.971.039,4.454m-.564-4.778c.022-.405.042-.812.058-1.217.156-.08.311-.162.463-.247q0,.646,0,1.293-.263.081-.523.171m.084-1.88q.029-.846.047-1.689c.129-.068.257-.137.385-.209q0,.872,0,1.746c-.146.047-.291.1-.436.152m.057-2.348q.008-.664.008-1.327c.121-.062.239-.126.358-.19,0,.458.005.916.007,1.375-.125.045-.25.09-.373.142m-.6-4.6a1.027,1.027,0,0,0-.945-.4.835.835,0,0,0-.117.035,12.7,12.7,0,0,0,1.236-.576c.015.536.033,1.072.041,1.608l-.01,0a.942.942,0,0,0-.2-.666m.247-5.77q-.115-1.448-.263-2.9c-.016-.152-.254-.156-.24,0,.084.961.153,1.923.215,2.886-1.194-.028-2.392,0-3.583.011a44.323,44.323,0,0,0-6.92.241q-.032-3.713-.131-7.425L19,18.279c.056,1.353.145,2.7.28,4.013a.1.1,0,0,0,.2,0c.1-1.319.155-2.663.175-4.017,1.564-.009,3.127-.017,4.686-.015q2.574,0,5.148,0c.014,2.409.061,4.817.115,7.226-.186-.008-.375-.014-.562-.021m81.417,40.025c.481-8.9.177-17.871.189-26.775q.011-7.408.018-14.816,0-3.6,0-7.191a39.794,39.794,0,0,0-.067-5.546c.427.048.874.023,1.3.035a6.933,6.933,0,0,0,2.543-.105,37.083,37.083,0,0,0-.08,5.6q-.006,3.619,0,7.238,0,7.394.008,14.792t.009,14.814c0,3.941-.145,7.934.075,11.882-1.336.021-2.67.057-3.993.074M104.01,4.828c0-.013-.009-.023-.012-.034-.012-.064-.019-.127-.031-.19a.953.953,0,0,0,.182-.194.364.364,0,0,0,.044-.074q-.1.245-.182.493M84.858,9.754a35.724,35.724,0,0,0-.11-3.617A.372.372,0,0,0,84.86,5.9c.02-.241.038-.482.066-.722a.292.292,0,0,0-.262-.314c-.01-.048-.02-.1-.029-.145.087-.18.173-.361.248-.548a.309.309,0,0,0-.379-.378c-.049.021-.1.04-.15.059a1.048,1.048,0,0,1-.368-.706.114.114,0,0,0-.2-.082,2.91,2.91,0,0,1-.076-.362,1.988,1.988,0,0,1,.724-1.674,4.232,4.232,0,0,1,1.342.005h.138a76.291,76.291,0,0,0,8.662.034c1.977.008,3.954.013,5.93,0,.926-.005,1.853-.012,2.771-.094a2.852,2.852,0,0,1,.459.051,1.431,1.431,0,0,1,.99,1.792,9.17,9.17,0,0,1-.536,1.51.333.333,0,0,0-.132-.427.177.177,0,0,0-.035-.349c-3.063-.247-6.152-.15-9.224-.149s-6.157-.066-9.222.1a.231.231,0,0,0,0,.462c3.065.164,6.153.1,9.222.1,2.93,0,5.875.086,8.8-.121a1.392,1.392,0,0,0-.2.138.369.369,0,0,0-.167.358,7.655,7.655,0,0,0-.74,1.928,9.557,9.557,0,0,0-.544,2.05c-.012.128.174.165.234.063a9.629,9.629,0,0,0,.73-2,14.242,14.242,0,0,0,.447-1.5c.01.044.018.089.032.132a.351.351,0,0,0,.486.193,11.165,11.165,0,0,0-.207,1.978c-.011.4-.011.805-.017,1.206q-.032,2.232-.062,4.463h-1.15c-.026-1.37-.072-2.74-.167-4.1a.061.061,0,0,0-.123,0c-.121,1.362-.2,2.733-.272,4.1H99.334q.02-1.62.033-3.242a.1.1,0,0,0-.207,0c-.036,1.082-.067,2.161-.1,3.242H97.417c-.029-.339-.058-.68-.088-1.017,0-.027-.045-.027-.042,0,.027.339.051.678.076,1.017h-.093q-4.9,0-9.792-.01c0-1.108-.008-2.216-.024-3.323a.063.063,0,0,0,.106-.046c.09-1.352-.043-2.7-.043-4.052a.021.021,0,0,0-.043,0c0,1.337-.128,2.667-.045,4a.08.08,0,0,0-.14.051c-.047,1.121-.081,2.243-.116,3.367l-1.14,0c-.073-1.648-.158-3.3-.265-4.944a.079.079,0,0,0-.157,0c-.057,1.648-.09,3.3-.113,4.944h-.6q-.021-1.592-.042-3.185m-34.378.21c-.016-1.122.028-2.294-.087-3.429A.311.311,0,0,0,50.5,6.4a2.971,2.971,0,0,0,.067-1.713c.2-.1.409-.2.608-.318a.134.134,0,0,0,.048-.19c3.06.162,6.142.1,9.2.1s6.16.1,9.223-.149a.18.18,0,0,0,0-.36c-3.063-.247-6.152-.15-9.223-.149s-6.157-.066-9.223.1a.231.231,0,0,0-.174.374c-.226-.017-.451-.036-.676-.053a4.436,4.436,0,0,0-.2-.42c-.157-.292-.611-.029-.446.26a2.557,2.557,0,0,1,.247.58.225.225,0,0,0-.037.119,6.792,6.792,0,0,1-.583-1.66,1.988,1.988,0,0,1,.725-1.673,4.233,4.233,0,0,1,1.342.005h.136a76.293,76.293,0,0,0,8.662.034c1.977.008,3.955.013,5.932,0,.926-.005,1.852-.012,2.77-.094a2.852,2.852,0,0,1,.459.051,1.431,1.431,0,0,1,.99,1.792,6.579,6.579,0,0,1-.386,1.144.968.968,0,0,0-.5.151c-.022.014-.037.031-.058.047a.2.2,0,0,0-.264.12c-.025.091-.069.181-.091.27a1.463,1.463,0,0,0-.02.3.293.293,0,0,0,.571.081c-.038.123-.074.245-.1.37A10.887,10.887,0,0,0,69.292,7.5c-.013.4-.012.805-.018,1.206q-.03,2.112-.058,4.223c-.386,0-.773,0-1.159,0-.027-1.29-.072-2.58-.161-3.864a.062.062,0,0,0-.124,0c-.113,1.283-.192,2.574-.259,3.864H65.266c0-1.722-.005-3.445-.046-5.166a.083.083,0,0,0-.166,0c-.061,1.721-.088,3.443-.106,5.166H62.827l.015-1.391a.1.1,0,0,0-.2,0q-.024.7-.05,1.391-4.948,0-9.9,0c0-1.821-.027-3.64-.162-5.443a.084.084,0,0,0-.167,0c-.133,1.8-.162,3.622-.156,5.443h-.563c-.071-1.573-.152-3.144-.254-4.715a.079.079,0,0,0-.157,0c-.055,1.572-.088,3.142-.111,4.714h-.6q-.02-1.477-.039-2.956m-16.4,2.952c-.014-1.427-.056-2.851-.137-4.272a.128.128,0,0,0,.138-.054,9.51,9.51,0,0,0,.731-2,7.849,7.849,0,0,0,.5-1.96.253.253,0,0,1,.016.042c0,.083,0,.166,0,.25a.311.311,0,0,0,.366.309.4.4,0,0,0,.13.029c-.013.049-.027.1-.038.148A10.9,10.9,0,0,0,35.572,7.4c-.013.4-.012.805-.018,1.206q-.03,2.157-.059,4.313Zm1.8-8.818a.289.289,0,0,0-.081-.065l.133-.009h0c-.017.025-.037.049-.053.075m-.44-.023c-.016-.006-.032-.009-.05-.014l.077-.006c-.009.007-.019.013-.027.02m-19.1-2.935a4.269,4.269,0,0,1,1.343.005h.137a76.057,76.057,0,0,0,8.662.034c1.977.008,3.954.013,5.931,0,.926-.005,1.852-.011,2.77-.093a2.743,2.743,0,0,1,.459.05,1.35,1.35,0,0,1,1.024,1.4A8.147,8.147,0,0,0,34.494,2.5c-.2.021-.277.319-.05.376a8.232,8.232,0,0,0,2.135.259,6.533,6.533,0,0,1-.226.666.286.286,0,0,0-.252.034.175.175,0,0,0-.172-.175c-3.063-.248-6.152-.151-9.223-.15-2.958,0-5.932-.057-8.888.086-.679-.1-1.37-.143-2.054-.191a3.209,3.209,0,0,1-.148-.6,1.991,1.991,0,0,1,.724-1.674m.419,8.726a23.134,23.134,0,0,0-.246-4.457c.009-.108.022-.216.035-.321a.688.688,0,0,0,.213-.467c.061-.077.122-.155.187-.231l.006,0a.269.269,0,0,0,.157-.4l.2.007a.226.226,0,0,0,.17.083c3.066.163,6.155.1,9.224.1,2.8,0,5.608.079,8.4-.093a.212.212,0,0,0,.01.371c.02.011.037.024.057.037-.006.005-.012.007-.016.013a7.22,7.22,0,0,0-.768,1.976,13.842,13.842,0,0,0-.48,1.637c-.006-.09-.01-.18-.015-.27a.062.062,0,0,0-.124,0c-.149,1.684-.248,3.376-.323,5.072H32.365c0-1.346,0-2.694,0-4.04a.113.113,0,0,0-.226,0c-.031,1.346-.071,2.693-.1,4.04h-.79c.03-2.046.046-4.1-.078-6.134a.067.067,0,0,0-.134,0c-.158,2.036-.177,4.087-.182,6.134-.348,0-.7,0-1.046,0-.013-.278-.025-.555-.043-.832a.107.107,0,0,0-.215,0c-.009.277-.013.554-.019.832H27.438l-7.881.005c-.066-1.456-.155-2.907-.269-4.323a.086.086,0,0,0-.172,0c-.078,1.417-.13,2.867-.157,4.323H17.93c-.071-1.605-.154-3.21-.258-4.813a.079.079,0,0,0-.157,0c-.056,1.6-.089,3.209-.112,4.813h-.6q-.02-1.528-.041-3.056M.912,17.372a27.922,27.922,0,0,0,.364-3.34.224.224,0,0,0-.029-.111c1.621.1,3.246.166,4.876.206.007.53.023,1.058.041,1.583a14.205,14.205,0,0,0-3.681.185.186.186,0,0,0,0,.356,14.177,14.177,0,0,0,3.7.183c.005.224.01.447.01.666v.031c-1.762.054-3.523.126-5.279.241M7.235,38.855q.011-7.361.019-14.721,0-3.517,0-7.034a40.115,40.115,0,0,0-.066-5.656c.426.047.874.024,1.3.034a6.922,6.922,0,0,0,2.541-.1,36.077,36.077,0,0,0-.08,5.4q-.006,3.5,0,7,0,7.54.008,15.08l.009,14.846c0,3.893-.143,7.838.076,11.739l-.76-.005c.625-8.217.242-16.6.229-24.844-.006-4.175,0-8.351-.027-12.526-.023-4.264.122-8.586-.259-12.839a.145.145,0,0,0-.291,0C9.559,19.383,9.7,23.6,9.675,27.76c-.025,4.278-.023,8.559-.029,12.838-.012,8.248-.4,16.624.229,24.841-.366,0-.73,0-1.095-.006.022-1.178-.045-2.366-.051-3.534-.01-1.983,0-3.965,0-5.948q0-5.948-.008-11.9-.011-11.9-.2-23.79a.12.12,0,0,0-.24,0q-.187,11.894-.2,23.79-.006,5.791-.009,11.583c0,1.982.009,3.965,0,5.947,0,1.269-.082,2.563-.054,3.845-.324,0-.646,0-.969,0,.475-8.832.174-17.74.185-26.578M121.108,68.423a5.21,5.21,0,0,1-.762,1.355c-7.654-.428-15.412-.107-23.076-.117q-11.587-.015-23.174-.019c-15.552,0-31.106-.028-46.659,0-8.552.015-17.184-.273-25.725.249-.033-.546-.644-.9-.8-1.445a2.489,2.489,0,0,1,.451-2,.411.411,0,0,0,.048.012c2.218.145,4.445.214,6.678.246.019.193.038.389.066.581a.255.255,0,0,0,.488,0q.04-.287.065-.574c5.4.057,10.821-.113,16.19-.11q11.587.008,23.174.007,23.328,0,46.659-.043,6.575-.006,13.152-.006c4.334,0,8.844.345,13.149-.141a3.664,3.664,0,0,1,.076,2" transform="translate(0 0)"/>
          <path id="Path_9195" data-name="Path 9195" d="M113.983,17.448v.595c1.68-.013,3.359-.053,5.031-.152a.428.428,0,0,0,0-.855c-1.673-.1-3.35-.157-5.031-.194Z" transform="translate(1.464 0.216)"/>
          <path id="Path_9196" data-name="Path 9196" d="M20.437,2.676a86.576,86.576,0,0,0,11.879.036.155.155,0,0,0,0-.31,86.737,86.737,0,0,0-11.879.038.118.118,0,0,0,0,.235" transform="translate(0.261 0.028)"/>
          <path id="Path_9197" data-name="Path 9197" d="M28.535,54.659c-2.163-.322-4.282.332-6.465-.31a6.389,6.389,0,0,1-2.133-1.079.381.381,0,0,0,.059,0,1.984,1.984,0,0,0,.973-.295.147.147,0,0,0-.034-.265,2.123,2.123,0,0,0-1.095,0,.283.283,0,0,0-.206.314,5.655,5.655,0,0,1-1.879-3.888.071.071,0,0,0-.139-.019c-.554,2.11.912,4.134,2.682,5.164a10.68,10.68,0,0,0,8.236.614c.1-.037.131-.213,0-.232" transform="translate(0.225 0.63)"/>
          <path id="Path_9198" data-name="Path 9198" d="M50.14,3.915a.021.021,0,0,0,0-.043.021.021,0,0,0,0,.043" transform="translate(0.644 0.05)"/>
          <path id="Path_9199" data-name="Path 9199" d="M65.607,2.5a86.562,86.562,0,0,0-11.878.037.118.118,0,0,0,0,.236,86.561,86.561,0,0,0,11.878.036.155.155,0,0,0,0-.31" transform="translate(0.689 0.03)"/>
          <path id="Path_9200" data-name="Path 9200" d="M61.827,54.757c-2.163-.322-4.282.332-6.465-.31a5.768,5.768,0,0,1-4.315-5.217.071.071,0,0,0-.139-.019c-.554,2.11.912,4.134,2.682,5.164a10.685,10.685,0,0,0,8.236.614c.1-.037.131-.213,0-.232" transform="translate(0.652 0.631)"/>
          <path id="Path_9201" data-name="Path 9201" d="M66.945,8.63a9.47,9.47,0,0,0,.731-2,7.2,7.2,0,0,0,.5-2.049.085.085,0,0,0-.156-.043,7.276,7.276,0,0,0-.767,1.976,9.511,9.511,0,0,0-.544,2.05c-.011.127.174.165.233.063" transform="translate(0.857 0.058)"/>
          <path id="Path_9202" data-name="Path 9202" d="M107.617,51.257a.119.119,0,0,0,.122,0,.265.265,0,0,0,.121-.243c.018-.235-.381-.235-.363,0a.268.268,0,0,0,.121.243" transform="translate(1.381 0.653)"/>
          <path id="Path_9203" data-name="Path 9203" d="M84.082,3.708a.021.021,0,0,0,0-.043.021.021,0,0,0,0,.043" transform="translate(1.08 0.047)"/>
          <path id="Path_9204" data-name="Path 9204" d="M87.67,2.567A86.752,86.752,0,0,0,99.55,2.6a.155.155,0,0,0,0-.309,86.43,86.43,0,0,0-11.88.036.118.118,0,0,0,0,.235" transform="translate(1.125 0.027)"/>
          <path id="Path_9205" data-name="Path 9205" d="M26.126,43.967c.07-.571.89-1.147,1.266-.486a.877.877,0,0,1,.057.7c-.054.167-.2.431.016.545a.246.246,0,0,0,.25,0,1.2,1.2,0,1,0-1.994-.7c.059.244.379.16.405-.055" transform="translate(0.33 0.548)"/>
          <path id="Path_9206" data-name="Path 9206" d="M22.8,37.014a.911.911,0,0,0-1.605-.037.84.84,0,0,0,.955,1.213.19.19,0,0,0-.049-.372c-.273.01-.531-.343-.3-.564.2-.194.4-.042.467.185.053.191.038.611.373.441.295-.15.282-.613.164-.866" transform="translate(0.271 0.469)"/>
          <path id="Path_9207" data-name="Path 9207" d="M60.06,46.493a.752.752,0,0,1,.483-1.121.611.611,0,0,1,.563.328,1.034,1.034,0,0,1,.082.674.265.265,0,0,0,.49.133c.4-.725-.438-1.625-1.187-1.515a1.118,1.118,0,0,0-.732,1.678c.125.185.423.015.3-.176" transform="translate(0.765 0.578)"/>
          <path id="Path_9208" data-name="Path 9208" d="M56.28,41.308c.1-.053.194-.1.29-.157a.124.124,0,0,0-.1-.225c-.137.026-.272.061-.409.093a.818.818,0,0,0-.8-.232.8.8,0,0,0-.524.627c-1.076.379-2.127.863-3.164,1.28-.235.1-.142.477.106.389,1.03-.363,2.111-.689,3.145-1.1a.847.847,0,0,0,.289.286c.173.1.318-.156.156-.267a.249.249,0,0,1-.093-.166c.171-.072.339-.148.506-.226a.839.839,0,0,1-.022.279c-.032.23.2.52.448.344a.686.686,0,0,0,.171-.926" transform="translate(0.661 0.523)"/>
          <path id="Path_9209" data-name="Path 9209" d="M95.24,50.572a1.208,1.208,0,0,0-.846-1.052,1.24,1.24,0,0,0-1.287.5.845.845,0,0,0-.187.682c.029.119.185.356.341.26.185-.113.216-.343.34-.506a.567.567,0,0,1,.621-.223c.369.162.283.786.154,1.075a.187.187,0,0,0,.209.269.885.885,0,0,0,.655-1.008" transform="translate(1.193 0.635)"/>
          <path id="Path_9210" data-name="Path 9210" d="M32.238,43.2a109.719,109.719,0,0,0-.12-17.057.1.1,0,0,0-.192,0c-.1,4.774.082,9.542-.088,14.318-.082,2.306-.173,4.616-.327,6.92-.165,2.479-.728,5.294-3.168,6.468a.152.152,0,0,0-.144-.132,9.138,9.138,0,0,0-2.3.209c-.252.044-.2.469.062.449a9.132,9.132,0,0,0,2.275-.363.155.155,0,0,0,.087-.073c4.05-1.619,3.726-7.123,3.913-10.738" transform="translate(0.331 0.335)"/>
          <path id="Path_9211" data-name="Path 9211" d="M25.078,53.092a16.961,16.961,0,0,0,3.651-1.629.146.146,0,0,0-.111-.265,16.982,16.982,0,0,0-3.741,1.413c-.271.115-.075.591.2.481" transform="translate(0.318 0.657)"/>
          <path id="Path_9212" data-name="Path 9212" d="M59.941,51.581a30.958,30.958,0,0,0,4.2-1.766.1.1,0,0,0-.075-.175,30.3,30.3,0,0,0-4.222,1.577c-.22.09-.13.453.1.365" transform="translate(0.767 0.637)"/>
          <path id="Path_9213" data-name="Path 9213" d="M98.692,51.1a18.7,18.7,0,0,0-3.415.851.241.241,0,0,0,.129.464,18.6,18.6,0,0,0,3.333-1.14.094.094,0,0,0-.047-.174" transform="translate(1.222 0.656)"/>
          <path id="Path_9214" data-name="Path 9214" d="M52.644,38.511a15.065,15.065,0,0,0,3.1-1.017.124.124,0,0,0-.063-.229,15.053,15.053,0,0,0-3.136.881.189.189,0,0,0,.1.365" transform="translate(0.673 0.479)"/>
          <path id="Path_9215" data-name="Path 9215" d="M52.093,40.59a16.484,16.484,0,0,0,3.374-1.2c.169-.093.044-.309-.121-.287a16.555,16.555,0,0,0-3.372,1.053c-.265.1-.161.515.119.431" transform="translate(0.666 0.502)"/>
          <path id="Path_9216" data-name="Path 9216" d="M52.357,47.588a22.176,22.176,0,0,0,4.745-1.8.124.124,0,0,0-.1-.225,22.274,22.274,0,0,0-4.785,1.706c-.181.084-.053.371.135.318" transform="translate(0.67 0.585)"/>
          <path id="Path_9217" data-name="Path 9217" d="M51.955,49.839a16.183,16.183,0,0,0,3.085-1.361.147.147,0,0,0-.112-.268,15.913,15.913,0,0,0-3.1,1.161c-.282.119-.165.584.13.469" transform="translate(0.664 0.619)"/>
          <path id="Path_9218" data-name="Path 9218" d="M53.208,52.373a17.888,17.888,0,0,0,2.944-1.094c.168-.092.043-.312-.122-.288-.1.014-.2.033-.3.053a1.034,1.034,0,0,0,.148-.816,1.045,1.045,0,0,0-.765-.8.977.977,0,0,0-.891,1.6.2.2,0,0,0,.32-.247c-.132-.26.1-.848.46-.72a.434.434,0,0,1,.241.345c.028.193-.11.346-.089.531a.3.3,0,0,0,.114.207c-.745.191-1.48.482-2.2.722-.316.1-.18.609.139.5" transform="translate(0.679 0.635)"/>
          <path id="Path_9219" data-name="Path 9219" d="M21.542,53.855a3.271,3.271,0,0,0,1.481-.243.167.167,0,0,0-.04-.3,3.316,3.316,0,0,0-1.506.061c-.274.043-.209.5.065.483" transform="translate(0.274 0.684)"/>
          <path id="Path_9220" data-name="Path 9220" d="M85.8,8.808c0-1.211-.165-2.427-.282-3.631-.013-.131-.216-.134-.207,0,.085,1.215.125,2.45.329,3.652.015.092.159.068.159-.021" transform="translate(1.096 0.065)"/>
          <path id="Path_9221" data-name="Path 9221" d="M56.724,5.671c.932-.008,1.865,0,2.8-.04a.042.042,0,0,0,0-.083c-.931-.036-1.864-.03-2.8-.04a.081.081,0,0,0,0,.162" transform="translate(0.728 0.071)"/>
          <path id="Path_9222" data-name="Path 9222" d="M58.241,6.354c.885,0,1.77.006,2.656-.034a.039.039,0,0,0,0-.078c-.885-.041-1.77-.034-2.656-.034a.073.073,0,0,0,0,.147" transform="translate(0.747 0.08)"/>
          <path id="Path_9223" data-name="Path 9223" d="M56.45,7.7a53.836,53.836,0,0,0,6.035-.464c.107-.019.076-.18-.024-.184a53.778,53.778,0,0,0-6.01.348c-.191.015-.193.312,0,.3" transform="translate(0.723 0.09)"/>
          <path id="Path_9224" data-name="Path 9224" d="M62.316,8.936c-1.9-.163-3.821-.082-5.729-.063a.168.168,0,0,0,0,.335c1.907.02,3.826.1,5.729-.062a.105.105,0,0,0,0-.211" transform="translate(0.725 0.113)"/>
          <path id="Path_9225" data-name="Path 9225" d="M90.528,6.437a34.7,34.7,0,0,0,5.059-.051.109.109,0,0,0,0-.209,34.985,34.985,0,0,0-5.059-.051.155.155,0,0,0,0,.31" transform="translate(1.161 0.078)"/>
          <path id="Path_9226" data-name="Path 9226" d="M94.857,7.611a.089.089,0,0,0,0-.177C93.519,7.3,92.149,7.37,90.8,7.365a.157.157,0,0,0,0,.314c1.344,0,2.714.067,4.052-.068" transform="translate(1.164 0.094)"/>
          <path id="Path_9227" data-name="Path 9227" d="M94.71,8.568a.079.079,0,0,0,0-.157,29.176,29.176,0,0,0-3.355-.076.155.155,0,0,0,0,.309,29.641,29.641,0,0,0,3.355-.076" transform="translate(1.171 0.107)"/>
          <path id="Path_9228" data-name="Path 9228" d="M91.772,10.534a39.527,39.527,0,0,0,4.751.329c.178-.005.233-.283.044-.322a40.408,40.408,0,0,0-4.795-.518c-.327-.029-.325.483,0,.51" transform="translate(1.176 0.129)"/>
          <path id="Path_9229" data-name="Path 9229" d="M20.989,6.514c2.236.137,4.469.279,6.709.349.073,0,.071-.107,0-.114-2.234-.2-4.471-.324-6.709-.456-.143-.009-.142.212,0,.221" transform="translate(0.268 0.081)"/>
          <path id="Path_9230" data-name="Path 9230" d="M26.858,8.551c.1-.015.069-.168-.023-.174a38.667,38.667,0,0,0-4.052.1.123.123,0,0,0,0,.246,39.343,39.343,0,0,0,4.076-.174" transform="translate(0.291 0.107)"/>
          <path id="Path_9231" data-name="Path 9231" d="M22.232,9.772a.236.236,0,0,0,0,.472c1.817-.005,3.639.032,5.451-.116a.12.12,0,0,0,0-.24c-1.812-.148-3.634-.11-5.451-.115" transform="translate(0.283 0.125)"/>
          <path id="Path_9232" data-name="Path 9232" d="M62.249,15.9c3.36.5,7,.131,10.392.117C76.4,16,80.151,16,83.906,15.977c7.408-.049,14.813-.068,22.218-.214a.1.1,0,0,0,0-.191c-7.4-.146-14.81-.165-22.218-.214-3.651-.024-7.3-.024-10.953-.04-3.493-.013-7.246-.4-10.7.116a.243.243,0,0,0,0,.465" transform="translate(0.797 0.195)"/>
          <path id="Path_9233" data-name="Path 9233" d="M34.654,15.4a.153.153,0,0,0,0-.3c-7.306-.53-14.692.043-22.011-.159a.312.312,0,0,0,0,.624c7.319-.2,14.705.37,22.011-.16" transform="translate(0.159 0.191)"/>
          <path id="Path_9234" data-name="Path 9234" d="M116.015,15.72c.257-.01.518-.033.775-.053.351-.026.681-.169,1.031-.188a.021.021,0,0,0,0-.042c-.35-.02-.68-.162-1.031-.189-.257-.018-.517-.044-.775-.053a4.713,4.713,0,0,0-1.592.1.168.168,0,0,0,0,.322,4.638,4.638,0,0,0,1.592.1" transform="translate(1.468 0.195)"/>
          <path id="Path_9235" data-name="Path 9235" d="M112.766,25.542c-.012-2.1-.02-4.193-.036-6.289a35.519,35.519,0,0,0-.189-5.7.145.145,0,0,0-.279,0,35.636,35.636,0,0,0-.189,5.7c-.016,2.1-.024,4.192-.036,6.289Q112,31.673,112,37.8c-.014,8.286-.078,16.563.295,24.84a.106.106,0,0,0,.212,0c.373-8.277.309-16.554.295-24.84q-.011-6.132-.035-12.263" transform="translate(1.438 0.173)"/>
          <path id="Path_9236" data-name="Path 9236" d="M110.7,47.758c-.021-5.866.027-11.746-.229-17.608a.135.135,0,0,0-.269,0c-.256,5.862-.208,11.742-.229,17.608q-.015,4.4-.029,8.8c-.01,2.678-.362,5.616.1,8.256a.3.3,0,0,0,.578,0c.466-2.645.113-5.572.1-8.256q-.015-4.4-.03-8.8" transform="translate(1.41 0.385)"/>
          <path id="Path_9237" data-name="Path 9237" d="M120.273,67.833c-7.5-.537-15.118-.2-22.64-.2q-11.161,0-22.324.008-22.324.012-44.649.037L18.082,67.7c-4.255.007-8.661-.3-12.89.178a.153.153,0,0,0,0,.3,103.13,103.13,0,0,0,11.32.176l11.319.017q11.162.018,22.324.028,22.326.011,44.65.021c8.457,0,17.032.4,25.469-.2a.2.2,0,0,0,0-.393" transform="translate(0.065 0.867)"/>
          <path id="Path_9238" data-name="Path 9238" d="M37.248,16.157a43.693,43.693,0,0,0,7.052.192c2.537,0,5.114.1,7.643-.122a.15.15,0,0,0,0-.3c-2.529-.219-5.107-.125-7.643-.121A43.694,43.694,0,0,0,37.248,16a.082.082,0,0,0,0,.156" transform="translate(0.478 0.202)"/>
          <path id="Path_9239" data-name="Path 9239" d="M53.411,23.091a.021.021,0,0,0,0,.043.021.021,0,0,0,0-.043" transform="translate(0.686 0.296)"/>
          <path id="Path_9240" data-name="Path 9240" d="M93.283,20.775a24.529,24.529,0,0,0-2.49,4.861c-.02.074.082.143.136.079A24.622,24.622,0,0,0,93.49,20.9c.068-.138-.134-.259-.208-.122" transform="translate(1.166 0.266)"/>
          <path id="Path_9241" data-name="Path 9241" d="M93.274,22.844c-.7,1.327-1.436,2.64-2.055,4.006a.079.079,0,0,0,.136.079c.774-1.281,1.438-2.633,2.136-3.959.075-.143-.142-.269-.217-.126" transform="translate(1.172 0.292)"/>
          <path id="Path_9242" data-name="Path 9242" d="M92.116,35.952l.419-.419a.005.005,0,1,0-.007-.007c-.139.14-.279.279-.419.419,0,0,0,.011.007.007" transform="translate(1.183 0.456)"/>
          <path id="Path_9243" data-name="Path 9243" d="M94.533,32.571a55.047,55.047,0,0,0-3.369,6.1c-.052.127.139.184.207.087a54.825,54.825,0,0,0,3.354-6.08c.066-.125-.122-.235-.191-.11" transform="translate(1.171 0.418)"/>
          <path id="Path_9244" data-name="Path 9244" d="M94.612,34.89A16.953,16.953,0,0,0,91.62,39.5c-.027.073.077.127.128.074a16.919,16.919,0,0,0,2.9-4.657c.008-.018-.015-.042-.031-.023" transform="translate(1.177 0.448)"/>
          <path id="Path_9245" data-name="Path 9245" d="M94.008,40.092q-.53,1.045-1.043,2.1c-.008.017.016.031.025.015.351-.7.692-1.4,1.031-2.106,0-.008-.009-.016-.013-.007" transform="translate(1.194 0.515)"/>
          <path id="Path_9246" data-name="Path 9246" d="M54.359,22.648c1.279-1.025,2.528-2.069,3.7-3.214.053-.051-.017-.148-.08-.1-1.347.956-2.608,2-3.856,3.084-.163.141.071.364.233.233" transform="translate(0.694 0.248)"/>
          <path id="Path_9247" data-name="Path 9247" d="M55.567,22.392c.906-.772,1.811-1.539,2.654-2.38.059-.058-.02-.171-.093-.12-.971.708-1.877,1.489-2.79,2.27-.159.136.072.365.23.23" transform="translate(0.71 0.255)"/>
          <path id="Path_9248" data-name="Path 9248" d="M57.767,29.278c-.829.563-1.594,1.215-2.371,1.845-.145.119.062.324.2.2.762-.631,1.545-1.247,2.251-1.942.055-.053-.018-.153-.084-.108" transform="translate(0.711 0.376)"/>
          <path id="Path_9249" data-name="Path 9249" d="M57.02,31.975c.709-.5,1.414-.992,2.076-1.55.084-.073-.024-.2-.116-.152-.741.425-1.435.913-2.136,1.4-.182.128-.008.431.176.3" transform="translate(0.729 0.389)"/>
          <path id="Path_9250" data-name="Path 9250" d="M25.888,19.281a15.471,15.471,0,0,0-2.357,1.436c-.171.111-.015.385.161.275A15.44,15.44,0,0,0,26,19.466c.078-.071,0-.229-.107-.185" transform="translate(0.301 0.247)"/>
          <path id="Path_9251" data-name="Path 9251" d="M25.639,21.765a22.451,22.451,0,0,0-1.92,1.2c-.157.1-.009.36.149.254a22.638,22.638,0,0,0,1.885-1.309c.085-.07-.023-.193-.113-.147" transform="translate(0.304 0.279)"/>
        </g>
      </g>
    </g>
  </g>
</svg>
